/* XPM */
static char *result[] = {
/* columns rows colors chars-per-pixel */
"64 64 225 2 ",
"   c black",
".  c #0F091D",
"X  c #120D27",
"o  c #141326",
"O  c #191325",
"+  c #171528",
"@  c #1A1729",
"#  c #1B192A",
"$  c #231B2B",
"%  c #291C29",
"&  c #261C32",
"*  c #28212F",
"=  c #2B2336",
"-  c #342A39",
";  c #38323E",
":  c #51310E",
">  c #472B12",
",  c #563517",
"<  c #5C3B1C",
"1  c #623E0D",
"2  c #623C18",
"3  c #5D3E25",
"4  c #613D22",
"5  c #5F411C",
"6  c #6C470D",
"7  c #69471B",
"8  c #724C19",
"9  c #7A5619",
"0  c #644324",
"q  c #6C4B24",
"w  c #654528",
"e  c #6C4B2B",
"r  c #714D25",
"t  c #724F2A",
"y  c #6E5129",
"u  c #755224",
"i  c #7A5623",
"p  c #7D5A25",
"a  c #75532C",
"s  c #79562C",
"d  c #765A2D",
"f  c #7C5A2C",
"g  c #714F34",
"h  c #775733",
"j  c #765931",
"k  c #7C5C33",
"l  c #7E6136",
"z  c #3B3545",
"x  c #453A47",
"c  c #514C57",
"v  c #656A6F",
"b  c #717577",
"n  c #767A7A",
"m  c #797C7C",
"M  c #815A1E",
"N  c #835D24",
"B  c #825D2C",
"V  c #825E32",
"C  c #86612D",
"Z  c #896528",
"A  c #8B662C",
"S  c #916722",
"D  c #936E2C",
"F  c #96702C",
"G  c #846233",
"H  c #8A6533",
"J  c #8D6933",
"K  c #82623C",
"L  c #896539",
"P  c #8E6B3B",
"I  c #926D34",
"U  c #946939",
"Y  c #926D3B",
"T  c #957235",
"R  c #9A7434",
"E  c #9F7934",
"W  c #95713C",
"Q  c #9A753C",
"!  c #9C793D",
"~  c #A47B38",
"^  c #A27C3C",
"/  c #8C6B41",
"(  c #926E42",
")  c #967343",
"_  c #9A7544",
"`  c #9E7A44",
"'  c #9B764A",
"]  c #9E7A4A",
"[  c #9D7A52",
"{  c #A27D44",
"}  c #A37E4B",
"|  c #A57E55",
" . c #7F807F",
".. c #A6813B",
"X. c #AA853E",
"o. c #A58143",
"O. c #AB8543",
"+. c #AD8944",
"@. c #A5814B",
"#. c #AA854C",
"$. c #AE8A4D",
"%. c #B28C46",
"&. c #B48D4A",
"*. c #B98D4B",
"=. c #B69347",
"-. c #B5914C",
";. c #BA934D",
":. c #AA8653",
">. c #A88455",
",. c #AD8A54",
"<. c #B18D53",
"1. c #B68A57",
"2. c #B28D5A",
"3. c #B69255",
"4. c #BB9453",
"5. c #BE9953",
"6. c #B6925B",
"7. c #BA955C",
"8. c #BD9A5B",
"9. c #B48E63",
"0. c #BA9663",
"q. c #BD9A62",
"w. c #BA9769",
"e. c #C39C56",
"r. c #C49A5A",
"t. c #C39D5B",
"y. c #C6A15B",
"u. c #C8A258",
"i. c #CAA45D",
"p. c #D2A25F",
"a. c #C29D64",
"s. c #C19E69",
"d. c #C4A164",
"f. c #CBA662",
"g. c #C6A862",
"h. c #CEA963",
"j. c #C4A26C",
"k. c #C9A56C",
"l. c #CDAA6C",
"z. c #D0A661",
"x. c #D2AC65",
"c. c #D2AD6A",
"v. c #D5B16B",
"b. c #D7B46B",
"n. c #DAB46D",
"m. c #CAA573",
"M. c #CBAC76",
"N. c #D3AE73",
"B. c #CDB375",
"V. c #D5B473",
"C. c #DBB672",
"Z. c #DDBA73",
"A. c #D7B77A",
"S. c #D3B37C",
"D. c #DCBD7B",
"F. c #E1BC75",
"G. c #E2BE7A",
"H. c #DFC17C",
"J. c #E3C27C",
"K. c #E9C57D",
"L. c #7F8080",
"P. c #828683",
"I. c #838985",
"U. c #878E89",
"Y. c #888F8B",
"T. c #87908A",
"R. c #89938C",
"E. c #8E9691",
"W. c #8E9A92",
"Q. c #929E95",
"!. c #949E98",
"~. c #93A197",
"^. c #95A399",
"/. c #9AA39C",
"(. c #9BA99F",
"). c #9BA7A0",
"_. c #9DADA2",
"`. c #9FB1A5",
"'. c #A0A8A2",
"]. c #A5B6A9",
"[. c #D7B783",
"{. c #DCBB85",
"}. c #DDBD89",
"|. c #E2BE89",
" X c #B4C7B8",
".X c #B6CBBB",
"XX c #B6CCBB",
"oX c #DEC285",
"OX c #DACA92",
"+X c #E4C482",
"@X c #E9C582",
"#X c #E6C985",
"$X c #EBCB85",
"%X c #E3C18C",
"&X c #E5C98C",
"*X c #ECCD8B",
"=X c #F1CC84",
"-X c #F1CD8B",
";X c #EED18B",
":X c #F3D48D",
">X c #F6D48C",
",X c #E7C795",
"<X c #E9CA95",
"1X c #F4CE90",
"2X c #EED492",
"3X c #EED59A",
"4X c #F3D593",
"5X c #F8D695",
"6X c #F5D995",
"7X c #F9DB94",
"8X c #F4D69B",
"9X c #F6DB9A",
"0X c #FADD9B",
"qX c #F6E099",
"wX c #FCE19D",
"eX c #ECCFA3",
"rX c #F7DDA0",
"tX c #FADEA1",
"yX c #FCE4A3",
"uX c #FCE8A3",
"iX c #FCE5A9",
"pX c #FDE9AC",
"aX c #FCF3B8",
"sX c #BFD5C3",
"dX c #E9ECD2",
/* pixels */
"x z                                   . z c         l.4.4.~ <.                    & z - = X                                 + & ",
"* P.L.T.U.U.T.U.U.Y.U.U.U.U.U.U.Y.Y.U.U.b - b j.S.#.aXyXtX0X0X~ o.r.&.1.U.U.Y.R.T.P.  o L.m U.Y.U.Y.U.Y.Y.U.U.Y.U.U.U.U.U.U.T.  ",
"@ ].Y.P.P.I.P.I.P.I.P.P.I.I.&.^ E { r.0X6XwX8X9XtX9XrX8X0X6X6X5X6X6X9X8X8X9X0XwX6XwX0.^ 4.*.5.p.P.P.P.I.P.P.P.I.I.I.P.P.P.P.R.  ",
"$ /.I.P.P.P.P.P.P.P.I.! Q ^ 0X6X8X0X5X4X9X<X9X2X4X4X4X8X5X9X9X<X5X4X4X4X:X6X5X4X0X<X-X-X4X1X5X&Xo.3.I.P.P.P.P.P.P.P.P.P.P.U.T.  ",
"$ /.P.P.P.P.P.P.P.P.9 rXwXtX9X8X0X5X9X7XaXpXiX0X4X4X8X6X9X5X0X5X-X>X>X=X:X:X-X*X-X4XD.@XG.|.Z.n.v.#.P.P.P.I.P.P.P.P.P.P.P.P.R.  ",
"# /.I.P.I.P.P.P.P.I.P 4X4X2X#X4X0XyXiXiXiX*X*X*X*X6X4XiXpXpXuXwX8XyXtX0X5XyX0XF.h.,.c.c.1.5.c.F.Z.I P.P.P.P.P.P.P.P.P.P.P.P.T.  ",
"+ /.P.P.P.P.P.P.P.I.C 6X4X#X{.G.@XA.8X8XpXiXiXyXtXtXyX4X9X5X4X<X5X:X8XK.n.Z.f.Z.Z.2.iXuXpXX.E o.J.J P.P.P.P.P.P.P.P.P.P.I.P.R.  ",
"+ /.P.P.I.P.P.P.P.P.a 6X8XC #.#.` A 1 8 8 N ,.#.<X2X2X4X0X5XtXyX4Xx.@X4.7 } B Q ..:.5X*X2XiXiXyXqXW a.Q P.P.I.P.I.P.P.P.P.I.R.  ",
"o /.P.P.P.P.P.I.P.P.u 9X6Xi.<.S I 0.0.a.0.&.8 ,.6.{ 7.Q Z 4.8XtXtXt.,.+X2.` I 4.J 2 2X4X:XiXpXiX<X4Xz.: a I.I.P.P.P.P.P.I.P.R.  ",
"+ /.P.P.I.P.P.P.P.P.a 6X9XF.3.V.7.V.a.7.#.J &.6.B } #.^ #.T o.0X5X;.V B 2.Q k.,.k ;XJ.-X#XK.:XwXiXpXyXv.q w L.P.P.P.P.P.P.P.R.  ",
"o /.P.P.I.P.P.P.P.P.a 7X9Xn.;.:.h.( 7.r @.` W :.r s.U <.: } V 0X$X<.k 0.2.@.6.$.j 5X2X2XK.$X#XK.F.wX=Xc.q 5 P.P.P.P.P.P.I.P.R.  ",
"o /.P.P.I.P.P.P.P.P.l 0XwXF.x.x.Z.,.A ,.j.3.p 2.r k.Q Q #.7.Y 0X*X4.s { #.` j.}.d 6X4X0XpXpXwXaXC.9Xv.f.k j I.I.P.P.P.P.P.P.R.  ",
"+ /.I.P.I.P.P.P.P.P.s 8XyX-.%.v.E *.c.Q Z Q a.m.s ( I q.,.I ) 0X@X*.s C d.I ,.J a wX$X6X:X7X=X:X5.6Xe.Z.h , L.L.P.P.P.P.P.P.R.  ",
"+ /.P.P.P.P.P.P.P.P.s 2X9XZ.n.Z...i.p r f s B _ H @.i Y I B Y yX&X&.a N :.` o.6.K 6X;X6X;X6X7X>X4.4Xv.i.0 < I.I.P.P.P.P.I.P.T.  ",
"@ /.P.P.P.P.P.P.P.P.V 6XqXZ.;.+.,.{ <.7 Q A x.f.5.r.i.#._ ` Y wX@Xe.s V 9 ] Q @.d 4X4X;X$X:X:XK.4.4Xx.e.q w I.P.P.P.P.P.P.P.R.  ",
"+ /.P.P.I.P.P.P.P.P.) 0X;Xx.3.J S 4.N.E F.F.J.O.>XK.5.f.=Xt.,.iX-Xi.s 2.m.&.) 0.q qX:X;X$X;XqX>Xf.6XF.=.l j P.P.P.P.P.P.P.U.R.  ",
"o /.P.P.P.P.P.P.P.P.q ;X0XJ.Q 9XyXiXpX9X9XiXiX5.c.h.x.h.Z.C.J tX$Xc.k d.R ,.! T d qX:X;X>X6X6X>Xz.0Xv.=Xk 0 P.P.P.P.P.P.P.P.T.  ",
"+ /.P.P.P.P.P.P.P.I.a 6X9Xi.W H P i *X#X*X&X4XiX0XtX0X2X#XZ.! tXG.5.s $.t.3.#.y y qX;X>X>X6X:X>X;.6Xe.i.g e I.P.P.P.P.P.I.P.R.  ",
"% ).P.P.P.P.P.P.P.L.e *X9Xh.i.7.7.r H Y Y I V @X*X|.$X:XyXiXQ yXD.i.t y.` o.i L d wX>X6X6X:X>X>X*.0Xv.i.r a P.P.P.P.P.P.P.I.U.  ",
"  P.L.^.Q.Q.Q.Q.~.~.8 ;X9X%.v.{ T M.#.U q.' 2.` } N [ : <.<X0.yX@X;.r $.m.] H 1 l qX;X>X6X6X>XqX%.0Xi.i.0 f ~.^.!.~.W.W.W.Q.!.  ",
"- P.P.sXXXXXXXXXXX.Xq 4XwXi.n.$.3.0.B j.H U I {.u q.8 8 ,.:.Y uXZ.;.t p l.2.Y I y qX:XqX:X:X:X:X&.6XF.&.< r  X X.X.X X X X XsX  ",
"-                   q :X6Xv.t.i.v.! P Q ,.` } A.G ] @.! | Y V wX@X4.h V o.@.o.8.j wX=X7X:X:X>X>X;.7Xh.Q q i                   & ",
"; Y.P.E.R.R.E.E.W.E.d 7X9Xh.i.h.;.^ { ` Q ` #.A P ,.2.,._ <.L 0XF.r.s k.T T { @.l 6X6X$X:X:X6X>X;.6XF.J V B E.R.E.E.E.E.E.E.).  ",
"z !.I.I.I.P.U.U.I.I.7 4X2Xx.h.u.h.~ #.9 7.Y 9.o.) %XH a.3.k.V wX@Xr.s 0.! ! 5.7.a :X:X7X:X:X:X>Xe.:Xe.' U t I.I.I.U.I.I.I.I.Q.  ",
"$ /.I.P.P.P.P.I.P.P.q 4X9XZ.J.Z.h.%.t.^ &X6.Y >.} ( C 8 { 2.s uX@X;.t 2.B 7.o.2.d 6X:X:X$X7X:X>Xz.6Xt.Q 2., P.P.P.P.P.P.P.I.R.  ",
"$ !.P.I.P.P.P.P.P.P.a 5X:Xe.h.6X=.{ I C.F.v.c.n.e.&.t.%.e.e.U wX@Xi.t L ` { I q.d 7X6X:X7X$X:X6Xe.5Xn.I W : P.P.P.P.P.P.P.P.T.  ",
"$ /.I.P.P.P.P.P.P.P.q :X2XJ.T iXaXaXpX#XG.n.G.Z.v.x.c.e.Z.;.Q wX-Xr.V A O.I &.6.L wX$X:X;X;X>X>Xe.7Xx.Y 1.w P.P.P.P.P.P.P.P.R.  ",
"O '.I.P.P.P.P.P.P.P.a 1X;Xb.H #X*X9X*XwX9XiXtX9XG.F.F.e.c.c.I iXZ.e.q U Y x.4.^ d qX;X;X$X;X:X>X+.6XG.} { , P.P.P.P.P.P.P.U.R.  ",
"+ /.P.P.P.P.P.P.P.P.r >X5XE O.I { 7.*X+X*X-X5X0X9X4XyXn.Z.F.R 0XG.t.r #.A { #.p u 6X6X6X$X;X:X>XO.7Xc.B H , P.P.P.P.P.P.P.P.R.  ",
"+ /.P.P.P.P.P.P.P.P.r 5X6XZ.x.C.t.d.} I 0.} P 4X6XoX&XiXuX3Xe.wX-Xz.a :.2.` J ` d >X:X$X7X7X:X:Xe.6X;.<.:., P.P.P.P.P.P.P.P.T.  ",
"+ /.P.P.I.P.P.P.P.P.q 4X0XX.-.R %.Z k.k.A >.H Q p >.#.4X&X8X@.qX@X*.V | r Q ! } 5 :XK.>X:X>X:X:X&.7Xp.@.W 3 P.P.P.P.P.P.P.P.R.  ",
"o /.P.P.I.P.P.P.P.P.a 9X8Xx.5.-.6 ;.J :.Y A t.` Y ,X2.@X8 q.k uX-Xi.V |.1 V 7 Q d wXqX7X;X:X;X:Xe.7Xn.G Q 0 P.P.P.P.P.P.I.P.R.  ",
"@ /.P.P.I.P.P.P.P.P.l *XqXX.h.i.+.A M.O.! #.] 9 s #.B Y 6.H H yX$Xb.s L H N U a d 6X4X7X7X;X>X>X..6Xe.o.{ e P.P.P.P.P.P.P.P.T.  ",
"+ /.P.P.I.P.P.P.P.P.q :X6X5.Z.i.D i._ ,.,.3.P A f 2./ ) H ) G 0XF.;.V B } L { V l 6X$X;X:X;X>X>X..6Xi.C Q 4 P.P.P.P.P.P.P.I.R.  ",
"o ^.P.P.I.P.P.P.P.P.q 7X6Xi.$Xi.-.v.J >.2.C ) 6 H ` Y Q C 2./ wXG.t.s <.3.a.{ 2.G qX:X>X7X>X6X7X;.6Xu.) a.< P.P.P.P.P.P.P.P.T.  ",
"@ /.P.P.P.P.P.P.P.P.y $X6XF h.v.C.H y.D ~ b.i.b.v.%.$.9 4.~ k yX*Xr.a |.6.Y m.Y y qX6X;X:XK.:X6X+.6Xu.u s.3 P.P.P.P.P.P.P.U.R.  ",
"+ /.I.P.I.P.P.P.P.P.h 4X6Xy.p ,.*.h.V.@XZ.x.H.K.;.5.C.*.i.e.L wXC.4.s 8 B } 3.u d qX:X:X;X;X>X>Xe.6Xx.V } , P.P.P.P.P.P.P.P.T.  ",
"+ /.P.P.P.P.P.P.P.P.e #X9Xh.+.9X2X2XyXC.J.#XK.b.i.n.c.t.i.h.G 0XN.t.V N.Q 9 I ' l qX6X$X:X:X>XqX5.;XF.( #.< P.P.P.P.P.P.I.P.R.  ",
"o /.P.P.P.P.P.P.P.P.a 4X2Xh._ 6X2X4X4X9X6XqXpX#XwX7X9Xx.u.x.Y tX#XX.a c.4.D I k.5 6X>XqX:X>X6X>X%.6Xf.V >.: I.I.P.P.P.P.I.P.R.  ",
"% /.P.I.P.U.P.P.P.I.7 0X6Xy.$X6.) i V T J u K.J.J.v.J.OXV.F.U tX*X;.r Q G.f w.| 7 qX7X6XK.:XK.>Xy.;XC.` < 3 L.I.P.P.P.P.P.Y.T.  ",
"$ !.U.L.L.L.L.L.L.P.7 +X9Xu.y.6 { s.` j.Y p G @.' G } -X4X$XB 0X5X;.a ` ' >.p l.0 2X;X6X;X>X7X>X^ 4X;.$.3 3 L.L.P.P.L.L.U.U.Q.  ",
"X P.L.].].`.`._.(._.0 #X6Xh.H.5.T { { a.} m.Y ' V ) | >.L B s 9X#Xt.e p ` H A C j 6X;X:X;X:X:X:X-.6XJ.+.w w _.)._._.].`.].]..X  ",
"z .                 q 4X;X5.i.e.k.l.$.d.` @.J 5.V U ! ,.2._ s yX+X*.t f s 8.G ` d 2X:X:X;X:X;X>X;.6Xh.h.w 3 .     .           # ",
"; [ L.L.P.L.P.L. . .k 9X6X4.y.x.n.O.,.$.O.t.6.7.k _ M.M.M.k.( 5X+X4.s T C T P G d qX:X6X>X>X;X>Xt.6X5.h.e 5 >. .[ L.L.L.P.L.L.z ",
"$ L.L.I.P.I.I.I.I.I.: 6X6X%.e.n.c.G.2.Y J -.6.q.[ J M.s _ W C yX4X*.f 3.' ` ,.q.j wX:X:X;X$XqX$Xe.6Xi.G.3 > I.I.I.I.I.I.U.U.U.  ",
"& ).I.I.P.P.P.I.P.I.s 4X2Xe.t.5.b.5.l.f.:.I C =.#.*.D.] J V f wXG.e.a 6.` I i @.k 6X:X5X:X:X>X>X%.4Xv.&.0 4 I.I.P.P.I.I.L.U.E.  ",
"$ !.I.P.P.P.P.P.P.P.d :X2Xc.Z.i...7.V.Q 5.e.i.v.;.f.^ O.r.T d qX@Xt.q :.2.W >.) j 6X;X;X>X:X:X7X%.6Xn.F.w : P.P.P.P.P.P.I.I.T.  ",
"$ /.P.P.P.P.I.P.P.I.5 4X8Xx.D T ^ F.i.i.J.J.:Xh.v.K.l.C.i.i.L 6X*Xc.r j.Y #.6.( d 6X6X;X;X;X:X;X-.6XF X.e > P.P.P.P.P.P.P.L.E.  ",
"$ /.P.L.L.I.I.P.P.P.q 6XuX#XR J.;X:X:XZ.$X-XV.b.e.Z.i.Z.Z.i.f wX0XD a k.M 7.,.|.u 6X;X:X>X6X$X;X-.6X-.R w > P.P.P.P.P.P.P.P.T.  ",
"@ /.I.I.P.P.P.P.P.P.y 2X5XwX$XuXyXwX#X$XJ.$XJ.h.;XK.x.b.i.i.H :X:X;.V Z 5.7.} c.7 K.K.J.qX;X>X>X+.6Xi.i.e > P.P.P.P.P.P.P.P.R.  ",
"+ /.L.I.I.P.P.P.P.P.l ;X:X4X$X6X9X6XiXuX8X3XqXpX4X$X$XJ.i.f.7.9X-X5.q Q 8 e.! 4.7 W 6X6Xb.;X$X5X+.6X%.X.w > P.P.P.P.P.P.I.P.R.  ",
"+ ).P.P.I.I.P.P.P.P.5 H.g.4X:X;XJ.6X;X6X#X6X9X9X9XyXyXJ.v.g.O.v.+Xf.{ 5.<.C.| { S.,.` F.wXK.6X5X-.6Xx.u.0 > P.P.P.P.P.P.I.P.R.  ",
"+ /.P.P.P.P.P.P.L.L.y J.H.;XH.7X*X$X9X#X;X+X#XqXJ.H.yXyXyX$XZ wX0X%.c.4.R 2.r._ O.g.2 @XwX:XF.b.u.7XZ.6 0 > P.P.P.P.P.P.P.P.T.  ",
"o /.P.P.I.P.P.P.L.>.< x.6XK.#X*X#X*X+Xl.;XK.;X*XB.;X6X6X:X6X;X6X0Xr.t.O.4.6.7.S.5.J ( / <.;X5Xi.-.6Xy.+.g > P.P.P.P.P.P.P.P.R.  ",
"o /.I.P.I.P.P.P.L.L.P.l.q.Q A #.v.b.v.4X;XH.+Xv.H.*XV.uXA.2XH.V.:XO.t.h.#.t.k.I ^ <.i 0.P ,.9X4X5.6XE h.K > P.P.P.P.P.P.P.P.R.  ",
"+ /.P.P.P.P.P.P.L.L.P.E -.x.=Xu.S.@.T e.C.J.#XuXv.4X6XD.+X$XH.wXJ.4.G...d.N.D.w.' B ' { p @.] Z.H.6X&.-.q > P.P.P.P.P.P.I.I.R.  ",
"# `. .R.W. .W.L.L.L.L.>.o.w.B.D X.b.b.q.J W +.e.f.i.$XD.-X#X*XD.5XC.f.^ e.-.s o.,.` Q 9 s A.J T D.#Xc.+.e , P.P.P.P.P.P.I.P.R.  ",
"# `. . . . . .L.L.L._.L.l @.l o.i.5.F H.i.` k.a.k.J C.-.h.&.4.D.5X&.@Xd.0.Q T <.$.2.B ,.,Xs.{.|.o.F.y.@.k V P.I.P.P.P.P.P.P.T.  ",
"# _. . . . .W. .L.L.L.L.L.pX=.3.P l ..=...b.F.h.F.b.8.Q H >.H Q ,.e.^ 4.c.O.G.s./ ' M.M.<XS.8X[.] f f P }.[.}.L.P.P.I.P.U.P.R.  ",
"o ^.R. . .W.L.L.^.L.L.L.L.L.L.L.H.oXo.l y 9 T ) i.X.i.x.o.G.&.N o.` Z t.y.3./ G [.OXs.j.}.[.j.,XrX%X[.eXoX}.<XeXP.P.P.P.P.P.T.  ",
"o ^. . .L.L.L.L.L.L.L.L.L.L.R.L.L.L.L.L.<XM.7 2.' @., u.C.t.z.%.$.t.I k./ a %XS.%X<Xj.>.,X,Xw.w.[.M.eX<X[.}.S.P.P.P.P.P.P.P.T.  ",
"* ^. . . . .W. .L.L.L.L.R.L.L.L.L.L.L.R. .z oX%X{.{.rXQ V ,.C.a.n.o.#.@.[.,X,X%X}.,X[.S.}.oX<X[.}.,X<XS.oXA.P.I.P.P.P.P.P. .U.  ",
".  . .].L._.`.L.].`.L._._.L.`.^.~.~.W.W.v o L.L.`.~.^.B.S.{./ :.h { { ,XS.m.[.6./.P.    |.m.[.[.}.%X,X^.^.~.^.^.^.^.Q.^.Q.^.^.  ",
"*  . . . . . . . . . . . . . . .b  . .L.c ; m b m n n n n n |.S.D.D.eXdXn m n b m n   = m n oX}.M.n n n n m n m n n m n n n L.= "
};
