/* XPM */
static char *result[] = {
/* columns rows colors chars-per-pixel */
"64 64 211 2 ",
"   c black",
".  c #0B071C",
"X  c #0D0824",
"o  c #141326",
"O  c #191325",
"+  c #171528",
"@  c #1A1729",
"#  c #1B192A",
"$  c #221B2B",
"%  c #291B29",
"&  c #261C32",
"*  c #242332",
"=  c #2C2436",
"-  c #2E253A",
";  c #2D2D3A",
":  c #312B39",
">  c #392C39",
",  c #2F303C",
"<  c #32323D",
"1  c #39313E",
"2  c #7A2F07",
"3  c #7B390A",
"4  c #6F3819",
"5  c #77471A",
"6  c #353143",
"7  c #3C3444",
"8  c #3E3D4C",
"9  c #443945",
"0  c #545661",
"q  c #686F72",
"w  c #717476",
"e  c #737779",
"r  c #767A7A",
"t  c #7A7D7C",
"y  c #8B3D05",
"u  c #933D0C",
"i  c #89470B",
"p  c #984607",
"a  c #995706",
"s  c #894215",
"d  c #994412",
"f  c #9D5313",
"g  c #A24F0C",
"h  c #A75709",
"j  c #AE5611",
"k  c #A85517",
"l  c #9B6B0E",
"z  c #AB640B",
"x  c #B3640D",
"c  c #B86809",
"v  c #BF740C",
"b  c #A86D19",
"n  c #B86915",
"m  c #BA7317",
"M  c #946731",
"N  c #A7732A",
"B  c #B87427",
"V  c #AA713C",
"C  c #C46A0B",
"Z  c #C77805",
"A  c #CB7B0D",
"S  c #D17E07",
"D  c #C97414",
"F  c #C87717",
"G  c #C67817",
"H  c #7F807F",
"J  c #B98C2E",
"K  c #CE8305",
"L  c #CC830B",
"P  c #C8860B",
"I  c #DD8C05",
"U  c #D4840A",
"Y  c #D88708",
"T  c #D8850A",
"R  c #D3890A",
"E  c #DC9306",
"W  c #DE910D",
"Q  c #CE8917",
"!  c #D38513",
"~  c #DC8B13",
"^  c #D58518",
"/  c #DC9214",
"(  c #DA9D1E",
")  c #E08E07",
"_  c #E28F0B",
"`  c #E29307",
"'  c #EA9906",
"]  c #E4940B",
"[  c #E59B0E",
"{  c #EB9C0D",
"}  c #E28D14",
"|  c #E49313",
" . c #EA9612",
".. c #E59C12",
"X. c #EA9E12",
"o. c #EC991B",
"O. c #F19F17",
"+. c #E6A30F",
"@. c #ECA215",
"#. c #EDA319",
"$. c #F4AA16",
"%. c #F1A519",
"&. c #F3AB1D",
"*. c #EBB115",
"=. c #F5B31B",
"-. c #F8B719",
";. c #F5BC1C",
":. c #D98A28",
">. c #D89622",
",. c #C88B32",
"<. c #DFA521",
"1. c #D7A63D",
"2. c #E6A524",
"3. c #EFAC2E",
"4. c #ECB728",
"5. c #F0B523",
"6. c #F7BB26",
"7. c #FCC61E",
"8. c #F4C625",
"9. c #FAC424",
"0. c #F7C62E",
"q. c #FBC32B",
"w. c #F6CA2B",
"e. c #FBCA2C",
"r. c #FCD12D",
"t. c #FBC531",
"y. c #F6CB33",
"u. c #FCCB33",
"i. c #F7C83A",
"p. c #FDCE3B",
"a. c #FCD134",
"s. c #FED33C",
"d. c #FFDA3E",
"f. c #BA8C40",
"g. c #C49F5A",
"h. c #DBB457",
"j. c #EEAF4B",
"k. c #E6BB4B",
"l. c #E2B957",
"z. c #D3A765",
"x. c #F8CB48",
"c. c #FDD342",
"v. c #FCD44C",
"b. c #F8DA4B",
"n. c #F4CC58",
"m. c #F6D855",
"M. c #FCDC56",
"N. c #FCD659",
"B. c #FDDE59",
"V. c #FBE154",
"C. c #F0E059",
"Z. c #FEE25C",
"A. c #DFC67A",
"S. c #F4CD6A",
"D. c #FCDC63",
"F. c #F9DA67",
"G. c #FCDD73",
"H. c #F6D978",
"J. c #FEE362",
"K. c #FAE369",
"L. c #FDE272",
"P. c #F7E579",
"I. c #FCE27C",
"U. c #7F8080",
"Y. c #828683",
"T. c #838985",
"R. c #868D89",
"E. c #888F8A",
"W. c #87908A",
"Q. c #8B938D",
"!. c #8E9690",
"~. c #8E9A92",
"^. c #909591",
"/. c #929E95",
"(. c #949E98",
"). c #93A197",
"_. c #94A399",
"`. c #9AA39C",
"'. c #9AA99F",
"]. c #9BA7A0",
"[. c #9DADA1",
"{. c #9FB1A5",
"}. c #A0A8A2",
"|. c #A1B3A5",
" X c #A8B9AC",
".X c #AFC3B4",
"XX c #B1C4B6",
"oX c #B2C7B8",
"OX c #B5CBBB",
"+X c #B9CDBC",
"@X c #BBD0BE",
"#X c #FBDD84",
"$X c #EDD895",
"%X c #FCE484",
"&X c #FAE886",
"*X c #FBE98A",
"=X c #FAE496",
"-X c #FBE993",
";X c #FDEB9B",
":X c #E2D6A6",
">X c #FCE6A5",
",X c #FDF2A4",
"<X c #FDF1AB",
"1X c #FEEEB2",
"2X c #FFF0B5",
"3X c #BDD4C1",
"4X c #BDDBC5",
"5X c #C1DBC7",
"6X c #C4E2CA",
"7X c #CAE1CF",
"8X c #CBE9D3",
/* pixels */
"9 6                                   # 8 0             o                         * 8 , * o                                 + & ",
"* Y.H Q.R.R.E.R.R.R.R.R.R.R.R.R.W.W._.H H ; H H ).~.W.~.U.'.).U.W.).U.).~.~.W./.).U.  o H H W.W.W.W.E.E.W.R.E.R.W.R.E.R.R.R.Q.  ",
"O  XE.Y.Y.T.T.Y.T.Y.T.Y.T.T.T.Y.H W.W.W.H * H H U.W.H U.U.U.U.U.U.~.H U.H H H H U.8X    '.Y.Y.Y.Y.Y.Y.T.T.Y.Y.Y.T.Y.Y.Y.T.U.Q.  ",
"$ `.T.Y.Y.Y.Y.Y.Y.Y.Y.Y.Y.Y.Y.Y.H W.H H H # H H U.U.H W.U.U.{.U.U.U.H U.U.W.H W.H 8X    Q.Y.Y.T.Y.Y.Y.Y.Y.Y.Y.Y.Y.Y.Y.Y.Y.T.Q.  ",
"$ `.Y.T.Y.Y.Y.Y.Y.Y.Y.Y.Y.Y.Y.Y.W.H W.W.H ; H H W.H H H W.H U.U.U.U.U.U.W.H H W.H 6X    {.U.U.'.Y.Y.Y.Y.Y.Y.Y.Y.Y.Y.Y.Y.Y.Y.Q.  ",
"# `.Y.Y.Y.Y.Y.Y.Y.Y.Y.Y.Y.Y.Y.Y.H H H W.H , H W.W.U.W.H U.g.U.U.U.U.U.U.H W.W.H H 6X    U.U.U.U.Y.Y.Y.Y.Y.Y.Y.Y.Y.Y.Y.Y.Y.Y.Q.  ",
"+ `.Y.Y.Y.Y.Y.Y.Y.Y.Y.Y.Y.Y.Y.Y.H W.H W.H ; H W.H W.H W.U.U.U.U.U.U.U.U.H W.H H H 6X    '.U.U.U.Y.Y.Y.Y.Y.Y.Y.T.Y.Y.Y.Y.Y.Y.Q.  ",
"+ `.Y.Y.T.Y.Y.Y.Y.Y.Y.Y.Y.Y.Y.Y.W.H H H H ; H H W.H H U.U.U.U.U.U.U.U.U.g.H W.U.H 8X  . _.U.U.U.Y.Y.Y.Y.Y.Y.Y.Y.Y.Y.Y.Y.Y.Y.Q.  ",
"+ {.U.U.U.U.T.Y.Y.Y.Y.Y.Y.Y.Y.Y.H W.H H H , H W.U.U.U.{.U.U.U.U.U.U.U.U.U.U.~.U.W.4X    U.U.U.U.Y.Y.Y.Y.Y.Y.T.Y.Y.Y.Y.Y.T.Y.Q.  ",
"* oXU.U.U.e g.Y.Y.Y.Y.Y.Y.Y.Y.Y.W.U.W.W.H , H H U.U.U.U.U.U.U.U.U.{.U.U.U.~.H H U.4X    {.U.U.{.Y.Y.Y.Y.Y.Y.Y.Y.Y.Y.Y.Y.T.Y.Q.  ",
"+ '.U.U.U.U.Y.Y.Y.Y.Y.Y.Y.Y.Y.T.W.H H H H , H H U.'.U.U.U.{.U.U.U.U.U.U.U.U.U.U.H 6X    U.U.U.U.Y.Y.Y.Y.Y.Y.Y.Y.Y.Y.Y.Y.Y.Y.Q.  ",
"o _.U.U.U.U.Y.Y.Y.Y.Y.Y.Y.Y.Y.Y.U.H W.~.H * H H U.U.U.U.U.U.U.U.U.U.U.{.U.U.).U.H 8X    {.U.U.U.Y.Y.Y.Y.Y.Y.Y.Y.Y.Y.Y.Y.Y.Y.Q.  ",
"+ ].U.U.Y.Y.Y.Y.Y.Y.Y.Y.Y.Y.Y.T.~.H H H H ; U.U.U.U._.U.U.U.U.U.U.U._.U.U.U.).U.U.8X    _.H U.U.Y.Y.Y.Y.Y.Y.Y.Y.Y.T.Y.Y.Y.Y.Q.  ",
"+ ].U.U.T.Y.Y.Y.Y.Y.Y.Y.Y.Y.Y.Y.U.U.U.~.H ; U.).U.U.U.U.g.H U.U.U._.U.U.).U.U.U.H 6X    ).W.U.U.Y.T.Y.Y.Y.Y.Y.Y.Y.Y.Y.Y.T.Y.Q.  ",
"+ {.U.U.T.Y.Y.Y.Y.Y.Y.Y.Y.Y.Y.Y.H U.U.U.H * U.U.).U.U._.H W.W.U.U.U._.U.U.U.U.U.H 6X    ~.g.U.U.Y.Y.Y.Y.Y.Y.Y.Y.Y.Y.Y.Y.T.Y.Q.  ",
"+  XU.U.Y.Y.Y.Y.T.Y.Y.Y.Y.Y.Y.Y.).U.U.U.H * U.U.U.U.U.U.H W.H H U.U.U.U.U.U.).U.H 6X    W.H U.U.Y.Y.Y.Y.Y.Y.Y.Y.Y.Y.Y.Y.Y.U.!.  ",
"+ '.U.W.U.U.W.U.Y.Y.Y.Y.Y.Y.Y.Y.Y.Y.Y.W.H ; H U.T.U.T.T.U.T.U.W.Y.Y.Y.m z b T.U.Y.4X    ~.T.T.T.Y.Y.Y.Y.Y.Y.Y.Y.Y.Y.T.U.T.U.Q.  ",
"+ _.U.U.U.W.W.U.Y.Y.Y.Y.Y.Y.Y.Y.Y.Y.Y.W.H ; H T.T.T.U.T.U.T.W.U.Y.b c =XH.=XQ b Y.4X    Q.T.H T.Y.Y.Y.Y.Y.T.Y.Y.T.Y.T.T.T.T.Q.  ",
"* {.U.U.U.U.U.U.U.Y.Y.U.Y.Y.U.Y.Y.U.T.U.H < H U.U.U.U.U.T.H U.H z #XF.M.Z.m.J.2.B 6X    !.Y.H H U.U.Y.g.U.U.Y.U.U.U.U.U.Y.Y.R.  ",
"  U.U.]._.)._.].).).).).).)._.~././.~.!.q + H H [._._./._.a z.l.F.B.B.B.V.m.B.B.N.l.b M g.H _._.{.{.U.U._.(._._._._./.~.~./._.  ",
": Y.H 5X@X@XOXOX@X+X+X+X+X@X@XXXXXXX5XXXw 1 H H 7X3X3Xh m >XL.Z.J.M.M.M.Z.B.v.m.Z.Z.&X-X:.i 3X@X4X4X3XoX3XoXOXoX+X+XXXXX.X+X5X  ",
">                                         9 %       z >X-XB.M.J.B.M.M.Z.B.V.M.M.v.V.Z.Z.H.n.b     .                           & ",
"1 E.Y.Q.~.Q.~.~.~.Q.~.!.~.Q.^.Q.!.!.W.`.r 9 w H f.J L.L.B.m.M.V.B.M.M.B.M.B.B.M.M.B.V.B.m.L.K.,.Q./.~.~.!.!.!.!.!.!.!.!.!.!.].  ",
"7 (.T.T.T.Y.T.T.T.T.Y.T.T.T.T.T.T.T.Y.W.t l b >XG.M.M.M.Z.B.B.Z.B.b.Z.Z.Z.M.B.B.B.m.Z.B.C.=X0.s.U.U.U.W.T.T.T.T.T.T.T.T.T.T.~.  ",
"@ `.T.T.Y.Y.Y.Y.Y.Y.Y.Y.Y.Y.Y.Y.Y.Y.T.T.c N H.M.Z.M.M.Z.B.V.Z.B.B.m.J.Z.V.M.M.Z.J.M.&X;X&X5.O.-.Y.Y.Y.Y.Y.Y.Y.Y.Y.Y.Y.Y.Y.T.Q.  ",
"$ (.Y.T.Y.Y.Y.Y.Y.Y.Y.Y.Y.Y.Y.Y.Y.Y.g.h.F.B.b.M.M.Z.M.M.m.Z.m.M.Z.Z.M.M.J.Z.J.F.M.<X&XM.%.+.] ;.Y.Y.Y.Y.Y.Y.Y.Y.Y.Y.Y.Y.Y.Y.Q.  ",
"$ `.T.Y.Y.Y.Y.Y.Y.Y.Y.T.Y.Y.Y.Y.U.$XG.b.M.m.B.B.M.B.B.M.m.B.Z.M.Z.Z.M.V.B.B.1XF.G.' | @.[ %.#.;.Y.Y.Y.Y.Y.Y.Y.Y.Y.Y.Y.Y.Y.T.Q.  ",
"O }.T.Y.Y.Y.Y.Y.Y.Y.Y.Y.Y.Y.Y.Y.s d.L.<XB.Z.Z.M.b.M.Z.V.Z.M.M.M.M.M.B.F.Z.<X*XL.' E @.%.@.%.#.9.Y.Y.Y.Y.Y.Y.Y.Y.Y.Y.Y.Y.Y.Y.Q.  ",
"+ `.Y.Y.Y.Y.Y.Y.Y.Y.Y.Y.T.Y.Y.Y.p B.d.Z.1X*X*Xb.M.m.Z.B.M.m.M.M.Z.M.Z.;X;XF.` @.@.X.#.%.X.] o.-.a T.T.Y.Y.Y.Y.Y.Y.Y.Y.Y.Y.Y.Q.  ",
"+ `.Y.Y.Y.Y.Y.Y.Y.Y.Y.Y.Y.Y.Y.T.s %Xc.u.b.L.P.-XL.Z.m.Z.V.Z.Z.B.P.P.F.0.q.{ #.&.+.@.@.#.%.X. .+.,.j.N Y.Y.Y.Y.Y.Y.Y.Y.Y.T.Y.Q.  ",
"+ `.Y.Y.Y.Y.Y.Y.Y.Y.Y.Y.Y.Y.Y.Y.y *Xs.s.s.y.s.J.<X<Xb.Z.B.B.V.<Xm.b.@.+.[ #.X.%.X.%. .X.) ] ~ X.D 7.u.S.f Y.Y.Y.Y.Y.Y.Y.T.Y.Q.  ",
"o `.Y.Y.T.Y.Y.Y.Y.Y.Y.Y.Y.Y.Y.Y.i *Xs.u.s.d.w.d.Z.Z.<X&Xm.I.;X9.=.E X.X.@.[ X.+.%.%.W { ) Y Y W g h $.0.H.k Y.Y.Y.Y.Y.Y.Y.Y.W.  ",
"@ '.U.Y.T.Y.Y.Y.Y.Y.Y.Y.Y.Y.Y.Y.s L.u.u.u.t.a.d.a.s.M.,X%Xv.+.{ ..[ %.&.@.@.@.{ ] %.` ` ] _ Y | x Z c *.7.i H T.T.U.H T.T.H Q.  ",
"+ _.T.Y.Y.Y.Y.Y.Y.Y.Y.Y.Y.Y.Y.h z #X0.0.p.a.0.p.i.u.p.r.c.@.%.#.[ @.@.] X.&.%.X.X.] )  . .S T y v ! 5.2.v s U.U.T.T.T.T.Y.Y.Q.  ",
"+ _.T.Y.T.U.Y.Y.Y.Y.Y.Y.Y.z h G.a L.u.u.u.u.u.p.a.a.p.p.m.] X.@.#.@.@.@.[ @.@.@. .)  ._ ' u u D ! c.x.T Q 4 Y.Y.U.U.T.H T.T.Q.  ",
"@ `.T.U.T.T.Y.Y.Y.Y.Y.Y.A.x.6.P g B.u.u.t.t.t.e.u.p.a.u.D.[ %.X.X.%.@.@.@.W @.X._ ] _ A g x F ] x.2.A ~ i Y.Y.Y.T.T.T.T.T.U.!.  ",
"+ `.T.Y.U.T.T.Y.Y.Y.5 :Xr.9.x C g 8.r.u.q.u.d.u.u.s.u.u.J.5.] @.%.%.@.#.X.{  .) | k n :.A s.9./ F Z R 2 Y.Y.Y.Y.Y.Y.Y.Y.U.U.Q.  ",
"+ `.Y.Y.T.T.Y.Y.Y.Y.h >XG I 6.-.A h q.e.q.u.t.t.e.u.u.p.J.{ $.{ X.X.%. .Y ` _ | d D D 6.F.{ R K L :.Y.Y.Y.Y.Y.Y.Y.Y.Y.Y.T.T.Q.  ",
"o `.Y.Y.T.U.Y.Y.Y.Y.a v.-XP R *.9.@.D ] t.u.d.u.p.u.u.u.s...X.{ X.X.] _ } U g g L L i.-...A Y v M Y.Y.Y.Y.Y.Y.Y.Y.Y.Y.Y.Y.Y.~.  ",
"% `.Y.Y.Y.T.Y.Y.Y.Y.f 0.w.P.2Xl.&.7.=.! c 6.9.u.t.a.u.0.v.I @.O._ %._ c d n F ! 3.k.( Z Z p 2 T.Y.Y.Y.Y.Y.Y.Y.Y.Y.Y.Y.Y.Y.W.W.  ",
"$ (.T.Y.Y.Y.Y.H Y.g.e U.n.s.C.=XH.Z e.e.;.D } 7.q.t.p.e.5.$.` {  .S d C ^ L a.m.#.~ ~ / 3 T.U.U.U.U.U.U.e g.Y.Y.H Y.U.U.Y.U.).  ",
"X T.H  X}.[.[.[.'.}.U. X5 y.8.x.F.,X( =.w.e.5.C } 9.u.u.=. .| | c p F A +.m.=.] L L x   Y.Y.|.[.{.{.{.{.].'.'.[.[.{. X|.|..X+X  ",
"9                           J 1.6.i.&XA.P 5.9.6.>.D S { 5.C j j D A 4.t.3.^ U R     6 =                 .                     # ",
"1 U.H Y.U.Y.t Y.H Y.U.U.U.U.t g.:.s.c.v.;Xk.P ..i.6.} c p n F A / n.X.U T ~ m U.Y.U.6 # U.U.Y.Y.U.Y.U.U.U.U.U.U.H H Y.H Y.U.U.7 ",
"$ Y.U.T.T.T.T.T.T.T.Y.T.T.T.T.T.T.T.i.t.c.I.1Xj.{ 8.w.$.( c P w.v. .~ R / T.T.E.T.U.  . U.U.T.T.T.T.T.T.T.T.T.T.T.T.T.T.T.T.R.  ",
"$ `.T.Y.Y.T.Y.T.Y.T.Y.Y.Y.Y.Y.Y.Y.T.T.l.i.e.p.N.%Xh.1.1.1.y.b.*./ T C V Y.T.Y.T.Y.5X    !.Y.Y.Y.T.Y.Y.Y.Y.Y.Y.T.Y.Y.T.Y.T.Y.!.  ",
"$ (.Y.T.Y.Y.Y.Y.Y.Y.Y.Y.Y.Y.Y.Y.Y.Y.Y.T.U.B e.t.u.x.5.=.+.+.P E T 2 T.Y.Y.Y.Y.Y.T.6X    Q.Y.Y.Y.Y.Y.Y.Y.Y.Y.Y.Y.Y.Y.Y.Y.Y.T.W.  ",
"& (.Y.T.Y.Y.Y.Y.Y.Y.Y.Y.Y.Y.Y.Y.Y.Y.Y.R.t : 5 4.y.u.+.K U K *.J Y.Y.Y.Y.Y.Y.Y.Y.Y.3X    Q.Y.Y.Y.Y.Y.Y.Y.Y.Y.Y.Y.Y.Y.Y.Y.Y.T.Q.  ",
"$ `.Y.Y.U.T.T.Y.Y.Y.Y.Y.Y.Y.Y.Y.H H W.W.H , H W.l <.<.<.( J H U.Y.Y.Y.Y.Y.Y.Y.Y.Y.6X    Q.Y.Y.Y.Y.Y.Y.Y.Y.Y.Y.Y.Y.Y.Y.Y.Y.Y.Q.  ",
"@ `.Y.Y.Y.Y.Y.Y.Y.Y.Y.Y.Y.Y.Y.Y.W.H H W.H , H H H H U.U.H W.H U.Y.Y.Y.Y.Y.Y.Y.Y.T.4X    !.Y.Y.T.Y.Y.Y.Y.Y.Y.Y.Y.Y.Y.Y.Y.T.Y.!.  ",
"+ `.Y.Y.T.Y.Y.Y.Y.Y.Y.Y.Y.Y.Y.Y.W.H H W.H * H W.W.U.U.U.W.H H H Y.Y.Y.Y.Y.Y.Y.Y.Y.4X    Q.Y.Y.T.Y.Y.Y.Y.Y.Y.Y.Y.Y.Y.Y.Y.Y.Y.!.  ",
"+ `.Y.Y.T.Y.Y.Y.Y.Y.Y.Y.Y.Y.Y.Y.H W.H W.H ; H H U.U.U.~.H H W.W.Y.Y.Y.Y.Y.Y.Y.Y.T.3X    !.Y.Y.Y.Y.Y.Y.Y.Y.Y.Y.Y.Y.Y.Y.Y.Y.Y.Q.  ",
"+ `.Y.Y.Y.Y.Y.Y.Y.Y.Y.T.Y.Y.Y.Y.H H W.W.H , H W.U.W.W.H W.H W.H Y.Y.Y.Y.Y.Y.Y.Y.Y.3X    ^.T.Y.Y.Y.Y.Y.Y.Y.Y.Y.Y.Y.Y.Y.Y.Y.Y.W.  ",
"+ `.Y.Y.Y.Y.Y.Y.Y.Y.Y.Y.Y.Y.Y.Y.W.H H W.H * H H U.U.H H W.H H H Y.T.Y.Y.Y.Y.Y.Y.Y.4X    E.T.Y.Y.Y.Y.Y.Y.Y.Y.Y.Y.T.Y.Y.Y.Y.Y.Q.  ",
"o `.Y.Y.T.Y.Y.Y.Y.Y.Y.Y.Y.Y.Y.Y.H W.H W.H , H W.W.H U.W.H H W.W.T.Y.Y.Y.Y.Y.Y.Y.Y.4X    !.T.Y.T.Y.Y.Y.Y.Y.Y.Y.Y.Y.Y.Y.Y.Y.Y.Q.  ",
"+ `.T.Y.Y.Y.Y.Y.Y.Y.Y.Y.Y.Y.Y.Y.H W.H H H * H H U.W.W.H H W.H H Y.Y.Y.Y.Y.Y.Y.Y.T.4X    Q.T.Y.Y.Y.Y.Y.Y.Y.Y.Y.Y.Y.Y.Y.Y.Y.T.Q.  ",
"* {.U.U.).U.U.).Y.T.Y.Y.Y.Y.Y.Y.H H W.H H , H W.U.W.W.U.U.U.U.U.Y.Y.Y.Y.Y.Y.Y.T.T.4X    !.T.Y.Y.Y.Y.Y.Y.Y.Y.Y.Y.Y.Y.Y.Y.T.Y.Q.  ",
"# {.U.).U.U.U.U.Y.Y.T.Y.Y.Y.Y.Y.W.H H ~.H * H H U.U.U.W.U.~.U.U.Y.Y.Y.Y.Y.Y.e g.T.4X    Q.Y.Y.T.Y.Y.Y.Y.Y.Y.Y.Y.Y.Y.Y.Y.Y.Y.Q.  ",
"# '.U.U.U.U.U.U.Y.Y.Y.Y.Y.Y.Y.Y.H W.H W.H , H W.W.U.U.U.W.U.U.).Y.Y.Y.Y.U.U.U.U.T.6X    ^.T.Y.Y.Y.Y.Y.Y.Y.Y.Y.Y.Y.Y.Y.Y.Y.T.W.  ",
"* U.U.U.).U.U.U.Y.Y.Y.Y.Y.Y.Y.Y.H W.H H H * H H U.W.W.U.W.U.U.U.Y.Y.Y.T.U.U.U.U.T.4X    Q.T.Y.Y.Y.Y.Y.Y.Y.Y.Y.Y.Y.Y.Y.Y.T.Y.W.  ",
"# |.U.U.U.U.U._.U.U.U.U.T.g.e U.H H H ~.H , H U.U.U.U.W.U.U.U.U.U.U.U.U.U.U.U.U.Y.6X    Q.T.Y.Y.Y.Y.Y.Y.Y.Y.Y.Y.Y.Y.Y.Y.Y.Y.W.  ",
"; U.U.U.U.U.U.U.U.U.{.U.Y.T.U.U.H H W.H H , H W.W.W.W.U.U.U.).U.U.U.'.U.U.U.U.U.Y.7X    Q.Y.T.T.Y.Y.T.T.T.Y.T.T.Y.Y.Y.Y.Y.U.T.  ",
"o H U..XU._.{.U..X{.U.U.{.U.].U.).).U.).q # H H {._._._.U.{.{.U. X{.{.U.U.U..X{.'.Y.    Y.H _.)./._._._._.)._._._._./.)./._.'.  ",
"* H H H U.U.U.U.U.U.U.U.U.U.U.U.H H H H 0 , H q H H q H U.U.U.U.U.U.U.U.U.U.U.U.t r   - t r t r r r r r r t r t r r t t r r t - "
};
