/* XPM */
static char *result[] = {
/* columns rows colors chars-per-pixel */
"64 64 152 2 ",
"   c #000000",
".  c #02020D",
"X  c #0C010D",
"o  c #15000B",
"O  c #1B050E",
"+  c #010313",
"@  c #0E0115",
"#  c #050618",
"$  c #0E021A",
"%  c #0C0A1D",
"&  c #110215",
"*  c #11021B",
"=  c #15171F",
"-  c #240F18",
";  c #0C0722",
":  c #0D0B23",
">  c #140C23",
",  c #160F2A",
"<  c #141326",
"1  c #191326",
"2  c #171629",
"3  c #1A172A",
"4  c #1C1A2C",
"5  c #1E1C32",
"6  c #231B2B",
"7  c #291C29",
"8  c #211E33",
"9  c #291C31",
"0  c #23202E",
"q  c #252336",
"w  c #2C2436",
"e  c #2C2A36",
"r  c #262538",
"t  c #29263A",
"y  c #2C2A3D",
"u  c #342634",
"i  c #302D3D",
"p  c #32313E",
"a  c #39313E",
"s  c #2E2C40",
"d  c #312E41",
"f  c #382D43",
"g  c #343143",
"h  c #3A3547",
"j  c #373348",
"k  c #3A3549",
"l  c #3D3A4C",
"z  c #463C4A",
"x  c #464651",
"c  c #4B4A57",
"v  c #4C4C58",
"b  c #534856",
"n  c #574E5A",
"m  c #53535E",
"M  c #5B505D",
"N  c #555561",
"B  c #5B5360",
"V  c #5A5A65",
"C  c #615562",
"Z  c #665A69",
"A  c #696F72",
"S  c #717476",
"D  c #737778",
"F  c #767A7A",
"G  c #7A7D7C",
"H  c #A05559",
"J  c #9C5460",
"K  c #A35B66",
"L  c #A85966",
"P  c #AC5A65",
"I  c #AE5C68",
"U  c #B05D66",
"Y  c #9E7869",
"T  c #A47B6A",
"R  c #A97C6D",
"E  c #B56974",
"W  c #7F807F",
"Q  c #AE806F",
"!  c #7F8080",
"~  c #828683",
"^  c #838985",
"/  c #83838D",
"(  c #878E89",
")  c #888F8B",
"_  c #87908A",
"`  c #8B938D",
"'  c #868691",
"]  c #8E9690",
"[  c #8E9A92",
"{  c #919792",
"}  c #929E95",
"|  c #949E98",
" . c #AE9F9E",
".. c #93A197",
"X. c #94A399",
"o. c #9AA39C",
"O. c #9AAA9F",
"+. c #AFA09F",
"@. c #999AA6",
"#. c #9BA7A0",
"$. c #9DADA2",
"%. c #9FB1A5",
"&. c #AFA1A0",
"*. c #A0A8A2",
"=. c #A1B2A5",
"-. c #A3B5A9",
";. c #A6B9AB",
":. c #ABBAAF",
">. c #ACACB4",
",. c #C6998D",
"<. c #C89A8D",
"1. c #C79F9E",
"2. c #D0A29E",
"3. c #DCA69D",
"4. c #E4A697",
"5. c #F2A69D",
"6. c #D5A8AD",
"7. c #E8B4A2",
"8. c #F0B5A6",
"9. c #F7BBA9",
"0. c #F9BEAB",
"q. c #AFC3B4",
"w. c #B1C4B6",
"e. c #B2C7B8",
"r. c #B5CBBB",
"t. c #B8CCBC",
"y. c #BAD0BE",
"u. c #FAC1AE",
"i. c #F4C3B1",
"p. c #FBC3B1",
"a. c #F6C9BA",
"s. c #F8CFBC",
"d. c #BCD4C1",
"f. c #BDDBC5",
"g. c #CDCDCD",
"h. c #C1D5C7",
"j. c #D2D2D2",
"k. c #D5D4DB",
"l. c #FACDC2",
"z. c #FED1C3",
"x. c #C3E3CA",
"c. c #CBE9D3",
"v. c #FEE6D5",
"b. c #FFE8D6",
"n. c #FFE4DA",
"m. c #FFE8D8",
"M. c #EEEEEE",
"N. c seashell",
"B. c #EEECF8",
"V. c #FFF9F4",
"C. c #F3F0F9",
"Z. c #FEFFFF",
/* pixels */
"z g                             = .   = x x                                       8 z e r ;                                 < 9 ",
"7 ~ G ` ) ) ) ) ) ) ) ) ) ( ) ) ! ! ` ! S e W ! ] _ _ _ ) ( ) ) ) ) ) ^ ) ) ) ` ` ~   > ~ ! ) ) ) ) ) ) ) ) ) ) ) ) ( ) _ ) `   ",
"1 :.` ~ ~ ~ ^ ~ ~ ~ ~ ^ ~ ^ ~ ! ! ! ( ( W e F ! ( ~ ~ ~ ^ ^ ! ^ ~ ~ ~ ~ ! ~ ~ ~ ~ c.    O.~ ~ ~ ~ ^ ~ ~ ~ ^ ^ ~ ~ ~ ~ ~ ^ ! `   ",
"6 o.~ ~ ~ ~ ~ ^ ~ ~ ~ ~ ~ ~ ~ ~ ! ! Q ( W e W ! ! ^ + . + + # + + + + + 5 + . ~ ~ x.    ` ~ ~ ~ ~ ~ ~ ~ ~ ~ ~ ~ ~ ~ ~ ~ ~ ^ `   ",
"6 o.~ ~ ~ ~ ~ ~ ~ ~ ~ ~ ~ ~ ~ ~ ~ ~ ^ ( G e G . + + h k k k t h h h k h 5 y r + . .     ` ^ ~ ~ ~ ~ ~ ~ ~ ~ ~ ~ ~ ~ ~ ~ ~ ~ `   ",
"4 o.~ ~ ~ ~ ~ ~ ~ ~ ~ ^ ~ ~ ~ ~ ~ ~ ~ ^ G e + k q k k k h 0 h h h h 5 k y y t y y t +   ` ~ ^ ~ ~ ~ ~ ~ ~ ~ ~ ~ ~ ~ ~ ~ ~ ^ `   ",
"< o.~ ~ ~ ~ ~ ~ ~ ~ ~ ~ ~ ~ ~ ~ ~ ~ ~ ( G + k l 5 k k k h 5 k h h h k r t t y t t t t + ` ^ ~ ~ ~ ~ ~ ~ ~ ~ ~ ^ ~ ~ ~ ~ ~ ~ _   ",
"2 O.~ ~ ^ ~ ~ ~ ~ ~ ~ ~ ~ ~ ~ ~ ~ ~ ^ + + k k t k k k k h 4 h h h k h q y y t y 5 t y t + ^ ~ ^ ~ ~ ~ ~ ~ ~ ~ ~ ~ ~ ~ ~ ^ ~ `   ",
"= O.! ! ! ! X.! ~ ~ ~ ~ ~ ~ ~ ~ ^ ~ + g y k k 8 q r q r r 4 r r q q q 8 t y t y 5 t t y r + ~ ~ ~ ~ ~ ~ ~ ~ ~ ~ ~ ~ ~ ~ ( ~ `   ",
"= %.X.! X.! ! ! ~ ~ ~ ~ ~ ~ ~ ~ ^ . + g f 4 4 # h k h 5 k h h h k % 8 8 r q q t 5 t r q r + ~ ~ ~ ~ ~ ~ ~ ^ ~ ~ ~ ~ ~ ~ ~ ~ `   ",
"= %.! ! ! ! ! ! ~ ^ ~ ~ ~ ~ ~ ~ ^ + r y # k k k k h h k k h h k k k h 5 + t t r 5 t t q 8 # ~ ~ ~ ~ ~ ~ ~ ~ ~ ~ ~ ~ ~ ~ ~ ~ `   ",
"= X.X.! ! ! ! ! ~ ~ ~ ~ ~ ~ ~ ^   + k k 3 g k k k k k 5 h k h h h 5 h 5 k h l # 5 t y 5 5 5 + ~ ~ ~ ~ ~ ~ ~ ~ ~ ~ ~ ~ ~ ~ ~ `   ",
"2 O.! ! ! ! ! O.! ! ~ ~ ~ ~ ~ ~ + k k k 5 k k k k l k 4 k k h h k h k k k k g k l q 8 8 8 8 5 + ~ ~ ~ ~ ~ ~ ~ ~ ~ ~ ~ ~ ~ ~ `   ",
"2 O.! ! ! ! ! ! ! Q ^ ~ ~ ~ ~ ~ 3 k k k y k 5 k k k k 5 k k k h h h k h h k h h g g t r 8 5 5 + ~ ~ ~ ~ ~ ~ ~ ~ ~ ~ ~ ~ ^ ~ `   ",
"4 %.! ! O.! ! ! ! ! ~ ~ ~ ^ ~ ~ 2 y k k j y q q k k k 4 r t r t r k h k k k k 5 k y y + r 5 5 + ~ ~ ~ ^ ^ ~ ~ ~ ~ ~ ~ ^ ( ~ `   ",
"2 ;.! ! ! ! ! ! ! ! ~ ~ ~ ~ ~ + l q k h 5 $ @ $ @ & @ @ * @ @ @ * > 8 k k k k h k y y y 5 5 5 + ~ ~ ~ ~ ~ ~ ~ ~ ~ ~ ~ ~ ! ! ]   ",
"= O.! _ ! ! _ ! ~ ~ ~ ~ ~ ~ ~ + k q r @ @ 0.i.p.m.m.m.m.v.v.v.z.p.z.@ * $ r k h k y s 8 5 % 5 5 + ! ! ! ~ ~ ~ ~ ~ ~ ~ ~ ( ~ `   ",
"2 X.! _ ! _ _ ! ~ ~ ~ ~ ~ ~ ~ + q r * 0.p.m.m.m.m.m.m.m.v.m.v.v.s.* 8 t r @ $ q k 5 y y t 5 : 5 + Q ! ! ~ ~ ~ ~ ~ ~ ~ ~ ! ~ `   ",
"0 %.! ! W W W ! ~ ! ~ ~ ~ ~ ~ + q @ $ % o 7 m.m.v.m.m.m.v.m.* g t t r r r r r d r 5 y t y 5 5 + = ! ! ! ~ ! ~ ~ ~ ~ ~ ~ ~ ~ (   ",
"  ! ! X.X...X.X...............+ $ 8 r r q 1 @ @ & & @ & & @ t t r t t * ; t t r , 5 y y y 5 5 + : ! O.%.......X.....[ [ [ ....  ",
"i ~ ~ d.y.y.y.r.y.t.r.r.y.y.d.# 5 4 s t e t t t y r t t t r t t * $ $ 1.8.t t r r * 8 y r 5 5 + % f.r.e.r.r.e.e.t.t.q.w.w.t.h.  ",
"u                             # 4 r V.N.@ * @ * t t t r t r $ 9.0.p.b.m.v.m.C 4 r r 1 8 5 5 5 +                               9 ",
"a ) W [ ] ] [ [ [ ` [ ` [ ] X.[ 5 $ $ $ ; $ $ 8.$ t r t t @ ,.* * ; $ @ $ @ Z B r r 4 * 5 5 5 # [ [ [ [ [ ] ] ] ] [ ] ] ] [ #.  ",
"g o.~ ( ~ ~ ^ ^ ^ ^ ^ ^ ^ ^ ! ! 8 $ C.@ * * $ 7.b t r r q $ <.$ * $ $ * Z.* M t r t 4 5 9.v.v.P ! _ ! _ ( ~ ( ~ ^ ^ ^ ^ ^ ^ [   ",
"6 o.~ ~ ~ ~ ~ ~ ~ ~ ~ ~ ~ ~ ^ J t $ + Z.* $ $ 7.8 C C C t 8 <.$ * * . Z.Z.n t r 5 5 3 0.p.R T P ~ ~ ~ ^ ~ ~ ~ ~ ~ ~ ~ ~ ~ ^ `   ",
"6 o.~ ~ ~ ~ ~ ~ ~ ~ ~ ~ ~ ~ Q J * t $ @ # q q 3 ; $ * ; $ t r ; $ $ % f z r t r 4 @ @ i.i.R v.P ~ ~ ~ ~ ^ ~ ~ ~ ~ ~ ~ ~ ~ ~ `   ",
"6 o.^ ~ ~ ~ ~ ~ ~ ~ ~ ~ ~ ~ ~ P o 2 r r r q @ 9.p.p.p.m.p.$ @ y y r t t r t t $ u.b.p.u.R v.b.I ~ ~ ~ ~ ~ ~ ^ ~ ~ ~ ~ ~ ~ ^ `   ",
"3 O.^ ~ ~ ~ ~ ~ ~ ~ ~ ~ ~ ~ ~ ~ L i.$ @ i.i.b.v.n.z.z.m.v.m.p.v.b.$ @ $ $ u.0.i.v.v.p.z.m.b.m.~ ~ ~ ~ ~ ~ ~ ~ ~ ~ ~ ~ ~ ~ ~ `   ",
"1 o.~ ~ ~ ~ ~ ~ ~ ~ ~ ~ ^ ~ ~ ~ P u.p.p.p.a.m.m.m.m.v.m.m.m.m.b.i.5.p.u.n.p.p.m.m.0.p.U P P 6.^ ~ ~ ~ ~ ~ ~ ~ ~ ~ ~ ~ ~ ~ ~ `   ",
"2 o.~ ~ ^ ~ ~ ~ ~ ~ ~ ~ ~ ~ ~ ~ L 0.u.p.u.v.m.m.m.m.m.v.v.m.m.m.v.p.p.p.p.v.v.v.i.u.# + ` ~ ~ ^ ~ ~ ~ ~ ~ ~ ~ ~ ~ ~ ~ ~ ^ ~ `   ",
"2 o.~ ~ ~ ~ ~ ~ ~ ~ ~ ~ ~ ~ ~ ~ ~ J v.v.m.m.m.m.Y T T T Y m.m.m.m.m.m.m.m.v.m.a.p.X 5   ` ^ ~ ^ ~ ~ ~ ~ ~ ~ ~ ~ ~ ~ ~ ~ ^ ~ `   ",
"< o.~ ~ ^ ~ ~ ~ ~ ^ ~ ~ ~ ~ ~ ^ ~ ~ I b.b.b.m.b.m.m.m.m.m.m.m.m.m.v.m.m.m.v.u.p.+ 5     ` ^ ~ ~ ~ ~ ~ ~ ~ ~ ~ ~ ~ ~ ~ ~ ~ ~ _   ",
"2 O.! ! ^ ~ ~ ~ ~ ~ ~ ~ ~ ~ ~ ~ ! ! Q ( L v.v.v.m.m.b.v.m.b.m.b.m.v.m.u.p.p.I # ~ +     ] ^ ~ ( ~ ~ ~ ~ ~ ~ ~ ~ ~ ~ ~ ~ ^ ! ! . ",
"2 %.! ! ~ ~ ~ ~ ~ ~ ~ ~ ~ ~ ~ ~ ! ! ! ( G K E v.n.m.v.v.v.v.v.b.v.u.l.a.K K ~ . ^ f.    ` ~ ~ ~ ~ ~ ~ ~ ~ ~ ^ ~ ~ ~ ~ ~ ^ Q [ . ",
"2 X.Q ! ^ ~ ~ ~ ~ ~ ~ ~ ~ ~ ~ ~ ! ! ~ ( G q W ( ~ ~ @ & 2.4.p.p.p.@ @ $ + ~ ~ ~ ^ f.    ] ^ ~ ~ ~ ~ ~ ~ ~ ~ ~ ~ ~ ~ ~ ~ ! ^ `   ",
"2 O.^ ~ ~ ~ ~ ~ ~ ~ ~ ~ ~ ~ ~ ~ ! ! ~ ( G e F ^ ~ + y d o 3.p.p.$ 5 d s s + ~ ~ ~ x.    [ ^ ~ ~ ~ ~ ~ ~ ~ ~ ~ ~ ~ ~ ~ ~ _ W [   ",
"2 X.! ! ^ ~ ~ ~ ~ ~ ~ ^ ~ ~ ~ ~ ! ! ! %.W e W ( + y y y 5 $ @ $ 5 y y y y y + ~ ~ y.    ` ~ ~ ^ ~ ~ ~ ~ ~ ~ ~ ~ ~ ~ ~ ~ ! ^ [   ",
"2 O.! ! ^ ~ ~ ~ ~ ~ ~ ~ ~ ~ ~ ~ ! ! ! ! G e G + y y y y y y s y y y y y y y y + ~ f.    ` ^ ~ ~ ~ ~ ~ ~ ~ ~ ~ ~ ~ ~ ~ ~ ^ ! `   ",
"2 %.! ! ^ ~ ~ ~ ~ ~ ~ ~ ~ ~ ~ ~ ! %.! ! G r G g.M./ ' / / ' ' / / ! / ' / Z.Z.g.+ f.    { ~ ~ ~ ~ ~ ~ ~ ~ ~ ~ ~ ~ ~ ~ ~ ~ ~ [   ",
"5 ;.! ! ~ ~ ~ ~ ^ ~ ~ ~ ~ ~ ~ ~ ! ! ! ! F u r y Z.Z.Z.Z.Z.Z.Z.Z.Z.Z.Z.Z.Z.Z.y y y h.    { ^ ~ ~ ~ ~ ~ ~ ~ ~ ~ ^ ^ ~ ~ ~ ~ ( _   ",
"0 X.^ ~ ~ ~ ~ W ! ! ! ! ! ! W ~ ! ! W [ W   Z.g . y y y s y y s y y y y q . y y y =     ) ~ ~ ~ ! ! ! ~ ! ! ! ! W ! ! ~ ~ ( [   ",
"< ! W ;.$.$.$.$.#.$.$.$.$.$.%.=.q.r.X.q.W   Z.d.0 x c c v v v c c c v v c . Z.Z.Z..     ~ ~ -.$.%.%.$.$.%.$.$.$.%.%.;.=.=.:.t.  ",
"k               .                       + s Z.+ Z.Z.Z.Z.Z.Z.Z.Z.Z.Z.Z.Z.Z.. Z.k.y y + w                     .                 5 ",
"a W W ~ ! ~ G ~ Y ~ ! ~ ! ! ! ~ ! ! ! # Z.Z.% s s y y y y y y y y s y y y + + y d Z.Z.  ! G ~ ~ G ~ ! ~ ! ! Y ~ W W ~ W ~ ! ~ g ",
"6 ~ G ) ^ ^ ^ ( ^ ^ ~ ^ ^ ^ ^ ^ ^ ^ ~ + e Z.+ m V V V V V V V V V V V V V N + Z.Z.Z.Z.. ! ! ^ ^ ^ ^ ^ ~ ^ ^ ^ ~ ^ ^ ^ ( ~ ^ (   ",
"6 o.( ^ ~ ~ ~ ~ ^ ~ ~ ~ ~ ~ ~ ^ ~ ~ + y y Z.: Z.Z.Z.Z.Z.Z.Z.Z.Z.Z.Z.Z.Z.Z.M.+ Z.s y y r ` ^ ^ ~ ^ ~ ~ ^ ~ ~ ^ ~ ~ ~ ~ ~ ~ ~ `   ",
"6 | ~ ~ ~ ~ ~ ~ ~ ~ ~ ~ ~ ~ ~ ~ ~ ~ + Z.Z.+ y y y y i s y y y s y y y y y y 5 + s B.Z.>.. ~ ^ ~ ~ ~ ~ ~ ~ ~ ~ ~ ~ ~ ~ ~ ~ ^ `   ",
"7 | ~ ~ ~ ~ ~ ~ ~ ~ ~ ~ ~ ~ ~ ~ ~ ~ + Z.Z.+ e y p y y y e y e y y i y p e d v + Z.Z.Z.Z.+ ~ ~ ~ ~ ~ ~ ~ ~ ^ ~ ~ ~ ~ ~ ~ ~ ~ `   ",
"8 o.~ ~ ~ ~ ~ ~ ~ ~ ~ ~ ~ ~ ~ ~ ! ! ! E M.. g.Z.Z.Z.Z.Z.Z.Z.Z.Z.Z.Z.Z.Z.Z.Z.g.. Z.m.m.P ` ^ ~ ~ ~ ~ ~ ~ ~ ~ ~ ~ ~ ~ ~ ~ ~ ^ )   ",
"3 o.~ ~ ^ ~ ~ ~ ~ ~ ~ ~ ~ ~ ~ ~ ! ! ! T v.+ 5 y y y y y y y y y y y y y y y 5 5 O v.v.P ` ~ ~ ^ ~ ~ ~ ~ ~ ~ ~ ~ ~ ~ ~ ~ ^ ~ `   ",
"2 o.~ ~ ^ ~ ~ ~ ~ ~ ~ ~ ~ ~ ~ ^ ! ! ^ ^ P + p p p y y p y p p s i p y y p p @.>.- H U   { ~ ~ ^ ~ ~ ~ ~ ^ ~ ~ ~ ~ ~ ~ ~ ~ ~ `   ",
"< o.~ ~ ~ ~ ~ ~ ~ ~ ~ ~ ~ ~ ~ ~ ! Q ^ ( W + j.Z.Z.Z.Z.Z.Z.Z.Z.Z.Z.Z.Z.Z.Z.Z.4 5 : d.    ` ~ ~ ~ ~ ~ ~ ~ ~ ~ ~ ~ ~ ~ ~ ~ ~ ~ `   ",
"2 O.~ ~ ~ ~ ~ ~ ! ! Q ^ ~ ~ ~ ~ ~ ~ ^ ( F p y y y t y t t s y y y y r y y 5 5 0 + d.    ` ~ ~ ^ ~ ~ ~ ~ ~ ~ ~ ~ ~ ~ ~ ~ ^ ~ `   ",
"< o.~ ~ ^ ~ ~ ~ ! ! ! ~ ~ ^ ~ ~ ~ ~ ~ ( W 0 + + + + # + + + + + + + + + + + + + . d.    ` ^ ~ ^ ~ ~ ~ ~ ^ ~ ~ ^ ~ ~ ~ ~ ~ ~ `   ",
", o.~ ~ ~ ~ ~ ~ ! ! ~ ~ ~ ~ ~ ~ ~ ~ ~ ( F p + q 5 5 q 5 5 5 5 5 5 5 5 q 5 8 8 2 ^ f.    ` ( ~ ~ ~ ~ ~ ~ ~ ~ ~ ~ ~ ~ ~ ~ ~ ~ `   ",
"< o.^ ~ ^ ~ ~ ~ ! ! ~ ~ ~ ^ ~ ~ ~ ~ ~ ( F q + 5 5 5 5 5 5 + + + # q 5 5 8 8 5 2 ~ f.    ` ^ ~ ^ ~ ~ ~ ~ ~ ~ ~ ~ ~ ~ ~ ~ ~ ~ `   ",
"= O._ W _ W W _ ! ! ! ! ! ! ! ! ~ ~ ~ ( W e + 5 5 5 0 0 4 # ! ! + 5 5 5 5 5 5 5 ^ f.    ] ~ ~ ~ ~ ^ ~ ~ ~ ~ ~ ~ ^ ~ ~ ~ ^ ~ `   ",
"= %.W _ W W _ W ! ! ! ! ! X.! ! ^ ~ ~ ^ W 0 + 5 8 0 5 0 4 [ ! ! ! + 5 5 8 5 5 2 ~ f.    ` ( ~ ^ ~ ~ ~ ~ ~ ~ ~ ~ ~ ~ ~ ~ ~ ~ `   ",
"= %.W W _ W _ W X.! ! X.! ! ! X.~ ~ ! _ W p . +.+.*.x x # W ! [ ^ #  .&.&. .x + ~ x.    ` ^ ~ ~ ~ ~ ~ ~ ~ ~ ~ ~ ~ ~ ~ ~ ~ ~ _   ",
"= %._ W W _ W W ! ! ! ! ! ! ! ! ^ ^ ! ~ W 0 + + + + # # # W ! ! ~ ~ + + + + + + ( f.    ` ^ ~ ~ ~ ~ ~ ^ ~ ~ ~ ~ ~ ~ ~ ~ ~ ~ `   ",
"= O.! ! W W W _ ! ! W W O.! ! ! ~ ^ ~ ( W e W ! ^ W ^ ~ ! ! ! ! ( ! ! ( ~ ~ ~ ~ ! c.    ! ! Q ^ ~ ~ ^ ~ ~ ~ ~ ~ ~ ~ ~ ~ ~ ~ _   ",
"q X.! ! W W _ W ! ! W W ! ! ! X.~ ! ! ( W p W ( _ ^ ^ ^ ! ! ! [ ! ! ( ! ~ ~ ~ ! _ c.    X.! ! ^ ~ ~ ~ ~ ~ ~ ~ ^ ~ ~ ~ ~ ~ ! (   ",
"= ! ! =._ ......%.O.....%.! =.X.....[ ] A = W W %.......} } ....X.O...X.[ ..[ X.X.!   . ! ! X.X.X.X.X.X.O...X.X.X.X.} X.} X.X.  ",
"r W A W W W W W W W W W W W W W F F F W m a W S W F D W W D W W D W G G G G G F W F   y ! ! F F F F F F F G F F F F G G F F G y "
};
