/* XPM */
static char *sprite_141762401462[] = {
/* columns rows colors chars-per-pixel */
"64 64 170 2 ",
"   c #000000",
".  c #02020D",
"X  c #0D000E",
"o  c #1D0209",
"O  c #010313",
"+  c #0B0216",
"@  c #090B14",
"#  c #060518",
"$  c #0D021A",
"%  c #0D0A1B",
"&  c #110216",
"*  c #10021A",
"=  c #1B0B19",
"-  c #240A0D",
";  c #2B1413",
":  c #0D0824",
">  c #120B21",
",  c #141326",
"<  c #191325",
"1  c #171529",
"2  c #1A162A",
"3  c #1B192C",
"4  c #1E1C32",
"5  c #2A1A25",
"6  c #231B2B",
"7  c #211E34",
"8  c #291C31",
"9  c #24212F",
"0  c #29202F",
"q  c #28282E",
"w  c #242235",
"e  c #2B2436",
"r  c #2C2A37",
"t  c #262438",
"y  c #292639",
"u  c #2C2B3D",
"i  c #342634",
"p  c #312B39",
"a  c #3B2F3E",
"s  c #2F303C",
"d  c #33323C",
"f  c #38323E",
"g  c #472C2C",
"h  c #533137",
"j  c #2E2C40",
"k  c #302D41",
"l  c #353143",
"z  c #3A3547",
"x  c #3F3F47",
"c  c #3B3649",
"v  c #3D3A4B",
"b  c #453A47",
"n  c #5D3F44",
"m  c #4B424D",
"M  c #4A4250",
"N  c #524955",
"B  c #594C58",
"V  c #5D525D",
"C  c #595865",
"Z  c #665A67",
"A  c #62656B",
"S  c #756367",
"D  c #6A6C72",
"F  c #7A6E74",
"G  c #6C7175",
"H  c #717376",
"J  c #76767C",
"K  c #78777D",
"L  c #767A7A",
"P  c #7A7D7C",
"I  c #94525B",
"U  c #945863",
"Y  c #A35B66",
"T  c #A85966",
"R  c #AC5A64",
"E  c #B05D67",
"W  c #A67C6C",
"Q  c #B86370",
"!  c #B07675",
"~  c #B87878",
"^  c #7F807F",
"/  c #7B7B82",
"(  c #7F8080",
")  c #828683",
"_  c #838985",
"`  c #89828B",
"'  c #878E89",
"]  c #898E8B",
"[  c #87908A",
"{  c #8B938D",
"}  c #908F95",
"|  c #8E9690",
" . c #8E9A92",
".. c #919394",
"X. c #929E95",
"o. c #95949A",
"O. c #959C9A",
"+. c #A28386",
"@. c #B89888",
"#. c #93A097",
"$. c #94A399",
"%. c #9AA39C",
"&. c #9AA99F",
"*. c #9BA7A0",
"=. c #9DADA2",
"-. c #9FB1A5",
";. c #A2A5A6",
":. c #AFA1A0",
">. c #B0A1A0",
",. c #A1B2A5",
"<. c #A3B5A9",
"1. c #A6B9AB",
"2. c #ABBAAF",
"3. c #B0AFB4",
"4. c #B3B1B6",
"5. c #B4B4B9",
"6. c #BAB6BA",
"7. c #C89C8C",
"8. c #DC9E8F",
"9. c #E7A59F",
"0. c #F3A69C",
"q. c #F3AB9D",
"w. c #CAA1A1",
"e. c #DEB1A5",
"r. c #D5B4AD",
"t. c #DABDAB",
"y. c #F5B5A5",
"u. c #F4BDAB",
"i. c #FBBFAC",
"p. c #EFBFB1",
"a. c #F0BEB3",
"s. c #AFC3B4",
"d. c #B1C4B6",
"f. c #B2C7B8",
"g. c #B5CBBB",
"h. c #B8CCBC",
"j. c #BAD0BE",
"k. c #F7C1AE",
"l. c #FAC1AE",
"z. c #E2C3B8",
"x. c #F3C3B2",
"c. c #FBC3B1",
"v. c #F3C4BA",
"b. c #F9C6BA",
"n. c #F5CABA",
"m. c #FACDBD",
"M. c #FED1BD",
"N. c #BCD4C1",
"B. c #BEDBC5",
"V. c #C4C5C9",
"C. c #CCCCCC",
"Z. c #C2D9C7",
"A. c #CECFD3",
"S. c #D2D2D5",
"D. c #D6D6DC",
"F. c #D9D9DF",
"G. c #EBCAC3",
"H. c #FACEC2",
"J. c #FCD5C3",
"K. c #FFD3CD",
"L. c #EED8D1",
"P. c #C4E3CB",
"I. c #CBE9D3",
"U. c #F5E2D4",
"Y. c #FEE6D5",
"T. c #FEE8D6",
"R. c #FFE7DC",
"E. c #FFE8D8",
"W. c #DADAE0",
"Q. c #FEFFFF",
/* pixels */
"b a                                   : b m                                       7 c i e :                                 1 8 ",
"w ) ) [ ' [ [ ' ' ' ' ' ' ' ' ' [ [ ' _ H p H ^ { [ [ [ ' ' ' ' ' ' [ ' ' ' [ { [ )   , ( ( ' ] ' ' ' [ ' ' ' ' [ ' ' ' ' ' [   ",
"< 2.' ) ) ) _ ) _ _ ) _ _ _ ) ) ) ) [ [ ^ r P _ _ ) ) _ ) ) ) _ _ ) ) ) ) ) ) ) ) I.    *.) ) ) ) ) _ ) _ ) ) _ _ _ ) ) ) ) {   ",
"6 %.) ) ) ) ) ) ) ) ) ) ) ) ) ) ) ) ) _ ^ r P _ ) ) @ . O . O . O . O . ) ) ) ) ) P.    { _ ) _ ) ) _ ) ) ) ) ) ) ) ) ) _ _ [   ",
"6 %.) ) ) ) ) ) ) ) ) ) ) ) ) ) ) ) ) [ P e P _ ) O u 4 7 c c c z 3 z c v O ) ) ) Z.    [ ) ) ) ) ) ) ) _ ) ) ) ) ) ) ) ) ) {   ",
"3 %._ ) ) ) ) ) ) ) ) ) ) ) ) ) ) ) ) _ P u O O w y y y c c z z v 4 z v c c , 3 O Z.    | ) _ ) ) ) ) ) ) ) ) ) _ ) ) ) ) _ [   ",
", %.) ) _ ) ) ) ) ) ) ) ) ) ) ) ) ) ) [ ^ O w u y y u 4 c z z c z z z z c c c 3 c O     | _ ) ) ) ) ) ) ) ) ) ) ) ) ) ) _ ) {   ",
"1 %.) ) _ ) ) ) ) ) ) ) ) ) ) ) ) _ ) _ O t w y y y u u c c z c z c 4 z z z 4 4 c l O   { _ ) _ ) _ ) ) ) ) ) ) ) ) ) ) ) ) {   ",
"< $.) ) _ ) ) ) ) ) ) ) ) ) ) ) _ _ ) O e y y u u u u u j c z l c c 4 c c v c c 4 c 4 O { _ ) _ ) ) _ ) ) ) ) ) ) ) ) ) _ ) {   ",
"< %.) ) _ ) ) ) ) ) ) ) ) _ ) ) ( _ O y y u y 4 y y e j 7 t w O O @ # # # # # e 4 c v 7 1 ) ) ) ) ) ) ) ) ) ) ) ) ) ) ) ) ) {   ",
", %._ ) _ ) ) ) ) ) _ ) ) ) ) ) ( O 4 w y u y 4 y t w e # c c c c c c z c c c c 4 # w w y O ) ) ) ) ) ) _ ) ) ) ) ) ) ) ) ) {   ",
", %.) ) ) ) ) ) ) ) ) ) ) _ ) ) @ t 4 7 y y 4 t w O c c 4 z c z c z z 4 3 c c c c c c c O % ) ) ) ) ) ) ) ) _ ) ) ) ) ) ) ) {   ",
"1 &.) ) _ ) ) ) ) ) ) ) ) ) ) ) % 4 4 7 j t 4 4 z l z c 4 c 4 z c c c c 4 4 c v c c c c c % . ) ) ) ) ) ) ) ) ) ) ) ) ) ) ) {   ",
"1 %.) ) _ ) ) ) ) ) ) ) ) ) ) d w 4 4 7 t 4 # c z z c z 4 c z z z v w c 2 c c c c c c 4 c c O O ) ) ) ) ) ) ) ) ) ) ) ) _ ) {   ",
"1 %.) ) _ ) _ ) ) ) ) ) ) ) ) d 4 4 4 7 4 j w c l c z z 7 z z z z l c c c c c c c 7 c 4 c c c O ) ) ) ) ) ) ) ) ) ) ) ) _ _ [   ",
"< %.) ) ) ) ) ) ) ) ) ) ) ) ) d 4 4 4 7 j j t l t c c z c z l t + $ + + $ $ $ $ w w l 4 c c u O . ) ) ) ) ) ) ) ) ) ) ) ) ) {   ",
", %.) ) ) ) ) ) ) ) ) ) ) ) ) @ 4 4 # 4 u u 7 c z z y w e : + H.H.H.H.Y.Y.E.Y.L.p.G.* 4 t c c O O ) ) ) ) ) ) ) ) ) _ _ ( ) {   ",
"1 %.) ) ) ) ) ) ) ) ) ) ) ) ) O 4 4 7 4 u u 7 c c u y # $ a.Y.b.Y.Y.E.E.E.E.E.E.U.E.k.& u y w c O ) ) ) ) ) ) ) ) ) _ ( _ _ {   ",
"5 ,.) ) ^ ) ) ) ) ( ) ) ) ) ) O 3 1 4 u u u 7 w $ y y y e + + S Y.Y.E.E.E.E.E.E.R.E.E.J.r.F + j O ) ) ^ ( ) ( ) ) ^ ( ( ) ) [   ",
"  ) P $.X.X.#.X.#.#.#.#.#.#.#.O # 4 4 u u u 7 e y r y y y y y t + 5 E.Y.Y.E.Y.Y.Y.R.* 1 y t $ 4 . $.$.#.$.#.$.$.$.$.X.X. .#.#.  ",
"p ) ^ Z.j.h.h.g.j.g.g.g.h.h.N.O 4 4 4 u u 4 7 e e y y * + y y y y # + $ : * $ : $ $ y w y t 2 4 O j.g.f.g.g.g.f.g.g.d.f.d.h.Z.  ",
"i                               4 4 4 u 7 + + e y e = M.G.= $ + e y y t y t y e y y $ $ $ + t $ O                             8 ",
"z ] ) { ..{ | | | | | | | | | | 4 4 4 4 4 t y y 1 C Y.R.R.Y.m.n.H.$ y y e y e y $ n.n.n.Y.% y $ O | | | | { ..| | | | | | | *.  ",
"f %._ _ _ _ _ _ _ _ _ _ _ _ _ _ 4 $ $ $ 1 y y y V + Y.Y.Y.Y.Y.Y.E.7.t y y t t $ E.Y.Y.E.Y.Y.$ $ _ _ _ _ _ _ _ _ _ _ _ _ _ _ |   ",
"6 %._ ) ) ) ) ) ) ) ) ) ) ) ) ) R.U.Y.i.# 7 e t e B O Y.E.E.Y.Y.Y.7.Z y t y N $ Y.Y.Y.Y.Y.Y.e $ ) ) ) ) ) _ ) ) _ ) ) ) ) _ {   ",
"6 O.) ) ) ) ) ) ) ) ) ) ) ) ) ) R.W W c.+.3 4 t y t B ` H.i.k.H.r.N 7 w Z Z Z w e.$ i.u.y.% w u.R ) ) ) ) ) ) ) ) ) ) ) ) ) [   ",
"6 %._ ) ) ) ) ) ) ) ) _ ) ) ) _ R.Y.W c.k.x.v.e y y t B O # # # 4 t + & & * $ & # 4 w # t y 1 k.R ) _ ) ) ) ) ) ) ) ) ) ) _ {   ",
"1 &._ ) ) ) ) ) ) ) ) ) ) ) ) ) Q Y.Y.@.c.Y.Y.m.n.$ $ t e e w $ n n.m.x.T.H.H.u.- v.* u t t $ c.Y ) ) ) ) ) ) ) ) ) ) ) ) _ {   ",
"< %.) ) ) ) ) ) ) ) ) ) ) ) ) ) U Y.T.T.c.k.Y.Y.E.i.i.* $ $ $ Y.x.E.E.E.T.y.b.Y.E.x.c.& $ g l.R ) ) ) ) ) ) ) _ ) ) ) ) ) ) {   ",
"1 %.) ) _ ) ) ) _ ) _ ) ) ) ) ) ) T R R E l.Y.E.E.b.b.c.0.c.0.c.Y.E.E.E.T.E.E.E.E.E.k.q.q.k.l.Y ) ) ) ) ) ) ) ) ) ) ) ) _ ) {   ",
"1 %.) ) ) ) ) ) ) ) ) ) ) _ ) ) ) ) ) ' O n c.c.Y.E.E.n.b.n.n.Y.E.E.T.t.t.t.t.z.E.E.T.n.n.n.9.) ) ) ) ) ) ) ) ) ) ) ) ) _ ) [   ",
", %.) ) _ ) ) ) ) ) ) ) ) ) ) ) ) ) _ _ P 2 # i.k.Y.Y.T.E.E.Y.E.T.E.T.Y.Y.Y.Y.T.T.T.T.T.T.~ ) ) ) ) ) ) ) ) ) ) ) ) ) ) _ ) [   ",
"1 &.) ) ) ) _ ) ) ) ) ) ) ) ) ) ( ( (  .^ q 4 O n k.x.x.T.Y.E.E.E.E.E.T.E.E.E.E.T.T.T.E.! _ ) _ ) ) ) ) ) ) ) ) ) ) ) ) _ ) [   ",
", %.) ) ) ) ) ) ) ) ) ) ) ) ) )  .( ( ( ^ s ^ [ # E k.c.c.J.J.T.E.E.E.T.E.E.E.E.T.T.Y.R { ) ) ) ) ) ) ) ) ) _ ) ) ) ) ) ) ) {   ",
", %.) ) _ ) ) ) ) ) ) ) ) ) ) ) ( ( ( { ^ 4 ^ ( ) ) _ ) $ X k.c.c.c.c.c.l.i.R R E B.    | _ ) _ ) ) ) ) ) ) ) ) ) ) ) ) _ ) {   ",
"3 %._ ) ) ) ) ) ) _ ) ) ) ) ) ) ( ( ( ( ^ q ^ [ ) ) ( O 4 $ o c.c.c.8.$ * # ) ) _ B.    .._ ) ) ) ) ) ) ) ) ) ) ) ) ) ) ) _ {   ",
", %.) ) _ ) ) ) ) ) ) ) ) ) ) )  .( ( #.^ r ^ ( ) ) O u u j 3 X b.b.+ + u j O _ ) j.    { _ ( _ ) ) ) ) ) ) ) ) ) ) ) ) ) ) {   ",
"1 &.) ) ) ) ) ) ) ) ) ) ) ) ) ) ( ( ( ( ^ r ^ ( ) . u u u u 4 4 $ $ 3 4 u u u O ) B.    { _ _ _ ) ) ) ) ) ) ) ) ) ) ) ) ) ) [   ",
"< %.) ) ) ) _ ) ) ) _ ) ) ) ) )  .( ( #.P y K ' . r u u u u u u j u u u u u u u ) B.    | _ _ ( ) ) ) ) ) ) ) ) ) ) ) ) _ _ |   ",
"5 %.^ _ ) ) ) ) ) ) ) ) ) ) ) ) ^ ( ( ( P i P O C.Q.Q.Q.Q.Q.Q.Q.Q.Q.Q.Q.Q.Q.Q.Q.s B.    .._ _ _ ) ) ) ) ) ) ) _ ) ) ) ) ) _ [   ",
"9 O.( ( ( ( ( ( ( ( ( ( ( ( ) ) ( ( ^  .^ d . s j | C ` o.o.o.o.o.o.o.o.o.o.} / j O     [ ' ( ( ( ( ( ( ^ ) ) ) ) ) ( ( ( ( #.  ",
"> ) ( -.1.-.-.-.*.=.=.=.=.=.=.-.1.s.$.s.^ , C.Q.u j O u u j u u u u u k u u u O V.Q.O   ( ( <.=.-.-.-.=.=.&.%.=.=.&.-.-.1.s.N.  ",
"z     .         .               @         z 5.Q.Q.S.C.Q.Q.Q.Q.Q.Q.Q.Q.Q.Q.Q.Q.Q.;.Q.% e .           .                 .       4 ",
"f ^ W ( ) _ ( ( W ) ( ) ( ( ( ) ^ ^ ^ ^ H O u r l C S.W.W.W.W.D.W.F.W.W.W.D.D.S.O u u O / W ) ) ( ( W ) P ) ( ( ) P ) W ) ( ( l ",
"6 ) ( _ _ _ _ _ _ _ _ _ _ _ _ _ _ _ _ _ O Q.Q.t j O 4 u u u u u u u u u u j u u # k Q.C.O P _ _ _ _ _ _ _ _ _ _ _ _ _ _ _ _ '   ",
"6 %._ _ ) _ ) ) ) ) ) ) _ ) ) ) ) _ ) _ O q Q.Q.Q.. Q.Q.Q.Q.Q.Q.Q.Q.Q.Q.Q.Q.Q.Q.Q.A.Q.j O _ ) _ _ ) _ ) ) _ _ ) ) ) _ _ ) ) {   ",
"3 O._ ) ) ) ) _ ) ) ) ) ) ) ) ) ) ) ) _ u u u u j O J / / K / J K K / K K J J H D > k u r D _ ) ) ) ) ) ) ) ) ) ) ) ) ) ) _ {   ",
"6 %.) ) ) ) ) ) ) ) ) ) ) ) ) ) ) ) ) O Q.Q.Q.p O 4 u u u u u u u u u u j u u u y 7 j Q.Q.A ) ) ) ) ) ) ) ) ) ) ) ) ) ) ) ) {   ",
"6 %._ ) ( _ ) ) ) ) ) ) ) ) ) ) ( #.^ , N.Q.Q.Q.. C.Q.Q.Q.Q.Q.Q.Q.Q.Q.Q.Q.Q.Q.Q.Q.4.o.U.w.+.) ) ) ) ) ) ) ) ) ) ) ) ) ) ) ) '   ",
"3 %.) ) _ ) ) ) ) ) ) ) ) ) ) ) ( ( ( ( Y U.Y.Q.. S.Q.Q.Q.Q.Q.Q.Q.Q.Q.Q.Q.Q.Q.Q.Q.5.B Y.R ) ) _ ) ) ) ) ) ) ) ) ) ) ) ) _ ) {   ",
"1 %.) ) ) ) ) ) ) ) ) ) ) ) ) _ ( ( ( ( I J.k.1 4 4 u u u u u u u u u u u u u j r w h K.Y ) ) ) ) ) ) ) ) ) ) ) ) ) _ ) _ ) {   ",
", %.) ) _ ) ) ) ) ) ) ) ) ) ) ) ( #.( ( ^ d ; , C.A.Q.Q.Q.Q.Q.Q.Q.Q.Q.Q.Q.Q.Q.Q.Q.5..   { _ ) _ ) ) ) ) ) ) ) ) ) ) ) ) ) _ [   ",
"1 &.) ) ) ) ) ) ) ) ) ) ) ) ) ) ( ( #.#.^ s ^ @ 7 4 6.3.5.3.5.4.4.5.4.5.5.5.5.3.3.o.    { _ ) ) ) ) ) ) ) ) ) ) ) ) ) ) _ ) [   ",
", %.) ) _ ) ) ) _ ) ) ) ) ) ) ) ( ( ( ( ^ 9 ^ @ O O # O O O O O O O O O O # # O O O     { _ ) _ _ ) _ ) ) ) ) ) ) ) ) ) ) ) {   ",
", %.) ) _ ) ) ) ) ) ) ) _ ) ) ) #.( ( ( ^ r ^ ( 4 w 4 4 7 7 4 4 4 4 4 4 w 4 4 4 4 O     ..) ) ) ) ) ) ) ) ) ) ) ) ) ) ) _ ) {   ",
"< %._ ) ) ) ) ) ) ) ) ) ) ) ) ) ( ( ( ( ^ 4 ^ ( 4 7 4 4 7 4 7 O O O O 4 4 4 7 7 4 O     { _ ) ) ) ) ) ) ) ) ) ) ) ) ) ) ) _ [   ",
"1 %.) ) _ ) _ ^ ) ) ) _ ) ) ) ) ^ _ _ [ ^ r ^ ( 4 4 4 4 7 7 q @ _ . O 4 4 w 4 4 4 O     | _ ) _ ) ) ) ) ) ) ) ) ) ) ) ) ) ) {   ",
"3 %._ _ ^ ) _ _ ) ) ) ) ) ) ) ) _ _ ) _ ^ 9 ^ [ 4 7 7 7 4 w @ ( ) ) x 4 4 4 4 7 4 O     { _ ) ) ) ) ) ) ) ) ) ) ) ) ) ) _ ) {   ",
", &.^ _ _ _ ^ _ ) ) ) ) ) ) ) ) _ ^ ^ [ ^ s ^ ( O M :.:.,., @ ( ) ) x O M :.:.:.>.O     { _ ) _ ) ) ) ) ) _ ) ) ) ) ) ) _ ) [   ",
", %._ _ ^ _ _ _ _ ) ) ) ) ) ) ) _ _ ( _ L q ^ ^ O O O O O O ( ( _ ) ) O O O O O O q     { _ ) _ ) ) ) ) ) ) ) ) ) ) _ ) ) ) [   ",
", %.) ) _ ) ) _ ) ) ) ) _ ) ) ) _ ( [ _ ^ r ^ _ _ _ ( _ ( ( (  .( [ ( ( ( _ _ ) ) P.    | _ ) ) ) ) ) ) ) ) ) ) ) ) ) ) ) ) [   ",
"0 #._ _ _ ^ _ ^ ) ) _ ) ) _ ) ) ( ( ( [ ^ d ^ _ [ ( _ _ ( ^ ( ( [ ( [ ( _ ( _ ( _ I.    { ^ _ _ ) _ _ ) _ ( _ _ ) ) ) ) ) ) _   ",
"% _ ^ &.X.#.#.#.$.#.#.#.$.$.$.X.#.#. .{ D , ^ ^ -.$.$.$.#.#.#. .$.$.#.#.X.X.X.$.%.)     ) ^ $.#. .$.$.$.$.X.$.$.$.$.#.#.X.$.%.  ",
"i P A L L ^ L ^ L L ^ L L L L L L L P ^ V d ^ G ^ L L P G ^ ^ ^ ^ ^ L L ^ P P L P L   e P L L L P P L P L P P L P P P K L K P p "
};
