/* XPM */
static char *result[] = {
/* columns rows colors chars-per-pixel */
"64 64 162 2 ",
"   c black",
".  c #01010C",
"X  c #0D000A",
"o  c #1B020D",
"O  c #010313",
"+  c #0C0115",
"@  c #0C0C17",
"#  c #060619",
"$  c #0E021A",
"%  c #0D0A1C",
"&  c #110115",
"*  c #1D0715",
"=  c #10031B",
"-  c #13161B",
";  c #200304",
":  c #310A1F",
">  c #0C0722",
",  c #130C23",
"<  c #141326",
"1  c #191325",
"2  c #171529",
"3  c #1A1629",
"4  c #1C1A2C",
"5  c #1E1C32",
"6  c #231B2B",
"7  c #291C29",
"8  c #351D23",
"9  c #201734",
"0  c #211E34",
"q  c #291C31",
"w  c #24222F",
"e  c #28282E",
"r  c #352328",
"t  c #252336",
"y  c #2B2436",
"u  c #2D2B37",
"i  c #272539",
"p  c #292639",
"a  c #2C2A3D",
"s  c #342634",
"d  c #302E3C",
"f  c #2F303C",
"g  c #32323D",
"h  c #38323E",
"j  c #412728",
"k  c #5B3B3E",
"l  c #2E2C40",
"z  c #312E41",
"x  c #353243",
"c  c #3A3647",
"v  c #3F3F47",
"b  c #3B3649",
"n  c #3E3C4B",
"m  c #463D4B",
"M  c #5C3F40",
"N  c #4A454D",
"B  c #4A4552",
"V  c #4B4A57",
"C  c #4D4C59",
"Z  c #54545C",
"A  c #5D525D",
"S  c #565663",
"D  c #5B5261",
"F  c #5A5A66",
"G  c #625561",
"H  c #645865",
"J  c #64656C",
"K  c #6B6A6E",
"L  c #6C6C71",
"P  c #6C7175",
"I  c #717476",
"U  c #737778",
"Y  c #767A7A",
"T  c #7A7D7C",
"R  c #9E5964",
"E  c #AD5662",
"W  c #A45B67",
"Q  c #AC5A65",
"!  c #AF5C68",
"~  c #836869",
"^  c #967765",
"/  c #8D6F70",
"(  c #A37B69",
")  c #A97C6C",
"_  c #B96C74",
"`  c #B77878",
"'  c #7F807F",
"]  c #AC806D",
"[  c #7D7C89",
"{  c #7F8080",
"}  c #828683",
"|  c #838985",
" . c #83838E",
".. c #878E89",
"X. c #888F8B",
"o. c #87908A",
"O. c #8B938D",
"+. c #858590",
"@. c #8E9691",
"#. c #8E9A92",
"$. c #929E95",
"%. c #939698",
"&. c #949E98",
"*. c #B28682",
"=. c #AC9F9F",
"-. c #93A197",
";. c #94A399",
":. c #9AA39C",
">. c #9AAA9F",
",. c #AFA19F",
"<. c #B1A29F",
"1. c #9B9BA5",
"2. c #9BA7A0",
"3. c #9DADA2",
"4. c #9FB1A5",
"5. c #AFA1A0",
"6. c #A3A6A8",
"7. c #A8A9AF",
"8. c #A1B2A5",
"9. c #A3B5A9",
"0. c #A6B9AB",
"q. c #ABBAAF",
"w. c #C69A8C",
"e. c #CDA59C",
"r. c #DEA091",
"t. c #F3A99F",
"y. c #F3BCAB",
"u. c #FBBBAC",
"i. c #E8BBB5",
"p. c #F3BDB1",
"a. c #AFC3B4",
"s. c #B2C7B8",
"d. c #B5CBBB",
"f. c #B8CCBC",
"g. c #BAD0BE",
"h. c #FAC1AE",
"j. c #F6C3B2",
"k. c #FBC3B1",
"l. c #F7C7BA",
"z. c #F3C9B9",
"x. c #BCD4C1",
"c. c #BEDCC6",
"v. c #C6C7C8",
"b. c #CDCDCD",
"n. c #C2D9C7",
"m. c #CDCDD4",
"M. c #D8D7DE",
"N. c #D7D8DC",
"B. c #FCCDC2",
"V. c #FFD3C2",
"C. c #C4E3CB",
"Z. c #CBE9D3",
"A. c #FFE2CF",
"S. c #FEE6D5",
"D. c #FEE8D6",
"F. c #FFE6DA",
"G. c #FFE8D8",
"H. c #ECECEF",
"J. c #FFF7ED",
"K. c #EBEDF1",
"L. c #F9F5FE",
"P. c #FEFFFF",
/* pixels */
"m x                             - . . - v V                                       0 b s i > .                               3 q ",
"7 } } o.....o...................{ { O.{ I f U { O.o.o.o.X...X.................O.X.}   < / } o.#.o.o.o.o...o.o...o...........o.  ",
"1 q...} } } } | } } | } | | | } { { ..o.' u Y o.| } } | } } } } } | } } } } } } } Z.    3.{ { { } | } | } } } } | } } } } } O.  ",
"6 :.} } } } | } } | } } } } } } { { ] | ' e ' { } O x 4 O O O O O O O O . O } } | C.    @.{ { o.} } } } } } | } | } } } | | o.  ",
"6 :.} } } } } } } } } } } } } } } } } ..T y . . O a a 0 c b b b x 5 c c c b O O O n.    O.{ } } } } } | } } } } } } } } } } O.  ",
"4 :.| } } } } } } } } } } } } } } } } ..T O 0 a i a a 4 c 0 c b c c b c c c b t c O     @.| } } } } } } } } } } } } } } } | o.  ",
"< :.} } | } } } } } } } } } } } } | } ..O p t a a a i a c c c c c b 5 c b b b 5 b z O   @.| | | } } } } } } } } } } } } | } O.  ",
"2 :.} } | } } } } } } } } } } } } } } O i a i a i a a a z c c c b c 5 x b b b b a c 5 O O.| { | } } } } } } | } } } } } } } O.  ",
"- 4.' ' -.{ { { } } } } } } } } } } . i a i i a a i a a a i t i i a 4 i i i i p 5 c b 9 3 | } | } } } | } } } } } | } } | } O.  ",
"- 8.{ -.{ { { ;.} } } | } } } | } . 0 t i a i 5 a t t i 4 4 % c b b c c 4 c c O # 3 t x 4 . } } } } } } | } } } } } } } } } O.  ",
"4 4.{ { { { { { } } } } } } } } } . 0 0 i i 5 i t t 0 # 5 c c c b c c c b c c b b b b O a % } } } } } } } } } } } } } } } } O.  ",
"e { { { -.{ { { } } } } | } } } % 0 0 0 a i 0 t O b c c 5 c 9 c c c c b 4 0 b b b b z m b % O } | } } } } } } } } } } } } } O.  ",
"4 >.{ { { { { ;.{ ;.{ { } } } u 0 5 5 0 i 0 # n c c c c 5 c c c c b 0 b 4 b b b b b b 5 c b O - } } } } } } } } } } } } } } O.  ",
"4 >.{ { { >.{ { { { { { } } | u 5 5 5 0 0 l 5 b c b c c 0 c c c c b c c b c b c b 0 c 5 c b z O } } } } } } } } } } } } | } O.  ",
"4 4.{ { { { { { { { { { { { | h 5 0 5 5 O z 0 b 5 b c b b c c a a i i i n b b c 0 0 b 5 b b l O { { } | } } } } } } } } } | O.  ",
"- 0.{ { { { { >.{ { { { { { ] h 5 5 5 0 a l 0 b c c b b x 3 , = $ + $ + + & & $ = = = 0 b b t O > { { ] } } } } } } } } | } O.  ",
"2 >.{ { #.{ { #.} } } } } } } O 5 5 5 0 a a t c c z i = = p.l.k.A.A.S.G.G.G.G.S.j.h.h.+ a i i b # { { { } } } } } } } } } } O.  ",
"- >.{ { { { { { } } } } } } } O 5 2 4 a a a 5 x t $ = i i $ $ S.S.S.S.G.G.G.G.G.D.G.G.h.* , t c # { { o.} } } } } } } } } } O.  ",
"w 4.{ { ' ' { { } { } } } } } O # 5 5 a a a 0 i p p p p i i p a + r S.S.G.G.S.S.G.G.X X $ $ $ i # { { o.} } } } } } } } } } ..  ",
"  { { >.;.;.;.3.-.-.-.-.-.-.-.O 5 5 5 a a 5 t p p p i $ $ i i t i + $ & + & & & + + p p i i 2 5 O ;.;.;.-.$.-.;.$.-.#.#.#.$.&.  ",
"d } } x.c.g.g.d.g.d.d.d.g.g.c.@ 5 5 5 a 5 0 + i t i a y.$ $ = = i i i p i p p p a i i a i a 4 $ # g.d.s.d.d.d.s.d.d.a.s.a.f.n.  ",
"s                             - 5 5 5 5 < p i p 5 A S.S.S.S.k.j.8 $ y i a i i a $ + & = J.@ i $ O                             q ",
"h X.' #.#.O.#.#.#.#.O.#.#.#.4.{ 5 5 4 5 3 i p i D + = $ $ $ = = = w.i i i i i $ *.$ $ $ $ $ $ $ #.O.#.#.#.O.$.O.@.#.@.@.@.@.2.  ",
"x :.| | } | | ..| | | o.{ | { { F.S.S.y.5 5 i i p A L P.= = = $ = w.H i a i C $ / $ = $ L.D i $ | ..| | | | | | | | | | | | #.  ",
"6 :.| | } } } } } } } } { { { ;.F.^ ) p.~ 5 5 t i i + P.P.$ = $ i.w.t i G G G = e.= $ + P.+ i y.} } } } } | } } } } } } } | O.  ",
"6 &.| | } } } } } } } } { { { { F.F.) k.h.$ + i i i t N $ = $ $ i i $ = $ $ $ 3 9 0 i # $ % 3 j.Q } } } } } } } } } } | } } o.  ",
"6 :.| } } } } } } } } } { { ] | ` S.S.) h.h.S.o = i a i i i p a + $ k j.G.k.l.u.o $ i i i i , j.Q | } | } } } } } } } } } | O.  ",
"3 :.| } } } } } } } } } { { { } R G.S.S.h.h.S.S.j.j.u.$ $ = $ S.y.G.G.G.G.V.B.G.S.h.j.= $ j j.Q { ] } } } } } } } } } } } } O.  ",
"1 :.} } } } } } } } | } } } } } { W Q Q Q h.G.G.G.j.k.j.u.u.k.j.S.G.G.G.G.G.G.G.G.G.z.t.u.z.k./ { { { { } } } | } } } } | } O.  ",
"2 :.} } | } } } } } } } } } } } } | } ..O M h.j.G.S.S.j.k.k.k.G.G.G.G.G.G.D.D.S.G.G.D.h.p.z.k.( { { { { } } } } } } } } } } O.  ",
"2 :.} } } } } } | } } } } | } } } } | ..' 5 X h.z.S.S.G.G.G.G.G.G.G.G.( ^ ( ( ^ G.G.G.G.G._ ;.{ { { { { } } } } } } } } | } O.  ",
"< :.} } | } } } } } } } } } } } } } | ..T g 5 O j.j.S.S.S.G.G.G.G.G.G.G.G.G.G.G.G.G.G.G.S.! { { { { ;.{ } } } } } } } } } } o.  ",
"- 8.{ { { { { { } } } } } } } } { ....{ ' i O | O ! h.h.k.S.G.G.G.G.G.G.G.D.G.G.G.D.G.Q O.| } } } } | } } } } } } } { { { { ;.@ ",
"w 0.{ { { { >.{ | } } } } } | } { { ' o.' f ' | . } R W l.B.j.S.A.S.D.D.D.S.G.S._ R W   O.} } } } } } } } } } } } } { { { { #.  ",
"- 4.;.{ ;.{ { { ] { } } } } } } o.{ { o.Y w T | } } } O $ $ ; j.h.k.r.& & X } } } c.    @.| } } | } } } | } } } } } } { o.{ O.  ",
"2 >.{ { { { { { { { | } } } } } ' ..' o.' u ' ..} } O l a z 0 X k.h.o + d l O } | c.    $.| } } } } } } } } } } } } | ] { { #.  ",
"- ;.{ { { { { { { { { { } } } } { ..' o.T u ' | } O i a a a t 5 $ $ 2 5 a a a O } x.    O.| } | } } } } } } } } } | } } ..o.O.  ",
"2 4.{ { { { { >.{ { { { } } } } o.' ' o.T u T | O a a a a a a a a a a a a a a l } c.    O.} } | } } } } | } } } } } } } { { O.  ",
"2 4.{ { { ;.{ { { { { -.} } } } { { ] { T i T O b.P.P.+.+. .+.+.+.+.+. . .+.[ P.N c.    O.| } } } } } } } } } } } } } } | } #.  ",
"w 0.{ { { { { ;.{ { { { } } } } { { { { T s O a a P.P.P.P.P.P.P.P.P.P.P.P.P.P.P.a O     @...} } } } } } } } } } } } } | { o.o.  ",
"w -.{ { { | ' ' } ' } { { { } } { { ' #.' g N.g u l O a a a a a a l a a a a a O a P.O   O.| } } ' ' { ' { ' { { ' ' { { | { ;.  ",
"< { ' a.4.4.4.4.:.8.>.>.4.>.3.8.0.c.;.a.P 2 L.P.P.N.J C C C C V V V V C V C V e H.P.O   { } 9.>.4.4.4.4.4.3.3.3.4.4.0.4.4.a.d.  ",
"c         .                     @         O u f P.M.b.P.P.P.P.P.P.P.P.P.P.P.P.P.%.a a O .                   .     .           5 ",
"g ' ' { { { ] ' T } { } ' } } T ' ' ' ' . P.P.l a O 0 a a a a a a l a a l a a a # a P.v.. / } } ' } ' ' } { / } ' ] { { } } } x ",
"4 { ' o.{ o.o.{ | | | | | | | | | | | } . P.P.P.P.O S F F F F F F F F F F F F F Z m.P.z O T | | | | | | | | | | | | | ..} | ..  ",
"w >.{ o.o.{ o.{ } } } } } } } } | } } | a a a z P.O P.P.P.P.P.P.P.P.P.P.P.P.P.P.P.K.a a z K } } } } } | } } } } } } } } } } O.  ",
"6 ;.| { { | { | } } } } } } } } } } } O P.P.z a O 5 a a a l a l a d l a a a l a a t a P.P.J | } } } } } } | } } } } } } } | O.  ",
"6 :.| { o.{ o.{ } } | } } } } } } } } O P.P.P.P.O C x a g a g a a a a f d a g a a w 6.P.P.K } } } } } } } } } } } } } } } } O.  ",
"6 :.} } } } } } } } } } } } } } { { { { ] D.S.P.O b.P.P.P.P.P.P.P.P.P.P.P.P.P.P.P.7.Z S.Q } } } } } } } } } } } } } { { { { >.@ ",
"3 :.} } } } } } } } } } } } } } { -.{ ;.( D.y.1 5 5 a a a a a a a a a a a a a a a i k A.E } } } } } } } } } } } } } { { { { #.  ",
"2 :.} } | } } } } } } } } } } } { { { ;.' Q h.2 1.%.a g a f f a x u x a f a a z u u : Q O.| } } } } } } } } } } } | ] { { o.O.  ",
"< >.{ } | } } } } } | } } | } } { { { { ' f . % 6 4 P.P.P.P.P.P.P.P.P.P.P.P.P.P.P.7..   @.} } } } } } } } | } } } } { { { { O.  ",
"3 >.} } } } } } { { { { } } } } { #.{ { ' f ' @ 5 5 a p a p l a a a a p a a a p a 5     @.| | } } } } } } } } } ' ..{ | o.' O.  ",
"< :.} } | } } } { { { ] } } } } { { { #.' w ' . O O O O O O O O O O O O O O O # O O     O.| } | } | } | } } } } ' ' ..' { o.#.  ",
"< :.} } } } } } { { } | } } } | #.{ { { ' e ' ' 5 t 5 t 0 0 0 0 5 5 5 5 5 0 0 5 0 O     @.| } } } } } } } } } } ..' { ..{ | O.  ",
"< :.} } | } } } { { } } } } } } { { { { ' w ' o.5 5 5 5 5 5 5 O O O O 5 0 5 5 5 5 O     O.} | } } } } } } | } } ' ..| ' ..| O.  ",
"- >.' ' o.' ' o.{ ;.{ { >.{ { { ..' { ..' u ' ' 5 5 5 0 5 5 4 @ | . O 5 5 t 5 5 5 O     #.} } } ' ' { ' { { { { { o.{ { { { 4.- ",
"e 4.o.o.' o.' ' { { { { { { { { ' ..o.o.' w ' o.5 0 0 0 5 5 @ { | | v 5 5 5 t 5 w .     O.| } } ' ' -.' { { -.{ ..' { { { { #.  ",
"- 4.' ' o.' ' o.{ { ;.{ { { >.{ ' { { o.' f ' { O N <.,.,.2 @ { } } v O B =.5.5.8..     O.| | } { -.' ' -.' { { ' ' ] { { { {   ",
"- ;.o.' o.' ' o.{ { { { ;.{ { { ..{ ..{ U w ' ' O # O # O O #.{ } } } O O O O O @ f     O.| | | ' ' -.{ { ' ;.{ ' o.{ { O.' -.  ",
"- >.{ { ' ' ' ' { { ' ' { { { ;.{ o.{ o.' u ' o.{ { | | { { { { | | { | } } } } ' Z.    -.o.' ' ' ' ' ' { { { { { #.{ { ' { -.  ",
"e >.{ { ' ' o.' #.' ' ' { { { { { { { o.' g ' { o.| { | { { O.{ { { o.{ { } { } ' Z.    o.' ' ' ' -.-.' { ' { { { { { { { { O.  ",
"- { { 4.-.-.-.-.;.;.-.-.4.{ 0.;.-.-.#.O.K - ' ' 4.#.;.;.-.-.;.-.;.;.-.;.#.-.-.;.>.'   - ' ' #.#.#.#.;.>.{ 4.4.{ 4.;.{ ;.#.-.3.  ",
"i { J { P ' ' ' ' ' ' ' ' ' ' ' Y T T ' S g ' P ' ' Y ' ' U ' U ' ' T T T T T U ' '   e ' ' ' ' ' ' ' ' ' ' ' ' ' ' ' ' ' ' ' f "
};
