/* XPM */
static char *wall21762466485[] = {
/* columns rows colors chars-per-pixel */
"64 64 162 2 ",
"   c #030506",
".  c #070906",
"X  c #0A0906",
"o  c #02060A",
"O  c #090709",
"+  c #050B0D",
"@  c #0A0D0D",
"#  c #120F0B",
"$  c #07100F",
"%  c #0C110E",
"&  c #111407",
"*  c #10110E",
"=  c #010610",
"-  c #060D12",
";  c #0A0E12",
":  c #050F19",
">  c #0C0F18",
",  c #100E10",
"<  c #061115",
"1  c #0C1214",
"2  c #0E1817",
"3  c #06131A",
"4  c #0C151A",
"5  c #0E191C",
"6  c #111415",
"7  c #131816",
"8  c #1A1A12",
"9  c #11161A",
"0  c #121A1D",
"q  c #191C1D",
"w  c #221B10",
"e  c #1C211F",
"r  c #2C291E",
"t  c #071720",
"y  c #0C1721",
"u  c #0D1B22",
"i  c #0E1E29",
"p  c #101720",
"a  c #131D22",
"s  c #191E22",
"d  c #121E29",
"f  c #201E21",
"g  c #0D2226",
"h  c #0E212B",
"j  c #152125",
"k  c #1A2225",
"l  c #14222B",
"z  c #1A242B",
"x  c #17282F",
"c  c #1B292D",
"v  c #132531",
"b  c #182730",
"n  c #162A33",
"m  c #1A2A33",
"M  c #172D38",
"N  c #1B2D39",
"B  c #1D333D",
"V  c #2F2E27",
"C  c #212629",
"Z  c #222A2E",
"A  c #28302C",
"S  c #32312A",
"D  c #212C32",
"F  c #22353C",
"G  c #28343A",
"H  c #3A3C36",
"J  c #403224",
"K  c #473B25",
"L  c #4F3E21",
"P  c #403829",
"I  c #4A453D",
"U  c #574331",
"Y  c #5A4C35",
"T  c #534738",
"R  c #735C3E",
"E  c #1A3440",
"W  c #223945",
"Q  c #414646",
"!  c #4B4B44",
"~  c #555549",
"^  c #5C5448",
"/  c #65635C",
"(  c #706751",
")  c #7C7669",
"_  c #7F7A6C",
"`  c #B07E39",
"'  c #846644",
"]  c #84785F",
"[  c #917C5F",
"{  c #B88A49",
"}  c #A5855F",
"|  c #B68C52",
" . c #BF9458",
".. c #91806A",
"X. c #9A8A6F",
"o. c #9E8F71",
"O. c #A28B68",
"+. c #B38E62",
"@. c #AB946F",
"#. c #BC9865",
"$. c #B7986E",
"%. c #A79674",
"&. c #A3987A",
"*. c #B79A76",
"=. c #C89B55",
"-. c #C09559",
";. c #C19E5F",
":. c #C7A15F",
">. c #CFA05A",
",. c #D7A95E",
"<. c #C09660",
"1. c #C49C64",
"2. c #C7A265",
"3. c #CEA265",
"4. c #C3A168",
"5. c #CBA369",
"6. c #C7A96C",
"7. c #CCAA6B",
"8. c #D6AA65",
"9. c #D4AB6D",
"0. c #DDB46F",
"q. c #C8A675",
"w. c #CFAA72",
"e. c #D3AC73",
"r. c #CFB078",
"t. c #DBB375",
"y. c #D4B17B",
"u. c #DEBA7D",
"i. c #E3B672",
"p. c #E2B97C",
"a. c #E6C27F",
"s. c #A49485",
"d. c #A79A88",
"f. c #C3AB82",
"g. c #CDB080",
"h. c #D4B885",
"j. c #DCBC84",
"k. c #D3B68D",
"l. c #DCBD8E",
"z. c #D3B794",
"x. c #E4BD83",
"c. c #DFC58E",
"v. c #DDC192",
"b. c #E3C287",
"n. c #E2C28B",
"m. c #EAC88B",
"M. c #F0C486",
"N. c #F3CC8D",
"B. c #E5C692",
"V. c #EBC793",
"C. c #E6C994",
"Z. c #E9CA92",
"A. c #ECCC99",
"S. c #EDD19D",
"D. c #EED5A4",
"F. c #EDD7B5",
"G. c #F7DBB7",
"H. c #FCE2A8",
"J. c #FCE2B4",
"K. c #F3E2BB",
"L. c #F9E9B9",
"P. c #F4E2C3",
/* pixels */
"2 7 3 a s @ a 0 ; O @ k 6 2 6 b 5 1 @ ; y 4 1 7 ; ; < 0 3 4 d 5 ; : a d 4 4 d 9 7 : @ 1 ; @ _ @ 1 7 ; 7 6 a 4 ; j 6 k.0 x 9 1 1 ",
"7 ; o ; 0 1 @ k - 0 4 9 < 7 0 + 2 1 4 7 i a ; 1 4 0 4 o 4 N 4 a s l ; 4 9 0 *.1 5 - a 1 1 s 4 ; @ 9 6 W 6 a ; a j { 1 3.4 z 1 2 ",
"4 - l l 4 4 @ z 9 0 4 7 9 4 6 @ 2 2 @ 1 9 ; 1 a + a @ ; 2 ; 0 4 ~ 0 z a d < ; ; @ 7 7 0 < 1 - 4 ; 3 < j - 1 0 1 z Z l U 7 h 1 5 ",
"7 4 4 ; ; 0 6 4 @ 9 w.7.0 ; a 2 d u v s ; 1 - 4 0 @ < o 1 6 1 4 H 6 0 < 5 u 4 , % o 1 3 @ 5 4 4 5 9 7 : a 0 5 9 ; 5 s < l u 1 @ ",
"4 9 1 1 @ 5 - 7 1 R p.,.6 0 2 e 9 0 1 @ X 6 6 4 9 6 - 1.- > ; 6 @ < 4 ; - > 4 + 9 3 9 2 O a s 6 X 1 1 a 6 2 3 0 - 5 4 p 0 . ; 0 ",
"1 4 1 4 7 @ ; 1 z u.N.a.v.+ + 1 X O 0 1 0 1 b 4 6 ; 9 s < @ < 0 0 - ; + O 4 + e @ 2 o 7 3 , s N.0 9 0 s + 1 0 1 5 s 4 ; s : @ 1 ",
"9 < 5 1 4 ; a # Y u.q.V.0.w & + 1 a @ + 7 a 9 @ ; + 6 p 6 a @ l ; @ @ 4 ; 2 2 4 < 0 - 5 a o , g.. . 1 s ; j 9 2 : 0 O l 5 a a 1 ",
"; s s @ ; 4 @ b.9.,.>.B.j.N.7.% 1 4 : a s 6 5 4 ; k 9 ; 1 y 1 @ 6 0 ; + 5 4 @ 7 a 4 2 s 1 c x.B.r.J a ; @ ; 5 4 9 z a 7 ; 1 ; 4 ",
"+ ; 7 4 ; 4 7 o z i.k.0.9.5 - 9 < q 9 7 ( a 9 a 0 9 1 < 5 + < 4 1 2 l 5 9 @ @ > 0 < 9 1 2 6 7 e.4 9 1 6   I a 4 a @ 4 0 1 9 0 6 ",
"1 4 u + @ a 9 @ 1 a a.Z.7 @ + y 4 4 ; < 0 a 5 d ; 1 a 5 + 5 @ d 2 # @ % 5 ; u 4 d u 9 a O @ 5 9 ; 7 2 j ; 4 0 ; 4 - 5 a 2 1 5 + ",
"4 - + Z j 1 5 ; % 1 l.C.9 a 6 1 0 1 , 4 p ; o 9 - + < 7 6 ; ; 4 4 5 4 1 4 ; n a 5 ; u 7 o 6 ; 1 4 d : M = ; 5 2 j 0 i 1 4 1 4 % ",
"9 0 1 < ; 4 + 0 2 : ^ 5.4 3 a < 1 4 ; 5 p > y 9 < 3 j.4 ; - ; 7 B u 0 < + 4 d < - 5 9 0 > 6 a d 1 a > 9 5 O 4 a 4 z 5 o.1 : < 5 ",
"9 0 1 1 4 6 6 7 9 4 4 c 9 0 ; ; ; 1 ; o i 1 u b 4 : 1 ; 4 4 s m < < > < d d.9 u a ; ; 1 j o O 9 @ 4 < D M j n 5 u 9 u z 1 1 < 6 ",
"o % 2 @ 0 7 9 ; 6 0 < 4 + 6 a s ; @ 7 4 a s 4 - + p 4 - - < 5 5 4 ; 7 ; d + 1 p 7 - 4 1 4 7 9 9 ; ; 1 0 4 a 5 @ a y 4 a 6 ; + 0 ",
"0 < O j 0 8 4 7 4 - < 0 a 1 4 0 # i 6 M 2 0 j 4 ) u 1 d 0 - l 9 5 < < ; 6 y , a 9 < ; ; @ y 1 ; 9 9 s @ a O + @ s j M 7 s < 7 O ",
"0 1 9 d 1 G.O 4 @ ; 6 7 o k 4 0 1 s 2 4 < + s 4 3 4 u a < y 0 3 5 b ; 6 @ 5 4 ; ; a 6 1 ; O 1 4 $ j 4 < < a 4 1 @ y 0 k - ; < 1 ",
"z 0 5 6 4 4 5 1 + - < 1 4 6 1 q 6 j 7 < 6 5 ; z 5 s < < s y ; 4 o l 1 ; ; 7 - ; - ; 2 1 ; 7 2 9 5 6 o 9 ; 0 4 2 5 j d 0 5 4 0 2 ",
"0 a 7 6 < a @ 4 9 ; < 9 9 1 < @ 6 < ; 7 0 ; < 5 o ; 4 a @ 4 - a u 9 a 5 + O < 0 - ; 0 9 ; #.a a < 2 2 1 1 1 1 o ; 0 4 ` K % 0 a ",
"1 a ; 5 7 < ; ; s 7 a s + 0 2 1 ; 9 1 S < 9 a - 4 5 ; l 5 1 a b 4 ; ; a a < ; 1 o z 1 5 s 4 : : y 1 1 o 5 1 0 1 4 9 1 1 ; 1 7 : ",
"5 7 @ / 1 ; 4 3 9 d a ; i 0 - @ 6 1 0 9 5 a , 0 > 6 ; a 4 < # q.1 9 4 + ; 7 ; - 4 @ 1 s a 1 7 9 4 % 5 7 0 1 1 l 2 4 6 a < s 1 0 ",
"1 9 1 @ , 0 4 @ 1 5 4 5 + O 4 l 4 6 1 0 ; 0 + 1 . 1 @ @ 7 @ S D.+ @ 4 7 9 6 a : 1 4 j 5 a o 6 9 1 a 1 @ 6 < ; 4 6 1 6 ; 4 a 9 @ ",
"2 1 + 5 O 0 1 9 X.r 1 0 k 1 u 5 2 s 5 1 7 O @ 6 < 4 1 0 7 1 ; o 0 4 u 4 - 5 s 6   @ 2 4 < 0 ; @ 1 a 4 1 0 9 6 - ; @ d 2 6 + 4 % ",
"7 9 d 4 6 5 ; ; 1 9 y + l m 0 0 ; + : + s 4 @ ; j 0 a 4 9 - 7 - 1 o 2 o 0 4 - r 9 j   ; - 4 4 2 @ 6 @ 2 < * h.7 6 9 4 9 F 6 ; k ",
"5 O 1 o + ; 6 < 1 4 < 5 0 1 1 0 4 5 < @ + < @ o 4 ; 1 - p ; k ; < 1 1 ; 4 2 2 @ < 0 9 4 2 a + 9 u : 7 1 < 1 ; < 1 < @ 0 0 9 4 0 ",
"4 0 9 ; ; D b d l 9 + u 5 9 + P.u h a 1 ; ; a 1 < 3 4 5 7 < @ % # 7 s u a ; 1 5 = 4 4 ; @ 5 ..0 b 9 2 l < - 5 4 O q 2 1 0 @ 1 @ ",
"0 1 7 o 1 @ l y y 3 z 1 u + 1 j a l 5 < ; @ 0 9 0 ; 0 - 3 6 2 1 5 B 5 ; ; 4 4 a 7 d 5 + a 0 < o < 7 < 6 ; d 0 2 5 O o 1 + 2 o % ",
"y - z 9 4 > l s 1 k 0 s 5 5 4 a @ 9 s ; 5 9 4 2 9 9 4 s 1 o 1 0 5 4   ; @ 6 4 0 ; 5 1 l ; - 3 3 7 - ; N 9 ; 9 1 ; 9 2 1 7 1 5 5 ",
"< < j < 7 4 3 d k < a 4 6 9 1 4 5 : 7 9 4 0 ; a 5 d 4 0 4 : 5 5 0 5 z 5 9 6 1 ; 9 4 < a < 4 u 4 + j a 5 2 7 1 6 4 C P @ a % @ 5 ",
"2 ; @ 0 5 4.> 5 ; - ; a u a e @ o 1 = 9 0 > s 7 5 0 7 a 4 + < 4 < 4 < o O 1 a d j l j - 0 s s 0 u 9 4 1 - < 0 5 7 O ; 4 0 4 - < ",
"< * s z 7.u.H.0 a : - + 4 7 6 7 1 E 4 z 4 ; ; < l < =   s h 4 ; @ 5 5 4 3 Q 1 1 9 0 u b ; < 5 0 < 7 a 6 1 ; t o < 1 O - ! + 0 o ",
"9 1 1 , k S.4 1 5 1 ; a 1 @ ; o D ; 9 5 3 < ; 1 u 5 C.z.a 4 1 l u 4 < u 0 &.4 k a ; - 4 1 j a - ; 4 - 1 6 =.< 2   % 7 4 1 6 5 1 ",
"1 6 ; 1 s z 0 4 - + s ; @ 1 0 - v ; + ; 4 : 4 d l u o   1 ; ; 0 7 - 1 1 j d @ 4 - 5 9 a a s - d 5 z 6 7 @.2.x.  2 + 2 2 % < 1 0 ",
"; 6 7 1 a a ; 4 ; ; 4 7 z d 4 + 1 5 5 1 4 s i 0 < l     ; 7 : ; < z 9 5 9 9 1 4 i 1 j L.5 4 k 0 < j 1 0 9 -.6 ; 5 o 1 + @ 5 d * ",
"9 4 a % 4 9 ; 9 @ < z 4 5 ; - ; 4 5 4 4 4 4 u 4 7 > 9 5 ; < 0 9 4 4 2 @ ; 1 4 3 - 0 - @ + 1 1 1 l @ < 4 2 7 s 4 , ; 2 2 0 9 0 9 ",
"6 # 9 5 u 6 4 6 s : : @ @ 2 9 0 1 < 5 u < O d < - 3 9 6 5 - 0 7 @ o 9 2 2 i 6 d j d d 9 a @ 9 3 l 7 4 4 a 1 0 4 a a O 1 5 ; 0 d ",
"+ 7 0 5 9 o - 7 @ 5 7 6 4 ; ; 4 j O < a O 3 4 ; + a @ 2 1 y < ; ; 2 9 s . j 5 z 4 u z 0 5 < @ j 4 4 4 j 4 0 6 6 ; O 2 < y 0 ; 1 ",
"- 7 - : s j 9 6 @ 1 5 1 u 0 4 u z 0 % @ ; 6 ; 4 j 2 a 9 2 2 4 a j @ 4 < 6 < u a : u ; 4 1 0 - 5 ; 2 1 j %   9 2 9 5 4 d 5 s 9 3 ",
"a + 1 @ a 9 < s 9 4 ; 6 4 1 1 5 5 9 N.a 4 6 ; a ; 4 + 9 % 1 1 ; - 2 0 : N a j a z d 5 j ; ; @ 0 - O 9 1 o 4 2 5 - 7 < b 4 ; 9 1 ",
"9 1 1 ; 5 4 0 1 0 ; 1 + + 6 @ 4 l 9 a 4 4 4 1 6 9 9 4 ; o o a a < a 4 u 5 5 y 4 3 - K.1 6 5 0 5 0 6 j 2 @ @ + @ p 1 1 - 5 7 9 ; ",
"1 X @ 1 7 0 9 4 o + 0 4 0 O + ; 6 9 2 < ; 9 4 ; 9 . @   1 : ; G ] 4 + 2 i b 4 j , 7 1 - - O u ; j l 9 u 5 2 b < 4 > 7 1 + 5 4 O ",
"O 4 7 ; + 2 7 u 9 1 0 6 5 % 1 - 0 6 @ 1 7 7 - 4 7 1 = a p - ; 4 4 4 5 3 < d 4 4 4 5 4 % < 6 2 1 1 a < k 1 1 4 1 5 4 @ 1 2 - 0 < ",
"+ 0 O s 4 - 4 + j k 1 4 z 4 - 4 < 4 1 2 5 1 4 a s 1 a 4 ; 4 5 < a 5 a + 3 j 1 1 j 4 1 2 2 1 ; s 6 5 9 3 1 9 s 4 4 ; < @ ; 4 9 7 ",
"@ 2 1 W < 6 0 - ; 6 7 } 5 9 6 5 1 z < 1 4 O ; 1 4 4 4 0 a 4 d 4 j - 4 4 9 + j 4 < 6 < 6 % < - 9 6 f.s 4 4 j 0 1 a o 1 9 W 7 6 ; ",
"4 0 4 a 6 4 ; 5 - 0 5 1 1 % 9 5 1 5 ; 9 s - g.7 3 5 7 a - 1 s l v 4 - ; 0 < 5 + @ 4 ; 1 2 5 1 j s b.6 5 5 u @ < a < < 9 - ; 1 9 ",
"4 7 ; 7 : A a d 4 p 6 9 @ 5 @ , 4 + < 0 9 ; 4 @ ; < 9 6 1 l 1 0 + y i : @ @ 1 u 4 O 2 1 d 0 + 1 3.0.[ s % ; ; 2 4 2 7 ; 5 a ; @ ",
"o 3 4 9 6 ; a 0 a + a 4 4 7 Y ; s < 4 ; 1 ; ; @ + d ; 3 z 3 s @ 2 g @ 5 1 2 4 < 2 @ ; 0 4 ; 1 z 1.m.<.4 < 1 1 4 1 a 4 1 1 a a @ ",
"9 - 9 4 2 9 4 l 4 5 y ; : 0 1 4 0 1 1 0 ; j 4 l y 4 : g - < m 4 ; ; p 1 2 6 5 0 s a 1 < - u 5 J.A.y.,.l.1 < a 1 ; 1 < 6 0 6 7 o ",
"1 ; 9 < < s l a z 5 > 4 ; 5 5 1 ; 1 6 % 9 1 d 1 l 3 7 t 7 5 ; h a 7 @ 4 1 4 1 1 4 ; - 1 s  .i.l.2.J.M.p.:.$.Z ; ; 6 4 5 4 1 1 9 ",
"6 d 4 4 9 4 5 - 6 0 @ > 1 b 6 j d 2 : 1 < 0 4 ; @ @ 4 ; 2 ; o 0 u @ + 4 4 ; 5 F.5 + 9 o 4 : = n.n.A.M.Z.  - < a O 0 ' 5 < 9 1 - ",
"; - ; z 3 ; 4 u 9 T ; : 6 6 6 @ 9 4 ; 6 # 0 i 1 < 4 1 @ 1 < ; - 1 - 1 2 l 6 7 ; 1 a 4 4 u 4 0 n L S.y.m 4 > < 4 5 4 - % 2 3 4 z ",
"a ; 4 ; < 5 4 5 s : u a 4 4 - z 4 7 b 1 < s O + 1 4 a - - : 9 6 4 1 6 + 7 < s ; j d 1 5 0 > a m z 6.H 0 @ 7 0 g 1 b 1 1 5 O 4 , ",
"1 9 @ p 4 K.9 + 5 @ 2 7 u 1 + 4 5 y 9 ; 4 b ; @ j < y 4 4 4 7 ; 7 - 6 4 9 6 1 1 1 1 ; ; 4 s 4 < k | e 4 ; 4 0 4 1 1 0 1 < ; ; 4 ",
"5 4 5 : d T a 4 - 7 2 0 7 o 2 s ; 3 p 9 a : 2 o 1 j - a ; 4 <   3 4 7 2 @ 9 1 1 0 1 + - 1 1 6 5 0 x.9 2 1 z < 0 6 4 @ + 1 1 6 1 ",
"0 < ; + + 0 - 0 9 a y - q 4 < 5 1 5 6 - 4 2 @ < @ 4 ; 9 < a 2 < 1 1 7 4 ; 1 ; ; ; a - a ; 6 n 4 4 4 ; ; @ ; 1 1 ; < @ a < p z a ",
"< 6 9 d @ 1 o 6 m ; @ : 4 0 a 6 @ : 9 @ 5 ; 1 s.< 1 ; @ 4 @ 4 5 @ 0 - 1 ; D 4 9 7 0 9 1 2 ; 1 < ; 5 @ 1 @ + ; 1 0 - 2 - 5 5   O ",
"0 k a ; 1 1 4 1 < s 0 c.@ n 0 2 5 b b ; u > @ 6 1 1 6 4 D a 4 @ a s 1 < 4 X 4 1 9 ; @ ; @ 4 1 9 0 1 0 < ; a 4 % ; ; 2 % 5 @ 1 . ",
"7 1 @ 2 ; < 5 > @ k 8.c.;.7 4 ; h 3 ; 5 < ; : 9 < < 4 4 a 5 < 5 ; 2 0 4 2 < ; d s 0 o 1 @ ; 7 3 6 u z 1 5 s < 1 z 1 ; @ < 4 9 O ",
"4 6 4 4 j : ; ; a < < t.4 1 4 a 5 x ; 5 5 5 7 + 2 @ d 0 < @ j 1 4 4 - ; - 0 2 4 6 2 8 1 1 < ; z 2 + z 4 5 s 9 l g.< 7 4 7 4 z 9 ",
"s < 2 @ 0 0 ; 4 - j e V ; 9 1 ; + x 9 ; + 4 u j 7 a 1 o @ 4 4 1 + o ; 9 ; 4 6 7 ; 0 @ : s - 7 d 5 b 1 5 5 1 1 0 4 ; o 4 % z d 1 ",
"1 ; b d > m y 4 @ u 2 - 1 1 4 , 4 ; - 7 9 s 2 9 y 1 6 @ 6 1 1 3 5 2 5 < 7 2 1 d 1 ; @ a n 2 z 3 5 4 + 5 % X 5 @ 4 @ + 5 s 2 @ 6 ",
"5 l 5 a 4 1 0 9 4 u 9 a 0 < D 1 z ; 1 s d ; < o < + 1 @ a ; 4 a 3 9.k @ < 1 ; 1 @ 3 ; 5 1 0 2 4 1 a 0 ; 1 o 4 1 1 1 @ 6 - 3 1 4 ",
"s l < u + s l j s y a B s < + < a a @ 1 %.  a 5 5 7 ; z @ - x 3 a a 4 5 + 6 y ; < 4 5 7 0 1 < 5 7 < s ; % % 6 1 7 4 1 1 1 < % 1 ",
"1 @ + : @ : i a 4 ; ; ; 0 9 k 9 < ; y f l.#.6 - ; 4 1 5 v 6 4 9 @ ; 7 s k ; s < % < l 4 < 1 0 @ < < 7 ; 1 0 ; 9 6 < 2   - ; 9 ; ",
"4 a 0 @ 5 a : 4 s 4 7 > 7 @ 0 1 j < 0 0 O.o ; ; - 4 9 7 7 2 < ; + @ 6 6 + 1 1 4 2 + 4 0 1 +.9 2 0 a O 9 < 1 7 5 6 0 l O 5 4 @ 4 "
};
