/* XPM */
static char *result[] = {
/* columns rows colors chars-per-pixel */
"64 64 216 2 ",
"   c black",
".  c #0B071C",
"X  c #120D27",
"o  c #141326",
"O  c #191325",
"+  c #171528",
"@  c #1A1729",
"#  c #1B192A",
"$  c #221B2B",
"%  c #291C29",
"&  c #261C32",
"*  c #242332",
"=  c #2C2436",
"-  c #2D2D3A",
";  c #312B39",
":  c #392C39",
">  c #2F303C",
",  c #32323D",
"<  c #39313E",
"1  c #4E1A09",
"2  c #521E0A",
"3  c #4E1910",
"4  c #611D08",
"5  c #59230C",
"6  c #592614",
"7  c #762907",
"8  c #6D300D",
"9  c #652A16",
"0  c #773614",
"q  c #522623",
"w  c #6D3826",
"e  c #754A28",
"r  c #7F513C",
"t  c #373445",
"y  c #3C3444",
"u  c #463945",
"i  c #4E424C",
"p  c #545661",
"a  c #686F72",
"s  c #727578",
"d  c #767A7A",
"f  c #7A7D7C",
"g  c #8C3C06",
"h  c #963B07",
"j  c #8C3A15",
"k  c #913612",
"l  c #A13B0A",
"z  c #9B4507",
"x  c #984616",
"c  c #A24404",
"v  c #AA4705",
"b  c #A4440B",
"n  c #A54A0C",
"m  c #AB4B0C",
"M  c #B84409",
"N  c #B24D0B",
"B  c #AD510D",
"V  c #B95707",
"C  c #B4530C",
"Z  c #B9550C",
"A  c #BB580C",
"S  c #A44B12",
"D  c #AD4E12",
"F  c #B64F16",
"G  c #AD5214",
"H  c #AB561A",
"J  c #B35413",
"K  c #B95613",
"L  c #B65913",
"P  c #BC5B14",
"I  c #B6561A",
"U  c #BB5B1A",
"Y  c #BE630A",
"T  c #BE6016",
"R  c #8D4E2E",
"E  c #A35922",
"W  c #B45923",
"Q  c #91683A",
"!  c #BC6323",
"~  c #B46432",
"^  c #C25B0E",
"/  c #C65B12",
"(  c #C25E13",
")  c #C15E1A",
"_  c #CA650C",
"`  c #D1700F",
"'  c #C56215",
"]  c #CA6512",
"[  c #CD6A15",
"{  c #C5631B",
"}  c #CA661B",
"|  c #CC6A1B",
" . c #D16D16",
".. c #D5651B",
"X. c #D26D1B",
"o. c #CB731B",
"O. c #D5731B",
"+. c #D67618",
"@. c #D9761C",
"#. c #DC7B1C",
"$. c #E17D1D",
"%. c #C86826",
"&. c #CD6A24",
"*. c #D36D24",
"=. c #C9722F",
"-. c #D37224",
";. c #D97521",
":. c #DD7A22",
">. c #D77829",
",. c #E37D22",
"<. c #E27927",
"1. c #996849",
"2. c #9E7150",
"3. c #B07A4E",
"4. c #AA7C53",
"5. c #7F807F",
"6. c #DD8217",
"7. c #DE831D",
"8. c #E4841E",
"9. c #E3881F",
"0. c #DC8526",
"q. c #DC8B3C",
"w. c #E38424",
"e. c #E58B24",
"r. c #EB8B25",
"t. c #E3832B",
"y. c #E88729",
"u. c #EC8C2B",
"i. c #F18D2D",
"p. c #E69227",
"a. c #EC942B",
"s. c #ED9B2C",
"d. c #F29527",
"f. c #F2932C",
"g. c #F39C2E",
"h. c #E98834",
"j. c #F48C31",
"k. c #E89137",
"l. c #ED9B31",
"z. c #F39C33",
"x. c #F59936",
"c. c #ECA434",
"v. c #EEA73A",
"b. c #F3A134",
"n. c #F6A534",
"m. c #F3A43A",
"M. c #FAA43B",
"N. c #F4AC3C",
"B. c #F8AB3C",
"V. c #F7B03C",
"C. c #A68447",
"Z. c #AE845A",
"A. c #B5865C",
"S. c #B8875F",
"D. c #BC8E67",
"F. c #BA9267",
"G. c #C0955A",
"H. c #F29B44",
"J. c #F9AB43",
"K. c #EFB745",
"L. c #F5B343",
"P. c #FAB343",
"I. c #F6B947",
"U. c #FDB54C",
"Y. c #FCBA49",
"T. c #EAB151",
"R. c #F9BB53",
"E. c #C2956B",
"W. c #C5996A",
"Q. c #C59B71",
"!. c #D09C75",
"~. c #CEA876",
"^. c #FDC24D",
"/. c #F8C457",
"(. c #FEC455",
"). c #FBCB5B",
"_. c #FCCC65",
"`. c #FDDB74",
"'. c #FBDC76",
"]. c #FBE27D",
"[. c #7F8080",
"{. c #828683",
"}. c #838985",
"|. c #868D89",
" X c #888F8A",
".X c #87908A",
"XX c #8B938D",
"oX c #8E9690",
"OX c #8E9A92",
"+X c #929E95",
"@X c #949E98",
"#X c #93A097",
"$X c #94A399",
"%X c #9AA39C",
"&X c #9AA99F",
"*X c #9BA7A0",
"=X c #9DADA1",
"-X c #9FB1A5",
";X c #A0A8A2",
":X c #A1B3A5",
">X c #A8B9AC",
",X c #D7AE85",
"<X c #E0BF8C",
"1X c #E5B792",
"2X c #AFC3B4",
"3X c #B1C4B6",
"4X c #B5CBBB",
"5X c #B7CBBB",
"6X c #BAD0BE",
"7X c #F0D192",
"8X c #F8E68D",
"9X c #BDD4C1",
"0X c #BDDBC5",
"qX c #C1DBC7",
"wX c #C3E2CA",
"eX c #CBE9D3",
/* pixels */
"u t                                   # i i             o                         * u > * o                                 + & ",
"* {.{..X X|..X|.|.|.|.|. X|.|.|.[.#X$X5.5.> 5.5.#XOX.XOX$X[.OX[..X#X[.#X#X.X.X#X#X[.  o 5.5..XXX.X.X.X.X.X}..X|..X|.|.|.|.|.XX  ",
"@ >X|.{.{.{.}.{.}.{.}.{.}.{.{.{..X5.OX[.5.* 5.5.[..X5.[.[.$X[.[.5.OX5.[.5..X5.5.[.eX    &X{.}.[.{.{.}.{.}.{.}.{.}.}.{.{.{.{.XX  ",
"$ @X}.{.{.{.{.{.{.{.{.{.{.{.{.}.[.5.5.OX5.* 5.5.[.[.5..X[.[.[.&X5.[.5.5.[.[.5..X5.eX    XX}.[.}.{.{.{.{.{.{.{.{.{.{.{.{.}.}..X  ",
"$ %X{.{.{.{.{.{.{.{.{.{.{.{.{.{.[.[.[.[.[.> [.[..X5.5.5..X5.[.[.[.[.[.-X.X5.5..X[.eX    $X[.[.[.{.}.{.{.{.{.{.{.{.{.{.{.{.{.XX  ",
"$ %X}.{.{.{.{.{.{.{.{.{.{.{.{.{.#X[.[.#X[., [.[..X[..X5.[.F.[.[.[.[.[.[.5..XZ.5.5.wX    [.$X[.[.{.{.{.{.{.{.{.{.{.{.{.{.{.{..X  ",
"o %X{.{.{.{.{.{.{.{.{.{.{.{.{.{.[.[.[.[.[.> [.[.5..X5..X[.[.[.[.[.&X[.[.[.[.[.[.[.wX    &X[.[.$X{.{.{.{.{.{.{.{.{.{.{.{.{.{.XX  ",
"+ %X{.{.}.{.{.{.{.{.{.{.{.{.{.{.[.[.#X[.[.> [.[..X5.5.[.[.[.[.[.[.[.[.[.[.[.[.[.[.eX    $X[.[.[.{.{.{.{.{.}.{.{.{.{.{.{.}.{.XX  ",
"o -X[.&X[.[.}.{.{.{.{.{.{.{.}.{.-X[.[.-X[.> [.[.{.{.{.{.{.{.{.{.[.[.$X[.5..X5.5.5.0X    [.[.[.[.{.{.{.{.{.{.{.{.{.{.{.{.}.{.XX  ",
"+ >X[.[.[.[.Z.{.{.{.{.{.{.{.{.{.[.[.[.[.[.> [.[.{.{.{.{.{.{.{.{.[.[.[.[..X5.5..XOX0X    -X[.&X[.{.{.}.{.{.{.{.{.{.{.{.{.{.{.XX  ",
"+ &X[.[.[.[.{.{.{.{.{.{.{.{.{.{.[.[.[.[.[.> [.[.{.{.{.{.{.{.{.{.[.[.[.$X.X5.OX5.5.wX    [.[.[.[.{.{.{.{.{.{.{.{.{.{.{.{.{.{.XX  ",
"o $X[.[.[.[.{.{.{.{.{.{.{.{.{.{.[.[.[.[.[.* [.[.{.{.}.{.{.{.{.{.#X[.[.[.5.5.5.5.5.eX    -X[.[.[.{.{.{.{.{.{.{.{.{.{.{.{.{.{.XX  ",
"+ &X[.[.{.{.{.{.{.{.{.{.}.{.{.{.5.}.}.[.5.* 5.}.{.{.{.{.{.{.{.{.[.[.[.#X5.[.OX5.[.eX    $X5.[.[.{.{.{.{.{.{.{.{.{.{.{.{.{.{.XX  ",
"+ &X[.[.}.{.{.{.{.{.{.{.{.{.{.{.}.}.Z.[.5.* 5.}.{.}.{.{.{.{.{.{.[.[.[.[.[.[.[.5.5.wX    #X.X[.[.{.{.{.{.{.{.{.{.{.{.{.{.}.{.XX  ",
"+ -X[.[.}.{.{.{.}.{.{.{.{.{.{.{.}.5.5.}.d # 5.}.{.{.{.{.{.{.{.{.[.[.[.[.[.[.[.5.5.wX    XX5.5.[.{.{.{.{.{.{.{.{.{.{.{.{.{.}.XX  ",
"+ >X[.[.{.{.{.{.{.{.{.{.{.{.{.{.}.}.[..X5.- 5.}.{.{.{.{.{.{.{.{.#X[.[.#X#X5.[.OX5.wX    OX5.F.[.{.{.{.{.{.{.{.{.{.{.{.{.}.{.XX  ",
"+ &X.X[..X.X[.}.{.{.{.{.{.{.{.{.{.{.{.|.f - f }.{.{.{.{.{.{.{.{.Z.z g N d.i.8.$.w.j.$.h g |.[.|.{.{.{.{.{.{.{.{.{.{.{.{.{.{..X  ",
"o $X[.[.[.[..X[.{.{.{.{.{.{.{.{.{.{.{.|.f > 5.}.{.{.[.{.{.{.0 W ~ 9.X.+.;.0.r.e.7.a.,.<.<.H x [.{.{.{.{.{.{.{.{.{.{.{.{.{.{.XX  ",
"* -X[.[.[.[.[.[.{.{.{.{.{.{.{.{.{.{.{.{.5.: f }.{.{.5.h l Y l.s.k.p.d.8.#.V m 9.L.R.i.r. .O.@.U 1 {.{.{.{.{.{.{.{.{.{.{.{.{.|.  ",
"  [.[.*X$X#X$X$X#X#X+X#X+X+X#XOX+XOXOXoXa O 5.5.&X+Xu.#.d.U.b.V.J.K.Y.` 8.#.I D +.I.(.,.M.t.^ Z F $X$X+X#X+X#X$X+X#XOXOXOX+X@X  ",
"; {.{.9X6X6X6X4X6X5X5X5X5X6X6X3X3X5XqX>Xs < f 7 :.8.:.o.o.0.).).).).L.v.p.c.+.<.C m ;.N.L.:.:.' / ) 4X3X4X4X4X3X5X5X3X3X2X6XqX  ",
":                                         u A 9.,.w.O.P C F c M :.T.]./.c.7.,.w.w.[ n v x.(._ ' >.( 0                         & ",
"<  X{.oXOXXXoXOX+XXXoXXXoXoXoXoXoXoX|.$Xs j.w.@.e.8.a.V.g.f.^ v D P T.k._.T.e.#.w.+.] m N J.z.T | { L w oXoX+XoXOXoXoXoXoXOX%X  ",
"y @X}.}.}.{.}.}.}.}.}.}.}.}.{.{.}.}.}.m r.$.e.P.Y.(.b.p.a.L.R.u.V ' V b v _.U.r.x.] ] ] K k.M.O.} K D 9 }.}.}.{.}.}.}.}.}.}.OX  ",
"@ %X}.}.{.{.{.{.{.{.{.{.{.{.{.{.}.{.) #.a.L.(.`.'.).`.I.L.g.g.a.g.e.,.K C %.0.b.#.O.X. .^ b 0.{ | { A G {.{.{.{.{.{.}.{.{.{.XX  ",
"$ @X{.}.{.{.{.{.{.{.{.{.{.{.{.{.g K +...} C V v A a.'.'._.L.z.M.r.r.d.w.O.' ] 9.m.:.X.X.X.| | @.C -.C m {.{.{.{.{.{.{.{.{.{..X  ",
"$ @X}.{.{.{.{.{.{.{.{.{.{.{.{.k u.#.i.g.c.V...M / / v m.`.`.x.d.z.i.M.u.f.w.A c s.e.w.@.@.C -.' ' K K D {.{.{.{.{.{.{.{.{.}.XX  ",
"+ ;X}.{.{.{.{.{.{.{.{.{.{.{.{.h ,.n.9.g.N.b.U.s.u.X.X.F >.(._.Y.I.u.f.u.e.#.$.<.b m.} ( } | &.{ -.U m H {.{.{.{.{.{.{.{.{.}.XX  ",
"O %X{.{.{.{.{.{.{.{.{.{.}.{.j y.:.#.g.P.s.I.P.n.b.U.w.O.N P [ ).(.p.M.f.k.O.8.X.| -.[ [ J P ' K %.T D 0 {.{.{.{.{.{.{.{.{.{.XX  ",
"+ %X{.{.}.{.{.{.{.{.{.{.{.{.k $.$.$.z.b./.P.I.B.c.K.(.+.^ b h -.B.p.$.M.x.` @.] 9.V U.;.P } -.{ m K z 1 {.{.{.{.{.{.{.{.}.{..X  ",
"@ %X{.{.{.{.{.{.}.{.{.{.{.R 8.e.b.N.L.m.I.^.b.^.M.B.L.v.f./ A D h.c.+.B.[  .X.:.] } ^ &.m b K C K U H 2.{.{.{.{.{.{.{.{.{.{.XX  ",
"o %X{.{.}.{.{.{.{.{.{.{.{.[ $.e.a.Y.I._.8X8XB.n.z.b.r.y.J.J./ b g H.P.X.@.@.( }  .' ' P } l U n U I 4 Q.{.{.{.{.{.{.{.{.{.{.XX  ",
"+ *X[.{.}.{.{.{.{.{.{.{.5 0.y.s.f.z._.).'./.b.).g.l.f.0.r._ d.C &.h t.0.+.#.V ' [ ( L P I I v z B 9 E.7X{.{.{.{.{.{.{.{.{.{.XX  ",
"X *X}.{.}.{.{.{.{.{.{.{.E H.7.w.l.p.L.8Xz.).a.I.l.r.z.r.z.X.] y._ y...z.O.Z P &.G K L J G B G I &.R D.Q.{.{.{.{.{.{.}.{.{.{.oX  ",
"+ @X[.}.[.}.{.{.{.{.{.{.~ { @.` m.c.P.(.I.b.Y.e.e.r.z.z.,.+.-.@. .X.O.<.[ P K U G I D I G U ! z q Q.1X{.{.{.{.{.{.{.{.{.{.{..X  ",
"@ *X}.{.{.}.{.{.{.{.{.{.=.+.h.#.8.z.g.m.B.u.r.L.a.x.f.,.:.6.] | X.:.O.y.' ' P G n m n m D { W 3 Z.!.{.{.{.{.{.{.{.{.{.{.{.{.oX  ",
"+ %X}.{.{.{.{.{.{.{.{.{.~ 0.:.X.,.u.M.p.b.:.r.s.w.i.$.@.+.' ] ( ' N X.P P &.J I S n D %.( S 6 4.,X{.{.{.{.{.{.{.{.{.{.{.{.{..X  ",
"+ %X{.{.}.{.{.{.{.}.{.{.~ h.h.#.r.f.e.I.w.w.7.r.@.w.y.] X.( / } P P | A I G I b C m U ' h 6 W.D.{.{.{.{.{.{.{.{.{.{.{.{.}.{.XX  ",
"+ %X{.{.}.{.{.{.{.{.{.{.x %.( X.u.0.a.z.r.M.r.@. .+.#.] [ } P ' P K G D D %.C *.U ) b 8 3 A.3.}.{.{.{.{.{.{.{.{.{.{.{.{.{.{.oX  ",
"% @X{.{.{.}.{.{.{.{.{.{.w ' ' e.-.u.O.u.,._ _ $.O.O.H./ } ( P U z b %.S U =.S C J z 6 D.C.e }.{.{.{.{.{.{.{.{.{.{.{.{.{.{.|..X  ",
"& @X|.[.[.[.[.[.[.{.[.[.[.E %.(  . .a.O.:.w.[ ;.[ [ #.P m } G S m B B K o.J U T H 0 F.S.3.{.{.[.[.[.[.[.[.Z.{.{.{.[.{.{.{.}.+X  ",
"X {.[.>X:X-X-X-X&X=X&X&X-X0 O.U ] ] [ @.} +.{ O.} [ | b m G m m J G P &.| Y z E 1.E.Z.  {.{.:X=X-X-X=X-X*X&X&X=X=X=X>X:X-X>X5X  ",
"y .                       C.q.>.,.V ) [ O.*.>.' -.| T T L J J m O.C } -.v J r A.F.F.t =                 .                     # ",
"< 2.[.[.{.[.{.[.[.{.[.[.[.{.~.x } ;.>._ ( [ | P | -.m H K [ J } ;.z G x 8 D.~.1X5.5.t # [.f {.[.[.{.[.[.[.[.[.[.{.[.{.f {.[.{.t ",
"$ [.[.}.}.}.}.}.}.}.{.|.}.|.|.7Xe H [ V V %.*.*.Y Y 0.T z Y E Y 7 0 r 4.F.C.}.|.}.5.  . 5.[.|.|.|.}.{.}.}.}.}.}.|.}.}.}.{.|.|.  ",
"$ *X}.}.{.{.{.{.{.}.{.{.[.{.[.,XG.2.8 0 I C U I B ! z z e 6 6 e F.4.Q.Q Z.}.{.}.}.0X    XX}.{.{.{.{.}.{.{.{.{.{.{.{.{.}.{.{.XX  ",
"$ @X}.{.{.{.{.{.{.{.{.{.|.[.{.{.{.,XQ.Z.5 2 2 5 6 6 6 1 8 G.C.~.~.F.}.{.}.{.{.{.{.wX    XX{.{.}.{.{.{.{.{.{.{.{.{.{.{.{.{.}..X  ",
"$ *X{.}.{.{.{.{.{.{.{.{.{.{.{.{.{.{.{.|.S.E.D.4.Z.W.~.G.<X5.5..X[.[.{.{.{.{.{.{.}.9X    XX{.{.{.{.{.{.{.{.{.{.{.{.{.{.{.{.}.XX  ",
"$ *X{.{.{.{.{.{.{.{.{.{.{.{.{.{.5.5..X.X5.> 5.5.5.5..X5.5..X5.5.{.{.{.{.{.{.{.{.{.wX    oX}.{.{.{.{.{.{.{.{.{.{.{.{.{.{.{.{. X  ",
"@ @X{.{.{.{.{.{.{.{.{.{.{.{.{.{..X5.5..X5.> 5..X.X5..X5.5..X5..X{.{.{.{.{.{.{.{.{.0X    XX{.{.}.{.{.{.{.{.{.{.{.{.{.{.{.}.{.oX  ",
"+ @X{.{.{.{.{.}.{.{.{.{.{.{.{.{..X5.5..X5.* 5..X.X5.5..X.X5.5.5.{.{.{.{.{.{.{.{.{.0X    XX{.{.{.{.{.{.{.{.}.{.{.{.{.{.{.{.}..X  ",
"+ *X{.{.}.{.{.{.{.{.{.{.{.{.{.{.5.5..X.X5.- 5.5.5.5..X5.5.5..X.X{.{.{.{.{.{.{.{.{.0X    oX}.{.}.{.{.{.{.{.{.{.{.{.{.{.{.{.}..X  ",
"+ *X{.{.{.{.{.{.{.{.{.{.{.{.{.}.5.5..X.X5.> 5..X5..X.X5..X5..X5.{.{.{.{.{.{.{.{.{.9X    XX{.{.{.{.{.{.{.{.{.{.{.{.{.{.{.{.{..X  ",
"o %X{.{.}.{.{.{.{.{.{.{.{.{.{.{..X5.5..X5.* 5..X5.5.5.5..X5.5.5.{.{.{.{.{.{.{.{.{.0X    oX}.{.{.{.{.{.{.{.{.{.{.{.{.{.{.{.{.XX  ",
"o %X{.{.{.{.{.{.{.{.{.{.{.{.{.{..X5.5..X5.- 5.5..X5.5..X5.5..X.X{.{.{.{.{.{.{.}.{.0X     X}.{.|.{.{.{.{.{.{.{.{.{.{.{.{.}.{.XX  ",
"+ %X}.{.{.{.{.{.{.{.{.{.{.{.{.{.5..X5.5.5.* 5..X5..X.X5.5..X5.5.{.{.{.{.{.{.{.{.}.0X    oX{.{.{.{.{.{.{.{.{.{.{.{.{.{.{.{.{.XX  ",
"# -X[.[.&X[.[.[.{.{.{.{.{.{.{.{..X5..X5.5.> 5.5.[.[.[.[.[.[.[.#X{.{.}.{.{.{.{.{.}.0X    oX}.{.}.{.{.{.{.{.{.{.{.{.{.{.}.{.{..X  ",
"# -X$X[.[.[.[.[.{.{.{.{.{.{.{.{.5.5.5.OX5.* 5..X.X.X[.OX#X[.[.[.{.}.{.{.{.{.{.{.}.0X    oX{.{.{.{.{.{.{.{.{.{.{.{.{.{.{.}.{.XX  ",
"# [.[.[.[.[.[.-X{.{.{.{.{.{.}.{.5..X5..X5.> 5.5.[..X[.[.[.[.[.[.{.{.{.{.{.{.{.{.}.wX    oX}.{.{.{.{.{.{.{.{.{.{.{.{.{.{.}.{..X  ",
"# >X$X[.[.[.[.[.{.{.{.{.{.{.{.{.5..X5..X5.* 5.5.[.[.[.OX[.[.[.#X{.{.{.{.{.{.}.{.}.0X     X{.{.}.{.{.{.{.{.{.{.{.{.{.{.{.{.}..X  ",
"# $X[.[.[.[.[.[.[.Z.{.{.{.{.{.{.5.5.5.5.5.> 5.5..X[..X5.[.[.[.[.[.[.[.[.{.[.[.[.}.eX    XX}.{.{.{.{.{.{.}.[.}.{.{.{.{.{.{.{..X  ",
"* &X[.[.[.[.[.[.[.}.}.{.{.}.{.{.5.5.5..X5.> 5.5.[..X5..X[.[.[.[.[.[.[.[.Z.[.[.[.[.eX    XX{.}.}.}.}.}.{.}.[.}.}.}.}.[.{.{.{.}.  ",
". [.[.-X[.-X>X[.$X[.$X#X$X$X%X+XOXOXOX#Xa # 5.5.-XOX-X#X[.-X-X[.2X-X[.-X-X[.&X&X*X[.  . {.2.$X#X+X#X#X$X$X#X$X$X#X$X+X#X+X@X&X  ",
"* 5.5.[.[.[.[.[.[.[.d d d f d d 5.5.5.5.p > 5.a 5.5.5.5.5.[.[.[.[.[.[.[.[.a [.[.f d   - [.d d f d f d d f f d d f d f f d d [.= "
};
