/* XPM */
static char *result[] = {
/* columns rows colors chars-per-pixel */
"64 64 118 2 ",
"   c #010101",
".  c #0B0B0B",
"X  c #07041A",
"o  c #0F091D",
"O  c #131313",
"+  c #1B1B1B",
"@  c #0D0926",
"#  c #130C22",
"$  c #141326",
"%  c #191325",
"&  c #171528",
"*  c #1A1729",
"=  c #1B192A",
"-  c #1B1830",
";  c #221B2C",
":  c #291B29",
">  c #211E33",
",  c #291C31",
"<  c #242424",
"1  c #24212F",
"2  c #29202F",
"3  c #2C2C2C",
"4  c #242332",
"5  c #2C2436",
"6  c #2C2A37",
"7  c #2E253A",
"8  c #2D2D3A",
"9  c #362535",
"0  c #312C39",
"q  c #3A2F3C",
"w  c #2F303C",
"e  c #343434",
"r  c #34323E",
"t  c #39313E",
"y  c #3C3C3C",
"u  c #7F0000",
"i  c #353241",
"p  c #3C3444",
"a  c #443945",
"s  c #444444",
"d  c #4B444D",
"f  c #4C4C4C",
"g  c #535353",
"h  c #5C5C5C",
"j  c #545661",
"k  c gray39",
"l  c #60646B",
"z  c #6B6B6B",
"x  c #676E71",
"c  c #696F72",
"v  c #6D7174",
"b  c #757575",
"n  c #737779",
"m  c #767A7A",
"M  c #7A7C7C",
"N  c #840201",
"B  c #E80204",
"V  c #AD7775",
"C  c #D07877",
"Z  c #7F807F",
"A  c #7F8080",
"S  c #828683",
"D  c #838985",
"F  c #868D89",
"G  c #8B8D8C",
"H  c #87908A",
"J  c #8B938D",
"K  c #8E9690",
"L  c #8E9A92",
"P  c #929292",
"I  c #929E95",
"U  c #949E98",
"Y  c #9C9C9C",
"T  c #B79997",
"R  c #B69A99",
"E  c #93A197",
"W  c #94A399",
"Q  c #9AA39C",
"!  c #9AA99F",
"~  c #9BA7A0",
"^  c #9DADA1",
"/  c #9FB1A5",
"(  c #A1A1A1",
")  c #A0A8A2",
"_  c #ABABAB",
"`  c #A1B3A5",
"'  c #A4B7A9",
"]  c #A6B9AB",
"[  c #ABBAAF",
"{  c #B4B4B4",
"}  c #BCBCBC",
"|  c #F1A09E",
" . c #D39FA1",
".. c #C0B6B7",
"X. c #AFC3B4",
"o. c #B1C4B6",
"O. c #B2C7B8",
"+. c #B5CBBB",
"@. c #B9CDBC",
"#. c #BAD0BE",
"$. c #BDD4C1",
"%. c #BDDBC5",
"&. c #C1C1C1",
"*. c #CBCBCB",
"=. c #C2D6C7",
"-. c #C2DDC6",
";. c #C0DFC8",
":. c #D3D3D3",
">. c #DBDBDB",
",. c #EFCBCF",
"<. c #E7D7D8",
"1. c #C3E2CA",
"2. c #CAE1CF",
"3. c #CBE9D3",
"4. c #E4E4E4",
"5. c #ECECEC",
"6. c #F3F3F3",
"7. c #FCFCFC",
/* pixels */
"a i                             O . . + f f                                       > p 7 5 @                                 $ , ",
"4 S V H H H H H H H H H F F F F A ^ Z A Z w Z A L H H H H H H H F F F F F F F J J A   $ A Z F G F F F F F F F F F F F F F F J   ",
"& X.A A A H Z H S S S D S D S S A A W A Z 4 Z A H A D D D Z Z D S D S S S S S S S 3.    ~ S S S S D D S S D D S S S S S D A H   ",
"- / A A Z H A Z S S S S S S S S A A A A Z 4 Z A A S D Z S D D S S S S S S S S S D -.    J D S D S S S S S S S D S D S S S D J   ",
"> ! A A H A A H S S S S S S S S A A A ! Z w A A D D D Z D D S S S S S S S S S S S -.    J S S S S S S S S S S S S S S S S A J   ",
"= W H A A H Z H S S S S S S S S W A A A Z e A A D A Z H D Z S S D S S S S S S S S %.    J D S S S S S S S S S S S S S S S D J   ",
"$ W A H A H A A S S S S S S S S A A A A Z 8 Z A D D Z Z D D D D S S S S S S S S S %.    J D S D S S S S S S S S S S S S S S J   ",
"& ! A A H A A H S S S S S S S S A A A A Z 8 Z L A D A H D Z Z D S S S S S S S S S %.    P D S D S S S S S S S S S S S S S S J   ",
"% W S S S S D S S S S S D S S S Z H Z D Z 3 Z A S S S S S S S S S S S S S S S Z D %.    J S S S S S D S S S S S S S S S D S J   ",
"* W S S D S S S S S S S S S S S Z H H H Z 8 A A S S S S S S S D S S S S S S S D D ;.    P D S S S S S S S S S S S S S S S S J   ",
"$ Q D S D S S S S S S S S S S S H Z Z H Z 6 Z A S S S S S S S S S S S S S S S S S ;.    J D S D S S S S S S D S S S S S S S J   ",
"$ Q S S S S S S S S S S S D S S Z Z H H Z = Z A S S S D S S S S S S S S S S S S D %.    J S S S S S S S S S S S S S S S S S J   ",
"* Q S S D S S S S S S S S S S S H A A A Z 4 Z D S S S S S S S S S S S S S S S S S %.    O         O S S S S S S S S S S S S J   ",
"& Q D S S S S S S S S S S S D S A H H H Z < Z D S S D S S S S S S S S S S S S S D %.  O           . 3 S S S S S S S S S S S J   ",
"* Q S S S S S S S S S D S S S S A A A A m > Z D S D A D S S S S S S S y y s y s D 1.    P G M m .   + Z S S S S S S S S D S J   ",
"$ Q S S S S S S D S S S S S S S H A H A Z 8 Z D S D A D S S S S S S b y y y y s S %.  s 4.:.{ P .   + S S S S S S D S S S S J   ",
"$ Q S S S S S S S S S S S S S S S S S F M w M D S S S S S S S S S t k 7.7.7.7.6.+   2 7.&.&.)     . < S S S S S S S S S S S H   ",
"$ Q S S D S S S S S S S S S S S S S S H M w Z D S S S S S S S S < &.>.&.&.&.&.&.4.s 3 7.&.@.( .   3 S S S S S S S S S S D S J   ",
": ) S S Z S S S S A A S S S S S S S D S M t M F S S S S S S S z G *.:.&.&.&.$.{ b D Y >.&.G s   f S S S S S S S S S S S S D D   ",
"  S Z W E L E E E E E E E E E L I L L J x % M Z ! I E E E E h y 5.*.&.&.&.&.&.{ O { 6.} Y h O   L W W E E E E W I E L L L I I   ",
"0 S S $.#.+.@.@.@.@.@.+.@.@.#.o.o.O.=.[ n t M S 2.#.#.o.+.f k 7...&.&.&.&.&...{ + { 6.} O y z   @.#.+.o.@.O.o.O.@.+.X.o.X.+.=.  ",
"9                                         a :           + ) >.&.&.&.&.&.&.&.P + *.*.&.{ . y z                                 , ",
"p G S K K J J L I J K J J L K K K K G W n a c S I K P h M } :.&.&.&.&.&.&.&.P   b _ { h y h z . J K L K L J I K K J L K K K !   ",
"r Q D D D D D D D D D D D D D D D D S H M d c D F S b y 6.*.&.&.&.&.&.} &...Y +   v S + b Z z   D D D D D D D S D D D D D S L   ",
"* Q D S S S S D S S S S S S S S S S D D Z e M H A < Z 6.&.&.&.&.&.} } &.&.&.} { O   O M Z Z z   S S S S S D S S D S S S D S J   ",
"; U S D S S S S S S S S S S S S S S S F Z 6 Z A < *.:.&.&.&.&...&.&.&.&.&.&.P + l x n M O s z   S S S D S S S S S S S S S S H   ",
"; Q D S S S D S S S S D S S S S S S D F Z 6 Z g   b v k j ( &.&.&.&.&.&.&.D g a c A b y   y z . S S S S S S S S S S S S S S J   ",
"& ) D S S S S S S S S S D S S S S S D D Z 4 Z   + + + + + M _ _ _ ) { } _ f < S V b h O   y z   S S S S S S S S S S S S S S J   ",
"$ Q S S S S S S S S S S S S S S S S S D Z 4 y < 6.7.7.7.6.f         s _ . f V A S < < { . y z . D S S S S S S S S S S S D S J   ",
"& Q S S S S S S S S S S S S S S S S S F Z 1 f < 7.>.:.:.:.{ _ { { { S y g z A n 3 k b y   y z   S S S S S S S S S S S S S S J   ",
"& Q S S D S S S S S S D S S S S S S D H M > f < 6.&.@.&...>.,.|  .<.H . n Z x g s Y Y     y z   S S S S S S S S S S S S S S H   ",
"$ Q S S S S S S S S S S S S S S S S S D M r g 3 7.*.&.&.&.&.C B N R n . n Z j O Y } ( .   s z   S D S S S S S S S S S S D S H   ",
"= Q S S D S S S D S S S S S S S S S D D M 6 z < 6.*.&.&.&.&.V N u R b . b e e { + D ..{ . p z   S S S S S S S S S S S S D S H   ",
"& W S S D S S S S S S S S S S S D D A H M 0 k . 3 < < < < G ..R T { b . b 0 3 { . D ( < k b z . S S S S S S S D S S S S S S J   ",
"% Q S S S S S S S S S S S S S S S S D D M 5 g . h h h h h z P ..&.$.b . b e 3 } g k x 3 b Z z   S S S S S S S S S S S S S S H   ",
"* Q S S D S S S S S S S S S S S S S A H Z 4 M e 7.7.7.7.7.g s { ..&.b . b e e ..[ e + Z Z M k   S S S S S S S S S S S S S D J   ",
"$ Q S S S S S S S S S S S S S S S S S H M 3 M 6.7.7.4.&.&.} b + { @.b . m e 3 } + j n Z S s     S S S S S S S S S S S S S S J   ",
"* ! S S D S S S S S S S S S S S S v z z z . e M 7.>.*.&.&.&.( z f _ b . b e O f f x Z Z y + + D S S S S S S S S S S S S D S H   ",
"$ Q S S S S S S D S S S S S S S S e 3 3 3 3 3 s } } &.&.&.&.&._ . Y b . m e   : x A b h   + g S S S S S S S S S S S S S S S J   ",
": Q S S D S S S S S S S S S S S . _ } { } { } Y . ~ } ..&.&..._   Y b . b e + Z V M k   . k D S S S S S S S S D S S S S S F H   ",
"; U A A A A A A S Z S Z S Z h y ) + . . . . O 3 _ = k } &.&._ b . Y b . m b b A A < . . G D S S S S S S S S Z S S Z S S S D L   ",
"# S A ' / / / / ! ) ! ! ! f z b y g h h h h h f y M k s } Y F b   Y b . b A A V 4 . +   A S ` ^ ^ ^ ~ ^ ~ ! ! ^ ^ / ' / / [ +.  ",
"p           .             O b G   b S F H L P V O G g O { G b k O Y b . b S M k . < g 5                                       - ",
"q S V A Z A A A A A A A Z O b P . b ( &.$.6.7.4.S O   . M M f . V { b . b M h   . A i = A A S A S M A M S Z A A Z Z Z S S A S i ",
"* A Z F D D D F D S D D S . b G   b ( *.6.7.7.7.6.A y . V 3 3 b ] } n . n y   . A A   X M S D D D D D D D D D D D D D D S D D   ",
"; ! D S D S S S S D S S S O M P   b ( *.7.7.7.7.7.J s   y y k ( } } M   y + < h D %.    K S S D D S S S S D S S S S D S S S J   ",
"; U S D S S S S S S S S S O m G . b ) *.7.7.7.7.7.m w . < g M ( ~ Y k     + g S D 1.    J S S S S D S S S S S S S S S S S D J   ",
"; Q D S S S S S S S S S A O M G   b ( *.7.7.7.7.7.+ . + A g .   X         k S S D %.    J D S S S S S S S S S S S S S S S S J   ",
"; ! S S A D S S S D S S S O m { ( + f P *.6.7.>.< P h + S S S S S S S S S S S S S 1.    J S S S S S S S S S S S S S S S S S G   ",
"= Q S S D D S S D A S S S z z S { h d f z G P S f z z z S S S S S S S S S S S S S %.    J D S D S S S S S S S D S S S S D S J   ",
"$ Q S S D A S S S S S S S S k y _ @.h O O O O 3 _ 3 D S S S S D S S S S S S D S S %.    K S S D S S S S S S S S S S S S D S H   ",
"% Q S S D S S S S S S S S S S S O _ [ o.} { { Y . S S S S S S S S S S S S S S S A %.    K S S S S S S S S S S S S S S S D S H   ",
"& Q S S S S S D D S S S S S S D Z 3 < + + < + y S S S S S S S S S S S S S S S S S %.    J D D S S S S S S S S S S S S S S S H   ",
"$ Q S S D S S S S S S S S S S S Z < O + O O O 3 S S S S S S S S S S S S S S S S D %.    J D S S S S S S S S S S S S S S D S J   ",
"% Q S S S S S S S S S S S S S S A H A H Z w Z Z S S S S S S S S S S S D S S S S S %.    P D S S S S S S S S S S S S S S S S H   ",
"& ! S S S S S S S S S S S S S S A H A A Z 4 Z H S S S S S S S S S S S S S S S S S %.    J S S S S S S S S S S S S S S S D D H   ",
"& Q D S D S S S S S D S S S S S S S S D Z w Z A D Z Z D D S D D S S S S S S S S S %.    J D S D S S S S S S D A S S S S S S J   ",
"= ! S D D S S S S S S S S S S S S S S H M 1 Z D D D D Z Z D Z D S S S S S S S D D %.    J D S S S S S S S S D D S S S S D S H   ",
"$ Q D Z D Z S S S S S S S S S S A D D D M w Z H Z D D D D S D Z S S S D S S S S S 1.    K D S S S S S S S S A D S S S S D S H   ",
"$ Q D Z D D S S S S S S S S S S D D A D M 4 Z A D D Z S S D D Z S S S S S S S D S %.    J D S D S S S S S S D D S S D S S S H   ",
"$ Q S S A S D S S S S S S S S S D D A F Z w Z Z Z Z D S D D D D S S S S S S S S S 1.    H H Z H S S S S A D D A S S S S S S H   ",
"2 W D D S S D S S D D S D D S S A A D D Z e Z H H D Z D Z D Z D D S D D S S S S S 3.    J Z H A S D S D D A D D S S S S S S D   ",
"o D Z Q E E E W W E E E W E W I E E L K x + Z Z / E W W E W W E E W E E E E L W ! S     S Z W E I E W W W E W E E W I E I Q !   ",
"7 M l M M m M M M m m m M m M m m M m M j 8 Z c Z b Z Z n m Z m m Z Z m m m m m M n   6 m m n Z n M n Z m M m M M M M m M n M 7 "
};
