/* XPM */
static char *result[] = {
/* columns rows colors chars-per-pixel */
"64 64 186 2 ",
"   c black",
".  c #0F091D",
"X  c #141326",
"o  c #191326",
"O  c #171528",
"+  c #1A1729",
"@  c #1B192A",
"#  c #1B1830",
"$  c #231B2B",
"%  c #291C29",
"&  c #291C31",
"*  c #28212F",
"=  c #272030",
"-  c #2D2437",
";  c #2E253A",
":  c #362B3A",
">  c #38303F",
",  c #4C280E",
"<  c #4E2D15",
"1  c #53321B",
"2  c #58341B",
"3  c #5D3C24",
"4  c #6A451B",
"5  c #704B1F",
"6  c #664425",
"7  c #6B4422",
"8  c #6E4A24",
"9  c #66492C",
"0  c #714C24",
"q  c #744E2A",
"w  c #745125",
"e  c #7A5226",
"r  c #76512C",
"t  c #7A542D",
"y  c #7F582F",
"u  c #6B5134",
"i  c #745432",
"p  c #7C5632",
"a  c #7D5833",
"s  c #765B3C",
"d  c #7F5C3B",
"f  c #353040",
"g  c #3B3443",
"h  c #453A47",
"j  c #545661",
"k  c #717376",
"l  c #767A7A",
"z  c #797C7B",
"x  c #825B35",
"c  c #885C37",
"v  c #845E3A",
"b  c #876136",
"n  c #87623A",
"m  c #8B633C",
"M  c #8E683C",
"N  c #876341",
"B  c #8B6542",
"V  c #8E6943",
"C  c #8D6949",
"Z  c #916943",
"A  c #9D6F45",
"S  c #936C4A",
"D  c #9C7345",
"F  c #9B744B",
"G  c #9F784F",
"H  c #9B7755",
"J  c #A07047",
"K  c #A4744B",
"L  c #AA7B4F",
"P  c #A37C53",
"I  c #A97B52",
"U  c #B27F58",
"Y  c #7F807F",
"T  c #AE8357",
"R  c #A5825A",
"E  c #AC8459",
"W  c #AD8B5D",
"Q  c #B08353",
"!  c #B3855B",
"~  c #B28C5D",
"^  c #BA8A5A",
"/  c #B3925D",
"(  c #BD925D",
")  c #B68B60",
"_  c #B98C63",
"`  c #B69263",
"'  c #BB9365",
"]  c #BD976A",
"[  c #C1955D",
"{  c #C5995F",
"}  c #C19563",
"|  c #C59B64",
" . c #C99E66",
".. c #C39369",
"X. c #C79C69",
"o. c #CA9D6A",
"O. c #CB9971",
"+. c #CBA167",
"@. c #CDA36D",
"#. c #D1A56D",
"$. c #D3A86F",
"%. c #D5B36C",
"&. c #CFA571",
"*. c #CEA972",
"=. c #D0A672",
"-. c #D3AB74",
";. c #D9AE76",
":. c #D1A679",
">. c #D4AE7B",
",. c #DAAF7A",
"<. c #D6B075",
"1. c #DAB374",
"2. c #DEB973",
"3. c #D6B07C",
"4. c #DBB37C",
"5. c #DFBC78",
"6. c #E1BC75",
"7. c #E4BF79",
"8. c #E6C27C",
"9. c #E9C47E",
"0. c #EEC87F",
"q. c #7F8080",
"w. c #828683",
"e. c #838985",
"r. c #878E89",
"t. c #898F8B",
"y. c #87908A",
"u. c #89938C",
"i. c #8E9691",
"p. c #8F9A92",
"a. c #929E95",
"s. c #949E98",
"d. c #93A197",
"f. c #95A399",
"g. c #9AA39C",
"h. c #9AA99F",
"j. c #9BA7A0",
"k. c #9DADA1",
"l. c #A0A8A2",
"z. c #A0B2A5",
"x. c #A5B8AA",
"c. c #ABBAAF",
"v. c #D5AF80",
"b. c #D6B181",
"n. c #D9B482",
"m. c #AFC3B4",
"M. c #B1C4B6",
"N. c #B2C7B8",
"B. c #B6CBBB",
"V. c #B8CBBB",
"C. c #BAD0BE",
"Z. c #D6C49F",
"A. c #E7C581",
"S. c #EBC681",
"D. c #EDCA84",
"F. c #EFCC88",
"G. c #F1C681",
"H. c #F1CC86",
"J. c #F2CE89",
"K. c #F6D187",
"L. c #F5D28C",
"P. c #F9D48E",
"I. c #EED294",
"U. c #EFD598",
"Y. c #F6D491",
"T. c #F9D691",
"R. c #FCD993",
"E. c #F8D895",
"W. c #F1D599",
"Q. c #F4D99C",
"!. c #FDDD99",
"~. c #DCCAA5",
"^. c #E7D4AE",
"/. c #F4DDA4",
"(. c #ECDBBC",
"). c #FCE5AE",
"_. c #FEE8AF",
"`. c #F5E7B5",
"'. c #FBE7B3",
"]. c #FCE9B4",
"[. c #F7E6B8",
"{. c #FAE6BB",
"}. c #F6E9BB",
"|. c #FAE9BA",
" X c #BFD5C3",
".X c #C1D5C7",
/* pixels */
"h f                       ..o.! I I K Q K U _ ! :.! ) I E L } A I J ! K I ..I ) T L L } ' O.D L ! ' ^                       O & ",
"= w.z u.r.r.t.r.r.r.r.r.m Q.Q.W.W.W.W.I.I.I.W.W.U.Q.W.W.U.I.I.I.I.W.W.I.W.U.W.W.Q.Q.I.W.Q.Q.Q.Q.W./.-._ r.r.r.r.y.r.r.r.r.r.u.  ",
"o c.u.w.w.e.e.w.w.w.e.e.p ].'.{.}.}.}.{.].|.}.`.'.'.'.'.`.'.}.[.{.`.}.'.`.{.'.{.`.].].`.{.{.'.`.'.).4.y e.w.e.w.e.w.w.w.w.w.u.  ",
"$ g.w.w.w.w.w.e.w.e.w.w.x |.Y.L.Y.D.J.J.Y.L.L.D.Y.Y.J.L.Y.L.L.J.T.J.L.L.J.J.Y.J.T.Y.L.Y.D.Y.Y.L.L.L.4.n w.w.w.e.w.w.w.e.w.e.u.  ",
"$ j.w.w.w.w.w.w.w.w.w.w.y |.P.Y.!.J.D.J.L.L.J.Y.J.J.D.Y.T.J.D.Y.Y.J.L.J.L.J.D.J.!.9.L.L.L.Y.F.Y.Y.L.4.b w.w.w.w.w.w.w.w.w.w.u.  ",
"@ g.w.w.w.w.w.w.w.w.w.w.q '.D.J.S.J.E.E.Y.Y.Y.D.T.Y.L.J.L.T.J.L.L.R.L.L.L.L.F.Y.F.L.F.J.L.L.L.F.P.E.3.M w.w.w.w.w.w.w.w.w.w.u.  ",
"o g.w.w.e.w.w.w.w.w.w.w.x ].!.D.Y.Y.D.E.L.Y.T.L.L.Y.P.E.P.F.F.J.D.E.L.Y.L.P.P.L.T.L.L.K.J.F.L.L.H.L.*.m w.w.w.w.w.w.w.w.w.w.u.  ",
"O g.w.w.e.w.w.w.w.w.w.w.t |.E.Y.J.J.J.D.D.L.J.E.P.Y.L.J.D.L.Y.Y.J.D.D.Y.J.9.H.F.D.H.E.Y.Y.E.F.E.L.P.*.b w.w.w.w.w.w.w.w.e.w.u.  ",
"X f.q.w.e.w.w.w.w.w.w.w.x |.P.J.L.E.!.S.Y.D.L.Y.8.D.L.L.!.A.D.9.J.7.7.E.F.J.L.D.L.Y.!.E.L.L.F.D.P.E.3.M w.w.w.w.w.w.w.w.e.w.u.  ",
"O g.e.w.e.w.w.w.w.w.w.w.t ].J.E.D.Y.D.D.F.Y.E.D.F.F.L.L.D.8.L.J.J.E.L.T.J.!.F.!.Y.S.H.Y.F.F.L.Y.Y.!.*.n w.w.w.w.w.e.w.w.w.w.u.  ",
"X g.w.w.e.w.w.w.w.w.w.w.p ].T.J.Y.F.L.P.Y.Y.D.T.I.L.L.E.S.E.L.T.J.S.J.Y.L.D.H.L.T.D.P.H.D.Y.Y.L.P.L.4.c w.w.w.w.w.w.w.w.w.w.u.  ",
"o g.w.w.e.w.w.w.w.w.w.w.x ].Y.J.F.L.L.L.D.J.J.Y.T.R.L.L.J.F.E.L.L.J.L.D.D.D.L.R.9.H.L.L.F.0.Y.L.F.R.;.m w.w.w.w.w.w.w.w.e.w.u.  ",
"O g.e.w.e.w.w.w.w.w.w.w.r ].F.L.F.J.F.F.9.F.F.L.L.L.Y.F.F.5.L.F.D.S.J.L.D.F.F.F.L.F.D.D.L.J.L.D.L.P.3.Z w.w.w.w.w.w.w.w.w.w.u.  ",
"O g.w.w.e.w.w.w.w.w.w.w.r ].Y.L.F.D.0.H.F.L.J.R.F.L.L.L.L.L.F.F.P.F.D.J.D.F.K.L.T.D.F.K.L.L.Y.L.L.J.3.b w.w.w.e.e.w.w.w.w.w.u.  ",
"+ g.w.w.e.w.w.w.w.w.w.w.p ].L.P.S.B 8 r K.K.P.H.F.H.Y.D.S.L.D.L.F.H.L.L.F.F.F.D.H.L.P.L.E.L.L.J.H.Y.4.t w.w.w.w.w.w.w.w.e.w.u.  ",
"O g.w.w.e.w.w.w.w.w.w.w.x ].L.F.w <.R 6 ` F.J.J.T.F.J.F.D.L.L.L.R.T.L.L.Y.F.L.L.E.H.L.L.L.J.5.D.F.T.-.m w.w.w.w.w.w.w.w.w.e.u.  ",
"X g.e.w.w.w.w.w.w.e.w.w.7 '.D.F.8 ] W 9 E P.T.J.D.J.I.F.Y.F.F.D.0.P.P.8.Y.P.!.Y.D.0.Y.D.L.9.F.Y.L.L.4.M e.w.w.w.w.w.w.w.e.w.u.  ",
"O f.w.w.w.w.w.w.w.w.w.w.a ].P.D.m *.G 3 ] F.S.L.J.D.H.D.L.0.D.L.F.F.F.I.P.8.E.P.F.0.K.D.L.L.P.Y.F.L.4.V w.w.w.w.w.w.w.w.w.w.u.  ",
"% l.w.w.q.q.w.w.w.q.w.w.x _.L.A.0 -.P 3 E H.S.F.J.E.P.L.9.0.F.7.Y.R.K.0.K.9.D.D.8.F.K.E.Y.K.0.8.L.L.4.b w.q.w.w.w.w.w.w.w.e.r.  ",
"  w.z g.d.a.a.d.d.d.a.d.p ].P.D.p *.F 3 E L.F.Y.F.S.S.S.L.E.L.L.D.0.F.Y.F.F.D.E.F.I.Y.F.K.F.D.D.J.F.*.a d.s.d.f.d.d.p.p.p.a.s.  ",
": w.w. XC.V.B.B.C.B.B.B.t _.8.F.8 *.P 3 W J.J.J.P.J.J.F.F.H.J.J.Y.8.Y.0.L.0.K.F.Y.F.L.E.L.D.D.E.L.A.-.x B.B.N.N.B.B.m.M.m.V..X  ",
"-                       t '.D.L.w +.P 2 W D.F.J.8.P.L.S.9.H.H.H.L.K.0.D.K.F.F.K.0.L.L.0.D.9.L.L.D.Y.-.b                       & ",
"> u.w.i.a.u.p.p.p.p.p.p.t '.F.P.p &.F 3 W S.F.P.9.L.L.J.H.D.P.J.H.H.J.J.F.0.F.K.P.9.K.D.D.P.F.9.L.L.-.t i.i.p.i.i.p.p.i.i.i.j.  ",
"> g.w.e.w.e.e.e.e.e.e.q.n _.L.S.a @.R 3 E S.L.D.S.H.L.L.9.H.L.L.K.K.T.H.L.K.0.P.T.!.L.L.K.T.J.9.F.F.-.a e.e.e.e.e.e.e.e.e.e.p.  ",
"$ g.e.w.w.w.w.e.w.w.w.w.w ).D.8.t } G 3 ~ H.L.J.S.H.8.P.R.J.K.L.Y.K.L.H.9.9.L.J.F.L.R.8.J.L.Y.L.S.L.<.c w.w.w.w.w.w.w.w.w.e.u.  ",
"$ s.w.w.w.w.w.w.w.w.w.w.t ].S.P.t =.P 3 ! P.H.S.9.S.9.9.J.J.L.H.0.8.K.D.H.K.H.7.L.Y.L.P.0.L.K.J.P.H.3.b w.w.w.w.w.w.e.w.w.w.u.  ",
"$ g.e.w.w.w.w.w.w.e.w.w.v '.L.S.w *.P 3 / L.L.J.L.J.L.H.S.L.L.S.E.Y.J.D.K.6.T.9.P.L.P.K.J.J.H.Y.T.F.>.y w.w.w.w.w.w.w.w.w.w.u.  ",
"+ j.e.w.e.w.w.w.w.w.w.w.t _.H.L.t $.P 3 ` 9.L.L.H.J.H.H.H.J.L.K.J.K.H.0.D.D.J.D.L.Y.H.J.J.H.9.J.J.F.,.n w.w.w.w.w.w.w.w.w.w.u.  ",
"O g.w.w.w.w.w.w.w.w.w.e.w _.8.9.p =.D 3 ` H.H.S.7.H.H.H.H.H.K.L.H.F.J.K.J.J.0.D.0.J.9.L.D.J.L.D.F.K.<.x w.w.w.w.w.w.w.w.e.w.u.  ",
"O g.w.w.e.w.w.w.w.w.w.w.r ).H.L.t $.G 3 W J.H.H.L.H.H.9.9.H.J.P.K.9.H.J.9.L.J.D.H.J.H.K.L.L.9.J.F.T.-.y w.w.e.w.e.w.w.w.w.w.u.  ",
"+ g.w.w.w.w.w.w.w.w.w.w.t ].S.H.r -.K 3 / L.8.H.S.P.H.8.H.H.J.J.D.L.J.J.H.L.8.K.S.L.H.H.H.H.L.J.D.P.-.0 w.w.w.w.w.w.w.w.w.w.u.  ",
"X g.w.w.e.w.w.w.w.w.w.w.t _.L.L.q -.F 3 _ S.J.9.L.8.2.H.2.S.J.J.D.9.9.S.0.0.9.J.L.P.L.P.K.P.H.L.F.P.1.V w.w.w.w.w.w.w.w.w.w.u.  ",
"# z.q.h.q.q.q.q.w.w.w.w.x ).H.H.a v.H 3 ] J.7.T.J.H.8.P.9.L.H.H.T.H.H.E.H.K.K.L.H.K.J.K.L.K.0.H.6.D.3.y w.w.w.w.e.w.w.w.e.w.u.  ",
"X x.q.q.q.q.f.q.w.w.w.w.t ].J.!.0 X.P 3 ( H.G.K.9.H.H.L.9.J.L.S.T.0.D.P.L.Y.J.9.9.D.K.8.S.9.!.K.P.D.1.x w.w.w.w.w.w.w.w.e.w.u.  ",
"X h.q.q.q.q.q.q.w.w.w.w.r '.L.H.p ' B 3 ^ H.S.J.L.K.9.H.H.P.9.H.J.2.0.0.9.H.D.K.E.P.H.K.D.L.9.P.L.D.<.t w.w.w.w.w.w.w.w.e.w.u.  ",
"O h.q.q.q.f.q.q.w.w.w.w.a ).L.S.T 1 9 P ` D.H.H.P.7.K.P.K.0.H.K.J.J.J.H.J.H.K.9.L.H.L.P.L.S.P.P.F.9.3.y w.w.w.w.w.w.w.w.w.w.u.  ",
"X f.q.q.e.R q.q.w.w.w.w.q ].P.P.J.J ~ T 9.H.H.9.J.L.H.H.G.J.9.S.8.8.H.P.S.0.H.H.0.S.L.S.J.L.K.L.L.P.<.x w.w.w.w.w.w.w.w.e.w.u.  ",
"O h.q.q.e.w.q.q.w.w.w.w.p ).H.S.D.H.S.H.H.K.L.H.0.8.H.H.0.H.H.0.0.R.0.J.P.H.J.2.8.P.D.S.0.L.P.9.H.P.1.a w.w.w.w.w.w.w.w.w.w.u.  ",
"O z.q.q.r.w.w.w.w.w.w.w.x ).J.L.P.L.H.L.L.H.J.9.L.K.H.J.9.H.H.J.9.8.L.J.0.9.9.H.K.P.J.J.Y.K.L.D.K.L.1.x w.w.w.w.e.w.w.w.w.w.u.  ",
"@ x.q.q.w.w.w.w.w.w.w.w.t '.9.H.P.0.J.D.P.H.H.L.P.9.9.0.9.K.9.L.H.H.9.H.H.K.H.D.P.J.P.T.P.9.D.K.L.J.3.m w.w.w.w.w.w.w.w.w.r.y.  ",
"= f.q.q.q.Y Y q.w.w.Y q.t '.L.L.9.T.L.P.P.H.H.J.J.9.J.9.J.P.L.L.8.J.L.0.9.K.F.0.J.H.J.R.D.9.D.Y.P.J.-.x w.q.w.w.w.Y q.q.q.q.f.  ",
"X q.Y m.x.z.k.z.h.l.h.h.t _.S.L.D.S.H.H.9.J.K.J.R.P.0.J.H.H.H.9.9.J.J.H.2.L.9.8.0.D.0.D.!.9.J.H.P.S.-.p k.j.j.k.k.k.x.k.x.c. X  ",
"g                       8 ).F.Y.H.L.S.L.P.S.P.J.H.9.9.J.6.H.L.K.H.9.K.J.J.H.T.F.L.K.8.P.J.P.K.D.H.L.4.p               .       # ",
"g q.q.q.R e.q.q.z w.q.w.t ].J.J.S.D.J.J.J.J.J.Y.H.H.L.H.S.S.H.9.H.9.L.G.L.9.L.J.L.J.D.F.S.9.F.F.Y.L.4.v z w.q.q.w.z w.H q.q.q.g ",
"# q.q.q.q.q.q.q.e.e.e.e.p ).L.S.J.S.J.H.D.H.S.J.L.L.S.J.K.H.H.7.S.J.H.H.2.P.L.P.S.Y.J.J.K.H.D.J.L.L.1.m e.e.e.e.e.e.e.e.r.e.e.  ",
"; N.q.q.q.q.q.q.w.w.w.w.t ].J.8.S.H.J.J.D.H.H.J.L.J.H.K.H.H.H.H.K.L.H.8.K.P.J.L.9.K.J.D.D.L.L.P.D.H.4.a w.w.e.w.e.w.e.e.e.e.i.  ",
"# h.k.q.q.q.q.h.w.w.w.w.x '.H.9.J.H.D.J.S.S.J.J.S.8.9.G.P.J.J.H.S.J.S.D.H.L.9.H.8.H.D.D.H.J.L.P.S.L.4.x w.w.w.w.e.w.w.w.e.e.u.  ",
"@ h.q.q.q.q.q.q.w.w.w.w.r ).H.6.7.H.J.S.9.H.P.D.S.L.P.K.J.K.9.H.8.H.L.L.H.F.L.L.R.L.D.D.0.H.H.J.P.L.3.x w.w.w.w.w.w.w.w.w.q.i.  ",
"@ h.q.q.q.q.q.d.Y Y Y q.M _.K.R.H.9.J.H.S.J.P.L.H.P.H.K.S.9.P.7.J.J.9.H.0.H.P.L.S.H.8.S.H.P.H.L.F.H.5.t w.w.w.w.e.w.w.w.w.w.y.  ",
"@ h.q.q.Y d.q.q.q.q.Y d.s _.!.2.H.D.J.J.J.H.H.7.L.P.K.9.P.9.H.P.9.H.J.E.K.L.J.L.P.L.0.P.P.K.P.J.9.9.3.x w.w.w.w.w.w.w.w.e.w.u.  ",
"O z.q.q.q.q.q.q.q.Y Y q.w _.6.0.H.G.H.7.L.H.R.J.P.H.H.L.9.L.K.J.P.K.H.J.H.H.J.J.9.L.H.9.L.K.9.J.L.H.;.t w.w.e.q.w.w.w.w.e.w.u.  ",
"O x.q.q.q.q.p.q.q.d.q.q.w _.R.R.J.G.K.H.J.H.H.H.9.J.P.H.8.9.H.9.0.0.H.G.J.9.G.H.2.S.H.9.0.J.H.J.K.D.4.p w.w.e.e.w.w.w.w.w.w.u.  ",
"O k.q.q.u.q.p.q.q.q.y.q.w _.0.0.H.9.J.P.H.J.L.P.J.H.9.H.H.H.H.8.7.K.G.J.9.J.S.P.H.0.L.K.J.L.K.9.S.L.;.D q.q.w.w.e.w.w.w.e.w.u.  ",
"X h.q.u.q.q.q.q.y.y.q.q.u _.F.K.H.L.J.J.J.J.H.J.G.J.S.H.S.S.H.H.G.S.S.S.S.H.J.H.H.H.9.P.S.H.H.9.H.H.<.x e.e.w.w.w.w.w.w.w.w.u.  ",
"X f.q.q.p.q.q.q.Y q.q.y.i /.F.9.S.D.H.7.G.9.J.0.J.S.P.H.H.H.P.S.H.J.S.S.J.J.J.J.J.S.S.J.L.L.L.9.9.S.<.t q.e.q.e.w.w.w.w.w.w.u.  ",
"X f.q.q.q.q.p.q.Y y.q.q.d | %.5.| | #.,. .;.+.{ #.|  .+. . .o.( | #.| @.#.#.o.[ [ @.;.#.| #.@.( { *., t e.e.e.e.w.w.w.w.w.w.u.  ",
"@ z.q.q.q.q.q.q.y.Y y.Y R 9 9 8 t e S c m m m x b y t b p n t t c 8 t N p v t v t b a V p a c t m m d q.e.e.e.e.w.w.w.w.w.w.u.  ",
"@ m.q.q.q.q.d.q.y.q.Y Y q.s 8./ ^ _ Q | #.o._ =.X.,.} &.@.X.&.X.[ | o.@.@.=.@.o.' 4.@.@.&.} O.=.+.W d p.R Y e.q.w.w.w.e.e.w.u.  ",
"X h.q.d.q.f.q.q.Y Y y.y.Y d D.F.P.P.6.Y.G.E.H.S.F.8.J.S.J.J.S.F.H.L.%.S.R.D.L.D.2.D.F.L.S.S.G.H.8.*.d q.q.q.e.e.w.w.w.w.w.w.u.  ",
"X f.q.q.q.q.q.d.q.y.Y Y q.w D.9.7.7.J.A.A.S.H.J.H.D.H.J.D.D.J.S.9.S.H.8.G.A.J.D.K.0.D.J.J.H.D.S.S.*.s q.q.q.e.q.w.w.w.w.w.w.u.  ",
"X h.Y Y q.q.q.q.q.q.q.q.y.a 1 r V S H S C p i v d C a s S N N S a R C N a B d C i p C m n d M M M t Z w.q.e.e.e.e.e.e.e.w.e.y.  ",
"* f.Y Y q.q.q.q.u.y.q.Y q.0 u 3 2 2 7 w x t 4 q t 5 w w w w 8 4 0 e m w 7 e w 0 e x m a b < < 1 1 6 e.e.e.q.e.e.w.e.q.q.w.q.e.  ",
". Y Y z.q.d.d.p.f.f.d.d.d.d.9 i s u 9 b.>.n.b.n.>.>.>.>.b.3.b.b.b.b.b.v.b.:.3.n.>.>.b.n.n.Z.Z.~.^.(.d.d.f.d.f.d.d.f.a.d.a.d.g.  ",
"* Y Y Y Y Y Y Y Y Y l l Y l l Y z z z z j f z k z z z l l z z l z z z z z z z l z l   ; z k l l z z z z z z z z z z z z z l Y ; "
};
