/* XPM */
static char *_8_fridge2_open1762465369[] = {
/* columns rows colors chars-per-pixel */
"64 64 201 2 ",
"   c black",
".  c #1D0902",
"X  c #0F091D",
"o  c #230C03",
"O  c #2D0F01",
"+  c #251203",
"@  c #2C1505",
"#  c #2B1807",
"$  c #381A05",
"%  c #35230D",
"&  c #3A240D",
"*  c #3D2911",
"=  c #140F28",
"-  c #141326",
";  c #181326",
":  c #171528",
">  c #1A1729",
",  c #1B192A",
"<  c #231B2B",
"1  c #291C31",
"2  c #28212F",
"3  c #2B2336",
"4  c #362B3A",
"5  c #37323F",
"6  c #432205",
"7  c #44240B",
"8  c #48250A",
"9  c #43290E",
"0  c #4C2B0E",
"q  c #522E0D",
"w  c #432D13",
"e  c #4D2D11",
"r  c #522D12",
"t  c #473116",
"y  c #4C3216",
"u  c #4C3519",
"i  c #533314",
"p  c #5C3714",
"a  c #53361A",
"s  c #543B1C",
"d  c #5B3C1B",
"f  c #623D16",
"g  c #563D21",
"h  c #5A3F21",
"j  c #57401F",
"k  c #5D411F",
"l  c #62421E",
"z  c #6A461B",
"x  c #5C4323",
"c  c #5C4624",
"v  c #624625",
"b  c #664627",
"n  c #644926",
"m  c #6B4C25",
"M  c #654A29",
"N  c #6A4D2B",
"B  c #724D26",
"V  c #6D512D",
"C  c #775429",
"Z  c #72542E",
"A  c #7C5A2E",
"S  c #6E5331",
"D  c #735531",
"F  c #7A5731",
"G  c #765933",
"H  c #7B5C35",
"J  c #7C5E39",
"K  c #7E6037",
"L  c #7E6039",
"P  c #3A3342",
"I  c #453A47",
"U  c #545661",
"Y  c #60646B",
"T  c #717376",
"R  c #777B7A",
"E  c #797C7B",
"W  c #825E2F",
"Q  c #815E33",
"!  c #805E38",
"~  c #836235",
"^  c #8A6536",
"/  c #83643B",
"(  c #89663C",
")  c #86683F",
"_  c #8B6A3C",
"`  c #906F36",
"'  c #926C3C",
"]  c #95713E",
"[  c #98713C",
"{  c #856640",
"}  c #886740",
"|  c #876A42",
" . c #8C6C42",
".. c #916E43",
"X. c #8F7045",
"o. c #8E7248",
"O. c #937245",
"+. c #997544",
"@. c #9D7A46",
"#. c #957449",
"$. c #99764A",
"%. c #977849",
"&. c #9C7A4C",
"*. c #9E7E51",
"=. c #A37D47",
"-. c #A27D4C",
";. c #A17E51",
":. c #7F807F",
">. c #9F8052",
",. c #A3814C",
"<. c #AA834D",
"1. c #A48254",
"2. c #AA8554",
"3. c #AC8954",
"4. c #A68659",
"5. c #AB8759",
"6. c #AD8B5A",
"7. c #B38C56",
"8. c #B38E5C",
"9. c #B4915D",
"0. c #BB945D",
"q. c #B69563",
"w. c #B99562",
"e. c #BD9A64",
"r. c #BE9C69",
"t. c #C1995D",
"y. c #C19C65",
"u. c #C29E68",
"i. c #C4A26C",
"p. c #C8A66C",
"a. c #C9A56E",
"s. c #C6A571",
"d. c #C9A771",
"f. c #CCAB72",
"g. c #CFAF79",
"h. c #D1AE74",
"j. c #D2B176",
"k. c #D4B47A",
"l. c #D8B67D",
"z. c #D7B87D",
"x. c #DABA7E",
"c. c #E0BC7E",
"v. c #E1C07F",
"b. c #7F8080",
"n. c #828683",
"m. c #838985",
"M. c #878E89",
"N. c #898F8B",
"B. c #87908A",
"V. c #89938C",
"C. c #8E9691",
"Z. c #8E9A92",
"A. c #929E95",
"S. c #949E98",
"D. c #93A197",
"F. c #95A399",
"G. c #9AA39C",
"H. c #9BA99F",
"J. c #9BA7A0",
"K. c #9DADA2",
"L. c #A5B6A9",
"P. c #D7B881",
"I. c #DCBC82",
"U. c #E0BF83",
"Y. c #AFC3B4",
"T. c #B4C7B8",
"R. c #B6CCBC",
"E. c #BAD0BE",
"W. c #DEC185",
"Q. c #E2C285",
"!. c #E4C58A",
"~. c #E8C789",
"^. c #E6C98C",
"/. c #EACB8D",
"(. c #F0D18F",
"). c #E7C990",
"_. c #ECCD91",
"`. c #EED194",
"'. c #EFD49A",
"]. c #F2D495",
"[. c #F2D59A",
"{. c #F5DA9C",
"}. c #F9DA9D",
"|. c #F5DCA1",
" X c #F9DEA4",
".X c #F9DEA9",
"XX c #F6E1A4",
"oX c #FAE2A6",
"OX c #F7E2AA",
"+X c #FBE4AC",
"@X c #FBEAAD",
"#X c #FCE6B1",
"$X c #FCEAB3",
"%X c #FEF1B6",
"&X c #FFF3BB",
"*X c #BFD5C3",
"=X c #C1D5C7",
"-X c #FFFBDA",
";X c #FEFCE4",
":X c #FEFEEB",
">X c #FEFEFC",
/* pixels */
"I P                     ~ ^ F ~ ^ ^ _ =.=.Q 2.' ^ F ' ' ' ^ ' +.<.^ _ ^ ~ +.,.B @.Q _ [ Q X                                 - 1 ",
"2 n.b.B.N.N.N.M.M.M.] o +X+X+X+X+X+X.X+X+X+X#X.X.XOX+X+X+X+X.X.X XoX.X.X+X X+XoX+X.X.X+XA / F +.' 7.' +.! <./ B.N.N.M.N.M.M.B.  ",
"> L.N.n.n.m.m.n.n.n._ + -X[.{.).|.|.[.[./.`.|.`.!._.[./._.[.'.[._.[.`._._.[.'.{._._.`./.B ;X X+X+X X+X,.!.I.C m.n.n.n.n.n.n.C.  ",
"< G.m.n.n.n.n.m.n.m.] . oXI.I._.h.P.d.f.l.!.I.P.k.j.U.~.f.P.U.k.!.l.P.I.P.k.I.Q.I.P.h.I.A ;X{.U.Q.I. X_ U.!.N n.n.m.n.m.m.m.B.  ",
"< H.n.n.n.n.n.n.n.n.O.. $X~.h.m _ ~ V @.J m Z ! +.d ( +.^ ' m Z ~ <.^ H l ' B +.F C ].!.A ;XXXf.f.x.+XO.Q.x.N n.n.n.n.n.n.n.V.  ",
"> G.n.n.n.n.n.n.n.n._ @ #XQ.v J v s V V Z D a D D N S G J F Z S V x ~ n ..F n l D v D x.l :XOXQ.]./.+X^ Q.x.d n.n.m.n.n.n.m.B.  ",
"; S.n.n.m.n.n.n.n.n.#.o $XP.V G V ) J | L J q.n N g v D .. .J H J v N V x x / ..O.G ;.I.b ;XXXx._./.+X7.!.P.M n.n.n.n.n.m.n.V.  ",
": H.n.n.m.n.n.n.n.n.@.. $XI.M ( _ &.O.O.V V N N 2.v D H ( S { D x ~ N | u / F Z ( @.8.x.b :X+XW._.[.@X-.!.I.b n.n.n.n.n.n.n.V.  ",
"= K.b.b.m.n.n.n.n.n.@.o #XW.D 1.J v 2.S x N D M O./ M $.Z G x J V  . .M / V 8.( ) 1.5.x.p :X+XI.].`.+X+.I.i.v n.n.n.n.n.n.n.B.  ",
": L.b.b.m.n.n.n.n.n.@.o $XI.V | M { ;.v M g ( O.S Z & J t &.V H c | x  .s F ) D s 1.f.W.0 :X+XW.`.`.@XO.!.I.b n.n.n.n.n.m.n.V.  ",
": J.b.b.m.n.n.n.n.n.&.o $Xx.M J F D V J V M V w  .x ) N Z N x H M J x s w h G M K s %.I.0 :X+XQ.'.].@X-.).f.m n.n.n.n.m.n.n.V.  ",
"= J.b.4.m.n.n.n.n.n.,.@ $XP.n s N G / J ( *.| #.w s x n / J  .3.( | ) N q.c x G ) x >.W.y :X+XQ./.[.+X>.).j.v n.n.n.n.n.n.m.V.  ",
": J.b.b.m.n.n.n.n.n.O.O #Xz.N c c Z O.G J / u G N *.N 5.M | | O.D L _ n L O.S ( c S 4.x.p :X$XP.].].@X@.!.P.v n.n.n.n.n.m.n.V.  ",
": F.b.b.m.n.n.n.n.n.&.o $XI.x D G &.&./ 4.9.$.4.$.$.( 9.2.1.i.$.{ 6.X.>._ 9.1.( %.9.w.W.i :X@Xz./.[.+X5./.k.x n.n.n.n.n.n.n.V.  ",
", K.b.b.m.n.n.n.n.n...o $XP.x ( [.@X@X+X&X&X%X{.|.$X&X@XXX@X%X%X$X&X@X$X@X$X%X@X$X{.6.x.r :X$XI.].[.$X-._.P.Z n.n.m.n.n.m.n.V.  ",
": L.b.b.m.n.n.n.n.n.O.@ $Xk.M  .i.d.f.i.p.g.d.!.s.i.i.k.j.x.].x.U.f.d.e.f.z.0.f.!.r.9.k.6 :XOXz.'.}.+X,.!.I.b n.n.n.n.n.n.m.V.  ",
": K.B.b.b.b.B.b.b.b.>.. &XP.X.H u v x F F ) J % O./  .G J J J N Z G V / a G L x L n 9.!.a :X@XP./.].+X@.).P.b n.n.n.n.n.m.n.B.  ",
": F.b.b.B.b.b.B.b.b.>.+ $Xg.u L c V N M J J X.x v q.| S M F L $.N V  .M  .V L ( L $.#.!.r :X#Xx./.`.+X;.!.!.n n.n.n.n.n.n.n.V.  ",
", L.b.b.b.b.b.b.4.b._ $ #XP.c #.9 D  .J L c | X.6.D J v H n c F  .Z N  .L $. .X.>.o.6.P.f :X@Xx.(./.+X2.!.!.V n.n.n.n.n.n.m.M.  ",
"  b.b.J.D.D.F.H.D.D.-.# #XP.M { #.{ # * x V ) n  .S *.L / M J D J v M  .G D  .G J &.9.P.8 :X$Xx.].].+X-._.P.n F.S.S.C.Z.C.A.D.  ",
"4 n.n.*XE.E.E.R.E.R.-.$ @Xl.V j V 3.M s { M J  .S g J L n J V x % V / J V L / v j #.e.Q.0 :X$Xl.].[.oX9./.x.n T.R.R.Y.T.Y.R.=X  ",
"3                   $.$ +Xk.V s L J D J G G c ( H H ( #.K G &.M ) V V j ~ u V Z L / &.z.d ;X$Xc.].].+X0.~.l.k                 1 ",
"P N.n.C.C.V.Z.Z.C.C.-.O #XI.F J F L M V M v N S 6.G x N D D N L V #.M J M #./ D D 1.d.Q.0 :X@XW.].`.+X,.~.!.l Z.C.C.C.C.C.A.J.  ",
"5 G.m.m.m.m.m.m.m.n.-.$ #XQ.n / / G ( s t O.u * N N F N  .N *  .s V D O.D s s X.L J 5._.0 ;X$Xk.].`.oX7.!.!.x m.m.m.m.m.n.m.C.  ",
"< G.n.n.n.n.n.m.n.n.@.& +XU.N 1.x / S N $.L 4.&.$.X.6.&.$.| 5.#.&. .1.1.4.#.q.M #.6.6.z.d :X$XQ._._. X0./.!.d n.n.m.m.n.n.m.V.  ",
"< G.n.n.n.n.n.n.n.n.=.0 $XP.x J $.&.X.>.G 5.g ;.1.*.O.1.e.%.&.5.5.&.1.3.5.6.%.4.>.$.$.j.0 :X$Xx.[._. X0./.Q.d n.n.n.n.n.n.n.V.  ",
"< G.m.n.n.n.n.n.n.n.=.6 #Xk.N N W.W.).|.{.{.W.[.|.^._.W.P.[.'.[.XX`.[.XX`.XXXX|.@X<.6.j.i ;X#Xz.]._. Xt.!.I.a n.n.n.n.n.n.m.B.  ",
"> H.m.n.m.n.n.n.n.n.=.6 +Xx.D F p.f.I.r.f.j.p.x.p.P.i.k.p.x.f.z.e.j.f.j.d.u.p.9.i./.6.z.i :X+XQ.[.[.|.9.Q.I.i n.n.n.n.n.n.n.V.  ",
": G.n.n.n.n.n.n.n.n.3.$ @XQ.V x Z / F / _ Z G n ! s n u b * Z +.F y k N Z v x F ) n 4.I.l ;X$Xv.[.[.}.t.!.Q.y n.n.n.n.n.m.n.V.  ",
": G.n.n.m.n.n.n.n.n.] $ +Xl.n j D G Z / K F N Z h L x c D M  .O.N v w t _ n  .s L N w.z.i ;X@Xl.[.].}.e.~.!.i n.n.m.n.n.n.n.V.  ",
": G.n.n.n.n.n.n.n.n.@.7 +XU.M  .N ! u Z N s n s  . ...g V O.S / F w ~  .( 1.V -. .o.8.k.0 ;X$Xz.].[.[.f.Q.I.y n.n.n.n.n.m.n.V.  ",
"- G.n.n.m.n.n.n.n.n.O.6 +XI.M L D x 8.) % c ) J N { S J V Z V L M G J | V +.n v O.M q.I.0 ;X$XQ.].]. Xy.!.!.r n.n.n.n.n.n.n.B.  ",
": L.b.b.b.K.b.b.n.n.' p +XI.v /  .y x &.$.G J D ( N * w J v h u c  .( F c M c ) / O.*.I.e :X$XQ.]./.[.7.Q.!.e n.n.n.n.n.n.n.B.  ",
": Y.b.b.b.b.b.b.n.n.^ f +Xl.N Z y V c D u G L v J  .D y M _ x w J ) c ) O.D V M N o.6.I.9 :X@Xx.]./.}.0.Q.P.d n.n.n.n.n.n.n.V.  ",
": F.b.K.b.b.F.b.n.n.+.6 $Xp.J Z D v N t y M  .* G S y.w D $.h O.D n L F .. . .O.L D e.k.7 :X#XQ.`./.}.7.~./.0 n.n.n.n.n.n.n.V.  ",
": K.b.b.b.b.b.b.m.n.=.6  Xx.N / G O.*. .1.q. .O.4.;.8.O.L $.1.{ q.&.X.V 4.%.5.L  .S 8.x.r :X$XQ.].].}.<.I.x.7 n.n.n.n.n.m.m.V.  ",
": F.b.b.b.b.b.b.4.b.4.g #Xz.N #.9.;.*.;.e.u.;.3.$.1.*.&.5.{ $.6. .&.1.6. .8.5.6.O.7.9.!.d :X$X!.(.`.{.7.Q.x.9 m.n.n.n.n.n.n.B.  ",
": K.b.b.b.b.b.b.b.b.O.t +XI.M F q.I.s.f.I.p.j.u.!.U.].I.l.k.P.l.k.j.h.k.k.x._.W.I.f.$.k.$ :X$XQ.`.(. X3.I.P.0 n.n.n.n.n.m.n.V.  ",
": K.b.b.b.b.n.n.n.n.O.6 +XP.v ) h.w.P.2.p.h.u.w.w.k.i.q.0.w.!.-.].h.p.z./.l.p.x.6.f.6.g.0 :X$XQ.].[.}.7.x.I.7 n.n.n.n.n.n.n.C.  ",
", L.b.b.4.m.n.n.n.m.>.6 .XI.v ! V c J i s n A x d a a v N m s M @ m n G 9 d v i G v 1.l.f :X$XQ.`./.].3.W.Q.0 n.n.n.n.n.n.M.B.  ",
"3 F.b.b.b.:.:.:.b.b.*.i #Xk.x ..x V h x M u N F M L N ..J ( d O.@.G ) N K O.D $.v ) 5.!.6 :X$XI.`.(.}.7.!.U.0 n.n.b.b.b.b.b.F.  ",
"- b.:.Y.L.L.K.K.J.L.*.g .XP.x x J N * } g { J u & v u x { c O. .) s V k M J M { #.1.*.I.7 :X$XP./.(.[.0.W.P.e K.K.K.L.L.L.Y.*X  ",
"P                   ,.p #XP.N / / D  .V % s { M v  .~ n D / J S ( O.x M / G / v { #.q.).d :X$Xc.`.`.].7.P.P.y                 , ",
"P b.b.b.4.m.b.:.4.:.-.p +X!.M &.s n ( 5.{ u N $.$.L Z c % x c Z M /  ._ 2.v M V o.1.6.!.9 :X$Xv.]./.[.7.Q.I.r n.n.E n.4.b.b.n.P ",
"3 b.b.b.b.b.b.b.m.m.] z +X!.d } H M h { u * S g s V 5.) & V v D M J _ | Z | ) M S 8.1.I.i :X$XQ.].].].7.x.z.a n.m.M.m.M.N.M.M.  ",
", R.b.b.b.b.b.b.n.m.@.p $XQ.h ) ..J S w / J D G N M u v | G  .S D D ) n #.G  .J u 4.q.P.e :X$Xl.`._.}.9.I.z.y n.b.m.b.m.b.M.C.  ",
", K.b.b.b.b.b.F.n.n.O.z +Xl.x  .D u D N o.c #.M | J J ..( c {  .N v 5.J n Z _ 5. .6.1.!.6 :X#Xl.[./.].0.I.P.y n.m.m.b.m.b.M.V.  ",
", K.b.K.b.b.b.b.n.n.+.p .XI.b ;.D n ;.} { w  .M G w #.J O.N $.g O.D n K s ) L x G q.6.I.i :X#XU.].}.[.8.I.l.s m.b.m.M.b.m.b.C.  ",
", H.b.b.F.b.b.b.b.F.` z @Xz.n G N *.S J * V S L M J g 4.G  .#.G { J | { L G J u ) 8.9.k.z :X$Xx./.[.}.2.W.d.s b.b.B.B.b.b.b.Z.  ",
", K.b.b.b.b.b.b.b.b.,.z @Xj.n K c | 8.&.) J #.S >.4.{ | { {  .#.G L #.S | u.| O.| 1.I.~.i :X$Xx.]./.].t.P.P.s b.b.b.b.B.B.b.Z.  ",
", K.b.b.b.b.b.b.b.F.>.m @Xp.n K S J | M O.{ S u g M L { c J *./ { ;.{ S D N #.S w L i.!.7 :X@X~.].(.}.0.P.d.M 4.B.b.b.b.m.m.V.  ",
": L.b.b.b.b.D.b.b.b.,.V @Xv.c c 1.6.q.r.q.P.P.`.g.r.s.P.g.k.q.6.q.4.i.s.4.r.q.D r.f.>.!.7 :XoXv.Q./.].t.P.P.M m.b.B.B.b.b.m.V.  ",
": K.b.b.D.b.b.b.b.b.,.A @Xz.j V 6.i.i.W.p.[.e.j.s.I.k.p.Q.I.k.f.).W.k.I.j.^.I.d.I.s.5.v.q :X+Xc.~.(.}.0.c.j.n n.n.n.n.n.m.:.V.  ",
"- K.b.b.b.b.D.b.b.4.W C @XW.p.) &.%.*.%.X.K | &.M S F D B N M $.D ! o.J  .H *.N V F 9.u.0 :XXXQ.~.(.].8.x.i.x n.m.n.n.n.m.m.V.  ",
"- F.b.b.b.b.b.b.b.b.` z oX`.^.@X{.@XXX+XXX@X}.@X|..X_. X+XOXoX/.^.[.[. XXX|.|.{.XX{.}.I.9 -X`.).}./.}.7.x.x.D n.4.b.n.n.m.m.V.  ",
"- F.b.b.b.D.b.b.b.b.^ H ` K %.` +./ ] F ~ / ~ ' J 0./ @.-.~ -.A O.@.) F B _ @./ ..d O._ +.k 7.].].x.+X-.I.j.V m.b.b.n.n.m.m.V.  ",
": G.n.n.m.n.n.n.b.b.` 9 XXW./././././.!.~./././.!./.Q./.^./.!.!.^./././.!.!././.!./.~./.0 m.n.q XX@XXX%.z.v.G b.b.b.b.b.F.b.K.X ",
"> H.m.m.m.n.n.n.D.b.o.j W.z.1.v.k.~.x./.z.e.h.] !.k.7.i.j.f.e.i.f./.j.!.Q.y.z.{.h.(.0.f.d m.n.n.,.3.XX,.j.`.K b.b.b.b.b.b.b.Z.  ",
": G.m.b.m.n.n.n.b.b.J c !.j.(.(.3.].j.z.p.i.k.].x.v.j.U.z.f.x.j.p.p.k.j.<.h.j.x.U.e.h.I.f m.n.m.:.` i.e.v.z.G b.b.b.b.b.b.b.b.  ",
"- G.n.n.n.n.n.n.b.b.G S l l k V i w s e y & % & * $ & + @ @ # + + # + w + . 9 + t h d ~ F m.n.m.:.:.:.V ` V | b.b.b.F.b.V.b.D.  ",
"; G.n.n.n.n.n.n.n.n.n.n.V ' _ F x s.>.*.$.d.r.6.4.p.8.1.6.>.4.>.>.6.q.>.e.9.9.D K m _ ~ >.d.z.f.f.:.:.:.b.b.b.b.b.b.b.b.b.b.D.  ",
"< G.m.m.m.n.m.m.n.m.m.m.@.H H J x 4.q.i.q.q.e.d.f.f.e.u.9.v.k.e.u.i.j.z.d.p.p.w / F / ^ 3.f.z.W.v.(.:.:.b.b.b.b.Z.b.b.:.b.b.V.  ",
"X M.b.G.D.D.F.D.D.D.D.D.Q.%.i.i.r.6.9.r.s.d.j.e.u.9.8.,.6.0.u.9.W.f.e.0.d.p.i.j./ #.e.s.p.9.s.z.f.'.K.K.b.K.K.b.K.F.Z.D.Z.D.K.  ",
"3 E Y E E R E E E R R R E R R E E E E E U P E T E R E R R R :.R :.R R R :.R >X>X>X>X>X>X>X>X>X>X>X:X:.:.:.:.:.:.:.:.T :.:.:.:.4 "
};
