/* XPM */
static char *result[] = {
/* columns rows colors chars-per-pixel */
"64 64 209 2 ",
"   c black",
".  c #0F091D",
"X  c #0D0824",
"o  c #141326",
"O  c #191325",
"+  c #171528",
"@  c #1A1729",
"#  c #1B192A",
"$  c #231B2B",
"%  c #291C29",
"&  c #261C32",
"*  c #28212F",
"=  c #3D342C",
"-  c #2B2336",
";  c #312B39",
":  c #392A3A",
">  c #3A333B",
",  c #4C341A",
"<  c #563C1E",
"1  c #4A3929",
"2  c #563E24",
"3  c #573E27",
"4  c #453C33",
"5  c #61411D",
"6  c #4D402D",
"7  c #574026",
"8  c #594227",
"9  c #5C442A",
"0  c #5F482D",
"q  c #4B433D",
"w  c #5A4836",
"e  c #634727",
"r  c #6B4E24",
"t  c #6B4C2C",
"y  c #704F22",
"u  c #77562E",
"i  c #634C32",
"p  c #664A35",
"a  c #6B4E35",
"s  c #6C5134",
"d  c #675038",
"f  c #6C553C",
"g  c #725434",
"h  c #775836",
"j  c #7A5A34",
"k  c #71563B",
"l  c #75593C",
"z  c #7B5C3C",
"x  c #3A3746",
"c  c #3C3444",
"v  c #453A47",
"b  c #4E424C",
"n  c #554C44",
"m  c #5D5248",
"M  c #675846",
"N  c #6A5A4D",
"B  c #755D43",
"V  c #775844",
"C  c #7B5D42",
"Z  c #7F6041",
"A  c #7C644B",
"S  c #6E6152",
"D  c #726555",
"F  c #545661",
"G  c #656A6F",
"H  c #717476",
"J  c #767A7A",
"K  c #797C7C",
"L  c #815D3B",
"P  c #86663B",
"I  c #91713E",
"U  c #846543",
"Y  c #8D6C46",
"T  c #85674A",
"R  c #896C4B",
"E  c #916A45",
"W  c #8C724C",
"Q  c #997846",
"!  c #876A51",
"~  c #8C6D52",
"^  c #887459",
"/  c #947654",
"(  c #9E7D55",
")  c #977A5C",
"_  c #A07E49",
"`  c #927E63",
"'  c #7F807F",
"]  c #A2824D",
"[  c #A58452",
"{  c #A88652",
"}  c #AA8A55",
"|  c #A78758",
" . c #AD8D5A",
".. c #AF9057",
"X. c #AF915C",
"o. c #B2925D",
"O. c #B7985F",
"+. c #978166",
"@. c #9A856B",
"#. c #9B8871",
"$. c #A58765",
"%. c #AA8C64",
"&. c #AA8D6A",
"*. c #B59562",
"=. c #B89663",
"-. c #B79965",
";. c #BA9A66",
":. c #B5986B",
">. c #BD9D6A",
",. c #A48C73",
"<. c #AB9274",
"1. c #B99A75",
"2. c #BEA16D",
"3. c #BFA372",
"4. c #C09F6A",
"5. c #C1A26E",
"6. c #C9A86B",
"7. c #C4A572",
"8. c #C8A772",
"9. c #C6A975",
"0. c #C9AB75",
"q. c #C5AB7D",
"w. c #CBAD7A",
"e. c #CEB175",
"r. c #CDB17C",
"t. c #D1B376",
"y. c #D2B47C",
"u. c #D5BB7D",
"i. c #D8BE7E",
"p. c #D5C07D",
"a. c #7F8080",
"s. c #828683",
"d. c #838985",
"f. c #878E89",
"g. c #888F8A",
"h. c #87908A",
"j. c #8A938C",
"k. c #8E9791",
"l. c #8E9A92",
"z. c #929E95",
"x. c #949E98",
"c. c #93A197",
"v. c #95A399",
"b. c #9AA39C",
"n. c #9BA99F",
"m. c #BDA882",
"M. c #9BA7A0",
"N. c #9DADA2",
"B. c #9FB1A5",
"V. c #A0A8A2",
"C. c #A5B6A9",
"Z. c #C6AC87",
"A. c #CAB185",
"S. c #D3B681",
"D. c #D6BC82",
"F. c #DABD83",
"G. c #D9BD88",
"H. c #D8BF90",
"J. c #AFC3B4",
"K. c #B4C7B8",
"L. c #B5CBBB",
"P. c #BAD0BE",
"I. c #DCC185",
"U. c #DEC38A",
"Y. c #CEC096",
"T. c #DBC593",
"R. c #DECC9B",
"E. c #E2C486",
"W. c #E3C986",
"Q. c #E2C68B",
"!. c #E4CA8D",
"~. c #E9CE8F",
"^. c #EBD18E",
"/. c #E2C792",
"(. c #E5CB93",
"). c #E9CE94",
"_. c #E4CD9A",
"`. c #EACE99",
"'. c #E7D197",
"]. c #EBD195",
"[. c #EDD39A",
"{. c #F0D695",
"}. c #F1D69C",
"|. c #F2D99D",
" X c #F9DE9D",
".X c #E5D4A4",
"XX c #EED5A1",
"oX c #EDD9A3",
"OX c #EADAAA",
"+X c #F1D6A1",
"@X c #F4DBA3",
"#X c #F8DDA4",
"$X c #F3D6AA",
"%X c #F3DDAB",
"&X c #E8DBB1",
"*X c #FBE1A5",
"=X c #F3E1AE",
"-X c #FBE2AB",
";X c #EEE1B4",
":X c #F3E4B3",
">X c #F5E5B9",
",X c #F7E9BA",
"<X c #C1D5C7",
"1X c #CCE8D2",
"2X c #F6EDC7",
"3X c #F7F2C9",
"4X c #FAF2CC",
"5X c #F9EFD4",
"6X c #FCF8D3",
/* pixels */
"v c                                   X v b       U u L g P g                     & x ; & X                                 o & ",
"* s.a.h.g.g.g.g.g.g.g.g.g.g.g.g.g.g.g.f.H e k h g |.+X`.[.}.`.r j W r W r g.h.j.h.s.  o a.s.g.g.g.g.g.g.g.g.g.g.g.g.g.g.g.g.h.  ",
"@ C.g.s.s.s.s.d.s.s.s.d.d.a.s.P P P U._.R.@X[.(.!.[.}.).(.(.].}.).@X).@X'.R.R.(._.H.'././.P y u ( d.s.s.d.s.s.d.s.s.s.s.s.s.j.  ",
"$ b.d.s.s.s.d.s.s.s.s.s.| [ m.5X%X!.'.[.(.+X@Xu.@X$X'.U.|.'.@X].@X(.'.{.).[.@X[.}.'.[.'.#X[.#XG._ ) s.s.s.s.d.s.s.s.s.s.s.d.j.  ",
"$ b.s.s.s.s.s.s.s.s.s.Y _.].U.X.3.2.5.Z.4X5X2XOX'.@XU.{.oX_.[.@X[.+X).[.[.'. X[.].[.(.[.(.8.=.5.o.E s.s.s.s.s.s.s.s.s.s.s.s.j.  ",
"# b.d.s.s.s.s.s.s.s.s.9 ].oXoX%XoX X;X&XH.&X.X.XT.A.3.3.2.T.;X&X.X_.).}.$XoX.Xi.>.>.o.-.*.4.*.7.=.9 s.s.s.s.s.s.s.s.s.s.s.d.h.  ",
"+ b.s.s.d.s.s.s.s.s.s.i @X[.[.{.`.|.}.`.XX`.`.:X,X6X4X3X{.F.>.8.>.q.{ 4.t.y.>. . .}  .=.>.>.7. .o.i s.s.s.s.s.s.s.s.s.s.s.s.j.  ",
"+ b.s.s.d.s.s.s.s.s.s.d XX[.(.(./.).(.`.!.T.Q.{.(.].|.'.2X3X3X4X5X4X,Xy.U y. .-.>.5.5.5.o. .*.o.-.a s.s.s.s.s.s.s.s.s.s.d.d.j.  ",
"+ v.s.s.d.s.s.s.s.s.s.s [.].'.(.@X'.(.^.(.].`.Q.(.).|./.(.[.[.[.U.#X).>.R r.8.>.7.>.*.>.>.>.5.%.5.i s.s.s.s.s.s.s.d.s.s.d.s.h.  ",
"@ v.s.s.d.s.s.s.s.s.s.i [./.).|.@X#X[.[.].'.].(.'.'./.Q.}.].#X(.{.(.'.0.z 9.8.*.*.[ 3.;.>.5.[  .>.s s.s.s.s.s.s.s.s.s.s.d.s.j.  ",
"+ v.s.s.d.s.s.s.s.s.s.f }.].|.@X{.(.(.I.!.'.[.!.{.[.Q.u.#X[.I.}.(.`.}.2.e S.] -.7.>.*.Q >.8._ ;.3.f s.s.s.s.s.s.s.s.s.s.d.s.j.  ",
"o b.s.s.d.s.s.s.s.s.s.7 [.Q.`.$XQ.'.'.@X@X}.}.`.{.'.[.@XG.(.[.(.).`.T.7.L D.5.5.=.8.y. .5.*.7.7.-.2 s.s.s.s.s.s.s.s.s.s.s.s.j.  ",
"+ b.d.s.d.s.s.s.s.s.s.9 %X`.{.(.[.(.].[.[.+X}.[.[.(.}.'.(.`.|.(.).i._.5.5 w.5.=.;.:.4. .-.Q >.o.{ 9 s.s.s.s.s.s.s.s.s.s.d.s.j.  ",
"+ b.s.s.d.s.s.s.s.s.s.B '.Q.XX@X'.|. Xt.*X{.`.}.).}.Q.`.|.'.].|.'.).#X7.t G.I ] 5.r.>.*. .{  .} -.B s.s.s.s.s.s.s.s.s.s.s.s.j.  ",
"@ b.s.s.s.s.s.s.s.s.s.i $X#X#XQ.I.I.I.).{.#XU.(.Q.(.].|.].!.!.].Q.G.Q.2.U q.*.:.} [  .;.0.>.] *.O.i s.s.s.s.s.s.s.s.s.s.s.d.j.  ",
"O b.d.s.s.s.s.s.s.s.s.9 %X].Q.}.).[.@X#X[.Q.}.).`.`.(.).'.[.'.~.).}.XX8.t D.>. .=.4.} >.-.} >.>.-.9 s.s.d.s.s.s.s.s.s.s.d.s.j.  ",
"o b.s.s.s.s.s.s.a.j.a.8 {.oX'.|.'.^.U.|.].|.[.U.(.].~.).@X).U./.XX[.(.w.z 0.4.>.( *.w.-.8.0.0.=.*.8 s.s.s.s.s.s.s.s.s.s.s.s.j.  ",
"+ b.s.d.s.s.s.d.a.a.a.0 oX=Xl D .X'.|.I.U.[.'.(.I.#XQ.!.-X(.Q.].!.`.(.8.e 8.P =.o.8.4.>.*.5.[ o.8.2 s.s.s.s.s.s.s.s.s.s.d.s.h.  ",
"% V.s.s.s.s.s.s.' a.' , ,XD +.q +.'. XU.].].!.{.).[.[.u.(.#X].@X[.Q.%Xr.g 0.>.:.;. .>.>.5.{ >.[ -., s.s.s.s.s.s.s.s.s.s.s.s.g.  ",
"  s.K v.z.z.z.z.v.c.v.0 3XM D 4 ^ p.U.*X{.I.].'.}.}./.#X'.].W.U.'.!.(.9.r y.8.>.-.*.=. .o.;.-.3.>.0 v.z.c.z.z.c.z.c.l.l.l.z.x.  ",
"; s.s.<XP.L.L.P.P.P.P.8 ,XS +.4 +.!.E.F.I.}.'.`.[.'.}.[.(.oX|.F.~.D.U.;.t 9.:.8.-.{ 7.>.>.5.o.4.o.3 L.K.L.L.L.K.L.L.J.K.J.L.<X  ",
":                     f ,XS #.m @.).[.(.'.'.(.).U.{.}.[.!.(.{.I.{.[.`.2.L 0.=.5.4.;.%.7.5.-.4.7. .f                           & ",
"> g.s.k.k.j.k.k.v.c.l.8 ;XS D q #.[.~.).^.].).|.#X[.Q.!.].{.[.[.W.F.`.-.R G.r.7. .=.;.5.*.o.-.5.1.7 k.l.l.j.z.k.k.z.z.j.k.k.M.  ",
"c x.d.d.d.d.d.d.a.a.' f oXm +.= ` Q.].).I.'./.!.`.~.(.[.}.[.).@X#X/.[.5.s w.} *.8.-.*.0.4.;.*.o...f d.d.d.d.d.d.s.d.d.d.d.s.z.  ",
"@ b.f.s.s.s.s.s.s.s.s.9 ,XM D 4 ) I.'.].(.].!.!.(.^.`.].U.[.(.U.(.@X_.8.t 2.5.>.>.*.-.>.5.5.=.8.o.9 s.s.s.s.s.s.s.s.s.s.s.d.j.  ",
"$ x.s.d.s.s.s.s.s.s.s.i ,XM @.4 ` I.].].E.'.[.U.!.).}.~.].].[.].'.+X-X9.e o.] >.>.} -.;.>.*.o.-.2.i s.s.s.s.s.s.s.s.s.s.s.s.j.  ",
"$ b.d.s.s.s.d.s.a.a.s.i :XS +.= #.).'.|.Q.(.'.|.u.!.[.|.^.[.'.U.(.+X#XA.Z e.>.] >.*.>.o.5.0.>.5.{ i s.s.s.s.s.s.s.s.s.s.s.d.j.  ",
"+ b.d.s.s.s.s.s.a.a.#.i =XB ' q @.^.|.i.I.!.].t.{.[.].].|.].#XU.).@X(.7.z X.{ o.5.2.{ 7.>.5. . .2.i s.s.s.s.s.s.s.s.s.s.s.s.j.  ",
"+ b.s.s.s.s.s.s.a.a.a.2 ,X6 @.= ` ).).].}.).[./.-Xp.#X@X'.).(.[.I./.@Xr.h w.o.*.2.*.o.{ *.I >.8.-., d.s.s.s.s.s.s.s.s.s.d.s.j.  ",
"+ b.s.s.s.s.s.s.a.a.a.w :XM @.n @.|.@X[.[.}.(.!.).#X(.{.+X[.#X^.[.(.XX3.z 0.X.-.>.o.;.5.;.-.-.-.;.e s.s.s.s.s.s.s.s.s.s.s.s.j.  ",
"+ b.d.s.s.s.s.s.l.a.a.w =Xq #.= ` Q.[.#X[.[.!.}.).'.].*XQ.).'.!.I.@X@X>.g 9. .-.X.*.=.} 7.o.] } X.0 s.s.s.s.s.s.s.s.s.s.s.s.j.  ",
"o b.d.s.d.s.s.s.a.a.l.d ,XN A q @.(.{.Q.G.W.{.F./.E.I.[./.F.].{.p.(.(.2.Z y.r.;.7.o.{ w.7. .;.2.X.i s.s.s.s.d.s.s.s.s.s.s.s.j.  ",
"@ b.s.s.d.s.d.s.s.s.s.d :XN ,.n <.}.!.).(.[.I.*X].].).).`.#X{.@X*X{.).>.s r.;.7.>.-.7.4.7.}  .*.;.d s.s.s.s.s.s.s.s.s.s.f.#.a.  ",
"+ v.d.s.s.s.s.s.s.s.s.i :Xw M 4 ,.]./.Q.~.!.(.)./.).(.|.Q.}.[.{.|.].[.0.C G.*.*.;.>.S.>. .>.7.*.>.0 s.s.s.s.s.s.s.s.s.s.s.s.l.  ",
"o b.s.s.d.s.s.s.s.s.s.i @Xp @.1 W _.(.`.I.[.].].).U.).W.!.|.{.Q.].}.`.0.2 8.*.*.o.{  .>.7.o.5.X.*.i s.s.s.s.s.s.s.s.s.s.d.d.l.  ",
"# b.s.s.s.s.s.s.s.s.s.9 %X(.( P 5.[.#X}.).[.@X'.(.[.).|.].+XQ.!.).{.`.>.t D.Q 8.0.%.*.>.7. .[ >.:.9 s.s.s.s.s.s.s.s.s.s.a.a.k.  ",
"+ b.d.s.d.a.d.s.s.s.s.7 :X'.[.}.[.[.'.@XE.I.I.Q.'.|.(.).Q.U.(.Q.|.`.`.9.h 4.*.} =.8.=.*.8.{ =.;.>.7 s.s.s.s.s.s.s.s.s.s.f.a.j.  ",
"+ b.s.s.d.s.s.s.s.s.s.2 %X[.|.).{.[.[.Q.p.[.#X(.|.{.'.!.!.~.}.^.[._.(.9.u w. .-.o.;.4.{ 3.w.{ *.-.2 s.s.s.s.s.s.s.s.s.s.a.f.j.  ",
"+ b.s.s.d.s.s.s.s.s.s.9 >X(.Q.!.'.].I.@X].'.(.).U.G.).E.@X).[.[.).Q./.7.C Q.4.7.4.7.-.7.*.>.7.>.;.8 s.s.s.s.s.s.s.s.s.s.d.d.k.  ",
"$ b.a.s.s.d.s.s.s.s.a.i ,X].!.u.u.].Q.%X/.I.].{.%X].#X].].Q.].].`.(.[.9.g 7.*.5.o.8.] 9.0.o.=.:.o.i s.s.s.s.s.s.s.s.d.d.a.d.j.  ",
"* x.d.a.a.a.a.a.a.a.a.d ;XXX'.[.!.[.'.).}.`.Q.].[.(.[.].(.%X[.'.Q.XX'.-.z S.8.;.-. .o.o.>.o. .8.X.f a.a.#.s.s.s.a.s.a.a.s.d.c.  ",
". s.s.C.C.B.B.B.M.B.B.w ,XU.].].i.!.[.(.[.Q.{.!.I.Q.(.].!.[.(.{.Q.Q.|.>.z G. .| *.Q -.*.7.*.{ 7.:.9 B.B.M.n.b.N.N.N.C.C.C.C.L.  ",
"x                     9 >X|.[.].#X!.Q.!.D./.[.D.(.#X].(.*X(.Q.[.|.)./.2.z y.7.} >.5.X.=.8.-.4.w.5.9                           # ",
"c ` s.s.a.s.a.a.` s.a.i >X'.'.~.[.(.!.[.(.U.'.Q.XX@X{.].|.{.Q.!.).].'.5.s r. .5.4.>.5.>.*.*.9.8.*.i a.a.a.a.a.a.a.s.s.' s.a.s.x ",
"$ a.a.d.d.d.d.d.s.d.d.9 :X).}.@XU.(.).#XI.'.(.D.E.I.(.*X).).[.{.[.|.G.0.z 0.-.4.*._ 8.;.>.5.7.;.] 9 s.d.d.d.d.d.d.d.d.d.s.d.f.  ",
"& M.d.d.d.d.s.d.s.s.s.k >X#X|.'.(.'.).[.|.I.).[.#X XU.'.|.].I./.(.).).r.g r.*.*.*.>.*.*.*.5.8.4.] f s.s.s.s.d.d.s.s.d.d.s.s.k.  ",
"$ x.d.s.s.d.s.s.s.s.s.< >X].|.|.|.[.(.Q.U.(.[.[.|.I.!.].(.E.~.!.}.Q.(.-.z r.*.*.*.o.*.>.o.>.:.-.2.< s.s.s.s.s.s.d.s.s.s.s.d.j.  ",
"& x.s.s.s.s.s.s.s.s.s.3 :X{.].].I.'.(.|.)./.#XD.[.~.).D.'.}.[.}.!.~./.5.h w.9.;.>.;. .*.9.>.=.o.O.8 s.s.s.d.s.s.s.s.s.s.s.s.j.  ",
"$ b.s.s.a.d.s.s.s.s.d.0 ,X(.[.I.{.[.!.].U.I.}.{.[.+X#XQ.[.'.].[.].[.[.:.t y.5.-.o.>.-.-.X.-.7.;.} 0 s.s.c.a.a.a.a.c.c.a.a.a.N.  ",
"# b.s.s.d.s.s.s.s.s.a.w 4X{.[.[.(.@X(.].~.'.(._.(.Q.G.@X].!.`.).'.[.(.{ e y.-.X...5. .>.;.} ( >.7.0 s.s.a.a.a.a.a.a.a.a.a.a.c.  ",
"+ b.a.s.s.s.s.s.s.s.s.Z 2XU.|.I.].W.].).].@X|.).[.`.}.i.*X(.`.(.|.).+X7.g w.-.o.4.0.0.>.I 5.*.8.-.Z s.s.a.a.a.a.a.a.c.a.a.' l.  ",
"+ M.s.s.d.s.s.s.s.s.s.l 2X(.!.|.].(.(.`.Q.!.~.[.`.{.!.~.{.!.].Q.).).Q.7.r >.-.;.=.w.5.*.5.5.} *.X.k s.s.a.c.a.a.a.a.a.a.j.' l.  ",
"+ b.d.s.d.s.s.s.s.s.s.A :XU.'.~.}.}.).U.S.(.].y.{.'.'.[.+XE.).).!.}.+X7.t r.P ;.>.4.=.*.>.>.*.*.X.A s.s.s.s.a.l.' ' h.a.a.' c.  ",
"+ b.a.s.d.s.s.s.s.s.s.R P 2.(.{.].Q.].~.).}.).t.}.].[.{./.i.Q.(.!./._.*.g *.} ;.;.5.*.5.4.7. .4.2.R s.s.s.s.a.a.h.h.' ' a.j.l.  ",
"o b.s.s.d.d.s.s.s.s.s.s.Y a k  .6.}.E.}.(.G.`.[.}.i.].{.Q.W.`.(.(.I.+X>.h S.4.7.X.4. .5.;.0. .;.2.+.' s.d.a.a.a.' ' ' h.h.a.l.  ",
"+ b.d.s.a.d.s.s.s.s.s.d.C e.=.{ E ) P L r o.i.}.~.~.}.).).].[.).I.[.[.>.h w.>.:.>.;.>.8.-.o.e V &.a.s.s.#.a.a.a.' h.' h.' ' l.  ",
"@ v.d.d.d.s.s.s.s.s.s.s.l  .Q U.D.S.i.8.o.T a 3 =.E.~. XE.}.~.}.[.).@X=.z r. .2.2.X.2.{ 2.d +.&.@.' c.a.a.a.c.a.#.a.a.a.c.a.v.  ",
"@ n.d.a.a.s.d.s.s.s.s.s.s.C 9 V ( e.E.t.t.Q.=.=.~ a l y Q.@XQ.}.!.Q.-X2.e w._ -.2.X.Y i C &./ &.' ' ' a.c.a.a.a.a.a.a.a.a.a.v.  ",
"+ v.d.d.f.a.s.s.s.s.s.s.s.s.s.s.T w B y.Q.`.G.Q.].S.=./ l k L t.U.].+XR h w.X.*.-.3.i &.:.1.s.d.' ' ' ' ' ' a.a.a.a.a.a.a.a.a.  ",
"o v.d.a.d.d.s.s.s.s.s.s.s.s.s.s.s.R.Y.A.Z.Z.L / o.t.|.(.6.4...E g j | ( j >.w.R :.&.<.-.k.a.s.d.' l.' c.a.a.a.v.a.a.a.c.l.a.c.  ",
"O b.d.s.d.d.a.s.d.a.d.d.s.s.s.s.a.f.a.h.H x K d.U V V ~ }.}.w.y.F.8.`.Q ( p k &.@.3.    l.j.' ' ' ' ' ' a.a.a.a.a.a.a.a.' a.c.  ",
"* b.d.d.d.a.d.d.d.d.d.a.s.d.s.s.a.a.a.h.K x ` f.d.d.s.d.! ~ U 8.t.E.G.} T :.&.$.3.1X    j.' ' ' ' l.' l.a.a.a.a.c.a.a.a.a.a.j.  ",
". d.a.b.c.c.c.v.v.c.c.c.v.c.v.l.x.c.k.k.G + K s.C.b.x.x.x.A.~ ) ) t.Q.V V $.$.v.B.'     ' ' j.c.l.c.N.v.a.N.N.a.n.v.a.v.c.c.N.  ",
"- K G K K J K K K J J J K K K K J K K K F c K H J J J K K K K K K ~ z T Z.&.J J ' '   # ' ' ' ' ' ' ' ' ' ' ' ' ' ' ' ' ' ' ' ; "
};
