/* XPM */
static char *result[] = {
/* columns rows colors chars-per-pixel */
"64 64 169 2 ",
"   c #000000",
".  c #01020D",
"X  c #08020F",
"o  c #020314",
"O  c #0C0215",
"+  c #060519",
"@  c #0D021A",
"#  c #0C0A1D",
"$  c #110215",
"%  c #10031C",
"&  c #11081F",
"*  c #14141F",
"=  c #0C0722",
"-  c #0E0B24",
";  c #130C22",
":  c #141326",
">  c #1A1326",
",  c #171629",
"<  c #1A162A",
"1  c #1B192C",
"2  c #1E1C32",
"3  c #221B2B",
"4  c #291C29",
"5  c #211E34",
"6  c #291C31",
"7  c #24212F",
"8  c #29202F",
"9  c #242235",
"0  c #2C2335",
"q  c #2B2936",
"w  c #262538",
"e  c #292639",
"r  c #2C2B3D",
"t  c #342634",
"y  c #312B3A",
"u  c #3B2F3E",
"i  c #33323E",
"p  c #38323E",
"a  c #383B3E",
"s  c #2E2C40",
"d  c #312E41",
"f  c #353244",
"g  c #3A3547",
"h  c #3A3845",
"j  c #3B3649",
"k  c #3D394B",
"l  c #483740",
"z  c #453A47",
"x  c #453B4C",
"c  c #4B424D",
"v  c #4A4551",
"b  c #524958",
"n  c #5B4C5D",
"m  c #5C525E",
"M  c #6B4A4C",
"N  c #5B5863",
"B  c #655A69",
"V  c #685D6B",
"C  c #64666D",
"Z  c #7B6265",
"A  c #696F72",
"S  c #6C7175",
"D  c #717476",
"F  c #76767C",
"G  c #78777D",
"H  c #767A7A",
"J  c #7A7C7C",
"K  c #864F55",
"L  c #9B545E",
"P  c #AB5664",
"I  c #A45862",
"U  c #AC5964",
"Y  c #AF5C69",
"T  c #877570",
"R  c #A67B6B",
"E  c #A56973",
"W  c #AD7372",
"Q  c #7F807F",
"!  c #B17A80",
"~  c #7F8080",
"^  c #828683",
"/  c #838985",
"(  c #878E89",
")  c #898E8B",
"_  c #87908A",
"`  c #8B938D",
"'  c #8B8590",
"]  c #8F8E96",
"[  c #8E9690",
"{  c #8E9A92",
"}  c #919792",
"|  c #929E95",
" . c #95949A",
".. c #949E98",
"X. c #B79583",
"o. c #93A197",
"O. c #94A399",
"+. c #9AA39C",
"@. c #9AAA9F",
"#. c #AFA09F",
"$. c #B0A19F",
"%. c #9E9DA4",
"&. c #9BA7A0",
"*. c #9DADA2",
"=. c #9FB1A5",
"-. c #AFA1A0",
";. c #A9A6AF",
":. c #A1B2A5",
">. c #A3B5A9",
",. c #A6B9AB",
"<. c #ABBAAF",
"1. c #AFAEB4",
"2. c #B2B1B6",
"3. c #BAB7B7",
"4. c #B4B3B9",
"5. c #C69B8C",
"6. c #C69D9D",
"7. c #E5A499",
"8. c #F3A89E",
"9. c #D8AAA5",
"0. c #DBBDAC",
"q. c #F6AFA1",
"w. c #ECB5A2",
"e. c #E0B3AA",
"r. c #F5BBA6",
"t. c #FCBEAC",
"y. c #E4BBB6",
"u. c #E1BEB9",
"i. c #AFC3B4",
"p. c #B1C4B6",
"a. c #B2C7B8",
"s. c #B5CBBB",
"d. c #B8CCBC",
"f. c #BAD0BE",
"g. c #DCC0BB",
"h. c #F7C1AD",
"j. c #FAC1AE",
"k. c #F4C4B3",
"l. c #FBC3B1",
"z. c #F4C6B8",
"x. c #FAC5B8",
"c. c #F6CABA",
"v. c #F9CCBC",
"b. c #FFD2BE",
"n. c #BCD4C1",
"m. c #BDDBC5",
"M. c #CCCDCD",
"N. c #C2D9C7",
"B. c #CCCED4",
"V. c #D5D4DA",
"C. c #D9DADF",
"Z. c #F7CCC1",
"A. c #FACEC3",
"S. c #FCD4C4",
"D. c #FED4C9",
"F. c #FFD9CF",
"G. c #F4D9D3",
"H. c #FFD8D1",
"J. c #C3E3CA",
"K. c #CBE9D3",
"L. c #FEE3CE",
"P. c #FEE6D5",
"I. c #FFE8D7",
"U. c #FEE7DA",
"Y. c #FFE8D8",
"T. c #DADAE0",
"R. c gray95",
"E. c #FFFAF7",
"W. c #FEFFFF",
/* pixels */
"z u                                   = k c                                       9 k r 0 =                                 , 6 ",
"9 ^ ^ _ ( ( ) ( ( ( ( ( ( ( ( ( _ _ ( ( D y D Q ` _ ) _ ( ( ( ( ( ( ( ( ( ( ) ` _ ~   ; ^ Q ) _ ) ) ( ) ( ( ( ( _ ( ( ( ( ( _   ",
"> <.( ^ ^ / / ^ / ^ / / / ^ ^ ^ Q / ( _ Q q J ( / ~ ^ ^ / / ^ / ^ / / / ^ ^ ^ ^ ^ K.    +./ ^ ^ ^ ^ / ^ ^ / ^ / ^ ^ ^ ^ ^ ^ `   ",
"3 +.^ ^ ^ ^ ^ / ^ ^ ^ ^ ^ ^ ^ / ^ ^ ^ / Q q J ^ / / / X . . o . o . . . . ^ ^ ^ / J.    ` ^ ^ ^ ^ ^ / ^ ^ ^ / ^ ^ / ^ / / / _   ",
"3 +.^ ^ ^ ^ ^ ^ ^ ^ ^ ^ ^ ^ ^ ^ ^ ^ / ( J 0 J / / ~ o k j h 2 j k k k d 2 o o ^ ^ N.    ` ~ / / ^ ^ ^ ^ ^ ^ ^ ^ ^ ^ ^ ^ ^ ^ `   ",
"1 +.^ ^ ^ ^ ^ ^ ^ ^ ^ ^ ^ ^ ^ ^ ^ ^ ^ / J y J o 1 3 j j h j r f g g g d 2 e e 9 o o     ` / ^ ~ ^ ^ ^ ^ ^ ^ ^ ^ ^ / ^ ^ ^ / _   ",
": +.^ ^ / ^ ^ ^ ^ ^ ^ ^ ^ ^ ^ ^ ^ ^ ^ ( J i o j 2 j j h g 5 j j g g j j r e e e r r o   [ / ^ / ^ ^ ^ ^ ^ ^ ^ ^ ^ ^ ^ ^ / ^ `   ",
", +./ ^ / ^ ^ ^ ^ / ^ ^ ^ / ^ ^ ^ ^ / ( J o j j j 5 h j g 2 j h g g g 9 r r e w r e e o [ / ^ / ^ ^ ^ ^ ^ / ^ ^ ^ ^ ^ ^ ^ ^ `   ",
": +.^ ^ / ^ ^ ^ ^ ^ ^ ^ ^ ^ ^ ^ ^ ^ ^ o o k k 2 k k k j k 1 j j r g g 2 r e r e 2 e e e o / ^ ^ ^ ^ / ^ ^ ^ ^ ^ ^ ^ ^ ^ ^ ^ _   ",
", +./ ^ / ^ ^ ^ ^ ^ ^ ^ / ^ ^ ^ ^ ^ o d s z j 2 + @ + + + + + + @ w w 2 r e e r 2 e e e w . ^ ^ ^ ^ ^ ^ ^ ^ ^ ^ ^ ^ ^ ^ / ^ `   ",
": +.^ ^ / ^ ^ ^ ^ ^ ^ ^ ^ ^ ^ ^ ^ o o w 5 o + 2 j k j f j j j h j j + , w w w e 5 e r 9 2 o ^ ^ ^ ^ ^ ^ ^ ^ ^ / ^ ^ ^ / ^ ^ `   ",
": +.^ ^ / ^ ^ ^ ^ ^ ^ ^ ^ ^ ^ ^ ^ . w o < k j j j j j 2 k h j h g j j 2 h + + 9 2 e w 9 9 2 o ^ ^ ^ ^ ^ ^ ^ ^ ^ ^ ^ ^ ^ ^ / `   ",
", +.^ ^ ^ ^ ^ ^ ^ ^ ^ ^ ^ ^ / ^ . o j j , j k j j j g 2 j j j j g 2 j 2 j g j g 2 e r 5 5 2 o ^ ^ ^ ^ ^ ^ ^ ^ ^ ^ ^ ^ ^ / ^ `   ",
", +.^ ^ / ^ ^ ^ ^ ^ ^ ^ ^ ^ ^ ^ o j j j 2 j j j j j j 2 g f j h j g j g j g g j j 9 5 5 5 5 2 o ^ ^ ^ ^ ^ ^ ^ ^ ^ ^ ^ ^ ^ ^ `   ",
"1 +.^ ^ ^ ^ ^ ^ ^ ^ ^ ^ ^ ^ ^ ^ , k f j j j 9 j k g h 2 j j j j j g k g g j g f j d e 5 5 2 2 o ^ ^ ^ ^ ^ ^ ^ / ^ ^ ^ ^ ^ ^ `   ",
": +.^ ^ ^ ^ ^ ^ ^ ^ ^ ^ ^ ^ ^ . k r j j f 9 9 9 @ @ @ @ @ @ @ @ w f j g j f g w f r r r 5 2 2 o ^ ^ ^ ^ ^ ^ ^ ^ ^ ^ ^ ^ / / `   ",
": +.~ _ ~ ~ _ ~ ^ ^ ^ ^ ^ ^ ^ o k k 9 e 5 % y.u.U.P.P.I.Y.Z.Z.S.v.@ 2 w 9 j g g j r r e 5 # 5 o a ^ ^ ^ ^ ^ ^ ^ ^ ^ ^ ^ / ^ _   ",
", +.~ ~ _ ~ ~ _ ^ / ^ ^ / ^ ^ o j 9 e O $ z.P.P.Y.Y.Y.Y.Y.P.Y.S.l.L.@ @ % e y g j r r 9 2 = < 2 o ^ ^ ^ ^ ^ ^ ^ ^ ^ ^ ^ ^ ^ `   ",
"4 #.~ ~ Q Q ~ ~ ^ ~ ^ ^ ^ ^ Q o 9 O G.9.F.P.P.Y.Y.Y.Y.Y.Y.Y.P.T Z O 1 r e e r + 5 5 r r r 1 o 5 o ^ Q ^ ^ ^ ^ ^ ^ ^ ^ ^ ^ / (   ",
"  / Q O.O.o.O.@.o.o.o.o.o.| o.o 2 @ w w @ l P.P.P.Y.Y.Y.Y.P.@ e e w e e e e e e w 1 e r r 5 2 o o o.O.o.o.o.o.O.o.o.{ { { | o.  ",
"y ^ Q m.f.f.f.s.f.s.s.s.d.f.f.o @ 2 w w e > % % @ @ % @ @ O e e w e e @ @ e e e > 9 r r e 2 2 o o f.s.a.s.s.a.a.s.s.p.p.i.d.N.  ",
"t                             X 2 9 @ @ % @ w w e e w e e e e % @ @ g.D.b.= e e e % 5 r 5 2 2 o                               6 ",
"h ) Q [ [ ` { { [ [ [ [ { [ } o 2 5 U.P.c.c.D.@ e e e e w e @ k.c.P.P.P.P.P.m > w w < 5 5 2 2 o } } ` } } ` } ` { [ [ [ [ [ &.  ",
"p +./ / / / / ( / / / / / / / / 2 % P.P.P.P.P.w.@ e w w w @ 5.P.P.P.P.P.P.P.B B w w 2 @ % @ % o / / / / / / ( / / / / / / / {   ",
"3 +./ ^ ^ ^ ^ ^ ^ ^ / ^ ^ ^ ^ ^ 9 @ W.@ @ % % w.b w w w 9 O 5.% % @ O @ W.x n e w w 2 + t.P.P.P ^ ^ / ^ ^ / ^ ^ ^ ^ ^ ^ ^ / `   ",
"3 ..^ ^ ^ ^ ^ ^ ^ ^ ^ ^ ^ ^ ^ U e e X W.@ @ % e.9 B V V 5 5 n % @ % O ' ' z w w 2 2 < l.t.R R Y ^ ^ ^ ^ ^ ^ ^ ^ ^ ^ ^ ^ ^ ^ _   ",
"3 +./ ^ ^ ^ ^ ^ ^ ^ ^ ^ ^ ^ ^ U O w w 9 + 9 5 % $ $ O O O w 5 + + + + 8 n e w e < k.t.j.k.R P.U ^ ^ ^ ^ ^ ^ ^ ^ ^ ^ ^ / ^ / `   ",
"< &./ ^ / ^ ^ ^ ^ ^ ^ ^ ^ ^ ^ I t.@ w e @ O A.r.l.A.D.P.l.A.v.@ @ e e e w O O v.h.Y.k.v.X.Y.P.P ^ ^ ^ ^ ^ ^ ^ ^ ^ ^ ^ ^ ^ / `   ",
", +.^ ^ ^ ^ ^ ^ ^ ^ ^ ^ ^ ^ ^ ^ U j.% @ z.j.P.Y.P.c.q.P.Y.Y.l.P.P.% @ @ @ l.l.P.P.P.l.v.P.P.U.^ ^ ^ ^ ^ ^ ^ ^ ^ ^ ^ ^ ^ ^ ^ `   ",
", +.^ ^ / ^ ^ ^ ^ ^ ^ ^ ^ ^ ^ ^ U j.l.l.8.t.Y.Y.Y.Y.Y.P.Y.Y.Y.Y.l.8.j.l.l.j.l.P.P.j.j.Y U Y / ^ ^ ^ ^ ^ ^ ^ ^ ^ ^ ^ ^ ^ ^ ^ `   ",
", +.^ ^ ^ ^ ^ ^ ^ ^ ^ ^ ^ ^ ^ ^ ! 7.c.z.v.Y.Y.Y.0.0.0.0.0.Y.Y.Y.P.c.c.c.v.P.P.P.j.x.1 + ` / ^ ^ ^ ^ ^ ^ ^ / ^ ^ ^ ^ ^ ^ / ^ `   ",
": +.^ ^ / ^ ^ ^ ^ ^ ^ ^ ^ ^ ^ ^ ^ K P.P.P.Y.Y.Y.P.P.P.P.Y.Y.Y.Y.Y.P.Y.Y.Y.P.P.j.h.+ <   ` / ^ ^ ^ ^ ^ ^ ^ ^ ^ ^ ^ ^ ^ ^ / ^ _   ",
", +.^ ^ / ^ ^ ^ ^ ^ ^ ^ ^ ^ ^ ^ ^ ^ / W P.Y.P.P.Y.Y.Y.Y.Y.Y.Y.Y.Y.Y.U.I.k.k.j.M o 2     ` / ^ / ^ ^ ^ ^ ^ ^ ^ ^ / ^ ^ ^ / ^ `   ",
", +.^ ^ ^ ^ ^ ^ ^ ^ ^ ^ ^ ^ ^ ^ ^ ^ ^ _ Y P.P.P.Y.Y.Y.Y.Y.Y.Y.Y.P.S.S.l.h.l.Y o / m.    ` ^ ^ / ^ ^ ^ ^ ^ ^ ^ ^ ^ ^ ^ ^ ^ ^ `   ",
": +.^ ^ / ^ ^ ^ ^ ^ ^ ^ ^ ^ ^ ^ ^ ^ ^ / J q J I U U j.j.l.l.l.l.l.l.O O ^ ^ ^ ^ / m.    } / ^ / ^ ^ ^ ^ ^ ^ ^ ^ ^ ^ ^ ^ / ^ _   ",
"1 +./ ^ ^ ^ ^ ^ ^ ^ ^ ^ ^ ^ ^ ^ ^ ^ ^ ( J w Q ( / / @ & 9.7.j.j.l.@ @ 2 o ^ ^ / ( m.    } ^ ^ ^ ^ ^ ^ ^ ^ ^ ^ ^ ^ ^ ^ ^ / ^ `   ",
", +.^ ^ / ^ ^ ^ ^ ^ ^ ^ ^ / ^ ^ ^ ^ ^ / J i J / ^ o r r @ y.x.x.@ , s r r o ^ ^ / f.    { ~ _ ~ ^ ^ ^ ^ ^ ^ ^ ^ ^ ^ ^ ^ ^ ^ _   ",
", +.^ ^ / ^ ^ ^ ^ ^ ^ ^ ^ ^ ^ ^ ^ ^ ^ _ J q J / o e r r 2 @ @ % 2 r r r r r o ^ / m.    ` _ ~ _ ^ ^ ^ ^ ^ ^ ^ ^ ^ ^ ^ ^ / ^ `   ",
": +.^ ^ ^ ^ ^ ^ / ^ ^ ^ ^ ^ ^ / ^ ^ ^ / J q J . r r r r r r r r r r r r r r e . / m.    ` / ~ ~ ^ ^ ^ ^ ^ ^ ^ ^ ^ ^ ^ ^ / ^ [   ",
"4 +.^ ^ ^ / ^ ^ ^ ^ ^ ^ ^ ^ ^ / ^ ^ ^ ( J t J ] W.W.W.W.W.W.W.W.W.W.W.W.W.W.W.M.o m.    { / _ ~ ^ ^ ^ ^ ^ ^ ^ ^ ^ ^ ^ ^ ^ ( _   ",
"7 | ( ~ ~ ~ ~ ~ ~ ~ ~ ~ ~ ~ / Q ^ ^ ^ ` J p e r ~ ]  . . . . . . . . . .v N i r s s.    ` ~ ~ ~ / ~ ~ ~ Q ^ Q ^ ^ Q ^ ^ ^ ^ |   ",
"& ^ ~ <.=.=.=.=.@.*.*.@.*.*.*.=.:.:.O.>.S o W.o o r s r s s r r r r r r w . r s W.*     ~ ~ ,.=.*.*.=.*.*.@.@.*.*.*.,.:.:.<.s.  ",
"z                                         X W.+ W.W.W.W.W.W.W.W.W.W.W.W.W.. W.W.4.. f 0             .                         1 ",
"p T ~ ~ ^ Q ^ ~ ~ ~ ! ^ ~ ~ ~ / ^ Q Q ^ + r # o B.T.C.T.T.T.T.T.C.T.T.T.C.. g s s r o 3 ! J ^ ^ Q ^ ~ ~ T ^ ^ Q Q ^ ^ J ~ ~ ! j ",
"3 ^ ^ / / / / / / / / / / / / / / / ^ o W.W.+ s r r r r r r r r r r r r r + o r q W.W.. ~ ~ ( / / / / / / ^ / / / / / / ~ ( (   ",
"3 +.^ / ^ ^ ^ ^ ^ ^ ^ ^ ^ ^ ^ ^ / ^ ^ o i W.+ W.W.W.W.W.W.W.W.W.W.W.W.W.W.R.o W.W.W.q . [ / ^ ^ / ^ / ^ ^ / ^ ^ ^ ^ / / ~ _ `   ",
"3 ..^ ^ ^ ^ ^ / ^ ^ ^ ^ ^ ^ ^ ^ ^ ^ o e r - 2 C D F F F G J G F F G G G G ) o s r r r w ` ^ ^ ^ ^ ^ ^ ^ ^ ^ ^ ^ ^ ^ ^ ^ / / `   ",
"3 +.^ / ^ ^ ^ ^ ^ ^ / ^ ^ ^ ^ ^ ^ ^ + W.W.o r r s r s r r s r r r r s r r r 2 o g W.W.W.o ^ ^ ^ ^ ^ ^ ^ ^ ^ ^ ^ ^ ^ / / ~ / `   ",
"3 +.^ ~ ~ / ^ ^ ^ ^ ^ ^ ^ ^ ^ ^ ^ ^ E 6.W.. M.W.W.W.W.W.W.W.W.W.W.W.W.W.W.W.M.. W.W.W.3.. / Q Q ^ ^ ^ ^ ^ ^ ^ ^ ^ ^ ^ ^ ^ ^ `   ",
"1 +./ / / ^ ^ / ^ ^ ^ ^ / ^ ^ ^ ^ ^ / P L.o V.W.W.W.W.W.W.W.W.W.W.W.W.W.W.W.V.. E.P.P.U [ / / / ^ ^ ^ ^ ^ ^ ^ ^ ^ ^ ^ ^ / ^ `   ",
", +.~ / / ^ ^ ^ ^ ^ ^ ^ ^ ^ ^ ^ ^ ^ / L D.o w r r r r r r r r r r r r r e r 5 2 * D.H.L ` / / / ^ ^ ^ ^ ^ ^ ^ ^ / ^ ^ ^ / ^ `   ",
", +.^ ^ / ^ ^ ^ ^ ^ ^ ^ ^ ^ ^ ^ ^ ^ ^ ( J o B.W.W.W.W.W.W.W.W.W.W.W.W.W.W.W.B.V.> m.    ` / Q / ^ ^ ^ ^ ^ ^ ^ ^ ^ ^ ^ ^ / ^ _   ",
", +.^ ^ ^ ^ ^ ^ ^ ^ / ^ ^ / ^ ^ ^ ^ / _ J o ;.<.2.2.4.2.2.4.4.1.2.1.2.2.1.%.2 1 o m.    ` / / / ^ ^ ^ ^ ^ ^ ^ ^ ^ ^ ^ ^ ^ ^ _   ",
": +.^ ^ / ^ ^ ^ ^ ^ ^ ^ ^ ^ ^ ^ ^ ^ ^ / J 7 + o + o o + o o o o + o o + + + o + . n.    ` / / / ^ ^ ^ ^ ^ ^ ^ ^ ^ ^ ^ ^ ^ ^ `   ",
": +./ ^ / ^ ^ ^ ^ ^ ^ ^ ^ ^ ^ ^ ^ ^ / ( J i o 5 2 5 2 2 1 2 2 5 2 2 5 9 5 2 5 , ^ m.    { / _ Q ^ ^ ^ ^ ^ ^ ^ ^ ^ ^ ^ ^ ^ ^ `   ",
", +./ ^ ^ ^ ^ ^ ^ ^ ^ ^ ^ ^ ^ ^ ^ ^ ^ _ J 7 o 5 2 2 2 5 2 + o o + 5 2 2 2 2 2 , / m.    { Q Q _ ^ ^ ^ ^ ^ ^ ^ ^ ^ ^ ^ ^ / / `   ",
"1 +./ ^ / ^ ^ ^ ^ ^ ^ ^ ^ ^ ^ ^ ~ { ~ ~ Q a o 9 2 5 2 2 1 o ~ Q o 1 2 5 2 2 5 , ~ J.    o.~ / Q o.~ Q Q { ~ ~ { ^ ^ ^ ^ / ^ `   ",
", +.^ ^ / ^ ^ ^ ^ ^ ^ ^ ^ ^ ^ ^ ~ ~ ~ { Q 7 . 9 5 5 2 7 1 Q _ ( ~ + 5 5 2 2 2 , Q J.    { _ Q _ Q ~ ~ { ~ ~ ~ ~ ^ ^ ^ ^ ^ ^ `   ",
", +.Q / Q / ^ ^ ^ ^ ^ ^ ^ ^ ^ ^ ~ ` ~ ~ Q a o $.#.-.v v o Q _ Q ~ o #.-.#.#.v + _ J.    { _ Q Q Q ~ ~ ~ ~ ~ ~ ~ ^ ^ ^ ^ ^ / _   ",
": +./ ^ ^ / ^ ^ ^ ^ / ^ ^ ^ ^ ^ ~ ~ ` ` Q 1 . o o o o o . _ ~ Q / / o o o o + . ~ J.    ` Q / / ~ ~ ~ Q { ~ ` ~ ^ / ^ ^ / ^ _   ",
": +./ ^ ^ ^ ^ ^ ^ ^ ^ / ^ ^ ^ ^ ~ ~ ~ ~ Q q Q _ / ~ _ ~ _ ~ ~ _ ~ / / ~ ~ / / / Q K.    O.Q ~ ~ o.~ ~ ~ ~ ~ ~ ~ _ ~ ~ ~ ^ / _   ",
"8 O./ ^ / Q / / / ^ / / ^ ^ ^ ^ ~ ~ ~ ` H a Q ~ _ ~ ~ _ ~ ~ _ ~ ( / / / / ~ ~ Q Q K.    ~ Q o.Q Q Q o.~ ~ ~ ` ~ ~ _ ~ ~ ^ Q (   ",
"# / Q +.o.o.O.o.o.o.o.o.o.o.O.o.o.o.{ ` A : Q Q *.| O.O.o.o.O.o.o.O.o.O.o.o.o.o.=.Q     Q Q o.~ O.~ *.@.O.o.O.O.@.O.o.o.o.O.O.  ",
"0 H C Q Q H J J H H H H J H J J H H Q Q m p Q A Q Q H Q H H Q H H Q H H H H Q H Q Q   a Q Q Q Q Q Q Q Q S Q Q D Q Q H Q G G T e "
};
