/* XPM */
static char *result[] = {
/* columns rows colors chars-per-pixel */
"64 64 175 2 ",
"   c #000000",
".  c #02020D",
"X  c #0D000E",
"o  c #1D0209",
"O  c #010313",
"+  c #0B0216",
"@  c #090B14",
"#  c #060518",
"$  c #0E021A",
"%  c #0D0A1B",
"&  c #110216",
"*  c #10021B",
"=  c #1B0B19",
"-  c #240A0D",
";  c #2B1413",
":  c #0D0824",
">  c #120B21",
",  c #141326",
"<  c #191325",
"1  c #171529",
"2  c #1A162A",
"3  c #1B192C",
"4  c #1E1C32",
"5  c #2A1B25",
"6  c #231B2B",
"7  c #211E34",
"8  c #291C31",
"9  c #24212F",
"0  c #29202F",
"q  c #28282E",
"w  c #242235",
"e  c #2B2436",
"r  c #2C2A37",
"t  c #262438",
"y  c #292639",
"u  c #2C2B3D",
"i  c #342634",
"p  c #312B39",
"a  c #3B2F3E",
"s  c #2F303C",
"d  c #33323C",
"f  c #38323E",
"g  c #472C2C",
"h  c #533137",
"j  c #2E2C40",
"k  c #302D41",
"l  c #353143",
"z  c #3A3547",
"x  c #3F3F47",
"c  c #3B3649",
"v  c #3D3A4B",
"b  c #453A47",
"n  c #5D3F44",
"m  c #4B424D",
"M  c #4A4250",
"N  c #534955",
"B  c #594C58",
"V  c #5D525D",
"C  c #595865",
"Z  c #665A67",
"A  c #63656B",
"S  c #756367",
"D  c #6A6C72",
"F  c #7A6E74",
"G  c #6C7175",
"H  c #717376",
"J  c #76767C",
"K  c #78777D",
"L  c #767A7A",
"P  c #7A7D7C",
"I  c #94525B",
"U  c #945863",
"Y  c #A45B66",
"T  c #A85966",
"R  c #AC5A64",
"E  c #B05D67",
"W  c #8F6F70",
"Q  c #8D7272",
"!  c #A67C6C",
"~  c #B86370",
"^  c #B07675",
"/  c #B87878",
"(  c #7F807F",
")  c #7A7781",
"_  c #7B7B82",
"`  c #7F8080",
"'  c #828683",
"]  c #838985",
"[  c #89828C",
"{  c #878E89",
"}  c #898E8B",
"|  c #87908A",
" . c #8B938D",
".. c #908F95",
"X. c #8E9690",
"o. c #8E9A92",
"O. c #919495",
"+. c #929E95",
"@. c #95949A",
"#. c #959C9A",
"$. c #A28387",
"%. c #B89888",
"&. c #93A197",
"*. c #94A399",
"=. c #9AA39C",
"-. c #9AAA9F",
";. c #AFA19F",
":. c #9BA7A0",
">. c #9DADA2",
",. c #9FB1A5",
"<. c #A2A6A6",
"1. c #AFA1A0",
"2. c #B0A1A0",
"3. c #A1B2A5",
"4. c #A3B5A9",
"5. c #A6B9AB",
"6. c #ABBAAF",
"7. c #B0AFB4",
"8. c #B3B1B6",
"9. c #B4B4B9",
"0. c #BAB6BA",
"q. c #C89C8C",
"w. c #DC9E8F",
"e. c #E7A59F",
"r. c #F4A69C",
"t. c #F4AB9D",
"y. c #CAA1A1",
"u. c #DEB1A5",
"i. c #D5B4AD",
"p. c #DABDAB",
"a. c #F6B0A4",
"s. c #F3BDAB",
"d. c #FBBFAC",
"f. c #EFBFB1",
"g. c #F0BEB3",
"h. c #AFC3B4",
"j. c #B1C4B6",
"k. c #B2C7B8",
"l. c #B5CBBB",
"z. c #B8CCBC",
"x. c #BAD0BE",
"c. c #F7C1AE",
"v. c #FAC2AE",
"b. c #E2C4B8",
"n. c #F3C3B2",
"m. c #FBC3B1",
"M. c #F4C5BA",
"N. c #F9C6BA",
"B. c #F5CABA",
"V. c #FACDBD",
"C. c #FED1BD",
"Z. c #BCD4C1",
"A. c #BEDBC5",
"S. c #C4C5C9",
"D. c #CCCCCC",
"F. c #C2D9C7",
"G. c #CECFD3",
"H. c #D2D2D5",
"J. c #D6D6DC",
"K. c #D9D9DF",
"L. c #EBCAC3",
"P. c #FACEC2",
"I. c #FCD5C3",
"U. c #FFD3CD",
"Y. c #EED8D1",
"T. c #C4E3CB",
"R. c #CBE9D3",
"E. c #F5E2D4",
"W. c #FEE6D5",
"Q. c #FEE8D6",
"!. c #FFE7DC",
"~. c #FFE8D8",
"^. c #DADAE0",
"/. c #FAF7FC",
"(. c #FEFFFF",
/* pixels */
"b a                                   : b m                                       7 c i w :                                 < 8 ",
"w ' ' | { | | { { { { { { { { { | | { ] H p H (  .| | { | { { { { { ] { | | |  .| '   , ` ' } | { } { { { { { { | { { { { { |   ",
"< 6.{ ' ' ' ] ' ] ] ' ] ] ] ' ' ' ' ] | ( r P ] ] ' ' ] ] ] ] ` ] ' ' ' ' ' ' ' ' R.    :.' ' ' ' ] ] ' ] ' ] ] ' ' ' ' ' ' X.  ",
"6 =.' ' ' ' ' ' ' ' ' ' ' ' ' ' ' ] ] | P r P { ' ' X O . O O . O . O . ' ' ' ' ' T.     .' ' ' ' ' ' ] ' ' ' ' ' ] ' ] ] ] |   ",
"6 =.' ' ' ' ' ' ' ' ' ' ' ' ' ' ' ' ' ] P r P ] ' O j 4 4 c c c c 3 z c c O ' ' ' F.    | ' ' ' ' ' ' ' ' ' ' ' ' ' ' ' ' '  .  ",
"3 =.] ' ' ' ' ' ' ' ' ' ' ' ' ' ' ' ' ] P u O O w u j t c c z z z 4 c z c c 1 3 O A.    X.' ] ' ' ' ' ' ' ' ' ' ' ' ' ' ' ' |   ",
", =.' ' ] ' ' ' ' ' ' ' ' ' ' ' ' ' ' { P O 7 u r u r 4 c c c c v z z z z c z 3 c O     X.' ' ' ' ' ' ' ' ' ' ' ' ' ' ' ] '  .  ",
"1 =.' ' ] ' ' ' ' ' ' ' ' ' ' ' ' ' ] { O e 7 u t y u y l c c z z c 4 c z z 7 4 c l O   X.] ' ] ' ' ' ' ' ' ' ' ' ' ' ' ' ]  .  ",
"< *.' ' ] ' ' ' ' ' ' ' ' ' ' ' ] ] ] O e y y j u y u u u c z k z c 4 c c v c v 4 c 4 O  .] ' ] ' ' ' ] ' ' ' ' ] ' ' ' ] '  .  ",
"< =.' ' ] ' ' ' ' ' ' ' ' ] ' ' ` ] O y y y t 4 y r y u w t t # # @ O # @ # # t 4 c v 7 1 ] ' ' ' ' ' ' ] ' ' ' ' ' ' ' ' '  .  ",
", =.] ' ] ' ' ' ' ' ] ' ' ' ' ' ` O 7 7 r t u 4 u w t e O c c z c c c c c c c c 4 # 7 7 w O ' ' ' ' ' ' ' ' ' ' ' ' ' ' ' '  .  ",
", =.' ' ' ' ' ' ' ' ' ' ' ] ' ' @ t 4 7 y u 4 w w O c c 4 c c c z c c 7 3 c c c c v c v # % ' ' ' ' ' ' ' ' ' ' ' ' ' ' ' '  .  ",
"1 -.' ' ] ' ' ' ' ' ' ' ' ' ' ' % 4 4 4 u y 4 7 l l c c 4 l 4 z z z c c 3 4 c c c c c c c : . ' ' ' ' ' ' ' ' ' ' ' ' ' ' '  .  ",
"1 =.' ' ] ' ' ' ' ' ' ' ' ' ' d 4 4 7 w t 4 # c c c c c 4 c c c c c w c 1 c v c c c c 4 c c . O ' ' ' ' ' ' ' ' ' ' ' ' ] '  .  ",
"1 =.' ' ] ' ] ' ' ' ' ' ' ' ' d 4 4 4 w 7 j w l l c c z 4 c c c c z c c c c c c c 8 c 4 c c c O ' ' ' ' ' ' ' ' ' ' ' ' ' ]  .  ",
"< =.' ' ' ' ' ' ' ' ' ' ' ' ' d 4 4 4 7 j j w l y c c c c z l y # $ + + $ & $ $ 7 7 l 4 c c u O . ' ' ' ' ' ' ' ' ' ' ' ] '  .  ",
", =.' ' ' ' ' ' ' ' ' ' ' ' ' @ 4 4 # 4 u u 7 c z c e w y : + P.I.V.P.Q.Q.Q.W.Y.g.L.$ 4 t c c O O ' ' ' ' ' ' ' ' ' ' ' ] '  .  ",
"1 =.' ' ' ' ' ' ' ' ' ' ' ' ' O 4 4 7 4 u u 7 c c y y $ $ f.W.m.Q.!.Q.Q.Q.Q.W.!.E.W.v.& u t w v O ' ' ' ' ] ' ' ' ' ' ] ` ]  .  ",
"5 3.' ' ( ' ' ' ' ` ' ' ' ' ' O 3 1 4 u u u 7 w # u r y e # + S W.W.Q.Q.Q.Q.!.W.!.~.!.I.i.F # u O ' ' ( ` ` ` ' ' ( ' ` ' ' |   ",
"  ' P *.+.+.&.+.&.&.&.&.&.&.&.O # 4 4 u u u 7 e y y y e y y t e + 5 W.W.!.!.W.!.Q.~.* 2 e t $ 4 O *.*.&.*.&.*.*.*.*.+.o.o.&.&.  ",
"p ' ( F.x.z.z.l.x.l.l.l.z.z.Z.O 4 4 4 u u 4 7 e t t y & + e t t y # + $ * * : $ $ $ t t e y 2 4 O x.l.k.l.l.l.k.l.l.j.k.j.z.F.  ",
"i                               4 4 4 u 7 + + e y t = C.L.= $ $ e y y t t t e y y y $ $ * # t $ O                             8 ",
"z } '  .O. .X.X.X.X.X.X.X.X.X.X.4 4 4 4 4 t y y 3 Z W.!.!.W.P.B.P.$ y y y y y y $ N.B.M.W.$ t $ O X.X.O.X.X.X.X.X.X.X.X.X.X.:.  ",
"f =.] ] ] ] ] ] ] ] ] ] ] ] ] ] 4 $ $ $ 1 y y y V + $ $ $ $ $ * $ q.y y y y t $ Q $ > $ $ $ $ $ ' ] ] ] ] ] ] ] ] ] ] ] ] ] X.  ",
"6 =.] ' ' ' ' ' ' ' ' ' ' ' ' ' !.E.W.d.# 4 e y y B . (.$ $ * $ $ q.Z y t r N + W $ * * (.) e $ ' ' ' ' ] ' ' ' ] ' ' ' ' ]  .  ",
"6 #.' ' ' ' ' ' ' ' ' ' ' ' ' ' !.! ! m.$.3 4 t t t B [ [ $ $ * i.N 4 w Z Z Z w u.$ $ $ /.$ y s.R ' ' ] ' ' ' ' ' ' ' ' ' '  .  ",
"6 =.] ' ' ' ' ' ' ' ' ] ' ' ' ] !.W.! m.v.n.n.t y t t B O # # # 4 w + & * * $ & # 7 w # y y 1 g.R ' ' ' ' ' ' ' ' ' ' ' ' ]  .  ",
"1 -.] ' ' ' ' ' ' ' ' ' ' ' ' ' ~ W.W.%.m.W.W.C.P.* $ t y y e $ n V.P.n.W.P.P.s.- n.$ u y y + m.Y ' ' ' ' ' ' ] ' ' ' ' ' '  .  ",
"< =.' ' ' ' ' ' ' ' ' ' ' ' ' ' U W.W.W.m.v.W.W.W.d.v.$ $ $ $ W.n.Q.Q.Q.W.a.V.W.Q.N.v.& $ g v.R ' ' ' ' ' ' ' ' ' ' ' ' ' '  .  ",
"1 =.' ' ] ' ' ' ] ' ] ' ' ' ' ' ' T T R E v.W.!.!.m.N.m.r.m.t.v.!.Q.Q.Q.!.W.Q.!.~.~.v.t.t.n.v.Y ' ' ' ' ' ' ' ' ' ' ' ' ] '  .  ",
"1 =.' ' ' ' ' ' ' ' ' ' ' ] ' ' ' ' ] | O n m.d.!.W.W.B.B.B.B.W.Q.Q.Q.p.p.p.p.b.Q.Q.Q.B.B.B.e.' ' ' ' ' ' ' ' ' ' ' ' ' ] '  .  ",
", =.' ' ] ' ' ' ' ' ' ' ' ' ' ' ' ' ' ] P 2 # m.v.W.W.Q.W.!.W.W.Q.!.Q.W.W.W.W.Q.Q.Q.Q.Q.W./ ' ' ' ' ' ' ' ' ' ' ' ' ' ' ' ' |   ",
"1 =.' ' ] ' ' ' ' ' ' ' ' ' ' ' | ` ` ` ( t 3 . m v.n.n.W.W.W.!.Q.Q.Q.Q.Q.~.Q.~.W.Q.Q.W.^ ] ' ] ' ' ' ' ' ' ' ' ' ' ' ' ' '  .  ",
"1 =.' ' ' ' ' ' ' ' ' ' ' ' ' ' ` ` | | ( s ( { X E c.m.m.I.I.W.Q.Q.Q.Q.Q.~.~.~.W.W.W.T | ] ' ' ' ' ' ' ' ] ' ' ' ' ' ' ] '  .  ",
", =.' ' ] ' ' ' ' ' ' ' ' ' ' ' | ` `  .L 9 ( ( ] ] ] ' $ X m.m.N.m.m.m.m.d.E T R T.    O.] ' ] ' ' ' ' ' ' ' ' ' ' ' ] ] ' |   ",
"3 =.' ' ] ' ' ' ' ' ' ' ] ' ' ' | ` ` ` ( r ( { ' ' ` O 4 $ o m.m.m.w.$ * # ' ] ' T.    X.] ' ' ' ' ' ' ' ' ' ' ' ' ' ' ' ]  .  ",
", =.' ' ] ' ' ' ' ' ' ' ' ' ] ' ` ` | | P u ( { ' ' O u u j 4 X N.N.+ + u j O ' ' x.     .] ` | ' ' ' ' ' ' ' ' ' ' ' ' ] ' |   ",
"3 =.' ' ] ' ' ' ' ] ' ' ' ' ' ' | ( ( | P u ( ` ' . u u u u 4 2 $ + 4 4 u u u O ' A.     .] ] ` ' ' ' ' ' ' ' ' ' ' ' ] ' '  .  ",
", =.' ' ] ' ' ' ' ' ' ' ' ' ' ' | ( (  .P r P ] . r u u u u u u u u u u u u u u ] F.    X.] ] ] ' ' ' ' ] ' ' ' ' ' ' ' ] ]  .  ",
"9 =.( ' ' ' ' ] ' ' ' ' ' ' ' ' ( ( ( | P i P O D.(.(.(.(.(.(.(.(.(.(.(.(.(.(.(.u A.    X.] ` ] ' ' ' ' ' ' ' ' ' ' ' ' ' ] |   ",
"q +.] ' ' ' Q ` ` ` ` ` ` ` ` ' ( | ]  .( d O u u ..C } @.@.@.@.@.@.@.@.@.@..._ j O     X.] ` ` ` ' ` ' ` ` ` ` ' ( ` ` ] ` *.  ",
"= ' ` 5.3.>.,.,.:.,.>.>.>.>.>.3.4.5.*.5.G 1 H.(.u j O u u j u u u u u k u u u O S.(.O   ` ] 4.>.>.>.>.>.,.>.,.,.>.>.5.4.,.h.l.  ",
"z                                         f 9.(.(.H.D.(.(.(.(.(.(.(.(.(.(.(.(.(.<.(.% w                                       4 ",
"a P ` ' ' ` ` ` Q ' ` ' ` ` ' ` ( ( ( { H . u u l C H.^.^.^.^.J.^.K.^.^.^.J.J.H.O u u # ` Q ' ( ( ' ( ' ` ` Q ' ' Q ` ` ' ` ` z ",
"6 ` ' ] ] ] ] ] ] ] ] ] ] ] ] ] ] ] ] ] O (.(.r j O 4 u u u u u u u u u j u u u # k (.D.O P { ] ] ] ] ] ] ] ] ' ] ] ] ] ] ] ]   ",
"6 :.] ] ' ' ' ' ' ' ' ' ' ' ' ' ' ] ' ] O 0 (.(.(.O (.(.(.(.(.(.(.(.(.(.(.(.(.(.(.G.(.j O ] ' ' ' ' ' ' ' ' ] ' ] ' ] ' ] ' X.  ",
"6 #.' ' ' ' ' ' ' ' ' ' ' ' ' ' ' ' ' ] u u u u u O J _ _ J ) J K K _ K K J J H D > j p u D ' ' ' ' ' ' ' ' ' ' ' ' ' ' ' ]  .  ",
"6 =.' ] ' ' ' ' ' ' ] ' ' ' ' ' ' ' ' O (.(.(.u O 4 u u u j u u u u u u j u u u u 7 u (.(.A ' ' ' ' ' ' ' ' ' ' ' ' ' ' ' '  .  ",
"6 =.` ] ' ' ' ' ' ' ' ] ' ' ' ' ` ` &., l./.(./.. D.(.(.(.(.(.(.(.(.(.(.(.(.(.(.(.8.@.E.y.$.' ' ' ' ' ' ' ' ' ' ] ' ' ' ' '  .  ",
"3 =.] ' ' ' ' ' ' ' ' ' ' ' ' ' ` ` ` ` Y Q.W./.O H.(.(.(.(.(.(.(.(.(.(.(.(.(.(.(.9.B W.R ] ' ' ' ' ' ' ' ' ' ' ' ' ' ' ] '  .  ",
"1 =.` ] ] ' ' ' ' ' ' ' ' ' ' ' ` &.` *.I I.n.1 4 4 u u u u u u u u u u u u u j u w h U.Y ' ' ] ' ' ] ' ' ' ' ' ' ' ' ' ] '  .  ",
", :.] ` ] ' ' ' ' ' ' ' ' ' ' ' ` ` ` ` ( s ; , D.G.(.(.(.(.(.(.(.(.(.(.(.(.(.(.(.8..   X.] ' ] ' ' ' ' ' ' ' ' ' ' ' ' ' ' |   ",
"1 -.' ' ' ' ' ' ' ] ' ' ' ] ' ' ` *.` ` ( s ( @ 7 4 0.9.9.7.9.8.8.9.8.9.9.9.9.7.7.@.     .' ' ' ' ' ' ' ' ' ' ' ] ' ' ' ] ' |   ",
", =.' ' ] ' ' ' ' ' ' ' ' ' ' ' ` ` ` *.( q ( @ O O O O O O O O O O O O O # O # O O     X.] ' ' ' ' ' ' ' ' ' ' ' ' ' ' ' '  .  ",
", =.] ' ] ' ' ' ' ' ' ' ' ' ' ' ` ` ` ` ( s ( ` 4 w 4 4 w 4 4 4 4 4 4 4 w 4 4 4 4 O     X.' ' ' ' ' ' ' ' ' ' ' ' ' ' ' ] '  .  ",
", =.' ' ' ' ' ' ' ' ' ' ' ] ' ' ` ` ` ` ( q ` ` 4 7 4 4 4 4 4 # # O O 4 4 4 7 7 4 O      .] ' ] ' ' ' ' ' ' ' ' ' ' ' ' ' '  .  ",
"1 *.' ' ] ' ' ' ' ' ' ' ' ' ' ' ` | ( ` ( d ( ` 4 7 4 4 7 7 q @ ' . . 4 4 4 7 4 4 O     X.] ' ] ' ' ' ' ' ' ' ' ' ' ] ' ' ' |   ",
"3 ;.' ' ] ' ' ' ' ' ] ' ' ' ' ' | ` ` o.( q ( ` 4 4 7 4 4 w @ ` ' ] x 4 4 7 7 7 4 O      .' ' ' ' ' ' ' ' ' ' ' ' ' ' ' ] '  .  ",
", -.' ' ' ' ' ' ' ' ' ' ' ' ' ' | ` ` ` ( s ( ` O M ;.;.3., @ ` ' ' x # M ;.1.1.2.O     X.] ' ] ' ' ' ' ' ' ' ' ' ' ' ' ] ' |   ",
", *.' ' ] ' ' ' ' ' ' ' ' ' ' ' ` `  . .( q ( ( O # O # O O ` ` ' ' ' . O O O # O q      .' ' ' ' ' ' ' ] ' ' ' ' ' ' ' ' ] |   ",
", =.] ' ' ' ' ' ' ' ' ' ] ' ' ' ` ` ` ` ( s ( | ` ` ] ] ` ` ` o.` | ` ` ` ] ' ] ] T.     .] ' ' ' ' ' ' ' ' ' ' ' ' ' ' ' ] |   ",
"0 *.] ] ] ' ' ] ' ] ' ] ] ' ' ' ( ( `  .( d ( ` | ] ` ] ` ( ` ` | ` | ` ` ] ` ` ] R.     .' ] ] ' ' ] ] ] ' ] ' ' ' ' ' ' ( ]   ",
"% ] ( =.&.&.*.*.*.&.*.*.*.*.*.+.+.+.o.o.A , ( ( >.+.*.*.&.&.&.o.*.*.&.&.+.&.&.*.=.`     ' ( *.&.&.*.*.*.*.&.*.*.*.*.&.&.+.*.=.  ",
"r P A P L P L L L L L L L L L L L L ( ( V d ( G ( L ( ( G ( ( ( ( ( L L ( L ( L P L   i P L L L L L L P P L L L P L P P K K P p "
};
