/* XPM */
static char *result[] = {
/* columns rows colors chars-per-pixel */
"64 64 171 2 ",
"   c #000000",
".  c #01020D",
"X  c #08020F",
"o  c #020314",
"O  c #0C0215",
"+  c #060519",
"@  c #0E021A",
"#  c #0C0A1D",
"$  c #110215",
"%  c #10031C",
"&  c #11081F",
"*  c #14141F",
"=  c #200D19",
"-  c #0C0722",
";  c #0E0B24",
":  c #130C22",
">  c #141326",
",  c #1A1326",
"<  c #171629",
"1  c #1A162A",
"2  c #1B192C",
"3  c #1E1C32",
"4  c #221B2B",
"5  c #291C29",
"6  c #211E34",
"7  c #291C31",
"8  c #24212F",
"9  c #29202F",
"0  c #242235",
"q  c #2C2335",
"w  c #2B2936",
"e  c #262538",
"r  c #292639",
"t  c #2C2B3D",
"y  c #342634",
"u  c #312B3A",
"i  c #3B2F3E",
"p  c #33323E",
"a  c #38323E",
"s  c #383B3E",
"d  c #2E2C40",
"f  c #312E41",
"g  c #353244",
"h  c #3A3547",
"j  c #3A3845",
"k  c #3B3649",
"l  c #3D394B",
"z  c #483740",
"x  c #453A47",
"c  c #453B4C",
"v  c #4B424D",
"b  c #4A4551",
"n  c #524958",
"m  c #5B4C5D",
"M  c #5C525E",
"N  c #6B4A4C",
"B  c #5B5863",
"V  c #655A69",
"C  c #685D6B",
"Z  c #64666D",
"A  c #7B6265",
"S  c #696F72",
"D  c #6C7175",
"F  c #717476",
"G  c #76767C",
"H  c #78777D",
"J  c #767A7A",
"K  c #7A7C7C",
"L  c #864F55",
"P  c #9B545E",
"I  c #AB5664",
"U  c #A45862",
"Y  c #AC5964",
"T  c #AF5C69",
"R  c #877570",
"E  c #A67B6B",
"W  c #A56973",
"Q  c #AD7372",
"!  c #7F807F",
"~  c #B17A80",
"^  c #7F8080",
"/  c #828683",
"(  c #838985",
")  c #87828B",
"_  c #878E89",
"`  c #898E8B",
"'  c #87908A",
"]  c #8B938D",
"[  c #8B8590",
"{  c #8F8E96",
"}  c #8E9690",
"|  c #8E9A92",
" . c #919792",
".. c #929E95",
"X. c #95949A",
"o. c #949E98",
"O. c #B79583",
"+. c #93A197",
"@. c #94A399",
"#. c #9AA39C",
"$. c #9AAA9F",
"%. c #AFA09F",
"&. c #9BA7A0",
"*. c #9DADA2",
"=. c #9FB1A5",
"-. c #AFA1A0",
";. c #A0A8A2",
":. c #A9A6AF",
">. c #A1B2A5",
",. c #A3B5A9",
"<. c #A6B9AB",
"1. c #ABBAAF",
"2. c #B0AFB5",
"3. c #B2B1B6",
"4. c #BAB7B7",
"5. c #B4B3B9",
"6. c #C69B8C",
"7. c #C69D9D",
"8. c #E5A499",
"9. c #F3A89E",
"0. c #D8AAA5",
"q. c #DBBDAC",
"w. c #F6AFA1",
"e. c #ECB5A2",
"r. c #E0B3AA",
"t. c #F5BBA6",
"y. c #FCBEAC",
"u. c #E4BBB6",
"i. c #E1BEB9",
"p. c #AFC3B4",
"a. c #B1C4B6",
"s. c #B2C7B8",
"d. c #B5CBBB",
"f. c #B8CCBC",
"g. c #BAD0BE",
"h. c #DCC0BB",
"j. c #F7C1AD",
"k. c #FAC1AE",
"l. c #F4C4B3",
"z. c #FBC3B1",
"x. c #F4C6B8",
"c. c #FAC5B8",
"v. c #F6CABA",
"b. c #F9CCBC",
"n. c #FFD2BE",
"m. c #BCD4C1",
"M. c #BDDBC5",
"N. c #CCCDCD",
"B. c #C2D9C7",
"V. c #CCCED4",
"C. c #D2D1D3",
"Z. c #D5D4DA",
"A. c #D9DADF",
"S. c #F7CCC1",
"D. c #FACEC3",
"F. c #FCD4C4",
"G. c #FED4C9",
"H. c #FFD9CF",
"J. c #F4D9D3",
"K. c #FFD8D1",
"L. c #C3E3CA",
"P. c #CBE9D3",
"I. c #FEE3CE",
"U. c #FEE6D5",
"Y. c #FFE8D7",
"T. c #FEE7DA",
"R. c #FFE8D8",
"E. c #DADAE0",
"W. c gray95",
"Q. c #FFFAF7",
"!. c #FEFFFF",
/* pixels */
"x i                                   - l v                                       0 l t q -                                 < 7 ",
"0 / / ' _ _ ` _ _ _ _ _ _ _ _ _ _ _ ' _ F u J ! ' ' ` ` _ _ _ _ _ _ _ _ _ _ ` ] ' ^   : / ! ` ' ` ` _ ` _ _ _ _ ' _ _ _ _ _ '   ",
", 1._ / / ( ( / ( / ( ( ( / / / / / _ ' ! w K / ( ^ / ( ( / ( ( ( ( / ( / / / / / P.    #.( / / / / ( / / ( / ( / / / / / / ]   ",
"4 #./ / / / / ( / / / / / / / ( / / ( ( K w K _ ( / ( X o . . . o . . . . / / / ( L.    ] / / / / / ( / / / ( / / ( / ( ( ( '   ",
"4 #./ / / / / / / / / / / / / / / / ( _ K w K / ( / o l k h 3 k l h l f 3 o o / / B.    ] ^ / ( / / / / / / / / / / / / / / ]   ",
"2 #./ / / / / / / / / / / / / / / / / / K u K o 2 2 l j h h r h h k k f 3 r r 0 o o     ] ( ( ^ / / / / / / / / / ( / / / ( '   ",
"> #./ / ( / / / / / / / / / / / / / ( _ K u o k 3 l h h h 6 h k h h k k t r r r t t o   } ( / ( / / / / / / / / / / / / ( / ]   ",
"< #.( / ( / / / / ( / / / ( / / / / ( _ K o l k l 3 h h h 3 k h h h h 0 t t r e t r r o } ( / ( / / / / / ( / / / / / / / / ]   ",
"> #./ / ( / / / / / / / / / / / / / ( o o l k 3 l l l k l 2 k k t h h 3 r r t t 3 r r r o ( / / / / ( / / / / / / / / / / / '   ",
"< #.( / ( / / / / / / / ( / / / / / o u f l l 3 + + + + + + + + @ e e 3 d r t r 3 r r r e . / / / / / / / / / / / / / / ( / ]   ",
"> #./ / ( / / / / / / / / / / / / X o 0 6 o + 3 l l k g k k k j k k + 1 e 0 e r 3 r r 0 3 o / / / / / / / / / ( / / / ( / / ]   ",
"> #./ / ( / / / / / / / / / / / / o 0 o 1 l k k k h k 6 k k h h k k k 2 l o + e 3 r r 0 0 3 o / / / / / / / / / / / / / / ( ]   ",
"< #./ / / / / / / / / / / / ( / . o k k 1 k k l l k h 3 k k k k j 3 h 3 h h l g 3 r r 6 6 3 o / / / / / / / / / / / / / ( / ]   ",
"< #./ / ( / / / / / / / / / / / o l k k 3 k k k k k k 3 h h k j k k k h h h h k k e 6 6 6 3 3 o / / / / / / / / / / / / / / ]   ",
"2 #./ / / / / / / / / / / / / / < l k k g k e k k k h 2 k k k k k h k h h h h g k d r e 6 3 3 o / / / / / / / ( / / / / / / ]   ",
"> #./ / / / / / / / / / / / / . l t k k g 0 0 0 @ @ @ @ O @ @ # e h k k h h h e g d d t 0 3 3 o / / / / / / / / / / / / ( ( ]   ",
"> #.^ ' ^ ^ ' ^ / / / / / / / o l l 0 r 6 % u.i.T.U.U.Y.R.S.S.S.b.@ 0 e 0 k h h h t t t 6 + 3 o s / / / / / / / / / / / ( / '   ",
"< #.^ ^ ' ^ ^ ' / ( / / ( / / o k 0 r O $ x.U.U.R.R.R.R.R.R.R.F.z.I.@ @ % r t k k u t 6 6 ; 2 3 o / / / / / / / / / / / / / ]   ",
"5 %.^ ^ ! ! ^ ^ / ^ / / / / ! o 0 O J.0.H.U.U.R.R.R.R.R.R.R.Y.R A O 2 r r r t O 6 3 t t t 3 + 3 o / ! / / / / / / / / / / ( _   ",
"  ( ! @.@.+.@.$.+.+.+.+.+...+.o 3 @ e e @ z U.U.U.R.U.R.Y.Y.@ r r e e r r r r r 6 3 t r t 3 3 o o +.@.+.+.+.+.@.+.+.| | | ..+.  ",
"u / ! M.g.g.g.d.g.d.d.d.f.g.g.o @ 3 e r r , % @ @ @ % @ @ O r r e r e @ @ r r r , 0 t r r 3 3 o o g.d.s.d.d.s.s.d.d.a.a.p.f.B.  ",
"y                             X 2 0 @ @ % @ e r r r r r e r r @ @ @ h.G.n.& r e r % 0 t 6 6 3 o                               7 ",
"j ` ! } } ] | | } } } } | }  .o 3 7 T.U.v.v.F.% r r r r r r @ l.v.U.U.R.T.U.M , e e 2 6 6 2 3 o  . .]  . .]  .] | } } } } } &.  ",
"a #.( ( ( ( ( _ ( ( ( ( ( ( ( ( 6 @ % % - % % e.@ r e e e @ 6.% % % @ @ @ @ V V e e 3 @ % % % o ( ( ( ( ( ( _ ( ( ( ( ( ( ( |   ",
"4 #.( / / / / / / / ( / / / / / 0 @ !.@ @ % @ e.n e e e 0 O 6.% @ % O @ !.c M r e e 3 + y.U.U.I / / ( / / ( / / / / / / / ( ]   ",
"4 o./ / / / / / / / / / / / / Y r r X !.@ @ % r.0 V C C 6 6 m % % @ O [ ) x e r 3 3 1 z.y.E E Y / / / / / / / / / / / / / / '   ",
"4 #.( / / / / / / / / / / / / Y @ 0 e e + 0 6 % $ $ % O O r 0 + + + o q m e e r 1 l.l.z.l.E T.Y / / / / / / / / / / / ( / ( ]   ",
"1 &.( / ( / / / / / / / / / / U y.@ e e O O F.t.z.D.F.U.z.D.v.@ @ r r r 0 @ $ v.y.U.z.b.O.U.U.Y / / / / / / / / / / / / / ( ]   ",
"< #./ / / / / / / / / / / / / / Y j.% % l.k.U.R.T.x.w.U.R.R.z.U.U.% @ @ % z.z.U.U.U.z.b.U.U.T./ / / / / / / / / / / / / / / ]   ",
"< #./ / ( / / / / / / / / / / / Y j.z.z.9.y.R.R.T.T.R.U.R.R.R.Y.j.9.k.z.z.j.j.T.U.z.j.T Y T ( / / / / / / / / / / / / / / / ]   ",
"< #./ / / / / / / / / / / / / / ~ 8.v.v.b.R.R.R.q.q.q.q.h.U.U.R.T.v.v.v.b.R.U.U.j.c.6 o ] ( / / / / / / / ( / / / / / / ( / ]   ",
"> #./ / ( / / / / / / / / / / / / L U.U.R.R.U.R.U.U.U.U.U.U.Y.Y.R.U.R.R.R.U.U.k.t.+ 1   ] ( / / / / / / / / / / / / / / ( / '   ",
"< #./ / ( / / / / / / ( / / / / / / ( Q U.U.Y.U.R.R.R.R.R.R.R.R.R.R.T.Y.l.l.j.N o 3     ] ( / ( / / / / / / / / / ( / / ( / ]   ",
"< #./ / / / / / / / / / / / / / / / / _ Y U.U.U.R.R.R.R.R.R.R.R.U.F.F.z.j.c.T o ( M.    ] / / ( / / / / / / / / / / / / / / ]   ",
"> #.( / ( / / / / / / / / / / / / / / ( ! 0 ! U Y Y k.k.z.z.z.z.z.k.O O / / ( ( ( M.     .( / ( / / / / / / / / / / / / ( / '   ",
"2 #./ / / / / / / / / / / / / / / / ( _ K w ! ( ( ( @ & 0.8.k.k.z.@ @ 3 o / / ( _ M.     ./ / / / / / / / / / / / / / / ( / ]   ",
"< #./ / ( / / / / / / / / / / ( / / / _ K t ! ( / o t t @ u.c.c.@ 1 d t t o / / ( g.    | ^ ' ^ / / / / / / / / / / / / / / '   ",
"< #./ / / / / / / / / / / / / / / / / _ K w ! ( o r t t 3 @ @ % 3 t t t t t . / ( M.    ] ' ^ ^ / / / / / / / / / / / / ( / ]   ",
"> #./ / ( / / / / / / / / / / / / ( / _ K w K . t t t t t t t t r t t t r t r . ( M.    ] ( ^ ' / / / / / / / / / / / / ( / }   ",
"5 #./ / / ( / / / / / / / / / / / / ! ( K y K { !.!.!.!.!.!.!.!.!.!.!.!.!.!.!.N.o M.    | ( ' ^ / / / / / / / / / / / / / _ '   ",
"8 .._ ^ ^ ^ ^ ^ ^ ^ ^ ^ ^ ^ / ( ! ( ( ] K a 0 t ^ { X.X.X.X.X.X.X.X.X.X.b B p t d d.    ] ^ ^ ^ ^ ^ / ^ ! / / / / ! / / / / ..  ",
"& / ^ 1.=.=.=.=.$.*.*.*.*.*.*.=.,.,.+.<.D X !.o o r d d d d t t t t t r e . r g !.*     ^ ^ <.=.=.=.*.*.*.$.#.*.*.*.<.>.>.1.d.  ",
"x                                         o !.o !.!.!.!.!.!.!.!.!.!.!.!.!.. !.!.5.. h e             .                         3 ",
"a R ^ ^ / ! / ^ ^ ^ ~ ^ ^ ^ ^ / ! ! / ! o t ; o V.E.A.E.E.E.E.E.A.E.E.E.A.. h t t r o 4 ~ K / / ! / R / K / ! ! ! / / K ^ ~ / g ",
"4 / / ( ( ( ( ( ( ( ( _ ( ( / _ ( ( / o !.!.# t t t d t t t t t t t t t t o o t w !.!.. ! ! _ ( ( ( ( ( ( ( ( / ( ( ( ( ^ ( _   ",
"4 #./ ( / / / / / ( / / / / / / / ( / o p !.o !.!.!.!.!.!.!.!.!.!.!.!.!.!.W.o !.!.!.w o ] ( / ( ( / / / / / ( / / ( ( ( ^ ' ]   ",
"4 o.( / / ( / / / / / / / / / / / / o r r > 3 Z F G G H H H H H H H H H H [ o d t t t e ] / / / / / / / / / / / / / ( ^ ( ( ]   ",
"4 #./ / / / / / / / / / / / / / / / o !.!.o t d t d t t d t t t t t t t t t 0 o h !.!.!.o / / / / / / / ( / / / / / / / / ( ]   ",
"4 #./ ^ ^ ( ( / / / / / / / ( / / / W 7.Q.. N.!.!.!.!.!.!.!.!.!.!.!.!.!.!.!.N.. !.!.!.4.o / / / / / / / / / / / / / / / / / ]   ",
"2 #.( ( / / / / / ( / / / / / / / / ( U U.o Z.!.!.!.!.!.!.!.!.!.!.!.!.!.!.!.Z.o Q.U.T.I ] ( / ( / / ( / / / / / / / / / ( / ]   ",
"< #.^ ( ( / / / / / / / / / / / / / ( P G.o e r t t t t t d d r t t t t t r 3 3 = H.K.P } / / / / / / / / / / / / ( / / ( / '   ",
"< #./ / ( / / / / / / / / / / / / / / _ K o C.!.!.!.!.!.!.!.!.!.!.!.!.!.!.!.V.Z., m.    ] ( / ( / / / / / / / / / / / / / / ]   ",
"< #./ / / / / / ( / / / / / / / / / ( ' K o :.2.3.5.5.5.5.3.5.5.3.3.3.3.2.&.3 3 o M.    ] / / ( / / / / / / / / / / ( / ( / '   ",
"> #./ / ( / / / / / / / / / ( / / / ( ( K 0 o o o o o o o o o o o o o o o o o o . m.    } / / / / / / / / / / / / / / / / / ]   ",
"> #.( / ( / / / / / / / / / / / ( / ! _ ! w . 0 6 6 3 3 3 3 3 3 6 3 0 0 6 3 6 < ( M.    } ( / ( / / / / / / / / / / / / / / ]   ",
"< #.( / / / / / / / / / / / / / ( ! ( _ ! 0 o 6 3 3 3 6 2 o o o o 3 3 3 3 6 3 < ( M.    ] / / ( / / / / / / / / / / / / / ( ]   ",
"2 #./ / ( / / / / / / / / / / / ( ( ! _ ! w o 6 3 3 6 6 8 o ' ^ o 3 3 3 3 3 6 2 / M.     .( / ( / ( / / / / / / / / / / ( / '   ",
"2 #./ / ( / / / / / / ( / / / / ( ! ( _ ! 8 o 8 6 6 3 8 2 ^ ^ ' / o 3 3 3 3 3 < ( M.    ] / / / / / / / / / / / / / / / / / ]   ",
"> #./ / / / / / / / / / / / / / ( ( ^ ' ! w o %.%.;.b b o ^ ^ ^ / o -.-.-.-.b o ( L.    } ( / / / / / / / / / / / / / / ( / ]   ",
"> #.( / / / / / / / / / / / / / ^ _ ^ ( ! 8 o o o o o o # ^ ' ^ / / o o o o o o ( M.    ] / / ( / / / / / / ( ( / / ( / / / '   ",
"> #.( / / / / / / / / ( / / / / ( ^ ' ( ! w ! ( ( ( / / ^ ^ ' ' ( ( ^ ( / ( / / / L.    ] ( / / / / / / ( ( ( ^ / / / / / / '   ",
"9 @.( / ( / / ( ( / ( ( / / / / ^ ^ ^ ' ! p ! ( _ ( / ( ^ ^ ^ ^ ^ ( ( ^ ^ / / ^ / P.    ] / ( ( / ( ( / ^ ( ( ( / ( / / / / (   ",
"# ( ! #.+.+.@.+.+.+.+.+.+.+.@.+.@...| ] S * ! ! =.+.+.+.+.+.@.+.@.@.@.@...@...@.#./     ! ! @.+...+.+.@.@.+.@.@.+.+...+.+.#.#.  ",
"w K Z ! K J K K J J J J K J K K J J J ! M a ! D ! J J ! J ! J J ! ! ! J J J J G K K   q K K J K J K J J J ! J J J K K K J H K r "
};
