/* XPM */
static char *result[] = {
/* columns rows colors chars-per-pixel */
"64 64 173 2 ",
"   c #000000",
".  c #02020D",
"X  c #0D000E",
"o  c #1D0209",
"O  c #010313",
"+  c #0B0216",
"@  c #090B14",
"#  c #060518",
"$  c #0E021A",
"%  c #0D0A1B",
"&  c #110216",
"*  c #10021A",
"=  c #1B0B19",
"-  c #240A0D",
";  c #2B1413",
":  c #0D0824",
">  c #120B21",
",  c #141326",
"<  c #191325",
"1  c #171529",
"2  c #1A162A",
"3  c #1B192C",
"4  c #1E1C32",
"5  c #2A1B25",
"6  c #231B2B",
"7  c #211E34",
"8  c #291C31",
"9  c #24212F",
"0  c #29202F",
"q  c #28282E",
"w  c #242235",
"e  c #2B2436",
"r  c #2C2A37",
"t  c #262438",
"y  c #292639",
"u  c #2C2B3D",
"i  c #342634",
"p  c #312B39",
"a  c #3B2F3E",
"s  c #2F303C",
"d  c #33323C",
"f  c #38323E",
"g  c #472C2C",
"h  c #533137",
"j  c #2E2C40",
"k  c #302D41",
"l  c #353143",
"z  c #3A3547",
"x  c #3F3F47",
"c  c #3B3649",
"v  c #3D3A4B",
"b  c #453A47",
"n  c #5D3F44",
"m  c #4B424D",
"M  c #4A4250",
"N  c #534955",
"B  c #594C58",
"V  c #5D525D",
"C  c #595865",
"Z  c #665A67",
"A  c #63656B",
"S  c #756367",
"D  c #6A6C72",
"F  c #7A6E74",
"G  c #6C7175",
"H  c #717376",
"J  c #76767C",
"K  c #78777D",
"L  c #767A7A",
"P  c #7A7D7C",
"I  c #94525B",
"U  c #945863",
"Y  c #A45B66",
"T  c #A85966",
"R  c #AC5A64",
"E  c #B05D67",
"W  c #8F6F70",
"Q  c #A67C6C",
"!  c #B86370",
"~  c #B07675",
"^  c #B87878",
"/  c #7F807F",
"(  c #7A7781",
")  c #7B7B82",
"_  c #7F8080",
"`  c #828683",
"'  c #838985",
"]  c #89828C",
"[  c #878E89",
"{  c #898E8B",
"}  c #87908A",
"|  c #8B938D",
" . c #908F95",
".. c #8E9690",
"X. c #8E9A92",
"o. c #919495",
"O. c #929E95",
"+. c #95949A",
"@. c #959C9A",
"#. c #A28387",
"$. c #B89888",
"%. c #93A197",
"&. c #94A399",
"*. c #9AA39C",
"=. c #9AAA9F",
"-. c #AFA19F",
";. c #9BA7A0",
":. c #9DADA2",
">. c #9FB1A5",
",. c #A2A6A6",
"<. c #AFA1A0",
"1. c #B0A1A0",
"2. c #A1B2A5",
"3. c #A3B5A9",
"4. c #A6B9AB",
"5. c #ABBAAF",
"6. c #B0AFB4",
"7. c #B3B1B6",
"8. c #B4B4B9",
"9. c #BAB6BA",
"0. c #C89C8C",
"q. c #DC9E8F",
"w. c #E7A59F",
"e. c #F4A69C",
"r. c #F4AB9D",
"t. c #CAA1A1",
"y. c #DEB1A5",
"u. c #D5B4AD",
"i. c #DABDAB",
"p. c #F6B0A4",
"a. c #F3BDAB",
"s. c #FBBFAC",
"d. c #EFBFB1",
"f. c #F0BEB3",
"g. c #AFC3B4",
"h. c #B1C4B6",
"j. c #B2C7B8",
"k. c #B5CBBB",
"l. c #B8CCBC",
"z. c #BAD0BE",
"x. c #F7C1AE",
"c. c #FAC2AE",
"v. c #E2C4B8",
"b. c #F3C3B2",
"n. c #FBC3B1",
"m. c #F4C5BA",
"M. c #F9C6BA",
"N. c #F5CABA",
"B. c #FACDBD",
"V. c #FED1BD",
"C. c #BCD4C1",
"Z. c #BEDBC5",
"A. c #C4C5C9",
"S. c #CCCCCC",
"D. c #C2D9C7",
"F. c #CECFD3",
"G. c #D2D2D5",
"H. c #D6D6DC",
"J. c #EBCAC3",
"K. c #FACDC2",
"L. c #FCD5C3",
"P. c #FFD3CD",
"I. c #EED8D1",
"U. c #C4E3CB",
"Y. c #CBE9D3",
"T. c #F5E2D4",
"R. c #FEE6D5",
"E. c #FEE8D6",
"W. c #FFE7DC",
"Q. c #FFE8D8",
"!. c #DADAE0",
"~. c #FAF7FC",
"^. c #FEFFFF",
/* pixels */
"b a                                   : x m                                       w c r 8 :                                 1 8 ",
"w ` ` } [ } } [ [ [ [ [ [ [ [ [ } } [ [ H p H ` | [ [ [ } ' [ } [ [ } ' [ } } | } `   , ` ` [ { [ [ [ } [ [ [ [ } [ [ [ [ [ }   ",
"< 5.[ ` ` ` ' ` ' ' ` ' ' ' ` ` ` ` ' } P r P ' ' ` ' ' ` ` ' ` ' ` ` ` ` ` ` ` ` Y.    *.' ' ` ` ` ' ' ` ' ' ' ' ' ` ` ` ` |   ",
"6 *.` ` ` ` ` ` ` ` ` ` ` ` ` ` ` ` ` } P p P ' ` ' X . O O . O O . O . ` ` ` ` ` U.    | ' ` ` ` ` ` ` ` ` ` ` ` ` ` ` ' ' }   ",
"6 *.` ` ` ` ` ` ` ` ` ` ` ` ` ` ` ` ` ' P r P [ ' O u 4 4 c c z c 3 z c v O ` ` ` D.    } ` ` ` ` ` ` ` ` ` ` ` ` ` ` ` ` ` |   ",
"3 *.' ` ` ` ` ` ` ` ` ` ` ` ` ` ` ` ` ' P u O O w y u y z c z z c 4 z z c c , 3 O D.    | ' ` ` ` ' ` ` ` ` ` ` ` ` ` ` ` ' }   ",
", *.` ` ' ` ` ` ` ` ` ` ` ` ` ` ` ` ' } P O w e y u y 4 c c c c z z z c z c c 3 c O     o.' ` ' ` ` ` ` ` ` ` ` ' ` ` ` ' ` |   ",
"1 *.` ` ' ` ` ` ` ` ` ` ` ` ` ` ` ` ' ' O e w u y y u u z c z z c c 4 z z z 7 4 c l O   | ' ` ' ` ` ` ` ` ` ` ` ` ` ` ` ` ` |   ",
"< &.` ` ' ` ` ` ` ` ` ` ` ` ` ` ' ` ' O y y y j e u u u j c z l c c 4 c c v c c 4 c 4 O | ` ` ` ` ` ` ' ` ` ` ` ` ` ` ` ' ` |   ",
"< *.` ` ' ` ` ` ` ` ` ` ` ' ` ` ' _ O y y y y 3 u y y u 4 t w # @ # O # # # # e 4 c c w 1 ` ` ' ` ` ` ` ' ` ` ` ` ` ` ` ` ` |   ",
", *.' ` ' ` ` ` ` ` ' ` ` ` ` ` _ O 7 7 y y y 4 t t t y # c c z c c c c c c c c 4 # w w y O ` ` ` ` ` ` ` ` ` ` ` ` ` ` ` ` |   ",
", *.` ` ` ` ` ` ` ` ` ` ` ' ` ` @ t 7 7 y u 7 t w O c c 4 c z z z z c 7 3 c z c c c c c O % ` ` ` ` ` ` ` ` ` ` ` ` ` ` ` ` |   ",
"1 =.` ` ' ` ` ` ` ` ` ` ` ` ` ` % 7 7 7 t j 4 4 z z z z 4 z 4 z z z c c 3 4 c v c c c c c % O ` ` ` ` ` ` ` ` ` ` ` ` ` ` ` |   ",
"1 *.` ` ' ` ` ` ` ` ` ` ` ` ` d 4 4 4 7 t 4 # c z z c z 4 c z z c c w c 3 c c c c c c 4 c c . O ` ` ` ` ` ` ` ` ` ` ` ` ' ` |   ",
"1 *.` ` ' ` ' ` ` ` ` ` ` ` ` d 4 4 4 7 4 j t l l c z z 4 c z c c z c c c c c c c 7 c 4 c c c O ` ` ` ` ` ` ` ` ` ` ` ` ` ' |   ",
"< *.` ` ` ` ` ` ` ` ` ` ` ` ` d 4 4 4 w j j 4 c t z c c c z l e # $ + + $ $ $ * w w l 4 c c u O . ` ` ` ` ` ` ` ` ` ` ` ' ` |   ",
", *.` ` ` ` ` ` ` ` ` ` ` ` ` @ 4 4 # 4 u u 7 c z z y t t % $ B.K.K.K.R.E.E.E.I.d.J.* 4 t c c O O ` ` ` ` ` ` ` ` ` ` ` ' ' |   ",
"1 *.` ` ` ` ` ` ` ` ` ` ` ` ` O 4 4 7 4 u u 7 c c y y $ $ f.R.M.R.E.E.Q.Q.Q.Q.Q.E.R.x.& u t w v O ` ` ` ` ' ` ` ` ` ` ' _ ' |   ",
"5 2.` ` / ` ` ` ` _ ` ` ` ` ` O 3 1 4 u u u 7 w $ y y e e + # S R.R.E.Q.Q.Q.R.Q.E.W.W.L.u.F # u O ` ` / _ _ _ ` ` / ` _ ` ` [   ",
"  ` P &.O.O.%.O.%.%.%.%.%.%.%.O # 4 4 u u u 7 e y y y t y y e t + 5 Q.R.R.E.W.W.E.T.* 2 y t $ 4 O &.&.%.&.%.&.&.&.&.O.X.X.%.%.  ",
"p ` / D.z.l.l.k.z.k.k.k.l.l.C.O 4 4 4 u u 4 7 e y y y $ + y t y y # + $ $ $ : $ $ # y t e y 2 7 O z.k.j.k.k.k.j.k.k.h.j.h.l.D.  ",
"i                               4 4 4 u 7 + + e y y = V.J.= $ $ y y y t u t e e y y $ $ * # w $ O                             8 ",
"z { ` | o.| ....................4 4 4 4 4 t y y 4 V E.E.Q.R.B.N.K.$ e y t y t y $ M.K.m.R.$ t $ O ....o.....................;.  ",
"f *.' ' ' ' ' ' ' ' ' ' ' ' ' ' 4 $ $ $ 1 y y y V + R.R.R.R.R.W.R.0.t y e t y $ K.R.R.R.R.W.$ $ ` ' ' ' ' ' ' ' ' ' ' ' ' ' ..  ",
"6 *.' ` ` ` ` ` ` ` ` ` ` ` ` ` W.T.R.s.# 4 e y y B O ^.$ $ * $ $ 0.Z t t y N $ W * $ $ ^.( e $ ` ` ` ` ' ` ` ` ' ` ` ` ` ' |   ",
"6 @.` ` ` ` ` ` ` ` ` ` ` ` ` ` W.Q Q n.#.3 4 y y w B ] ] $ $ * u.N 7 w Z Z Z w y.$ * $ ~.% t a.R ` ` ' ` ` ` ` ` ` ` ` ` ` |   ",
"6 *.' ` ` ` ` ` ` ` ` ' ` ` ` ' W.R.Q n.c.b.m.e y y t B O # # # 4 e + & & & & * # 7 w # t y 1 a.R ` ` ` ` ` ` ` ` ` ` ` ` ' |   ",
"1 =.' ` ` ` ` ` ` ` ` ` ` ` ` ` ! R.R.$.c.R.R.B.N.* $ t e t e $ m B.B.x.R.K.L.a.- m.$ r t e $ n.Y ` ` ` ` ` ` ' ` ` ` ` ` ` |   ",
"< *.` ` ` ` ` ` ` ` ` ` ` ` ` ` U R.R.R.n.x.R.R.W.n.x.* $ * $ R.b.Q.Q.Q.R.p.B.R.E.n.c.* + g c.R ` ` ` ` ` ` ` ` ` ` ` ` ` ` |   ",
"1 *.` ` ' ` ` ` ' ` ' ` ` ` ` ` ` T R R E c.R.W.R.n.n.n.e.n.r.c.R.Q.Q.E.Q.Q.E.W.Q.Q.x.r.r.b.c.Y ` ` ` ` ` ` ` ` ` ` ` ` ' ` |   ",
"1 *.` ` ` ` ` ` ` ` ` ` ` ' ` ` ` ` ` } O n n.n.W.E.E.N.N.N.N.R.Q.Q.E.i.i.i.i.v.Q.Q.Q.N.N.N.w.` ` ` ` ` ` ` ` ` ` ` ` ` ' ` |   ",
", *.` ` ' ` ` ` ` ` ` ` ` ` ` ` ` ` ' ' P 2 # s.x.R.R.E.W.W.E.R.Q.Q.E.R.R.R.E.R.Q.Q.Q.E.E.^ ` ` ` ` ` ` ` ` ` ` ` ` ` ` ` ` }   ",
"1 *.` ` ' ` ` ` ` ` ` ` ` ' ` ` / [ _ _ / t 3 O n x.b.b.E.R.Q.Q.Q.Q.Q.Q.Q.Q.Q.Q.E.E.E.Q.~ ' ` ' ` ` ` ` ` ` ` ` ` ` ` ` ' ` |   ",
"1 *.` ` ` ` ` ` ` ` ` ` ` ` ` ` _ _ } } L s / ' # R s.M.n.L.L.E.Q.Q.E.Q.Q.Q.Q.Q.E.E.R.R } ' ` ` ` ` ` ` ` ` ` ` ' ` ` ` ` ` |   ",
"1 *.` ` ' ` ` ` ` ' ` ` ` ` ` ` } / [ } / 9 / ` ` ` ' ` + X n.n.n.n.n.n.c.c.R R R Z.    o.' ` ' ` ` ` ` ` ` ` ` ` ` ` ` ' ` }   ",
"1 *.` ` ' ` ` ` ` ` ` ` ` ` ` ` / [ _ _ / r / } ' ` _ O 4 $ o n.n.c.q.$ * # ` ` ` U.    ..' ` ` ` ` ` ` ` ` ` ` ` ` ` ` ` ' |   ",
"1 *.' ` ' ` ` ` ` ` ` ` ` ` ` ` / [ / } L s / ' ` ` O r u j 4 X M.M.+ + u j O ` ' z.    | ' ` ' ` ` ` ` ` ` ` ' ` ` ` ` ' ` }   ",
"1 *.` ` ' ` ` ` ` ` ' ` ` ` ` ` } / / } / r L ' ` . u u u u 4 2 $ $ 3 4 u u u O [ z.    | ' ` ` ` ` ` ` ` ` ` ` ` ` ` ` ` ` |   ",
"1 *.` ` ` ` ` ' ` ` ` ` ` ` ` ` } / ' } P t P [ . y u u u u u u u u u u u u u u ` Z.    | ' ` ` ` ` ` ` ` ` ` ` ` ` ' ` ' ' |   ",
"5 *./ ' ` ` ` ` ` ` ` ` ` ` ` ` / / / } P i P O S.^.^.^.^.^.^.^.^.^.^.^.^.^.^.^.s D.    o.' ' ' ' ` ` ` ` ` ` ` ` ` ` ` ` ' }   ",
"9 %.' ` ` ` W _ _ _ _ _ _ _ _ ` / } ` | / f O u j ..C ] +.+.+.+.+.+.@.+.+.+. .) j O     | ' ` _ _ _ W ` / ` / ` ` / ' _ ' _ %.  ",
"% ` _ 4.2.:.>.>.:.>.:.:.:.:.:.2.g.>.&.3.G 1 G.^.u j O u u j u u u u p k u u u O A.^.O   _ ' 2.:.>.>.>.2.:.=.=.:.:.:.4.>.>.g.k.  ",
"b                                         z 8.^.^.G.S.^.^.^.^.^.^.^.^.^.^.^.^.^.,.^.% e       .                   .           4 ",
"a ` P ` ` _ _ _ W ` _ ` _ _ _ ` / / / ` H O u r l C G.!.!.!.!.H.!.!.!.!.!.H.H.G.O u u O _ _ _ W _ _ _ _ P ` ` / ` W _ _ ` _ / z ",
"6 ` ) [ [ ' ' ' ' ' ' ' ' ' ' ' ' ' ' ' O ^.^.r j O 4 u u u u u u u u u j u u u # k ^.A.O / [ ' [ [ ' ' ' ' ' ' ' ' ' ' ` ' [   ",
"6 *.' ' ` ` ` ` ` ` ` ` ` ` ` ` ' ` ` ' O 0 ^.^.^.. ^.^.^.^.^.^.^.^.^.^.^.^.^.^.^.F.^.j O ' ` ' ' _ [ _ ` ` ' ` ' ` ' ` ` ' |   ",
"3 @.' ` ` ` ` ` ` ` ` ` ` ` ` ' ` ` ` ' u u u u j O J ) ( K ( K K K ( K K J J H D > l u r D ' ` _ ' _ ' ` ` ` ` ` ` ` ` ` ' |   ",
"6 *.` ` ` ` ` ` ` ` ` ` ` ` ` ` ` ` ` O ^.^.^.u O 7 u u u u u u u u u u j u u u y 7 j ^.^.A ` ` ' ' _ ' ` ` ` ` ` ` ` ` ` ` |   ",
"6 *.` ` ` ` ` ` ` ` ` ` ` ` ` ` %._ _ @ k.~.^.^.. S.^.^.^.^.^.^.^.^.^.^.^.^.^.^.^.7.+.T.t.#.` ` ' ` ` ` ` ` ` ` ` ` ` ` ` ` }   ",
"3 *.` ` ' ` ` ` ` ` ` ` ` ` ` ` _ _ _ %.Y E.R.^.. G.^.^.^.^.^.^.^.^.^.^.^.^.^.^.^.8.B R.R ` ` ' ` ` ` ` ` ` ` ` ' ` ' ` ` ` |   ",
"1 *.` ` ` ` ` ` ` ` ` ` ` ` ` ` _ _ _ _ I L.b.1 4 4 u u u u j u u u u u u u u j u w h P.Y ` ` ` ` ` ` ` ' ` ` ` ` ` ` ` ` ` |   ",
", *.` ` ' ` ` ` ` ` ` ` ` ` ' ` _ &._ _ / s ; 1 S.F.^.^.^.^.^.^.^.^.^.^.^.^.^.^.^.7..   | ' ` ' ` ` ` ` ` ` ` ` ` ` ` ` ` ` |   ",
"2 =.` ` ` ` ` ` ` ` ` ` ` ` ` ` _ _ =.=./ s / @ 7 4 9.6.8.6.7.6.7.8.7.8.8.8.8.8.6.+.    | ' ` ` ` ` ` ` ` ` ` ` ` ` ` ` ' ` |   ",
", *.` ` ' ` ` ` ' ` ` ` ` ` ' ` _ _ _ _ / q / @ O O O # # O O @ O O O O O # O O O O     | ' ` ' ` ` ` ` ` ` ` ` ` ` ` ` ` ` |   ",
", *.` ` ` ` ` ` ` ` ` ` ` ` ` ` _ _ _ _ / s _ _ 4 w 4 4 7 4 4 4 7 4 4 7 w 4 4 4 4 O     o.' ` ' ` ` ` ` ` ` ` ` ` ` ` ` ` ` |   ",
", *.' ` ' ` ` ` ` ` ' ` ` ` ` ` _ _ _ _ / q _ _ 4 7 4 4 4 4 7 O O O O 4 4 4 7 7 4 O     | ` ` ` ` ` ` ` ` ` ` ` ` ` ` ` ' ` |   ",
"3 *.` ` ' ` ` ` ` ` ` ` ` ` ` ` _ } _ _ / d / _ 4 4 4 4 7 7 q @ ` . O 7 4 7 4 7 7 O     ..` ` ` ` ` ` ` ` ` ` ` ` ` ` ` ' ` |   ",
"1 *.` ` ' ` ` ` ` ` ' ` ` ` ` ` } _ _ X./ q / _ 4 4 4 4 4 w @ _ ` ` x 7 7 4 7 7 4 O     | ' ` ' ` ` ` ` ` ` ` ` ` ` ` ` ` ` |   ",
"1 &.' ` ' / ` ` ` ` ` ` ` ` ` ` } _ _ | / s / _ O M <.<.2., @ _ ` ` x O M -.-.-.1.O     ..' ` ` ` ` ` ` ` ` ` ` ` ` ` ` ` ` |   ",
", &.' / ' ' ` ' ` ` ` ` ` ` ` ` _ _ _ | / q / / O # @ O O @ _ _ ` ` ` O O O O O O q     | ' ` ` ` ` ` ` ` ` ` ` ` ` ` ` ` ` |   ",
"< *.` ` / ' ' / ` ` ` ` ` ` ` ` _ _ _ _ P u / ' _ _ ' ' _ _ _ _ [ / [ _ _ ' ` ` ` U.    | ' ` ` ` ` ` ` ` ` ` ` ` ` ` ` ` ' |   ",
"q *.' ' ` ` ' ' ' ` ' ` ' ` ` ` _ _ _ | P d / [ } ' _ ' _ / _ X./ [ _ _ _ ' ' _ ' Y.    | ` ' ` ' ` ` ' ' ` ` ' ` ' ` ` _ _ }   ",
"% ' / *.%.%.%.%.%.%.%.%.&.&.&.%.%.%.X.| D < / / >.&.&.&.%.%.%.X.&.&.%.&.O.&.O.&.*.`     ` / &.%.%.&.&.&.&.%.&.%.%.&.O.%.O.&.&.  ",
"r P A P L / L / L L L / L L L L L L / / V f P G / L L / G / / / / / / L L L L L P L   e P L P L L L L P P P L P L P P P L L ) r "
};
