/* XPM */
static char *result[] = {
/* columns rows colors chars-per-pixel */
"64 64 87 1 ",
"  c black",
". c #07041A",
"X c #0F091D",
"o c #0D0926",
"O c #150F29",
"+ c #141326",
"@ c #191325",
"# c #171528",
"$ c #1A1729",
"% c #1B192A",
"& c #1B1830",
"* c #221B2C",
"= c #291B29",
"- c #291C31",
"; c #24212F",
": c #29202F",
"> c #242332",
", c #2C2436",
"< c #2B2A37",
"1 c #272539",
"2 c #2E253A",
"3 c #2D2D3A",
"4 c #342634",
"5 c #322C39",
"6 c #3A2F3C",
"7 c #2F303C",
"8 c #33323D",
"9 c #38323E",
"0 c #3A2C40",
"q c #353242",
"w c #3C3443",
"e c #3E3D4C",
"r c #443544",
"t c #443945",
"y c #4B444D",
"u c #534B52",
"i c #545661",
"p c #60646B",
"a c #666A6F",
"s c #676E71",
"d c #6D7174",
"f c #717376",
"g c #737779",
"h c #767A7A",
"j c #7B7D7C",
"k c #7F807F",
"l c #7F8080",
"z c #828683",
"x c #838985",
"c c #868D89",
"v c #888F8B",
"b c #87908A",
"n c #8B938D",
"m c #8E9690",
"M c #8F9A92",
"N c #919692",
"B c #929E95",
"V c #949E98",
"C c #93A197",
"Z c #94A399",
"A c #9AA39C",
"S c #9AAA9F",
"D c #9BA7A0",
"F c #9DADA2",
"G c #9FB1A5",
"H c #A0A8A2",
"J c #A1B2A5",
"K c #A4B5A9",
"L c #A6B9AB",
"P c #ABBAAF",
"I c #ABBFB1",
"U c #AFC3B4",
"Y c #B1C5B6",
"T c #B2C7B8",
"R c #B5CBBB",
"E c #B9CDBD",
"W c #BBD0BE",
"Q c #BCCEC0",
"! c #BDD5C1",
"~ c #BDDBC5",
"^ c #BFE0C7",
"/ c #C2D6C7",
"( c #C1DCC6",
") c #C0DFC8",
"_ c #C3E1CA",
"` c #CAE1CF",
"' c #CBE9D3",
/* pixels */
"t0                 %eu                   >w2,o                +-",
">zzbvvcvvvvvvcvvkCZkk7kkCMbnbbnbbbxbbbbnbz +llvvvvccvvvvvvvvvvb ",
"@Iczzxxzzzzxzxzlkklkk>kklkkbbkkxxzzxzzzzz'  Dzzzzzxzxzzxzzzzzzm ",
"*VxzzzzzzzzzzzzzkClCk>kkbblkkxxxxxzzzzzzz_  nxzzzzzxzzzzzzzzxxb ",
"*Azzzzzzzxzzzzzzkllkk7kllblbkbbkzzzzzzzzx(  nzzzzzzzzzzzzzzzzzn ",
"%AxzzzzzzzzzzzzzCllZk7kClkkbkkkkzzzzzzzzz/  mzzzzzzzzzzzzzzzzzb ",
"@Azzzzzzzzzzzzzzllkkk<klbkkkbkkbzxzzzzzzx!  mxzzzzzzxzzzzzzzzzn ",
"#Azzxzzzzzzzzzzzllkkk7klkblbkbbkzzzzzzzzx~  vxzxzzzzzzzzzzzzxzn ",
"+Azzzzzxzzzzzxzzkkbbk7klzxxzzzzzzzzzzzxzz~  vxxzzzzzxzzzzzzzxzn ",
"#Azzzzzzzzzzzzzzbkkbk7klzxkzzzzzzzzzzzzzx^  Nxzzzzzzzzzzzzzzzzn ",
"+Azzxzzzzzzzzzzzkbkbk<kkzzzzzzzzzzzzzzzzz_  nxzzzzzzzzzzzzzzzzn ",
"+Azzxzzzzzzzxzzzkbkbk%kkzzxzzzzzzzzzzzzxx~  nzzzxzzzzzzzzzzzzzn ",
"#Axzxzzzzzzxzzzzlbkbk>kxzzzzzzzzzzzzzzzzz~  nxzxzzzzzzzzzzzzzzn ",
"#Azzzzzzzzzzzzzzlbblk;kbzzkzzzzzzzzzzzzzx~  nxzzzzzzzzzzzzzzxzn ",
"%Azzzzzzzzzzzzzzblllk%klxkxxzzzzzzzxzzzzz_  nxxzzxzzzzzxzzzzxzb ",
"+Azzxzzzzzzzzzzxllblk<kxxxxkzzzzzzzzzxzzz~  nxzxzzzzzzzzzzzzzxn ",
"+Azzzzzzzzzzzzzzzzxbj3jxzzzzzzzzzzzzzzzzz~  nzzzzzzzzzzzzzzzzzb ",
"+Azzzzzzzzzzzzzzzzlvj7kxzzzzzzzzzzzzzzzzz~  nxzzzzzzzzzzzzzzzzn ",
":Hzzzkzzzzzzzzzzzzzzj6jczzkzzkzzzzzzzzzzx_  Nxzzzkkzzzzzzzzzzzv ",
" zkZBBCCCBBCBBCMBBMna@jkSCZCCCZZZBZCMMBZVz  llZBBZZZCBCZCCMMMBV ",
"5zz!WREE!RRREEWYYT/Ig9jz`WWRRWRWEWTWYTU(Ec1OznQ!EWERTETTRRUYUE/ ",
"4                    t=                   0r                   -",
"wvzmmnnMMnmmmnNNNNbZgtdzCmMMBMCMnmMmmmmmVx* xzmmnNnNmnMmmMmmmmD ",
"9AxxxxxxxxxxxxxxxxxbhydzbkxlblkbxzxxxxxzvF  mxxxxxxxxxxxxxxxxxM ",
"%Axxzzzzzzzzzxzzzzxxk7kllblbkkbkzzzzxzzzx(  nxzzzzxzzzzzzzxzzzn ",
"*Vzzzzzzzzzzzzzzzzzvk3kkllllbkkbzzzzzzzzz~  nzzzzzzzzzzzzzzzzzb ",
"*Vxzzzzzzzzzzzzzzzzvk<knlbblkbbkzzzzzzzzz~  nxzzzzzzxzzzzzzzzxn ",
"#Hxzzzzzzzzzzzzzzxlxk<klllblkbkkzzzzzzzzx_  nxzzzzzzzzxzzzzzzzn ",
"#Azzzzzzzzzzzzxzzzzxk<klbkbkbkkbzzzzzzzzz_  nzzzzzzzzzzzzzzzxzn ",
"#Azzxzzzzzzzzzzzzzxxk%kbkblkbkbkzzzzxzzzz_  nxzxzzzzzzzzzzzzzzn ",
"#Azzzzzzzzzzzzzzzzxbk;klkbkbkkbkzzzzzzzzz/  nxzxzzzzzzzzzzzzxzn ",
"+Axzxzzzzxzzzzzzzzxxh8klbkklbkkbzxzzzzzzx_  nzzzzzzzzzzzzzzzzzb ",
"%SkkkkkkkklkllkCbkkkk>kMkkkklkClzzzzzzzxx)  nxzxzzzzzzzzzzzzxzc ",
"+FMkMMkkkClkCkklkkbbk7kkkClklkklzzzzzzzzx~  nzzxzzzzzzzzzzzzxzn ",
"+ZMkkkkMklCkkkklbkbbk>kkkClClCkkzzzzxzzzz~  Nzzzzzzzzzzzzzzzzzn ",
"%SkkbkkkClllkkkkbkkkk>kbkklkkkkkzzxzzzzzx~  Nxzxzzzzzzzzzzzzxzn ",
"+ZkkkkkkklCkkkkkkkbbk>kkkCkkkkkCzzzzzzzzz!  nzzzzzzzzzzxzzzzzzb ",
"%SkkCkkCkkkkMllCkbkbk7kkkkkkClklzzzzzzzzx~  mxzzzzzzzzzzzzzzxzn ",
"%Gkkkkkkkkklkllkbkkbk>kkkkCkkllkzzzzzzzxz~  mzzzzzzzzzzzzzzzzzn ",
";LkkkCkkCkkCkMlkkkkbk7kMkMkkkMlkzzzzzzzzx/  Nzzzzzzzzzzzzzzzzcb ",
">Clllkkkkkkkkkkkbkklk8kkkkkkkkkkzzkzzzzznR  vxzzkzzzkzlzzzzzzxB ",
"+kkULLGJJUJGGGGULLFRk%kkRLLGGGJLFJFSJJJHLz  lxKFGFFHFSSFFFKJJPR ",
"8                    8k +                 q,                   &",
"8kkkbkkklkkkkkkkkkkkku7kkkkkkkkkzkkzkkzzllq*llzljzlljzkzkzzjzllw",
"%kkbbbbxkklklZllllllk7kkbkbkkbkbzxxxxxxccl .zlxxxxxxxxxzxxxczcc ",
";SkbkkxkClCklllkllClk>kkbkkbkbkkzzzzzzzxx~  mzzxxzzzzxzzzzzzzzn ",
";CbkkxkxkklllllCCkklk3kkbkkbbkkbzzzzzzzzz_  nzzzzzxzzzzzzzzzzxb ",
";AkxxxkxkClkkCllllkkk7kkkbkkkbbkzzzzzzzzx!  nzzzzzzzzzzzzzzzzxn ",
"*Azzzzzzzzzzzzzzkbkkk7kbkkkbkbkkzzzzzzzzz_  bzzzzzzzzzzzzzzzzzv ",
"$ZzzxzzzzzxzzzzzbkkCk7kkkbbkbkkbzzzzzzzzx~  Nxzzzzzzzzzzzzzzxzn ",
"$Azzzzzzzzzzzzzzbkkbk>kbkkkkbkkbzzzzzzzzz~  mzzzzzzzzzzzxzzzzzn ",
"+Azzxzzzzzzzzzzzkkbkk7kkbbkbkkbkzzzxzzzzz!  mzzzzzzzzzzzzzzzzzn ",
"#Szzzzzzzzzzzzzxkbkbk7kkkbbkkbbkzzzzzzzzx!  nxzzzzzzzzzzzzzzxzb ",
"+AzzxzzzzzzzzzzzbkkCk7kkkkkbbkkkzzzzzzzzz!  nxzxzzzzzzzzzzzzzzn ",
"+Azzxzzzzxzzzzzzbkkkk7kCbbkkkkkbzzzxzzzzx~  mxzzzzzzzzzzzzzzzzn ",
"+Azzzzzzzzzzzzzzkkbkk>kkkkbkkbbkzzzzzzzzx~  nxzxzzzzzzzzzzzzxzn ",
"%AzzxzzzzzzzzzzzlCkZk7kkkkkbkkblzzzzxzzzx~  mzzzzzzzzzzzzzzzzxb ",
"%Szzzzzzzzzzzzzxllllk<kkbbkkbbkkzzzzzzzxx~  nxxzzzzzzzzzzzzzzzn ",
"+Axzxzzzzzzzzzzzllllk7kkkbkbkblbzzzzzzzzx_  Nxzzzzzzzzzzzzxzxzn ",
"+CzzzzzzzzzzzzzzkCllk>kkkkkbkkblzzzzzzzzx~  nzzzzzzzzzzzzzzzzzb ",
"@AzzzzzzzzzzzzzzlllCk7kkbkbkllblzzzzzzzzz_  nxzzzzzzzzzzzzzzzzb ",
":Axzzzzxzxxzxxzzkkllk8kkbkkblklbxzxzzzzzz'  nzxzzzxxxxxxzxzzzzx ",
"XzkSCBCCCCCCCCZBlSClkXkkFMSCCCCCZZCCCMBCAz  zkZZBZZZZCZZCZBCBZA ",
"<kphhhkhhkhhjhjjkkkki7kskkkkfkkfkkhkhkhhjh 2jhhjhhhhhjhhhjjhjhj2"
};
