/* XPM */
static char *result[] = {
/* columns rows colors chars-per-pixel */
"64 64 236 2 ",
"   c black",
".  c #0D0E1D",
"X  c #2F0B07",
"o  c #141326",
"O  c #191325",
"+  c #101329",
"@  c #171528",
"#  c #1A1729",
"$  c #1B192A",
"%  c #231B2B",
"&  c #291C29",
"*  c #261C32",
"=  c #1C232D",
"-  c #1C2634",
";  c #26202F",
":  c #242231",
">  c #2D2637",
",  c #2D2D3A",
"<  c #372E31",
"1  c #342B39",
"2  c #37333B",
"3  c #490A06",
"4  c #5C1604",
"5  c #6D1700",
"6  c #533118",
"7  c #733012",
"8  c #71431D",
"9  c #44443E",
"0  c #694327",
"q  c #1A3150",
"w  c #243A44",
"e  c #3A3645",
"r  c #273E56",
"t  c #453A47",
"y  c #1F455C",
"u  c #294A59",
"i  c #314D52",
"p  c #344C5D",
"a  c #294E66",
"s  c #314B62",
"d  c #2C5666",
"f  c #2C546C",
"g  c #325768",
"h  c #32546C",
"j  c #305371",
"k  c #3B6675",
"l  c #4D4946",
"z  c #584C4D",
"x  c #56544E",
"c  c #5D5B55",
"v  c #5D5B57",
"b  c #685A4B",
"n  c #615C56",
"m  c #64625D",
"M  c #6B655C",
"N  c #776C56",
"B  c #465669",
"V  c #4B5869",
"C  c #526D78",
"Z  c #676865",
"A  c #746F6B",
"S  c #69726A",
"D  c #75726D",
"F  c #797368",
"G  c #677774",
"H  c #737374",
"J  c #797873",
"K  c #767A7A",
"L  c #7A7D7C",
"P  c #8B3113",
"I  c #984D17",
"U  c #A84B1A",
"Y  c #B3561C",
"T  c #BC601D",
"R  c #924C24",
"E  c #BB5B25",
"W  c #A65F31",
"Q  c #956037",
"!  c #B86026",
"~  c #C46226",
"^  c #CB7B35",
"/  c #B1674C",
"(  c #867D6E",
")  c #837D77",
"_  c #A37D68",
"`  c #7F807F",
"'  c #DE8B3F",
"]  c #888579",
"[  c #8B857C",
"{  c #918A7C",
"}  c #81907B",
"|  c #D0955E",
" . c #E59B44",
".. c #D1A44D",
"X. c #ECAC54",
"o. c #678B87",
"O. c #7E8181",
"+. c #788B85",
"@. c #69928B",
"#. c #77938B",
"$. c #7D8B93",
"%. c #6C9992",
"&. c #749C95",
"*. c #789995",
"=. c #76A49A",
"-. c #7CA59D",
";. c #7DA7A3",
":. c #828683",
">. c #838985",
",. c #8E8A81",
"<. c #878E89",
"1. c #888F8A",
"2. c #938D84",
"3. c #86938B",
"4. c #8B938D",
"5. c #989589",
"6. c #9C948A",
"7. c #858A90",
"8. c #859497",
"9. c #8E9691",
"0. c #8E9A93",
"q. c #929E95",
"w. c #979C98",
"e. c #A69A8B",
"r. c #A39B8C",
"t. c #A49C92",
"y. c #A79C94",
"u. c #8CA29A",
"i. c #93A197",
"p. c #94A399",
"a. c #9AA39C",
"s. c #94A89C",
"d. c #9AAA9F",
"f. c #ABA28B",
"g. c #ACA294",
"h. c #ACA399",
"j. c #B1A593",
"k. c #B5AA95",
"l. c #B5AB9B",
"z. c #B9AD9B",
"x. c #B9B29C",
"c. c #82ACA4",
"v. c #85ABA8",
"b. c #96ABA5",
"n. c #9DADA2",
"m. c #86B2A9",
"M. c #87B6AB",
"N. c #89B5AD",
"B. c #9FB1A5",
"V. c #8CBBB2",
"C. c #89B9B7",
"Z. c #92BBB7",
"A. c #90BEB5",
"S. c #A0A8A2",
"D. c #B4ABA1",
"F. c #B9AFA1",
"G. c #A1B2A5",
"H. c #A6B7AB",
"J. c #BCB3A3",
"K. c #BAB5A8",
"L. c #CDB38F",
"P. c #C7B796",
"I. c #E3B68B",
"U. c #C4BAA5",
"Y. c #C7BAA7",
"T. c #C4BBAB",
"R. c #C9BDAA",
"E. c #86C9B6",
"W. c #8FC5B9",
"Q. c #92C2B6",
"!. c #94C4BA",
"~. c #96C7BB",
"^. c #9ACABE",
"/. c #AFC3B4",
"(. c #B5C9B9",
"). c #B5CBBB",
"_. c #BAD0BF",
"`. c #C9C099",
"'. c #D6C598",
"]. c #EED399",
"[. c #C6C1AD",
"{. c #CCC3AC",
"}. c #D2C6AE",
"|. c #D6C8A9",
" X c #CCC8B4",
".X c #D6CBB4",
"XX c #DACEB5",
"oX c #D9CEBA",
"OX c #DED3B6",
"+X c #DDD2BC",
"@X c #DFD9B9",
"#X c #EDD7AD",
"$X c #E4D5B5",
"%X c #E9DAB5",
"&X c #E2D6BC",
"*X c #E5DABE",
"=X c #EADCBD",
"-X c #F4DCB9",
";X c #EDE2BD",
":X c #F7E8BD",
">X c #98C9C3",
",X c #9CCDC2",
"<X c #9DD1C6",
"1X c #AECCC4",
"2X c #A0D2C7",
"3X c #A8DBC6",
"4X c #A3D5CB",
"5X c #BDD4C1",
"6X c #BDDBC4",
"7X c #B2E9E5",
"8X c #C2DAC7",
"9X c #D9D5CA",
"0X c #E1D4C2",
"qX c #E5DBC4",
"wX c #EADDC3",
"eX c #EBDAC7",
"rX c #C3E3CA",
"tX c #D0E6CF",
"yX c #EDE2C4",
"uX c #ECE6C8",
"iX c #F3E5C5",
"pX c #FAE4C4",
"aX c #F4EAC6",
"sX c #FBEBC4",
"dX c #F3E6CA",
"fX c #F5EACB",
"gX c #FAEDCC",
"hX c #FCF2C6",
"jX c #ECEAD3",
"kX c #F5ECD2",
"lX c #FAEED2",
"zX c #F2ECDA",
"xX c #FCF1D4",
"cX c #F7F2D8",
"vX c #F9F9E9",
"bX c #FDFEF4",
/* pixels */
"t 2                                   . e z                                       : e > > .                                 o * ",
": :.` 4.1.1.1.1.1.1.1.1.1.1.1.1.3.3.1.>.H > H ` 9.1.1.1.1.1.1.1.1.1.>.1.1.3.1.4.4.O.  o O.O.7.1.1.1.1.1.<.1.1.1.1.1.1.1.1.1.4.  ",
"$ H.1.:.:.:.>.:.:.:.:.>.>.:.:.O.:.:.>.3.O.> O.>.>.:.O.>.>.:.>.:.:.:.:.:.:.:.:.:.:.tX    n.>.>.:.:.>.:.:.:.:.:.>.:.:.:.:.:.O.4.  ",
"* w.>.:.:.:.:.>.:.:.:.:.:.:.:.:.:.:.:.>.K > O.>.:.:.:.:.:.:.:.:.:.:.:.:.:.:.:.:.:.rX    7.>.>.:.:.:.:.:.:.>.:.:.:.:.:.:.:.>.4.  ",
"% a.>.:.:.:.:.:.:.:.:.:.:.:.:.:.:.:.:.1.J > ` >.:.:.:.:.:.:.:.:.:.:.:.:.:.:.:.:.>.8X    9.:.:.:.:.:.:.:.:.:.:.:.:.:.:.:.:.:.4.  ",
"$ a.:.:.:.:.:.:.:.:.:.:.:.:.:.:.:.:.:.>.` , L >.:.:.:.:.:.:.:.>.:.:.:.:.:.:.:.:.:.6X    9.:.:.:.:.:.:.:.:.:.:.:.:.:.:.:.:.>.4.  ",
"o a.:.:.>.:.:.:.:.:.:.:.:.:.:.:.:.:.` <.` , ` +.:.:.>.>.:.:.:.:.:.:.:.:.:.:.:.:.:.6X    9.:.:.>.:.:.:.:.:.:.>.:.:.:.:.:.>.:.3.  ",
"@ a.:.:.:.:.:.:.:.:.:.:.:.:.:.:.} >.>.>.` , ` >.:.:.O.>.:.:.:.:.:.:.:.:.:.:.>.O.:.8X    9.:.:.:.:.:.:.:.:.:.:.:.:.:.:.:.>.:.3.  ",
"o p.:.:.:.:.:.:.:.:.:.:.:.:.:.:.:.:.>.>.` , ` >.:.:.:.:.:.:.:.:.:.:.:.:.:.:.:.:.:.6X    9.:.:.:.:.:.:.:.:.:.>.:.:.:.:.:.>.:.4.  ",
"# a.:.:.>.:.:.:.>.:.>.:.:.:.:.:.:.:.:.<.K , ` >.:.:.:.:.:.:.:.:.:.:.:.:.:.:.:.:.>.6X    9.:.:.:.:.:.:.>.:.:.:.:.:.:.:.:.>.:.4.  ",
"o a.:.:.>.:.:.:.:.:.:.:.:.:.>.:.:.:.O.1.L , L >.:.:.+.:.:.:.:.:.O.>.:.:.:.:.:.:.>.rX    9.:.:.>.:.:.:.:.:.:.:.:.:.:.:.:.:.:.4.  ",
"o a.:.:.>.:.:.:.:.:.:.:.:.:.:.:.:.:.>.>.` : ` :.] ,.{ 2.uXgXuXkXuXaXaXuXdX[.) [ F 6X    4.>.:.:.:.:.:.:.:.:.:.:.:.:.:.:.:.:.4.  ",
"# a.>.O.>.:.:.:.:.:.:.:.:.] >.O.:.:.:.1.D.g.) D [ ] [ y.g.T.T.T.[.R.R.D.l.t.6.6.h.U.z.[ 9.:.:.:.:.:.:.:.:.:.:.:.:.:.:.:.:.:.3.  ",
"# a.>.:.:.:.:.:.:.:.:.:.:.>.:.>.:.:.:.K.M 2.J.x.r.y.y.r.6.J.J.J.x.J.D.l.y.F.y.e.oXuXU.] 5.>.:.>.:.:.:.:.:.:.:.:.:.:.:.:.>.:.4.  ",
"# a.:.:.>.:.:.:.:.:.:.:.:.:.:.:.:.:.>.c ) J.g.6.g.J.K.J.J.F.F.J.J.J. XoXoX{..XR.J.l.D.J.M { :.:.:.:.:.:.:.:.:.:.:.:.:.:.:.>.4.  ",
"@ a.:.:.>.:.:.:.:.:.:.:.:.:.:.:.:.:.:.D.0XR.g.K.F.F.l.l.J.l.J.J.J.U.J.K.J.F.K.F.T.U.( T.Z l :.:.:.:.:.:.:.:.:.:.:.:.:.:.>.:.4.  ",
"o p.>.:.:.:.:.:.:.:.:.:.:.:.:.:.:.:.>.oX6.2.J.b y.5.5.) 2.) J A ) J ) ) y.6.t.2.z M F l r.l :.:.:.:.:.:.:.:.:.:.:.:.:.:.:.:.3.  ",
"@ a.:.:.:.:.:.:.:.:.:.:.:.:.:.:.:.:.:. XwXuX{ v A ) T.T.Y.D.z.l.z.y.l.f.y.t.) m M F e.z.5.x :.:.:.:.:.:.:.:.:.:.:.:.:.:.:.:.4.  ",
"& S.:.:.:.:.:.:.:.:.:.:.:.:.:.:.:.:.:.+XxXcXxXgXgXkXuXgXkXzX:XlXkX*XuXuX0X&XjXeX*X.X}.{.k.n :.:.:.:.:.:.:.:.:.:.:.:.:.:.:.:.>.  ",
"  :.L p.q.q.i.q.i.i.q.i.q.q.i.0.q.q.9..XwXxXxXlXcXbXw.cX7.7.8.8.fX$.$.:.$.$.cXuXyX&X+XU.j.c i.q.q.i.i.w.i.q.p.p.q.i.0.q.0.q.p.  ",
"1 :.` 8X_.).).)._.).).)._._._./././.8X.XfXxXlXlXgXbXC lXk uXsXk lXdXa yXj f.:XeXyXqX}.R.k.v 5X5X)._.).(.).(.(./.).)./.(./.).8X  ",
"1                                     qXkXlXxXxXgXbXB 5.s zXkXC fXdXs dXu K -XeXwX&XXXR.j.v                                   * ",
"2 1.:.9.9.4.9.q.q.4.9.9.4.9.9.9.q.4.1.0XxXxXcXhXxXvX+.K ] O.+.+.lXfXL dXL S fXyXeXqXXX[.j.n 9.9.4.9.9.9.q.4.q.9.9.0.q.4.9.9.n.  ",
"e w.:.>.>.:.>.:.>.>.>.>.>.>.>.>.>.>.:.+XlXlXh hXxX- - sXsX= - kXfXiXuX- $ zXwXcXu 9XOXR.j.n :.<.>.>.>.>.:.>.:.>.>.>.>.>.>.:.0.  ",
"% a.:.:.:.:.:.>.:.:.:.:.:.:.:.:.:.:.:.eXwXlXg C cXk g hXf d 9.d  XsXf f 9.u uXw.u F OXR.j.n >.:.:.:.>.:.:.:.:.:.:.:.:.:.:.>.4.  ",
"% w.:.>.:.:.:.:.:.:.:.:.:.:.:.:.:.:.:.eXfXgXd h 8.d f kXg fXhXV j aXp pXwXOX=Xu XXr }.Y.z.M :.:.:.:.:.:.:.:.:.:.:.:.:.:.:.:.3.  ",
"% a.>.:.:.:.:.:.:.:.:.:.:.:.>.:.:.:.:.0XdXgXg p g hXf kXa fXuXC d sXd :X;X$XqXu |.r }.P.e.n >.:.:.:.:.:.:.:.>.:.:.:.:.:.:.>.4.  ",
"# S.:.:.:.:.:.:.:.:.:.:.:.:.:.:.:.:.:.0XfXxXg :Xj cXg sXf G kXh 3.sXf i *Xs $Xu B r w [.z.n :.:.:.:.:.:.:.:.:.:.:.:.:.:.:.:.4.  ",
"@ a.>.:.>.:.:.:.:.:.:.:.:.:.:.:.:.:.:.0XdXgXg jXxXcXd sX Xf h s aXgXvXu a m u i %Xe y [.k.M :.>.:.:.:.:.:.:.:.:.:.>.:.:.:.:.4.  ",
"@ a.O.:.>.:.:.:.:.:.:.:.:.:.:.:.:.:.>.oXdXlXxX:XlXhXsXsXdX%X].I.].I.iXp ] tX;XXXOX$X{.P.x.M :.:.:.:.:.:.:.:.:.:.:.:.:.:.:.:.4.  ",
"@ a.:.:.:.:.:.:.:.:.:.:.:.>.:.:.:.:.:.oXkXlXgXgXxXgXgXgXaXI. .X.X.' $XsXiXiXiXdX}.*XXXR.j.c :.>.:.:.:.:.:.:.:.:.:.:.:.:.:.:.4.  ",
"o a.:.:.>.:.:.:.:.:.:.:.:.:.:.:.:.:.:.+XeXlXgXgXgXgXgXfXaXpXY  .' 4 R yXiXyX;X@X*X.X.Xx.f.v :.:.:.:.:.:.:.:.:.:.:.:.:.:.:.:.3.  ",
"# a.:.:.>.:.:.:.:.:.:.:.:.:.:.:.:.:.:.0XwXfXgXgXgXfXfXpXiXpXP Y 7 #X3 | uX@X=XwXOX}.{.x.f.H :.>.:.:.:.:.:.:.:.:.:.:.:.:.:.:.4.  ",
"@ a.:.:.:.:.:.:.>.:.:.:.:.:.:.:.:.:.:..XwXdXgXsXxXgXaXiXdXkX4 E P U hX .;X$XyXwX&X|.Y.f.k.J :.:.:.:.:.:.:.:.:.:.:.:.>.:.>.:.4.  ",
"o a.:.:.>.:.:.:.:.:.:.:.:.:.:.:.:.:.:.oXwXfXfXgXfXxXgXaXfXpX5 ~ I.qXP ! dX-X*X=X&XXX}.z.j.D :.>.:.:.:.:.:.:.:.:.:.:.:.:.>.:.3.  ",
"# a.>.:.:.:.:.:.:.:.:.:.:.:.:.:.:.:.:.z.qXgXfXfXxXsXiX;XiXxXE T R b L.U :XqX=X*X*XOXY.x.r.J :.:.:.:.:.:.:.:.:.:.:.:.:.:.:.:.4.  ",
"@ a.>.:.>.:.:.:.:.:.:.:.:.:.:.:.:.:.:.oX&XfXsXgXgXfXgXgX{ ;X' X.~ #X< ;XyX$XwX*X*X.X}.j.r.D :.:.:.:.:.:.:.:.:.:.:.:.:.:.>.:.4.  ",
"@ a.:.:.:.:.:.:.:.:.:.:.:.:.:.:.:.:.:.).*XfXxXfXsXiXaXpX|.U.7 U < x.:X=X=X=X*X$X*X}.Y.}.t.A :.:.:.:.:.:.:.:.:.:.:.:.:.:.:.:.3.  ",
"o a.:.:.>.:.:.:.:.:.:.:.:.:.:.:.:.>.:.;.>Xv.lXfXpXsXfXdX| _ . 0 + qXaXiX;X%X%X$XOX}.%.#.@.H :.:.:.:.:.:.:.:.:.:.:.:.:.:.:.:.4.  ",
"% a.:.:.>.>.:.:.:.:.:.:.:.:.:.:.:.>.O.Z.N.4X4X<X<X~.^.1X' l - q + C.Q.V.m.Q.W.V.m.v.;.*.o.A :.:.:.:.:.:.:.:.:.:.:.:.:.:.:.<.3.  ",
"& w.>.:.:.:.:.) :.:.) O.:.L O.:.:.:.>.>XZ.4X2X,X<X<X>XV.I C.'.;X`.P ^.,Xm.^.Q.V.N.N.c.*.o.H :.:.:.` :.:.:.L O.:.:.:.O.:.:.>.q.  ",
"o :.` H.B.S.n.n.d.n.n.b.n.d.n.G.G.H.p.N.>X~.2X<X<X3X>X%.8 7 #X:X;XL.N.Z.Q.Q.V.Q.m.m.c.8.@.Z G.n.n.n.n.B.n.n.n.n.n.n.H.G.G.H.).  ",
"e                                     N.!.,X>X,X<X^.E.7 ^ 7 pXpX#X$X).E.Q.Q.Q.Q.c.c.-.&.o.Z                                   $ ",
"1 ` ` >.` ` ` :.L :.` :.:.) :.` O.:.` N.A.2X<X2X<X^.^.I W P :X:X`.|.4 E.Q.Q.Q.%.N.-.c.=.o.Z :.:.` ` ` ` L :.) :.) :.:.` :.O.:.e ",
"% ` O.>.>.>.>.>.>.>.>.>.>.>.>.>.>.>.>.-.!.4XQ.M.M.!.7X4 X 6 sX:X:X'.X Z.N.=.;.=.m.c.#.c.` v >.>.>.>.>.>.>.>.>.>.>.>.>.<.>.>.7.  ",
"% n.>.:.:.:.:.>.:.:.:.:.:.:.>.:.:.>.:.&.;.^.,X~.<X~.7X..0 0 aX:X/ I X V.V.m.V.m.M.M.c.-.@.v :.>.:.:.:.:.:.>.:.:.:.:.:.:.>.:.4.  ",
"% w.:.>.:.:.:.:.:.:.:.:.:.:.:.:.:.:.:.N.Q.<X4X>X^.~.7X..0 6 ~ E ~ Y X Q.V.M.V.M.A.c.c.=.=.m +.:.:.:.:.:.:.:.:.:.:.:.:.:.:.>.3.  ",
"* a.>.>.:.:.:.:.:.:.:.:.:.:.:.:.:.:.+.-.V.!.,XW.<XW.^.Q 8 6 R E T 4 n Z.m.m.V.c.c.c.*.#.@.9 O.:.:.:.:.:.:.:.:.:.:.:.:.:.:.:.4.  ",
"$ n.:.:.` >.>.>.` >.` :.:.:.:.:.:.:.n b.m.C.!.Z.>X!.,X~.!.v.7 &.R C.V.V.V.m.N.&.M.M.-.%.G l :.:.:.:.:.:.:.:.>.:.:.:.:.:.:.:.1.  ",
"# w.:.:.>.>.` >.:.>.>.:.:.:.:.:.:.:.:.6.G N.^.!.~.Q.>X>XZ.;.7 @.^ m.V.V.V.=.!.N.m.-.@.m m l :.:.:.:.:.:.:.:.:.:.:.:.:.:.>.:.9.  ",
"o n.:.:.:.` :.:.:.:.:.:.:.:.:.:.:.:.} m ] D.H.;.m.W.!.>XV.6 S N  .9 ;.C.V.m.Z.%.#.S ] M l :.:.>.:.:.:.:.:.:.:.:.:.:.:.:.:.:.4.  ",
"o w.:.:.>.>.:.:.:.:.:.:.:.:.:.:.:.:.:.<.x J g. X[.x.u.` u.s.q.0.B.} %.+.3.1.l.e.6.{ x 2 9.>.:.>.:.:.:.:.:.:.:.:.:.:.:.:.:.:.4.  ",
"@ n.>.>.>.` :.:.:.:.:.:.:.:.:.:.:.:.:.<.` , L m J g.t.6.K.R.R.R.U.{ x 2.[ ] ] n c 6X    4.:.:.:.:.:.>.` >.>.:.:.:.:.:.:.:.:.4.  ",
"o w.O.:.>.>.:.:.:.:.:.:.:.:.:.:.:.:.:.<.L : L <.:.:.:.m 5.J 5.{ 2.A :.:.:.:.:.:.:.6X    9.:.:.:.:.:.>.>.>.` :.:.>.:.:.:.>.:.4.  ",
"o n.>.>.>.>.>.>.:.:.:.:.:.:.:.:.:.:.:.<.L , L <.:.>.:.:.:.:.:.>.:.:.:.:.:.:.:.:.:.6X    9.:.:.:.:.:.:.>.>.:.:.:.:.:.:.:.:.:.3.  ",
"@ w.>.` :.` ` >.:.:.:.:.:.:.>.:.:.:.:.<.` : L <.:.:.>.:.:.:.:.:.:.:.:.:.:.:.:.:.>.6X    9.>.:.>.:.:.:.:.` :.:.:.:.:.:.:.:.:.4.  ",
"# a.:.:.>.:.:.:.:.:.:.:.:.:.:.:.:.:.:.>.L , L >.} >.>.:.:.:.:.:.:.:.:.:.:.:.:.>.>.6X    9.:.:.>.:.>.:.:.:.:.:.:.:.:.:.:.>.:.4.  ",
"# d.:.:.>.:.:.:.:.:.:.:.:.:.:.:.:.:.:.1.L : L 1.:.>.` :.:.:.:.:.:.:.:.:.:.:.:.:.:.8X    9.>.:.:.:.:.:.:.:.:.:.:.:.:.:.:.:.:.4.  ",
"@ p.:.:.>.:.:.:.>.:.:.:.,.:.:.:.:.:.:.1.L 2 L >.:.:.:.:.:.:.:.:.>.:.:.:.:.:.:.>.>.rX    9.>.:.>.:.:.:.:.:.:.:.:.:.:.:.:.:.:.3.  ",
"o a.:.:.:.:.:.:.:.:.:.:.>.:.:.:.:.:.:.>.L : ` >.:.:.>.:.:.:.:.:.:.:.:.:.:.:.:.:.>.6X    1.:.:.:.:.:.:.:.:.:.:.:.:.:.:.:.:.:.3.  ",
"@ a.:.:.:.:.:.:.:.:.:.:.:.` >.:.:.:.:.>.L 2 L >.:.:.:.:.:.:.:.:.:.:.:.:.:.:.:.:.:.rX    4.>.:.:.:.:.:.:.:.:.:.:.:.:.:.:.:.:.3.  ",
"; a.>.:.:.:.>.:.>.:.>.>.>.>.>.:.O.:.:.>.L 2 L 1.>.>.:.>.>.>.>.:.:.:.>.:.:.:.:.:.+.tX    9.:.>.>.:.:.:.>.>.>.:.>.:.:.:.:.:.:.<.  ",
". 7.] s.i.w.p.p.i.i.i.i.p.w.w.q.w.q.9.7.G O O.O.B.i.p.i.i.i.p.i.p.p.i.a.q.i.q.i.a.:.    ) :.p.i.q.i.p.p.p.i.p.p.p.p.q.q.q.a.a.  ",
"* K Z L L K K L K K L K K K K K L L L K v e L H L K L K L K L K L L L K K K K K L K   > L K K K L K K L K L K L K K L L K K L > "
};
