/* XPM */
static char *result[] = {
/* columns rows colors chars-per-pixel */
"64 64 168 2 ",
"   c #000000",
".  c #01020D",
"X  c #08020F",
"o  c #020314",
"O  c #0C0215",
"+  c #060519",
"@  c #0D021A",
"#  c #0C0A1D",
"$  c #110215",
"%  c #10021C",
"&  c #11081F",
"*  c #14141F",
"=  c #0C0722",
"-  c #0E0B24",
";  c #130C22",
":  c #141326",
">  c #1A1326",
",  c #171629",
"<  c #1A162A",
"1  c #1B192C",
"2  c #1E1C32",
"3  c #221B2B",
"4  c #291C29",
"5  c #211E34",
"6  c #291C31",
"7  c #24212F",
"8  c #29202F",
"9  c #242235",
"0  c #2C2335",
"q  c #2B2936",
"w  c #262538",
"e  c #292639",
"r  c #2C2B3D",
"t  c #342634",
"y  c #312B3A",
"u  c #3B2F3E",
"i  c #33323E",
"p  c #38323E",
"a  c #383B3E",
"s  c #2E2C40",
"d  c #312E41",
"f  c #353244",
"g  c #3A3547",
"h  c #3A3845",
"j  c #3B3649",
"k  c #3D394B",
"l  c #483740",
"z  c #453A47",
"x  c #453B4C",
"c  c #4B424D",
"v  c #4A4551",
"b  c #524958",
"n  c #5B4C5D",
"m  c #5C525E",
"M  c #6B4A4C",
"N  c #5B5863",
"B  c #655A69",
"V  c #685D6B",
"C  c #64666D",
"Z  c #7B6265",
"A  c #696F72",
"S  c #6C7175",
"D  c #717476",
"F  c #76767C",
"G  c #78777D",
"H  c #767A7A",
"J  c #7A7C7C",
"K  c #864F55",
"L  c #9B545E",
"P  c #AB5664",
"I  c #A45862",
"U  c #AC5964",
"Y  c #AF5C69",
"T  c #877570",
"R  c #A67B6B",
"E  c #AD7372",
"W  c #7F807F",
"Q  c #B17A80",
"!  c #7F8080",
"~  c #828683",
"^  c #838985",
"/  c #87828B",
"(  c #878E89",
")  c #898E8B",
"_  c #87908A",
"`  c #8B938D",
"'  c #8F8E96",
"]  c #8E9690",
"[  c #8E9A92",
"{  c #919792",
"}  c #929E95",
"|  c #95949A",
" . c #949E98",
".. c #B79583",
"X. c #93A197",
"o. c #94A399",
"O. c #9AA39C",
"+. c #9AAA9F",
"@. c #AFA09F",
"#. c #9E9DA4",
"$. c #9BA7A0",
"%. c #9DADA2",
"&. c #9FB1A5",
"*. c #AFA1A0",
"=. c #A9A6AF",
"-. c #A1B2A5",
";. c #A3B5A9",
":. c #A6B9AB",
">. c #ABBAAF",
",. c #B0AFB5",
"<. c #B2B1B6",
"1. c #BAB7B7",
"2. c #B4B3B9",
"3. c #C69B8C",
"4. c #C69D9D",
"5. c #E5A499",
"6. c #F3A89E",
"7. c #D8AAA5",
"8. c #DBBDAC",
"9. c #F6AFA1",
"0. c #ECB5A2",
"q. c #E0B3AA",
"w. c #F5BBA6",
"e. c #F6BDAB",
"r. c #FBBDAC",
"t. c #E4BBB6",
"y. c #E1BEB9",
"u. c #AFC3B4",
"i. c #B1C4B6",
"p. c #B2C7B8",
"a. c #B5CBBB",
"s. c #B8CCBC",
"d. c #BAD0BE",
"f. c #DCC0BB",
"g. c #F7C1AD",
"h. c #FAC1AE",
"j. c #F4C4B3",
"k. c #FBC3B1",
"l. c #F4C6B8",
"z. c #F9C5B8",
"x. c #F6CABA",
"c. c #F9CCBC",
"v. c #BCD4C1",
"b. c #BDDBC5",
"n. c #CCCDCD",
"m. c #C2D9C7",
"M. c #CCCED4",
"N. c #D2D1D3",
"B. c #D5D4DA",
"V. c #D9DADF",
"C. c #F7CCC1",
"Z. c #FACFC3",
"A. c #FCD4C4",
"S. c #FED4C9",
"D. c #FFD9CF",
"F. c #F4D9D3",
"G. c #FFD8D1",
"H. c #C3E3CA",
"J. c #CBE9D3",
"K. c #FEE3CE",
"L. c #FEE7D5",
"P. c #FFE8D7",
"I. c #FEE7DA",
"U. c #FFE8D8",
"Y. c #DADAE0",
"T. c gray95",
"R. c #FFFAF7",
"E. c #FEFFFF",
/* pixels */
"z u                                   = k c                                       9 k r 0 =                                 , 6 ",
"9 ~ ~ _ ( ( ) ( ( ( ( ( ( ( ( ( _ _ _ ( D y D W ` _ ) _ ( ( ( ( ( ( ( ( ( ( ) ` _ !   ; ~ W ) _ ) ) ( ) ( ( ( ( _ ( ( ( ( ( _   ",
"> >.( ~ ~ ^ ^ ~ ^ ~ ^ ^ ^ ~ ~ ~ W ^ ( _ W q J ( ^ ^ ~ ^ ^ ^ ^ ^ ~ ^ ^ ^ ~ ~ ~ ~ ~ J.    O.^ ~ ~ ~ ~ ^ ~ ~ ^ ~ ^ ~ ~ ~ ~ ~ ~ `   ",
"3 O.~ ~ ~ ~ ~ ^ ~ ~ ~ ~ ~ ~ ~ ^ ~ ~ ~ ^ W q J ~ ~ ~ ~ . . . . o o . . . . ~ ~ ~ ^ H.    ` ~ ~ ~ ~ ~ ^ ~ ~ ~ ^ ~ ~ ^ ~ ^ ^ ^ _   ",
"3 O.~ ~ ~ ~ ~ ~ ~ ~ ~ ~ ~ ~ ~ ~ ~ ~ ~ ( J 0 J ^ ~ ~ o g g g 2 g k k k d 2 o o ~ ~ m.    ` ! ^ ^ ~ ~ ~ ~ ~ ~ ~ ~ ~ ~ ~ ~ ~ ~ `   ",
"1 O.~ ~ ~ ~ ~ ~ ~ ~ ~ ~ ~ ~ ~ ~ ~ ~ ~ ^ J r J o < 3 k g g g e g g g g d 2 e e 9 o o     ` ^ ~ ! ~ ~ ~ ~ ~ ~ ~ ~ ~ ^ ~ ~ ~ ^ _   ",
": O.~ ~ ^ ~ ~ ~ ~ ~ ~ ~ ~ ~ ~ ~ ~ ~ ^ ( W y o j 2 g k g g 9 j g g g k g r r e e r r o   ] ^ ~ ^ ~ ~ ~ ~ ~ ~ ~ ~ ~ ~ ~ ~ ^ ~ `   ",
", O.^ ~ ^ ~ ~ ~ ~ ^ ~ ~ ~ ^ ~ ~ ~ ~ ^ ( J o j j k 2 j g g 5 j j g g j 5 r e r 9 r e e o ] ^ ~ ^ ~ ~ ~ ~ ~ ^ ~ ~ ~ ~ ~ ~ ~ ~ `   ",
": O.~ ~ ^ ~ ~ ~ ~ ~ ~ ~ ~ ~ ~ ~ ~ ~ ^ o o k k 2 k k j j g 2 k g r g j 5 r e e r 2 e e e o ^ ~ ~ ~ ~ ^ ~ ~ ~ ~ ~ ~ ~ ~ ~ ~ ~ _   ",
", O.^ ~ ^ ~ ~ ~ ~ ~ ~ ~ ^ ~ ~ ~ ~ ~ o s y k k 2 @ + + # + + + + @ 9 9 2 r r r e 2 e e e 9 . ~ ^ ~ ~ ~ ~ ~ ~ ~ ~ ~ ~ ~ ~ ^ ~ `   ",
": O.~ ~ ^ ~ ~ ~ ~ ~ ~ ~ ~ ~ ~ ~ ~ X o 9 9 o + 2 k j k f k g g g j j + < 9 w 9 r 2 e r 9 2 o ~ ~ ~ ~ ~ ~ ~ ~ ~ ^ ~ ~ ~ ^ ~ ~ `   ",
": O.~ ~ ^ ~ ~ ~ ~ ~ ~ ~ ~ ~ ~ ~ ~ o w o < j j j j j g 2 k g g g g j j 2 k o + 9 2 e e 5 9 2 o ~ ~ ~ ~ ~ ~ ~ ~ ~ ~ ~ ~ ~ ~ ^ `   ",
", O.~ ~ ~ ~ ~ ~ ~ ~ ~ ~ ~ ~ ^ ~ . o j j , j j j j g j 2 j j g g g 2 j 2 j f j g 2 e r 5 5 2 o ~ ~ ~ ~ ~ ~ ~ ~ ~ ~ ~ ~ ~ ^ ~ `   ",
", O.~ ~ ^ ~ ~ ~ ~ ~ ~ ~ ~ ~ ~ ~ o j j j 2 j j k j j j 2 j j g g j g k g g j g j j 9 5 5 5 5 2 o ~ ~ ~ ~ ~ ~ ~ ~ ~ ~ ~ ~ ~ ~ `   ",
"1 O.~ ~ ~ ~ ~ ~ ~ ~ ~ ~ ~ ~ ~ ~ , j g j j j 9 g j j j 2 f j j j j g k f g g j f j r e 5 5 2 2 o ~ ~ ~ ~ ~ ~ ~ ^ ~ ~ ~ ~ ~ ~ `   ",
": O.~ ~ ~ ~ ~ ~ ~ ~ ~ ~ ~ ~ ~ . k r j j f 9 9 9 @ @ @ @ @ @ @ @ 9 g j j j g g 9 j r r s 5 2 2 o ~ ~ ~ ~ ~ ~ ~ ~ ~ ~ ~ ~ ^ ^ `   ",
": O.! _ ! ! _ ! ~ ~ ~ ~ ~ ~ ~ o k k 9 e 5 % t.y.U.L.L.P.U.C.C.A.c.@ 5 w 9 j g g j r r e 2 @ 2 o a ~ ~ ~ ~ ~ ~ ~ ~ ~ ~ ~ ^ ~ _   ",
", O.! ! _ ! ! _ ~ ^ ~ ~ ^ ~ ~ o j 9 e O $ l.L.L.U.U.U.U.U.U.U.A.k.K.@ @ % e r j j r r 9 2 # 2 2 o ~ ~ ~ ~ ~ ~ ~ ~ ~ ~ ~ ~ ~ `   ",
"4 @.! ! W W ! ! ~ ! ~ ~ ~ ~ W o 9 O F.7.D.L.L.U.U.U.U.U.U.U.L.T Z O 2 e e e r O 5 2 r r r 2 o 5 o ~ W ~ ~ ~ ~ ~ ~ ~ ~ ~ ~ ^ (   ",
"  ^ W o.o.X.o.+.X.X.X.X.X.} X.o 2 @ w w @ l L.L.L.U.L.U.U.L.@ e e w 9 e e e e e 9 2 r e r 2 2 o o X.o.X.X.X.X.o.X.X.[ [ [ } X.  ",
"y ~ W b.d.d.d.a.d.a.a.a.s.d.d.o @ 2 w w e > % % @ @ & @ @ O w q e e e @ % e e e > 5 r r e 5 2 o o d.a.p.a.a.p.p.a.a.i.i.u.s.m.  ",
"t                             X 2 9 @ @ % @ 9 e e e w e e e e % @ @ f.S.c.; e e e & 9 e 5 2 2 o                               6 ",
"h ) W ] ] ` [ [ ] ] ] ] [ ] { o 2 5 I.L.x.x.S.@ e e e e w e @ j.x.L.L.L.L.L.N < 9 0 < 5 2 2 2 o { { ` { { ` { ` [ ] ] ] ] ] $.  ",
"p O.^ ^ ^ ^ ^ ( ^ ^ ^ ^ ^ ^ ^ ^ 2 % L.L.U.L.L.0.@ e w w w @ 3.L.L.L.L.L.L.L.B N e e 2 @ % % % o ^ ^ ^ ^ ^ ^ ( ^ ^ ^ ^ ^ ^ ^ [   ",
"3 O.^ ~ ~ ~ ~ ~ ~ ~ ^ ~ ~ ~ ~ ~ 9 @ U.L.L.L.L.0.b w w w 9 @ 3.L.L.L.L.L.L.x m e 9 e 2 + e.L.L.P ~ ~ ^ ~ ~ ^ ~ ~ ~ ~ ~ ~ ~ ^ `   ",
"3  .~ ~ ~ ~ ~ ~ ~ ~ ~ ~ ~ ~ ~ U e e X e.e.z.% q.9 B V V 5 5 n Z.w.h.j.c./ x e q 2 2 < k.k.R R U ~ ~ ~ ~ ~ ~ ~ ~ ~ ~ ~ ~ ~ ~ _   ",
"3 O.^ ~ ~ ~ ~ ~ ~ ~ ~ ~ ~ ~ ~ U @ w 9 9 + 9 2 $ % $ @ O $ 9 5 + + + + 8 n 0 9 r < l.e.k.r.R U.U ~ ~ ~ ~ ~ ~ ~ ~ ~ ~ ~ ^ ~ ^ `   ",
"< $.^ ~ ^ ~ ~ ~ ~ ~ ~ ~ ~ ~ ~ I r.@ e e @ O Z.w.k.Z.A.L.k.Z.c.@ % e e e w @ O x.g.L.z.x...U.L.U ~ ~ ~ ~ ~ ~ ~ ~ ~ ~ ~ ~ ~ ^ `   ",
", O.~ ~ ~ ~ ~ ~ ~ ~ ~ ~ ~ ~ ~ ~ U h.% @ l.k.L.U.U.l.9.U.U.U.k.L.L.% @ @ @ k.k.L.L.L.k.c.L.L.I.~ ~ ~ ~ ~ ~ ~ ~ ~ ~ ~ ~ ~ ~ ~ `   ",
", O.~ ~ ^ ~ ~ ~ ~ ~ ~ ~ ~ ~ ~ ~ U h.r.k.9.r.U.U.U.U.U.L.U.U.U.L.k.6.r.k.k.h.k.L.L.h.h.Y U Y ^ ~ ~ ~ ~ ~ ~ ~ ~ ~ ~ ~ ~ ~ ~ ~ `   ",
", O.~ ~ ~ ~ ~ ~ ~ ~ ~ ~ ~ ~ ~ ~ Q 5.x.x.x.U.U.U.8.8.8.8.8.U.U.U.U.x.x.x.c.L.L.L.h.z.5 o ` ^ ~ ~ ~ ~ ~ ~ ~ ^ ~ ~ ~ ~ ~ ~ ^ ~ `   ",
": O.~ ~ ^ ~ ~ ~ ~ ~ ~ ~ ~ ~ ~ ~ ~ K L.L.U.U.U.U.L.L.L.L.U.U.U.U.U.L.U.U.U.L.U.g.g.O ,   ` ^ ~ ~ ~ ~ ~ ~ ~ ~ ~ ~ ~ ~ ~ ~ ^ ~ _   ",
", O.~ ~ ^ ~ ~ ~ ~ ~ ~ ~ ~ ~ ~ ~ ~ ~ ^ E L.L.L.L.U.U.U.U.U.U.U.U.U.U.L.L.j.j.h.M o 2     ` ^ ~ ^ ~ ~ ~ ~ ~ ~ ~ ~ ~ ~ ~ ~ ^ ~ `   ",
", O.~ ~ ~ ~ ~ ~ ~ ~ ~ ~ ~ ~ ~ ~ ~ ~ ~ ( U L.L.L.U.U.U.U.U.U.U.U.L.A.A.k.k.k.Y o ^ b.    ` ^ ~ ~ ~ ~ ~ ~ ~ ~ ~ ~ ~ ~ ~ ~ ~ ~ `   ",
": O.~ ~ ^ ~ ~ ~ ~ ~ ~ ~ ~ ~ ~ ~ ^ ~ ~ ^ J 9 W I U Y h.h.k.k.k.k.j.k.O O ~ ~ ~ ~ ^ b.    { ^ ~ ^ ~ ~ ~ ~ ~ ~ ~ ~ ~ ^ ~ ~ ^ ~ `   ",
"1 O.^ ~ ~ ~ ~ ~ ~ ~ ~ ~ ~ ~ ~ ~ ~ ~ ^ ( W q W ^ ~ ^ @ & 7.5.h.h.k.@ % 2 o ~ ~ ~ ^ b.    ] ~ ~ ~ ~ ~ ~ ~ ~ ^ ~ ~ ~ ~ ~ ~ ~ ~ `   ",
", O.~ ~ ^ ~ ~ ~ ~ ~ ~ ~ ~ ^ ~ ~ ~ ~ ~ ^ J r W ^ ~ o r r @ t.z.z.@ , s r r o ~ ~ ~ v.    _ ~ ~ ^ ~ ~ ~ ~ ~ ~ ~ ~ ~ ~ ~ ~ ^ ~ _   ",
", O.~ ~ ^ ~ ~ ~ ~ ^ ~ ~ ~ ~ ~ ~ ~ ~ ~ ( J q W ^ . r r r 2 @ @ % 2 r r r r r o ^ ~ b.    ] ^ ~ ^ ~ ~ ~ ~ ~ ~ ~ ~ ~ ~ ~ ~ ~ ~ `   ",
": O.~ ~ ~ ~ ~ ~ ~ ~ ~ ~ ~ ~ ~ ^ ~ ~ ~ ( J q J . r r r r r r r r r r r r r r e . ~ m.    ] ~ ~ ~ ~ ~ ~ ~ ~ ~ ~ ~ ~ ~ ~ ~ ^ ~ ]   ",
"4 O.~ ~ ~ ^ ~ ~ ~ ~ ~ ~ ~ ~ ~ ^ ~ ^ W ^ J t J ' E.E.E.E.E.E.E.E.E.E.E.E.E.E.E.n.o b.    { ^ ~ ~ ~ ~ ~ ~ ~ ~ ~ ~ ~ ~ ~ ~ ~ ( _   ",
"7 } ( ! ! ~ W W ! ! ! ! ! ! ^ W ~ ~ ~ ` J p e r ! ' | | | | | | | | | | v N f r r a.    _ ( ~ ~ ^ ! ! ! W ~ W ~ ~ W ! ! ^ ! X.  ",
"& ~ ! :.-.&.%.%.+.%.%.+.%.%.%.&.-.;.o.;.S o E.o o r s r s s r r r r r r 9 . r d E.*     ! ~ -.%.%.%.&.%.%.+.+.%.%.%.:.&.&.u.a.  ",
"z .                                       X E.o E.E.E.E.E.E.E.E.E.E.E.E.E.. E.E.2.. g 0             .                 .       2 ",
"p T W ! ~ W W ~ ! ! Q ! ! ! ! ^ W ~ W ~ o s # o M.Y.V.Y.Y.Y.Y.Y.V.Y.Y.Y.V.. g r r r o 1 ! ! ! Q W ~ ! ! T ~ ~ W ~ J ~ T ~ ! ! g ",
"3 ~ ~ ^ ^ ^ ^ ^ ^ ^ ^ ( ^ ^ ~ ( ^ ^ ~ o E.E.# s r r s r r r r r r r r r r o o r q E.E.. ~ J ( ^ ^ ^ ^ ^ ^ ^ ^ ^ ^ ^ ^ ^ ^ ^ ^   ",
"3 O.~ ^ ~ ~ ~ ~ ~ ~ ~ ~ ~ ~ ~ ~ ~ ^ ~ o i E.o E.E.E.E.E.E.E.E.E.E.E.E.E.E.T.o E.E.E.q o ] ^ ~ ~ ^ ~ ^ ~ ~ ^ ~ ~ ~ ~ ^ ^ ~ ^ `   ",
"3  .^ ~ ~ ~ ~ ~ ~ ^ ~ ~ ~ ~ ~ ~ ~ ~ o e r - 2 C D F F G G G F F F G G G G ' o r r r r 9 ` ~ ~ ~ ~ ~ ~ ~ ~ ~ ~ ~ ~ ~ ~ ~ ~ ^ `   ",
"3 O.~ ~ ~ ~ ^ ~ ~ ~ ~ ~ ~ ~ ~ ~ ~ ~ o E.E.o s r r s r r s r r r r r s r r r 2 o h E.E.E.o ~ ~ ~ ~ ~ ~ ~ ~ ~ ~ ~ ~ ~ ~ ~ ~ ^ `   ",
"3 O.~ ! ! ^ ^ ~ ^ ~ ~ ~ ~ ^ ~ ~ W _ R 4.E.o n.E.E.E.E.E.E.E.E.E.E.E.E.E.E.E.n.. E.E.E.1.o ~ ~ ~ ~ ~ ~ ~ ~ ~ ~ ~ ~ ~ ~ ~ ~ ~ `   ",
"1 O.^ ^ ~ ~ ~ ~ ~ ~ ~ ~ ~ ~ ~ ~ W _ ! I L.o B.E.E.E.E.E.E.E.E.E.E.E.E.E.E.E.B.. R.L.U.P ` ^ ~ ^ ~ ~ ~ ~ ~ ~ ~ ~ ~ ~ ~ ~ ^ ~ `   ",
", O.! ^ ^ ~ ~ ~ ~ ~ ~ ~ ~ ~ ~ ~ _ W W L S.o 9 r r r r r r s r r r r r r r r 2 2 * S.G.L ] ~ ~ ~ ~ ~ ~ ~ ~ ~ ~ ~ ^ ~ ~ ~ ^ ~ `   ",
", O.~ ~ ^ ~ ~ ~ ~ ~ ~ ~ ~ ~ ~ ~ ! W _ _ G o N.E.E.E.E.E.E.E.E.E.E.E.E.E.E.E.N.B.3 v.    ] ^ ~ ^ ~ ~ ~ ~ ~ ~ ~ ~ ~ ~ ~ ~ ^ ~ _   ",
", O.~ ~ ~ ~ ~ ~ ~ ~ ~ ~ ~ ~ ~ ^ ! _ ! ` W o =.,.<.<.2.2.2.2.2.2.<.<.<.<.<.#.2 2 o v.    ] ~ ~ ~ ~ ~ ~ ~ ~ ~ ~ ~ ~ ~ ^ ~ ~ ~ _   ",
": O.~ ~ ^ ~ ~ ~ ~ ^ ~ ~ ~ ~ ~ ~ _ ! ! _ W 7 o o o o o o o o o o o o o o o o o o . v.    ] ~ ~ ~ ~ ~ ~ ~ ~ ~ ~ ~ ~ ~ ~ ~ ~ ~ `   ",
": O.^ ~ ^ ~ ~ ~ ~ ~ ~ ~ ~ ~ ~ ~ _ ! ! _ W q o 9 5 2 5 2 2 2 2 2 2 5 5 9 2 5 5 , ^ b.    ] ~ ~ ^ ~ ~ ~ ~ ~ ~ ~ ~ ~ ~ ~ ~ ~ ~ `   ",
", O.^ ~ ~ ~ ~ ~ ~ ~ ~ ~ ~ ~ ~ ~ ! _ ! ! W 7 o 7 5 2 2 5 1 o o o o 5 2 2 2 2 2 , ^ b.    ` ^ ~ ^ ~ ~ ~ ~ ~ ~ ~ ~ ~ ~ ~ ~ ~ ^ `   ",
"1 O.^ ~ ^ ~ ~ ~ ~ ~ ~ ~ ~ ~ ~ ~ ! ! o.! ! a o 7 2 5 2 7 1 # ! ! o 2 2 2 2 2 2 1 ~ b.    ] ^ ~ ~ ~ ~ ~ ~ ~ ~ ~ ~ ~ ~ ~ ~ ^ ~ _   ",
"1 O.~ ~ ^ ~ ~ ~ ~ ~ ~ ~ ~ ~ ~ ~ ! ! ! ! W a . 7 5 5 5 7 1 [ ! ! ! o 2 2 2 5 2 , ^ b.    ` ^ ~ ^ ~ ~ ~ ~ ~ ~ ~ ~ ~ ~ ~ ~ ~ ~ `   ",
": O.~ ~ ~ ~ ~ ~ ~ ~ ~ ^ ~ ~ ~ ~ ! ! ! ! W a o -.@.@.v v o W ! [ ^ o *.*.*.*.v o ^ H.    ] ~ ~ ~ ~ ~ ~ ~ ~ ~ ~ ~ ~ ~ ^ ~ ^ ~ `   ",
": o.~ ~ ^ ~ ~ ~ ~ ~ ~ ~ ~ ~ ~ ~ o.! ! ! W 9 o o o o o o # ! ! ! ^ ~ o o o o o o ^ b.    ` ~ ~ ^ ~ ^ ~ ~ ~ ~ ~ ~ ~ ~ ~ ~ ^ ~ _   ",
"> O.^ ~ ~ ~ ~ ~ ~ ~ ~ ^ ~ ~ ~ ~ ! ! ! X.W i W ! ! W ! _ ! ! ! ! ! ( ( ! ~ ~ ^ ~ ~ H.    ` ^ ~ ~ ~ ~ ~ ~ ^ ~ ~ ~ ~ ~ ~ ~ ~ ^ _   ",
"8 X.^ ~ ^ ~ ~ ^ ~ ^ ^ ^ ~ ~ ~ ~ ! ! ! ! W a W ! _ _ ! W ! ! [ ! ! ! ^ ! ! ~ ^ ! ^ J.    ` ~ ^ ^ ~ ^ ~ ^ ^ ^ ^ ~ ~ ^ ~ ~ ~ W ^   ",
"# ^ W O.X.X.o.X.X.X.X.X.X.X.o.X.! o.X.! A * W W %.[ +.o.X.X.X.X.+.o.X.o.[ X.[ o.O.~     W W o.X.} X.X.o.o.X.o.o.X.o.} X.} o.O.  ",
"0 J C W J H J J H H H H J H J J W W W W N a W A W W W W H H W H W W J J J J J H J H   t J H H J H J H J H J H H G J J J G H J r "
};
