/* XPM */
static char *result[] = {
/* columns rows colors chars-per-pixel */
"64 64 120 2 ",
"   c #010101",
".  c #0B0B0B",
"X  c #0F091D",
"o  c #131313",
"O  c #1C1C1C",
"+  c #0D0926",
"@  c #130C22",
"#  c #150F29",
"$  c #141326",
"%  c #191325",
"&  c #171528",
"*  c #1A1729",
"=  c #1B192A",
"-  c #1B1830",
";  c #231B2B",
":  c #291C29",
">  c #291C31",
",  c #222222",
"<  c #24212F",
"1  c #29202F",
"2  c #2D2D2D",
"3  c #242332",
"4  c #2C2536",
"5  c #2C2A37",
"6  c #272539",
"7  c #2E253A",
"8  c #2D2D3A",
"9  c #362535",
"0  c #312B37",
"q  c #322C3A",
"w  c #3B2F3E",
"e  c #2F303C",
"r  c #333333",
"t  c #33323D",
"y  c #39313E",
"u  c #3C3C3C",
"i  c #353040",
"p  c #3C3444",
"a  c #3E3D4C",
"s  c #443544",
"d  c #453A47",
"f  c #444444",
"g  c #4C4C4C",
"h  c #534B52",
"j  c #535353",
"k  c #5C5C5C",
"l  c #545661",
"z  c #636363",
"x  c #60646B",
"c  c #6B6B6B",
"v  c #696F72",
"b  c #6D7175",
"n  c #727373",
"m  c #737778",
"M  c #767A7A",
"N  c #7B7D7C",
"B  c #810301",
"V  c #910000",
"C  c #F40407",
"Z  c #975654",
"A  c #7F807F",
"S  c #7F8080",
"D  c #828683",
"F  c #838985",
"G  c #878D89",
"H  c #8A8D8B",
"J  c #87908A",
"K  c #8B938D",
"L  c #8E9690",
"P  c #8F9A92",
"I  c #929292",
"U  c #929E95",
"Y  c #949E98",
"T  c #9C9C9C",
"R  c #B09E9A",
"E  c #B89899",
"W  c #93A197",
"Q  c #94A399",
"!  c #9AA39C",
"~  c #9AAA9F",
"^  c #9BA7A0",
"/  c #9DADA1",
"(  c #9FB1A5",
")  c #A3A3A3",
"_  c #A0A8A2",
"`  c #ABABAB",
"'  c #BAA8A9",
"]  c #A0B2A5",
"[  c #A3B5A9",
"{  c #A6B9AB",
"}  c #ABBAAF",
"|  c #B4B4B4",
" . c #BCBBBB",
".. c #D99F9E",
"X. c #F3A19F",
"o. c #C9A7A6",
"O. c #DBBDBD",
"+. c #AFC3B4",
"@. c #B1C5B6",
"#. c #B2C7B8",
"$. c #B5CBBB",
"%. c #B9CDBC",
"&. c #BAD0BF",
"*. c #BCCEC0",
"=. c #BED5C2",
"-. c #BEDCC5",
";. c #BFE0C7",
":. c #C1C1C1",
">. c #CACACA",
",. c #C1D5C7",
"<. c #C1DCC6",
"1. c #D4D4D4",
"2. c #DBDBDB",
"3. c #C3E2CA",
"4. c #CBE9D3",
"5. c #ECDBE1",
"6. c #E4E4E4",
"7. c #ECECEC",
"8. c #F4F4F4",
"9. c #FDFDFD",
/* pixels */
"d w                                   X a f                                       3 p 7 3 +                                 $ > ",
"3 D D J G G G G G G G G G G G G J P J J m q m S J J G H G J G G G G G G G G K J K S   $ S D G H G H G G G G G G G G G G G G J   ",
"% } G D D F D F D D D D D F D D A A J J A 5 N F F D D F F D F D D F D F D D D D D 4.    ^ F D D D F F D D F F F F F D D F S L   ",
"; ! D D D D D D D F F D D D D D J A A A N 5 N F D D D D D D D D D D D D D D D D F <.    K F D F D D D D D D D D D D D D D D K   ",
"; ! F D D D D D D D D D D D D D A F A J A 3 A F D D D F S F D D D D D D D D D D D <.    J F D D D D D D D D D D D D D D D D K   ",
"= ! D D D D D D D D D D D D D D J S J J A 5 A J F S F F D D D D D D D D D D D D F -.    L D D D D D D D D D D D D D D D D F K   ",
"$ ! D D F D D D D D D D D D D D J A S J A 5 A S F D S S D D D D D D D D D D D D D =.    L F D F D D D D D D D D D D D D D D J   ",
"& ! D D F D D D D D D D D D D D S J S S A 8 A F D D F F D D D D D D D D D D D D D -.    K F D F D D D D D D D D D D D D D D K   ",
"$ Q D D F D D D D D D D D D D D D D F G N 5 A F D D D D D D D D D D D D D D D D D ;.    K F D D D D D D D D D D D D D D D D K   ",
"* ! D D D D D D D D D D D D D D D D D G N 8 A F D D D D D D D D D D D D D D D F F ;.    I F D D D D D D D D D D D D D D F D K   ",
"$ ! D D F D F D D D F D D D D D D D D G N 8 N F D D D D D D D D D D D D D D D D F -.    K F D F D D D D D D D D D D D F D D K   ",
"$ ! D D F D D D D D D D D D D F D D D F N 3 A D D D D D D D D D D D D D D D D F D -.    J F D D D D F D D D D D D D D D D D K   ",
"* ! D D D D D D D D D D D D 2         2 A 3 A F D D D D D D D D D D D D D D D D F -.    K D D D D D D D D D D D D F D D D D K   ",
"& ! D D D D D D D D D D D O           . O 3 A F D D D D D D D D D D D D D D D D F -.    K F D F D D D D D D F D D D D D D D K   ",
"= ! D D D F D D F D D D F .   2 M m U z o < A F u f u u f D D D D F D D D D D F D 3.    K D D D D D D D D D D D D D D D F D K   ",
"$ ! F D D D D D D D F D D .   r I  .6._ f 8 A F u u u u u D D D D D D D D D D D D -.    I F D F D D D D D D D D D D D D D D K   ",
"$ ! D D D D D D D D D D D o .   .  . .1.7.o . f 9.9.9.9.9.: j D D D D D D D D F D -.    K F D F D F D D D D D D D D D D D D K   ",
"$ ! D D F D D D D D D D D D 2   .  .O.1.7.o } 2.:.:.:.:.:.6.n 2 D D D D D D D D D -.    K F D F D D D D D D D D D D D D F D K   ",
": / D D A D D D D D D D D D D g . j ) >.1.L b S :.:.:.:.:.1.| H k D D D D D D D D 3.    I F D S D D D A D D D D D D D D D F F   ",
"  D N ! W U U U W W U W W U W k   o m ` :.9.u 2 :.:.:. .:.:.2.2.2 W Q Q P P P Q U D     S A W U U Q Q W W U W Q U W P P P U U   ",
"q D D =.&.$.$.$.&.$.$.$.%.&.&.@.. M ; g :.8.f 0 |  .*.:.:.:.:.:.8., k %.@.#.+.<.*.G 6 # D H *.=.%.&.#.#.$.$.$.@.$.%.+.@.+.%.,.  ",
"9                             j . A O f :.:.2.| O ` :.:.:.:.:.:.:.6.D f             w s                                       > ",
"p H S L I K K U P K P K L L L K . M g g z  .I z . | :.:.:.:. .:.:.2.` N f L L L Y G *   F D L L K K U I P K U K L L P L L L !   ",
"t ! D G F D F F F F F F F F F F . N D j O I , . = |  .:.:.:.:.:.:.:.1.1.2 F D D G /     K G F F F F D F F F F F F F F F F F P   ",
"* ! D D D D D D D D D D D D D D . N Z S b .   2 @.O. .#.:.:.:.:.:.:.:.>.9.r g F F <.    K D D F D D D D D D D F D D D D D F K   ",
"; ! D F D D D D D D D D D D F D . M 2 a A v v k O } :.:.:. .:.:.:.:.:.:.:.1.T 0 D =.    K D D D D D D D D D D D D D D D D D K   ",
"; ! F D D D D D D D D F D D F D . A , O f A S S f l T :.:.:.O.%.:.:.I k z N j . j -.    K D D D F D D D D D D D D D D D D D K   ",
"* ~ D D D D D D D D D D D D D D . A O . $ x S S M o c ` :.` ^ ` ` ) z O O O O o   3.    L D D D D D F D D D D D D D D D D D K   ",
"& ! D D D D D D D D D D D D D D . A O f } o k Z Z S 2 2 #.O         M 8.9.8.9.6.  -.    K D D D D D D D D D D D D D D D F D K   ",
"& ! D D F D D D D D D D D D D D   A , O u N u u S S x g u ! | | | | :.1.1.1.6.7.. 3.    L D D D D D F D D D D D D D D D D D K   ",
"& ! D D D D D D D D D D D F D D . A O   . ` z f l A A z   >.O...X.5.1.:.:.:.1.7.  -.    K F D F D D D D D D D D D D D D F D J   ",
"$ ! D D F D D D D D D D D D D D . A O   O | | F $ v A k   ` Z V C o.:.#.O.:.2.7.. 3.    K F D D D D D D D D D D D D D D D D J   ",
"* ~ D D D D D D D D D D D D D c . A , f | *.r 2 ` o j z   ` Z B B ' %.O. .%.1.7.. -.    K D D D D D D D D D D D D D D D F D K   ",
"$ ! D D D D D D D D D D D D D c . S v j 5 } 2 2  .. g z   ` ` E R  .n , = , , 2   -.    K F D F D D D D D D D F D D D D D D K   ",
"$ ! D D F D F D D D D D D D D z . A S x 2 n j x | . j z   ` :.:. .A c k k z l k . -.    I F F F D D D D D D D D D D D D D D K   ",
"= ! D D F D D D D D D D D D D z   v S Z M o S +. .. h x   ` *.*.` = A 9.9.9.9.7.o -.    K F D D D D D D D D D D D D D D F D K   ",
"$ ! D D D D D D D D D D D D D z   . z A S S 6 r  .. j z   ` :.{ o T  .*.:.8.9.9.7.d z   K F D D D D D D D D D D D D D D D D J   ",
"= ! D D D D D D F D D D D D D D u   , g S S l g f   j z   ` Z l n |  .:.O.,.6.8.c o 2 c c c z D D D D D D D D D D D D D F D K   ",
"$ ! D D D F D D D D D D D D D D F u o , z Z N c O   g z   ` j o :.:.:.:.:.:.:.| 2 2 2 2 2 2 j D D D D D D D D D D D D D D D K   ",
": ! S D D D D D D F D D D D D D S S f .   n N D M . j z   } j o  . .:.:.:. .m . | |  . .|  .F . F D D D D D D D D D D D D G J   ",
"< Y S S S S S S D A D S S D D D S J D f   . z A S v M z   ` k . D | :.:.O.3 f ^ o . . . . . u ` , j S S S S S S S D D D D F P   ",
"@ D S +.{ ( ( ( ~ / ! ~ / ~ / ( { ( Q [ b o O r S S S x   ` j . S I ) ` u M c u k k k k k k h u A z k ( ( / ( ( ~ ( [ ( ] } %.  ",
"p     .     .                             u . o v S Z z   ` k O c N T I   D c O I I H H H D k . ` g f       . .               - ",
"y D Z S S S S S N D A A S S A D A S S D m h f . . S S z   ` T n . c M c     r H 9.9.5.*. .I k   ` g f S S S Z D A D A D S D D i ",
"* S A G J J F F F F F G D G F F F F D S b q m N   . j z   ] +.+.c o f z . k ) 8.9.9.9.8.:.I k . ` g f F F F F F F F F G F F G   ",
"; ~ F S F S D D D D D D D D D D D F D F A t N H z . , r   ` $.+.T d f r   z ` 9.9.9.9.9.:.I j . ` g f F D D D D F D D D D D K   ",
"; ! D F D D D D D D D D D D D F D D D G N 0 N F D r o     I ( ~ ) n h ,   j ) 9.9.9.9.9.:.I k . ` g f F D D D D D D D D D D K   ",
"; ! F F D D D D D D D D D D D D D D D G A 0 N G D D j       o o     z D .   k 9.9.9.9.9.:.I k . ` g f S D D D D D D D D D D K   ",
"= ! F D S F D D D D D D D D D D S S S S A f S S S S S S A J A A D D D D . F m 2 9.9.6.O.H r u ) %.h f D D D D D D D F D D D H   ",
"= ! F D F F D D D D D D D D D D S S S Q A r S S S S S W A J A J D D D D c c z j K L S c g g c  .n v c D D F D D F D D D D D K   ",
"& ! D D F S D D D D D D D D D D S W S W A 2 A S S S S S J A A A D D D D D f g _ o o o o . H  .) , D D D D D D D D D D D D D K   ",
"$ ! D D F D D D D D D D D D D D S S S S A e A S S S W S A A J J D D D D D D c o | | |  .|  .H o F D D D D D D D D D D D D D K   ",
"& ! D D D D D D D D F D D D D D P S S S A e A S S W S P A A A A D D D D D D D D , = O O O O g D D D D D D D D D D D D D D D K   ",
"$ ! D D F D D D D D D D D F D D S S S W A 3 A J S S A A P A A P D D D D D D D F O o o o O o g D D D D D D D F D D D D D F D K   ",
"$ ! F D F F D D D D D D D D D D S S S S A 2 A A S A S P A A P A D D D D D D D D D -.    K F D D D D D D D D D D D D D D D D K   ",
"* ! D D S F D D D D D D D D D D P S S S A 3 A J S W S S A A A A F D D D D D D D F -.    K F D F D D D D D D D D D D D D D D K   ",
"* Q F D F F F A D D D D D D D D D D D J A 8 A A A F A F D D D D D D D D D F D D F -.    K F D D D D D D D D D D D D D D F D K   ",
"= ~ D F F A F F D D D D D D D D D D D F M < A F F F F A D D D D D D D D D D D D F -.    K D D F D D D D D D D D D D D D F D K   ",
"% Q F A A F F F D D D D D D F D D D D J A t A F F A F F D D D D D D D D F D D D F 3.    I D D D D D D D D D D D D D D D D D J   ",
"$ ! F A F F A F D D F D D D D D D D D G M 3 A F F F A D F D D F D D D D D D D D F =.    K F D F D D D D D D D D D D D D F D J   ",
"$ ! D D F D D F D D D D D D D D F F D F A 8 A F F A F F D D D F D D D D D D D D D 3.    K F D D D D D D F D D D D D D F D D K   ",
"1 ! F D F A F A D F F D F F D D S S S F M r A J F F A F F F F A F D F D D D D D F 4.    K D F D F D F F F S F F F F S D D S F   ",
"X F A ~ U W W W Q W Q W Q W Q W W W P L v % A A / U Q Q W Q Q W W Q W W U U P Q ! D     D A Q W W Q Q Q Q W Q Q Q Q P Q U Q !   ",
"4 N x N M A M A M M M M M M N M N M M M k t A v A A m A M m A M M A N N N N M M N M   7 M M N M M M M M M A M M M M N M N M N 7 "
};
