/* XPM */
static char *wall421762471569[] = {
/* columns rows colors chars-per-pixel */
"64 64 46 1 ",
"  c black",
". c #060606",
"X c gray3",
"o c #0C0C0C",
"O c gray9",
"+ c #181818",
"@ c #1D1D1D",
"# c #222222",
"$ c #252525",
"% c #282828",
"& c #2D2D2D",
"* c #3A3A3A",
"= c #414141",
"- c gray28",
"; c #585858",
": c gray36",
"> c gray39",
", c #646464",
"< c #767676",
"1 c gray50",
"2 c #838383",
"3 c gray52",
"4 c #8D8D8D",
"5 c #929292",
"6 c #959595",
"7 c #9D9D9D",
"8 c #A0A0A0",
"9 c #A5A5A5",
"0 c #AAAAAA",
"q c #AFAFAF",
"w c #B4B4B4",
"e c gray73",
"r c gray80",
"t c LightGray",
"y c gray83",
"u c gray85",
"i c gainsboro",
"p c #E1E1E1",
"a c #E7E7E7",
"s c gray92",
"d c #EEEEEE",
"f c gray94",
"g c gray96",
"h c #FBFBFB",
"j c #FCFBFC",
"k c white",
/* pixels */
"     s                                                        k ",
"                                                                ",
"                                                     <.         ",
"                                             ..                 ",
" .:                                          jk X               ",
"  X                .                 k       kk  .              ",
"                                              .                 ",
"                            X+               .                  ",
"                             5       .                          ",
"                                                   ,            ",
"$@.    k                     ..                             1   ",
"                                        .           .       1X  ",
"                                                                ",
"                                                 o .            ",
"                                                        O       ",
"                                                                ",
"                             >        .                         ",
"                            22223,     >                        ",
"               +  khkkkk<  rkkkhk kkkkkk                        ",
"                 hkhkkg1    kkkg  kkkkkk                     .  ",
"                1kkhkk4     hkk   kkkkkk     X             .#   ",
"                kkkkh6      kk    kkkkkk     XX             O   ",
"               hkkhk9       k     kkkkkk                        ",
"              hkkhkw              kkkkkk      .                 ",
"             hhkkgw              hkhkkk>    k                  .",
"           fkhkhk               kkkkkh       p          .       ",
"          akkkkkr             Xghkkkk                           ",
"         pkkkkku              kkkkkk                            ",
"         gkkkgi              kkkkkk                             ",
"        kkkkki              hkhkkk                .  o+.        ",
"     t kkhkkkkkkkkkkkkkkk   khkkkh    .5 .           8kk.       ",
"     i kkkkkkkkkkkkkkkkkk   kkkkkk    8g         .    kd.       ",
"     k.kkkkkkkkkkkkkkkkkk   kkkkkk   1kh             .          ",
"    kkhkkkkkkkkkhkhkkkkkk   kkkkkh  kkkk               .     .  ",
"    -i*kkkkkkkkkkkkkkkkkk#  kkkkkg hkkkk             .   .      ",
"     i             kkkkkk   kkkkkhkkgkkk                        ",
"   .               kkkkkk      >                       .        ",
"    .              kkkkkk      0         O          9           ",
"   6               kkkkkk    . .           .                  X ",
"                   kkkkkk  O                X                   ",
"   @               kkkkkk         5y                            ",
"  o                         =  f  hk t k <Xk g 0 k 3 h k      . ",
"                                s 9h   k rg0h 1h k   ; e       .",
"                            =  hhk 0 khu k  q k0he9h kgh        ",
"                  %                                             ",
"                                                .               ",
"           k                               X  .                 ",
"                                                      @         ",
"                        O                             .         ",
"                                                                ",
"                                                           7    ",
"                         .                                 .    ",
"X                              .            .  df               ",
"@                k           <             .o                   ",
"  .              O                                       O      ",
"            +.       X                                          ",
"            +                                                 o ",
"                   .X                               X           ",
"                   &o                              Xh$          ",
"               .  .                                   .         ",
"                              .                            .    ",
"                                                                ",
"           O                        .                           ",
"                                                                "
};
