/* XPM */
static char *wall1762470882[] = {
/* columns rows colors chars-per-pixel */
"64 64 89 1 ",
"  c black",
". c #010101",
"X c #020202",
"o c gray1",
"O c gray2",
"+ c #060606",
"@ c #070707",
"# c gray3",
"$ c #090909",
"% c gray4",
"& c #0C0C0C",
"* c gray5",
"= c gray8",
"- c #151515",
"; c #161616",
": c gray9",
"> c #181818",
", c #1B1B1B",
"< c #1D1D1D",
"1 c #222222",
"2 c #232323",
"3 c gray14",
"4 c #252525",
"5 c #282828",
"6 c #2D2D2D",
"7 c gray21",
"8 c #3A3A3A",
"9 c gray28",
"0 c gray32",
"q c gray33",
"w c gray36",
"e c gray37",
"r c #5F5F5F",
"t c #646464",
"y c #6F6F6F",
"u c #727272",
"i c #767676",
"p c gray49",
"a c gray50",
"s c gray55",
"d c #8E8E8E",
"f c #939393",
"g c gray59",
"h c #9D9D9D",
"j c #A0A0A0",
"k c #A2A2A2",
"l c #A5A5A5",
"z c gray65",
"x c #A9A9A9",
"c c gray67",
"v c #AFAFAF",
"b c #B2B2B2",
"n c #C1C1C1",
"m c gray77",
"M c #CECECE",
"N c gray81",
"B c gray82",
"V c #D2D2D2",
"C c gray83",
"Z c #D5D5D5",
"A c gray84",
"S c #D7D7D7",
"D c gray85",
"F c #DADADA",
"G c gray86",
"H c gainsboro",
"J c #DDDDDD",
"K c gray87",
"L c #E1E1E1",
"P c #E4E4E4",
"I c gray90",
"U c #EAEAEA",
"Y c gray92",
"T c #ECECEC",
"R c #EEEEEE",
"E c #EFEFEF",
"W c gray94",
"Q c #F4F4F4",
"! c gray97",
"~ c #F8F8F8",
"^ c #F9F9F9",
"/ c gray98",
"( c #FBFBFB",
") c #FCFBFC",
"_ c gray99",
"` c #FDFDFD",
"' c #FEFEFE",
"] c white",
"[ c None",
/* pixels */
"     U                                                        ] ",
"                                                                ",
"                            +                 o      io         ",
"                                            + +                 ",
" +w                                          (] #               ",
"  #                                  ]       ]]  o              ",
"                                              +                 ",
"                            #>               o   o              ",
"   +                        +s +     +      +                   ",
"                                                   t            ",
"4<     ]                                                   +a   ",
"                                                    +       a+  ",
"                                                                ",
"                                                 & +            ",
"              ]](](   ]](]J]]]]                         :       ",
"             ]]]]]   []]] J]]]]                                 ",
"            ]]]]]     ]]  J]]]]       #                         ",
"           ((](]      (   J]]]]                                 ",
"          (]]](>          I]]]]M8    +                          ",
"         T]]]]           z(]]]U    4                         +  ",
"        U]]]]           s]]]][               #             +1   ",
"       P(]]]           []]]][t               ##             :   ",
"      I(]]]         # []]](                                     ",
"     [(]]]MZVVZDDDDM  (]]][                                     ",
"     []]]]]]]]]]]]]]  ]]]][   ]             ] +                +",
"     []]]]]]]]]]]]](  ]]]][  ]]            + J          +       ",
"     a]]]]]]]]]]]]]( []]]][ ]]]+                                ",
"     [[[[[[[   ]]]]] []]]][]](]b   +                            ",
"               ]]]]]                                   +        ",
"               (]]]]                  +              &>+        ",
"     V         (]]]]                               + j]]+       ",
"     D         ]]]](       z              +           ]T+       ",
"     ]+                 T  ][[b i  Q xu  ] ]         +++        ",
"    ]](                  ]]Z[ g I[mm qU0 ] (              +     ",
"   +9J8+               +[4   [  [    [ [[ [            +     +  ",
"     D                                                          ",
"                               w                                ",
"                         +     v         :          z           ",
"   g+                          +         +   +                + ",
"                           :   +            +                   ",
"   <                                          +                 ",
"  #                                  ]                        + ",
"  +                                                            +",
"                                                                ",
"                  5                                             ",
"                                                #               ",
"           ]                               #+                   ",
"                                                      <         ",
"                        :                             #         ",
"                                                                ",
"                                                           h+   ",
"                         +                                      ",
"#                             +             +  TW               ",
"<                ]           u             +&                   ",
"  +              :                                       :      ",
"            >+       #                                          ",
"            >                                                 & ",
"                   +#                               +           ",
"                   7&                              #(4 +        ",
"               +                                                ",
"                              +                      +          ",
"                                                                ",
"           :                         +                          ",
"                                                                "
};
