/* XPM */
static char *result[] = {
/* columns rows colors chars-per-pixel */
"64 64 67 1 ",
"  c black",
". c #010101",
"X c #020202",
"o c gray1",
"O c gray2",
"+ c #060606",
"@ c #070707",
"# c gray3",
"$ c #090909",
"% c gray4",
"& c #0C0C0C",
"* c gray5",
"= c gray8",
"- c #151515",
"; c #161616",
": c gray9",
"> c #181818",
", c #1B1B1B",
"< c #1D1D1D",
"1 c #222222",
"2 c #232323",
"3 c gray14",
"4 c #252525",
"5 c #282828",
"6 c #2D2D2D",
"7 c gray19",
"8 c gray21",
"9 c #3A3A3A",
"0 c gray28",
"q c #4E4E4E",
"w c #535353",
"e c gray36",
"r c gray37",
"t c #5F5F5F",
"y c #626262",
"u c #646464",
"i c #6F6F6F",
"p c #767676",
"a c gray49",
"s c #8E8E8E",
"d c #939393",
"f c #9D9D9D",
"g c #A0A0A0",
"h c #A2A2A2",
"j c gray67",
"k c #B2B2B2",
"l c #C8C8C8",
"z c gray79",
"x c #CBCBCB",
"c c #CECECE",
"v c #D2D2D2",
"b c gray85",
"n c gainsboro",
"m c #DDDDDD",
"M c gray87",
"N c gray90",
"B c gray92",
"V c #ECECEC",
"C c #EEEEEE",
"Z c #EFEFEF",
"A c #F6F6F6",
"S c gray97",
"D c #F8F8F8",
"F c #FCFBFC",
"G c #FDFDFD",
"H c #FEFEFE",
"J c white",
/* pixels */
"     N                                                        J ",
"     .                                                          ",
"     .                      .                 X.     p..        ",
"                                            XXo...              ",
" +e                 .                        FJ $.              ",
"  @                .                 H       JH  .              ",
"                                      ...   .XX...              ",
"  ....                      #>..      ...   .XX ..              ",
"  ....                      os..     X  .   ..  ..              ",
"...                 .       .  .        X          u.           ",
"2,.    J.                   ....        .           .      oa   ",
"  .                         ....        .          ..       a+  ",
"                                                 ....       .   ",
"                                                .%...       ..  ",
"                                                        :       ",
"       X.              .     o                         .        ",
"                       .    .t..      +              ...        ",
"                            7l X......                       .  ",
"...            >          .xzHAc8X ...                          ",
"  .           X           XX%GB    2..                       .  ",
"                             y..             $             X1   ",
"                             r .             #@            .=.  ",
"                    $ ..       .             ..            ...  ",
"                               .             ..                 ",
"                   ..                      .J..                X",
"                   ..                      .XM.         O.     .",
"                              @O                       . o      ",
"                              wk   o                            ",
"                              XX   .....              Xo        ",
"                                      .. ..      .X  *>o...     ",
"     v         X..                    .. .       ....gJG...     ",
"     bX        ...                    ......     .... JCXX.     ",
"     JO                                              ooo .....  ",
"  . JJDX.                                      .     . o...  .  ",
"  .X0m9..              Oq3                           ......  .  ",
"   ..n                  ...                          ...        ",
"   ...                  ..     t                     ...        ",
"   ...                  ..     j         =..        h...        ",
"  .d..                       ..+         ......               @ ",
"    ..                     =. ..          ..@ .               ..",
"   <..                     .  ..          ..  .X              ..",
"  %                                  J                        X ",
" .X.                                                           +",
"  .                                                             ",
"                  5                             .               ",
"                                     .       ...+               ",
"          .H                         .     $.....               ",
"          .             .                             , ...     ",
"          ..            ;.                            +         ",
"                         .                                      ",
"                         .                                 f..  ",
"                         o                                .X    ",
"O..              o           ...           XX  VZ               ",
"<..              J           i..           O%  .X               ",
" ..              =           ...           . . .         =.     ",
"            >X       +                                        ..",
"            >        .                                        * ",
"                   o#...                            O...      ..",
"              .    6&                              #S4..        ",
"               O...                                .....        ",
"                .....         O                    .....   .    ",
"                                    .                           ",
"          .-                        ..                          ",
"       .                             .        .                 "
};
