/* XPM */
static char *floor1762391188[] = {
/* columns rows colors chars-per-pixel */
"64 64 84 1 ",
"  c #605D5A",
". c #6F6357",
"X c #65615F",
"o c #706355",
"O c #73665B",
"+ c #75695D",
"@ c #786C5F",
"# c #676361",
"$ c #6A6764",
"% c #6C6966",
"& c #6D6B69",
"* c #776C60",
"= c #7A6E61",
"- c #716E6C",
"; c #7C7064",
": c #73716E",
"> c #7C746A",
", c #757471",
"< c #797673",
"1 c #7B7976",
"2 c #7E7B79",
"3 c #81766A",
"4 c #85796A",
"5 c #817E7C",
"6 c #878075",
"7 c #8B8276",
"8 c #84817E",
"9 c #8D857A",
"0 c #91867B",
"q c #938A7E",
"w c #868381",
"e c #898684",
"r c #8C8986",
"t c #8D8C89",
"y c #958C83",
"u c #918E8C",
"i c #969087",
"p c #9A9087",
"a c #93918E",
"s c #9C938A",
"d c #9E988F",
"f c #969492",
"g c #999694",
"h c #9B9995",
"j c #9E9C9A",
"k c #A1958B",
"l c #A39B8E",
"z c #A39D94",
"x c #A89F95",
"c c #A29E9C",
"v c #A99F98",
"b c #A6A096",
"n c #AAA295",
"m c #A4A19D",
"M c #ACA49B",
"N c #B0A79D",
"B c #B1AB9F",
"V c #A6A4A2",
"C c #A9A6A4",
"Z c #ABA9A6",
"A c #AEACA9",
"S c #B3ACA3",
"D c #B8AEA7",
"F c #B1AEAC",
"G c #B9AFA8",
"H c #B8B0A7",
"J c #B3B1AE",
"K c #BAB4AD",
"L c #BDB8AE",
"P c #B6B4B1",
"I c #B9B6B3",
"U c #BBB9B6",
"Y c #BEBCB9",
"T c #C2BBB4",
"R c #C1BEBC",
"E c #C3C1BE",
"W c #CAC2BB",
"Q c #C6C4C1",
"! c #C9C6C3",
"~ c #CBC9C6",
"^ c #CECBC9",
"/ c #D0C8C3",
"( c #D1CECC",
") c #D2D0CD",
/* pixels */
":$ #fFScue5weee5,----%%%%%%%%%-&---<55w522&&&&&&&&&&&&&&,,,,,,,#",
"<%X$gFZcurweuuu922<<<----,,,,<<<,<<2weww2,2,&,,,&&&&,&,2,22,2,,#",
"u815CRUFmcccVCVcuuuuuuuuuuuggggggggggjjgjfufuftuttttufffjjffguw#",
"cguuJ!EYPFFPTIIFCCvCCCCCCDCDFIIIIIFAFFFFAAVVVVVVVVVVVVAAAAAPDvu-",
"FCmmU~~!QQQ!~~~RIIIIRRRRR!!!/^(((^^!!QRRYYYYYYYYPPPYYRRQEEQ!!Gv3",
"ZmzcI!QQRERE!!QRPPPIRRYRRRRR!!!/^!!QRRRIYPPPPYYYYYYPYYYYRRRRRDs.",
"mjaaI^^!RRYUPPJPPIIIDFFIPIIRYRIRRRRQRYPPPAAAAAAAAPPPPPYPIIIIICp3",
"jatuI(^~RRTKZCZFPIIGCCAFGPIIFPFFFFRRIPPAAAAAVAVAAAPPPAPAFFFFGvy.",
"gattI(^QIITFZZZJPIIPFAAFFFPIFFFFFFRYPPPFFAAAVVAAAFFPFFFPPFPFFCg%",
"hatuI(^QUPPJAAAFPGIGFFAFFFFGFFFDAFPIPPFFFFAAAAAAAFAAFFFFFPPFFCe3",
"hftuI)^QYPJJDFFFPIPIGFCCCAFFFFACAAPPPFFPFFPAVVAAAAAAACAFFPFFGCy3",
"gatuY)^QRJFJFFFFFFFFPFCCVCCFFFACCAFPPPPPPPPAAAVAAACCCCCAFPFPGvy.",
"ft8eF^!QUTPFPPFFFCFDPFCCVCCDFFACCAAAPPPPFFAAAVVVVVCCCCCCAFFPGCp3",
"uw15AQQYIPFGPPFAFCCFFFGACAFGPFCCCAAAPPPPAAVVAVVACAAACCAAAFFFPCy.",
"t5,,VYYUPPPPPPFDCACAAPPGFFPIPFFAACAAFFFAAAVVVVVVVAAAAAAAAFFFGvp3",
"t2:,cYUIFPPPFFFZACCCCFPPPPPIGFFCAAAAFFFAAVVVVVVVAAAAAAAFAAFFPvyX",
"t2&,VUUPPPPPJFAZZZVZmAJJPIIPPFFAAAAAAAAVAVAVAVVVVCAAAAAAAAAPACf&",
"aw,1VYYUPIIJFAAZZZZZCZZSFFGPFFFFFAPPAAVAAAAAAAVVVACCVAVAAAAAPVu&",
"fw11ZEYYIPPJAAZSZZCCmVCZAFFFFFFFFFPPAAAVVAAAAVVVVVCCAVVVVAAAFCu&",
"fw11VYYUIPJJSAZZZMCmmCZFFPFDFFFGFPPPAVVAAAAAAAVVAVVVVVAAAVVACju#",
"aw,1ZQEYUIJJAABZCCCCCZZFFPACCAFFFAFFAVAVAAAAAAAAAAVVVVVVCFCCFve%",
"t8,1VQQELPPJAZZVMCCZSZFJPPACCAFDAAAAAVVAAAAAFFFFAAAVVAAVCCCCCvy+",
"t8,,AQQEPPIJFZZVVVCZFAFFPGACCCAAAVAAAVVAAAAAPPPPAAAAAAVACCCCCvy+",
"t5,,AQQQIPJJJZZVVVCZFFFFFFDCCCCCVVAAAAVVVVAAFPFPAAAAAAAAACCCDvy+",
"w2,,A~)QUJJJJABVvVVSJJFJJJFFCCCCVVAAAVVVjVVVAAAAAAAAFFFAACCAAcu%",
"w1:,A~)QUJAAAAAVVVVZJJJJJJFFCCCCVCAPAVjjjjjjVVVVCAAFPPFFACCAAcu+",
"t1,1A))~UJAAJAAZCVVAPGFPPFJGAACCAAPPAVVjjjjjjjVVCCAAPFFFACAADvy+",
"t8,1J~~QUJAAAABZZCZDFPPIPTPPDAAAAAPPAAAjjjjjjjjVVCAFPFFAACCFDvs+",
"ja8wJQEYPPJJBAAJGJPJPPIYRIPFFPPIYPPAPPFFAACAAACVVCCCCCVCAACFDCu%",
"VfwrAQYYPPUPZZZJJRUIPIURRRTFFPRRYPAAFPPPPAAAAAAAACCVjcjCCFFFFvs+",
"jfwrJEYYUPUPAZAPIUYTFPIYRRPFPIRRYYAAPPPPPAPFFFAAACCVjccVCADFDDy+",
"ht8wZEEYUUUPJJPPIUJJFPPTRRIIIYRRYYPAPPAAPPPPPFFAAAAAACAAACCFGvsO",
"t818AQQQYUUUJPPPUPJJZJJUUYYYYYYYYYIPFAAAAPYYPAPAAAAAAPAAAVAAPZa$",
"r818AQQ~EYUUPPUPPPAZVAJPUYYYYEQQRRRIAVVVAPRRPAAPPPPPPPPAAAAAPAi%",
"r811AQQQEEUUPPPPPPJJAJPPUUUUUYUYYYYYFVVVAPYYPPAAPPPAPAPAAAAJLBs*",
"r818A~QQYYUUJJJJPJJPPPUUUUUPPUPPPPIYPAACAPYYPAAPAAAPPAPAAVAJLBs+",
"ar18ZEYYUUUPAAZAAJPUQYYUUJJAZVZZVAFPPPFPPPYYAAAAAAAVAVVVVCAPUHs@",
"ar68AYYUJPUPAZZZAAPUQEYUUJAAAVVVVVPPPPPPYPYPAAAAVAVAVAAVVVSJTHs+",
"ar18AQQYPPJJZZZZAAJPEYUUPJJJAAAAAFPPPPYYPYPPPPAPAAAPPPAAAZAJLHs@",
"ar88AQQYUPAAZZZZZAAPYUPPPJPUUUJJPPPPYYYYYPPAPPPPPPPPPPPPFAJJLBp@",
"aw8rJQQEUPAAAAAAAAAPUUPPJPUUUUUUYPPPPRRRYPAAYYPPUPUUUUUPPFJJKBi+",
"aw18B~QEUPAAAAJAAAJJYUPJPJPUYUUUPYPPYYRQYFAAPYYYUUUYUUUIPJJFKBq+",
"t818BQEYPPJJJJAAAAJUEUPPJJJUUUPJPPYPYYRQYYAAPYYYUUUUUUUIIIJFLBs@",
"t811AEEYUUUUPJJJJJPUYUUPJJJJJJJJPPPPPPYYYPFAPYPYYYYYUUUIPPJFKBq+",
"r811ZEEYUUUUPJJPUUUPUUUPJJJAZZZAAAPPFPYYIPPPYYPYYYYYUIIIPPPJLBs+",
"t611ZQQEUPPPJJJPUUUPPPPPJJAAAAZZAAFAPPPYYYPYYYYYUPPPIIIPPJPJPSk=",
"t811J~~EUJJJAAJPPUUJPJJAZAZAZVBVVAAAFPYYIYPYYYYYPAAAPJJJLJUULHk=",
"a811J~~EPJAAAAAPPUPPJJAZZVZZZVVVCAVAAPYYYYYYYYYPJAZAFJJJJJJUTHl=",
"aw11J^~EPJFFAAFJUUPPPAZZVVVVVVVVVZZVAPUYYYYYYUUUAAZZAJJJJJJUUJl*",
"qw11A~~RPJFFFJJIYUUPPJAZZZZVVZZZAAZZJUUYYYUUUPPJJAAAJJJJJAJPLBd*",
"r8,1BQQRPFJJJPPUYYUUJJAAJAZVZZAJJJJJPUUYYUUUJAJJJJAJJJJJAAAJLBq>",
"r1:1CYYUPLPPPPUYEYUPJJAJAZZVVZJJJAJJPUUUUUUUAAAJJJJJJJPJJAAJLBq*",
"w1,1ZEQRIUIIPPPUUYUPPJJAAZZVZAAAAJAJPUUUUUUUJAAAAJAJJAJJJAAAJBq*",
"t811AQEQYUUIJJJJUPUPIJJAZJAZZAAAAJAJJUUUUUYUJAAZZAZAAJAAAAAAHBq+",
"tw18J^^^EYYUJZZAPPPUUPJJJAJJJAAAJJJJPUPUUUUUJZAZVVVZAAAAALJAHBd*",
"q811AQEEYYIIJJJJPPUPUPJAZAZZZZAAAAJJPPUUUUYUJAZZAZZAAJAJAAAAHBq+",
"uw25P^(!EYYUAAZAJPPPYPJJAAJJBAAAJJJJPUUPUUUUJAAZVVVZZAAAAJJBJBq*",
"uw25F^(!RYUUJAAJPPUUUPJAJAABAAAAAAJJJPPPPUUUJJAZZZVZZZAZAAJBBBq+",
"ue25F^(!YYYIJJJJUUYLUPJJAJAAAAAAAAJJPJPPPUUUPJAZZZZZZAAAAABBBnq*",
"guweP^^!YUUUJJPPLLYTYLPJJJAAAABLJJUUPJPPPJJJJZAAAAAJAJJBJJJLBnq+",
"jsyuTW/WWTTTWTTTLLTLWTLLLLLLLLBLLLLLULLLLBJBBBBBJLJLLLJLLLLLBBq;",
"ye50xDGDBNnNMMNnnnBBBBBBbbbblBnnBBBBVbbbbbblhdhbbbbbbbbbBnnnlq7=",
"33334kpqqq00qqq07qqqqqqqq76767q66qqqq68r6666666699697977qqq7774@",
"O...33333=@=3===@*=;44;;;*;;****;;;*;:****:*********;;>;;;=@;;@o"
};
