/* XPM */
static char *thief_right11762391940[] = {
/* columns rows colors chars-per-pixel */
"64 64 199 2 ",
"   c #01020E",
".  c #020313",
"X  c #0C0214",
"o  c #060719",
"O  c #0E021B",
"+  c #0D0D1F",
"@  c #110317",
"#  c #10031B",
"$  c #1A0A1A",
"%  c #14151F",
"&  c #0F0F21",
"*  c #140E25",
"=  c #0F1022",
"-  c #121224",
";  c #1A1B25",
":  c #171528",
">  c #1B142A",
",  c #1C1B2E",
"<  c #1E1C32",
"1  c #291823",
"2  c #231B2E",
"3  c #211E33",
"4  c #1D212E",
"5  c #242236",
"6  c #292936",
"7  c #2B2C35",
"8  c #272438",
"9  c #292639",
"0  c #2C2A3D",
"q  c #352939",
"w  c #312B3D",
"e  c #2F313B",
"r  c #2F2C40",
"t  c #312E41",
"y  c #392E40",
"u  c #363144",
"i  c #3A3647",
"p  c #3D3847",
"a  c #3B3649",
"s  c #3C384A",
"d  c #453342",
"f  c #4C4D54",
"g  c #4B4C5A",
"h  c #514956",
"j  c #5D525E",
"k  c #64575A",
"l  c #77575D",
"z  c #6F6357",
"x  c #65615F",
"c  c #706355",
"v  c #73665B",
"b  c #75695D",
"n  c #786C5F",
"m  c #5B5765",
"M  c #655965",
"N  c #7B5E67",
"B  c #696464",
"V  c #6C6966",
"C  c #6D6B6A",
"Z  c #776C60",
"A  c #7A6E61",
"S  c #79616B",
"D  c #716E6C",
"F  c #7C7064",
"G  c #73716E",
"H  c #7C746A",
"J  c #6A6A72",
"K  c #757471",
"L  c #797673",
"P  c #7B7976",
"I  c #74747B",
"U  c #7E7278",
"Y  c #7E7B79",
"T  c #8A605B",
"R  c #A95864",
"E  c #AB5B65",
"W  c #816265",
"Q  c #83666B",
"!  c #83686E",
"~  c #81766A",
"^  c #85796A",
"/  c #867476",
"(  c #817E7C",
")  c #987470",
"_  c #B2666E",
"`  c #A5746F",
"'  c #A77C6B",
"]  c #A96C75",
"[  c #AF717C",
"{  c #BB717B",
"}  c #878075",
"|  c #8B8276",
" . c #84817E",
".. c #8D857A",
"X. c #91867B",
"o. c #938A7E",
"O. c #B1887B",
"+. c #7A7982",
"@. c #857E85",
"#. c #BA7B83",
"$. c #868381",
"%. c #898684",
"&. c #8C8986",
"*. c #8D8C89",
"=. c #958C83",
"-. c #998F84",
";. c #918E8B",
":. c #969087",
">. c #9A9087",
",. c #93918E",
"<. c #9C938A",
"1. c #9E988F",
"2. c #8E8D96",
"3. c #959492",
"4. c #999694",
"5. c #9B9995",
"6. c #96969E",
"7. c #98979F",
"8. c #9C9A9B",
"9. c #B68E86",
"0. c #A1958B",
"q. c #A39B8E",
"w. c #A39D94",
"e. c #A99F97",
"r. c #A29E9B",
"t. c #B49793",
"y. c #A6A096",
"u. c #AAA295",
"i. c #A4A19C",
"p. c #ACA49C",
"a. c #B0A79D",
"s. c #B1AB9F",
"d. c #9B9AA4",
"f. c #A6A4A2",
"g. c #A9A6A4",
"h. c #ABA9A6",
"j. c #A5A5AB",
"k. c #AEACA9",
"l. c #B3ACA3",
"z. c #B1AEAC",
"x. c #B9AFA8",
"c. c #B3B1AE",
"v. c #BBB4AB",
"b. c #BAB4AD",
"n. c #ACADB2",
"m. c #B1AEB6",
"M. c #B6B4B1",
"N. c #B9B6B3",
"B. c #BBB9B6",
"V. c #B3B4B9",
"C. c #BDBCBA",
"Z. c #C4978A",
"A. c #C79A92",
"S. c #D6A09F",
"D. c #CCB09F",
"F. c #D0B19F",
"G. c #E1A294",
"H. c #D6A0A0",
"J. c #D9AEA4",
"K. c #D0B1A0",
"L. c #C2BBB3",
"P. c #C1BEBC",
"I. c #F5AEA3",
"U. c #F7B5A7",
"Y. c #C4C1BE",
"T. c #CAC2BB",
"R. c #F5C0AF",
"E. c #FAC1AF",
"W. c #E1CABC",
"Q. c #F7C3B2",
"!. c #FAC4B2",
"~. c #F4C8B7",
"^. c #FBCCBB",
"/. c #BDBDC3",
"(. c #C5C3C2",
"). c #C9C5C3",
"_. c #CBC9C6",
"`. c #C4C4C9",
"'. c #CDCBCA",
"]. c #D0C8C3",
"[. c #D0CECB",
"{. c #D1D0CD",
"}. c #D4D4D6",
"|. c #D8D7DA",
" X c #D9D9DB",
".X c #EDD3C1",
"XX c #F7D2C2",
"oX c #FCD5C3",
"OX c #FEDDCC",
"+X c #FEE6D5",
"@X c #FFE8D7",
"#X c #FFE7DA",
"$X c #FFE8D8",
"%X c #E4E5E6",
"&X c #EBECEE",
"*X c #FEEEE1",
"=X c #ECECF0",
"-X c #FDF8F4",
";X c #FEFFFF",
/* pixels */
"G B k B 1.k.k.r.;.%. .$.%.%.%.( L K D D D D V V V D D V V D D D D D G I ( @. .Y Y I K C C C C C C C C V C C G G K K K K K H F c ",
"L V x V 3.c.h.i.;.&.$.%.;.;.;. .U U L K H D D D D D G D K K G L K H P Y $.$.$.$.Y Y L K K K K K J G C C J K K K L Y P L P P H z ",
"*. .P Y g.C.B.c.i.8.8.r.f.f.g.w.,.;.;.;.;.;.;.;.;.,.<.,.3.4.4.5.5.4.4.3.5.8.8.8.4.3.,.,.*.*.*.*.*.&.*.*.*.3.3.3.3.4.4.5.3.:.| b ",
"i.4.*.,.c.).Y.C.M.c.c.b.B.B.B.z.g.f.i.f.g.g.g.g.h.h.k.2 c.; M.B.N.N.z.h.c.n.z.k.h.h.j.g.j.f.h.f.f.f.f.f.f.j.k.k.k.n.z.c.s.p.-.A ",
"c.p.i.i.B._.'.T.(.(.(.).].'._.P.N.b.N.L.P.P.P.P.P.. > 2 : , , 2 , & , , , . Y.C.C.C.C.C.C.C./.P./.C.C.C.C.C.(.(.(.(.(.).Y.v.q.Z ",
"h.f.r.8.M.).).Y.(.P.P.Y.).).(.P.M.M.M.N.P.L.. . - 0 0 3 i i i i i 5 s i s s + & . N.B.V.B.B.C.C.C.V.N.N.C.C.C.C.P.P.P.B.Y.v.q.v ",
"i.5.,.3.N.'.'.).P.L.P.N.M.b.z.M.M.N.M.M.z.. 8 0 9 9 0 5 i 0 a a s i 0 i i a s < a . z.k.k.z.n.z.c.N.V.V.N.N.N.N.N.M.M.M.M.s.:.b ",
"5.3.*.;.B.{.[.).C.L.L.M.g.h.h.z.M.M.N.M.. 0 5 0 9 0 9 0 0 a i i i a < i i i r 5 a a . h.j.h.h.k.k.k.c.M.M.n.M.k.c.c.c.c.c.s.:.b ",
"5.,.*.*.M.[.'.).C.V.N.M.g.h.h.z.M.M.M.. 9 9 9 8 9 0 0 9 9 a i i a p , a a a a s 3 a r . g.h.h.k.k.z.c.z.m.z.m.z.c.V.n.c.c.l.-.b ",
"5.,.*.;.M.[.'.).B.N.M.c.l.k.z.z.M.M.. 8 9 9 9 3 0 9 9 0 5 8 3 - : : * : > * : < 3 a s 8 8 9 h.k.k.h.m.z.z.z.z.z.c.c.c.M.z.p.:.b ",
"5.,.*.,.B.{._.).B.M.c.M.l.k.z.z.z.M.& 5 9 9 9 3 9 5 5 8 > 3 3 a i a i a 8 a a r * & , r 8 . h.h.k.k.h.j.g.h.z.z.n.M.c.c.z.a.:.Z ",
"5.,.&.,.B.{.'.(.P.M.z.z.z.z.m.x.M.: , 5 5 0 5 3 8 > 5 2 < i i a i s u u r a a a a a a * : , h.h.k.h.h.h.g.g.j.k.k.c.n.c.b.g.:.b ",
",.*. .$.M._._.(.L.N.z.b.M.z.z.z.k.- < < 5 0 5 5 , s i i < i < i i s a a , 0 a s a a a 8 a 3 . g.j.h.j.g.g.g.j.g.k.z.z.m.z.l.>.Z ",
",.$.P ( h.(.P.P.V.b.m.z.M.M.z.z.= < < 3 8 < - s i i i i 0 a i a s i 0 a , a a s a a a < a s , . g.h.h.h.g.g.k.k.k.k.z.z.c.e.=.Z ",
"*.( K L f.C.P.B.M.M.m.b.N.z.z.z.= < < 5 3 r 0 u u i i i 0 a p p i u s a 0 a a d a < a 8 a a a & h.j.k.k.n.h.k.k.k.n.k.z.x.g.>.Z ",
"*.Y G K i.B.B.N.c.M.N.N.z.z.z.l.& < < 3 : 0 8 a 5 a a a a i i 9 > > > : > 3 3 2 8 5 t r a a 0 : h.k.k.k.k.k.k.k.k.z.z.z.m.p.=.Z ",
"*.Y G K i.B.B.B.c.M.M.M.c.z.k.e - 5 - 3 0 0 9 a i i y r r , # ! ! ! ! / / / / / S S O < t u t 2 . j.h.z.h.k.k.h.k.k.z.z.c.g.-.b ",
",. .K P f.C.C.B.N.M.N.c.z.k.k.. 4 , : < 8 0 8 a i t 8 O # N OX!.OX+X+X$X$X$X$X$XoXoXR.@ > 9 3 a . h.h.h.h.g.j.h.h.k.h.z.b.g.-.b ",
"3.$.P P h.C.C.C.N.N.M.c.k.k.h.. < - < 9 0 0 < 0 * 2 > 9 8 * O t.W.+X$X$X$X$X+X$X$X$X+X^.9.k : 0 . g.j.g.g.g.g.g.h.h.k.m.z.e.>.Z ",
"3.$.L P f.C.C.B.N.M.c.c.k.l.k.  . < < 0 0 0 < 8 0 9 9 8 8 8 8 0 2 $ +X+X$X+X+X+X+X+X1 # > > O 3 . f.g.g.j.f.h.g.j.h.k.h.l.r.=.v ",
"*. .K P h.Y.Y.C.B.M.M.c.k.k.s.  * < < 0 0 8 3 3 8 9 9 # O 0 9 8 8 > X # # # # # O O , 8 8 8 > > . h.h.f.f.j.h.j.g.g.h.g.k.e.=.l ",
"*. .K P h.(.(.Y.B.M.M.c.s.k.k.  & < < 9 5 > O 9 8 9 2 !.t.d O O 3 9 9 8 9 9 9 9 0 8 > > > > 3 * o j.h.j.g.g.h.h.g.j.h.h.k.e.=.b ",
"*. .K P h.(.(.Y.M.M.M.c.c.k.h.f.& < 3 3 , 3 8 9 , j @ +X+X+X^.!.) # 9 8 8 9 9 9 O Q Q Q *X@.3 * . k.h.h.h.h.j.h.h.h.h.h.h.e.&.b ",
"*. .G P h.(._.Y.M.M.c.c.c.h.h.f.& * * * * 3 9 5 m y O O O O # # # Z.> 8 9 9 9 # A.# # # # # * * k.k.k.k.k.k.z.h.h.g.g.h.h.r.=.b ",
"&.P G P h._.{.Y.B.c.c.c.c.s.h.f.H.+X+XU.- < 8 8 9 j w ;XO O O O # Z.y 8 8 9 a q 9.# # # @.m.> * k.k.k.k.m.z.z.k.h.h.j.k.k.e.=.S ",
" .P G K k.{.{._.B.c.k.k.k.k.h.h.H.' ' Q.A., < < 9 8 p Y.`.X # O N ) 3 8 M M M < J.# # # ;XX 2 ) _ h.k.n.M.M.z.z.j.h.g.k.l.i.=.b ",
"&.P G P k._.{._.B.c.k.k.c.c.h.h.S.@X' !.E.W W 3 8 8 8 h > X o O - 8 > O # # O # * 3 8 o > , < W E h.k.z.M.z.z.n.h.h.h.k.z.r.=.Z ",
"*. .K P c._._._.B.c.h.k.k.k.k.h._ @X@XO.E.^.+XZ.Q > > 8 9 9 8 > 2 ! ) Q.+X^.oXU.T Q : 3 8 8 & 9.R j.h.k.M.n.z.k.k.h.h.k.z.p.=.Z ",
"i.,. .$.c.Y.Y.B.B.c.c.c.k.k.h.c.] $X@X@X~.!.+X+XoXU.U.# # # O +XXXoX$X$X+X!.XX+X$XoX!.W O 1 !.R g.h.h.f.f.f.f.j.k.k.h.z.z.p.>.Z ",
"f.3.$.&.c.Y.Y.B.c.B.B.c.h.h.h.c.M.#.E E E E.oX+X#X!.!.^.U.!.I.Q.+X$X$X$X$X$X+X#X$X$XQ.I.U.~.U.R h.h.j.f.r.i.r.f.j.k.z.z.x.e.=.Z ",
"i.3.$.&.c.Y.Y.B.B.M.B.c.k.s.k.c.M.B.B.M.o q E.R.$X@X@X~.^.!.^.+X$X$X$X.X.X.X.X.X$X$X+X!.^.~.U.] k.h.g.f.r.d.i.g.g.k.z.z.z.p.>.Z ",
"3.*. . .h.Y.Y.B.B.B.B.M.c.c.M.B.B.N.N.M.z., X E.^.+X+X@X@X$X+X$X$X$X$XK.F.K.K.D.$X$X$X#X+XJ.z.z.k.h.h.h.h.h.h.h.h.g.g.z.b.g.>.v ",
";.$.Y  .h.T.Y.Y.C.C.B.B.M.M.M.B.N.M.c.c.k.z.4 . O.E.oXoX@X$X@X@X$X$X$X$X$X$X$X$X+X+X+X+XJ.#.z.z.z.z.n.k.k.k.c.k.k.h.h.c.c.s.=.b ",
"%.( L ( c._._._.Y.P.C.B.M.M.M.B.N.c.n.h.f.k.4 M.. E !.!.!.OXOX@X$X$X$X$X$X$X$X$X+X+X$XE M.z.k.M.M.z.c.c.M.M.c.k.k.h.h.c.b.l.:.b ",
"%. .P ( h._._.Y.Y.Y.C.B.M.M.M.M.M.M.c.c.k.c.M.N., C.C.[ ! ! E.oXoXoXoXoXoXoXS.S.Z.#.` C.M.c.k.M.c.c.c.c.M.c.M.k.k.h.h.c.v.s.5.b ",
"&. .P  .k.T.Y.Y.C.C.C.M.c.c.c.c.M.c.c.M.M.M.M.N.B.N.N.. * X @ Q.!.E.G.l @ X g.g.k.c./.B.M.k.c.k.z.z.z.c.c.M.k.k.h.h.k.c.L.v.o.b ",
",.&.(  .h.Y.P.B.N.B.B.M.c.h.h.h.k.c.M.B.Y.P.C.C.N.b.. 0 r r < X !.!.l O w 0 . M.M.N.B.B.c.k.k.k.k.h.h.f.h.h.h.f.f.f.h.M.L.s.q.n ",
",.&.Y  .s.Y.C.B.b.M.B.M.h.h.h.h.k.k.M.B.(.Y.C.C.N.  0 0 r 9 5 , O O * < 0 0 0 . B.B.C.N.k.k.k.k.k.h.h.h.h.h.h.h.f.s.h.M.v.v.1.b ",
",.%.(  .k.Y.Y.C.M.M.c.c.h.h.h.h.h.k.c.M.Y.C.B.N.. 9 0 0 0 0 0 r 0 0 r 0 0 0 0 0 e B.N.M.c.c.c.c.k.k.c.c.k.c.z.k.k.h.k.b.v.s.<.n ",
",.$. . .c.Y.Y.P.B.M.k.k.k.h.h.h.h.h.c.M.C.C.M.. '.;X;X`.`.`./.`.`.`.`././.`./.;XI M.c.c.M.M.M.M.M.M.M.M.N.M.M.c.c.k.c.M.b.s.<.n ",
",.%.(  .z.).T.Y.B.M.k.k.h.k.k.k.k.k.k.M.P.B.M.e 0 +.n.V.'.'.`.'.'.'.'.'.`.`.`.`.e = k.k.B.B.B.N.B.M.B.B.B.B.B.M.M.z.c.c.b.s.:.n ",
",. .(  .z.).).P.B.M.k.k.h.c.z.k.k.k.c.M.Y.B.I 6.0 0 . 9 0 r 0 0 0 0 r r r 0 t . g ;X  h.N.C.B.B.B.B.B.B.C.B.B.N.M.c.c.c.c.s.>.v ",
";. .P  .z.(.Y.P.N.M.c.c.c.c.k.k.k.c.c.M.(.B.J &X;X&Xf j.j.j.j.j.j.j.j.j.j.j.j.2.6.;X. k.M.B.C.C.B.B.B.B.B.B.B.N.N.M.c.k.v.s.>.n ",
"&. .P ( g.P.P.P.B.B.B.N.M.c.c.c.c.c.c.B.C.. e e 2.d.J =X=X=X&X&X=X=X&X&X=X=X=X%X5 m t . N.B.B.C.C.C.C.C.B.B.N.N.N.M.c.z.b.s.o.v ",
"&.( L Y g.P.P.P.B.C.B.B.M.c.c.V.B.B.B.N.  ;X;X0 r . = r r 0 0 0 r r r r 0 0 r e , , ;X%X  B.B.B.C.C.C.C.B.B.N.N.M.c.b.c.b.l.<.n ",
";. .L Y l.(.(.P.N.M.M.M.c.c.c.M.N.B.N.N.. 3.;X;X;X. j.n.n.n.n.n.n.n.n.n.n.n.n.n.j.J ;Xe . C.C.B.B.N.M.M.N.M.M.M.M.M.M.N.B.s.<.n ",
";. .L Y z._.].P.N.c.c.c.k.k.c.c.N.B.N.M.0 0 0 r 6.. C././.C.C././.V./.C./.V./.V.V.g m r 0 6 C.B.M.k.k.c.c.M.M.c.c.M.M.B.b.x.q.n ",
";. .L / z.[.[.P.M.c.k.k.k.k.k.M.N.N.M.  &X;X`.t . < 0 0 0 0 0 0 9 r 0 r 0 0 0 e 0 9 : ;X;X6 C.M.c.h.h.h.k.c.c.c.M.c.M.B.L.x.q.F ",
";. .P ( z.[.].Y.N.z.z.z.z.h.z.M.B.B.N..  X;X;X;X  2.6.6.6.6.6.6.6.6.6.6.6.6.6.6.6.I f -X{.x B.B.c.h.h.h.k.c.c.c.c.c.c.B.B.c.q.n ",
";. .K / z.].).P.M.c.z.z.z.z.z.N.B.B.N.N.E +X+X;X  }.;X;X;X;X;X;X;X;X;X;X;X;X;X;X;XY.7 +XE M.M.M.c.k.h.h.c.c.c.c.c.k.c.M.B.s.o.Z ",
"&.( K P g.(.P.P.M.M.z.c.M.M.N.B.C.C.B.B.R +X^.$ < < 0 0 0 0 9 0 0 0 0 0 0 0 0 0 0 5 1 +XE s.c.c.M.c.c.k.c.M.M.c.c.h.k.c.B.s.q.F ",
"%.( G P f.P.P.L.M.M.M.M.M.M.B.C.P.C.C.M.c.{ ` : /.V.6.6.6.d.6.d.6.6.d.6.6.6.6.d.6.I X { c.k.k.c.c.c.M.c.c.c.M.c.c.h.k.c.v.s.o.Z ",
"%.( K P g.P.P.P.B.B.M.N.M.M.M.N.C.C.B.M.M.c.z.o , , |.|. X|. X X X X X X X X X X Xn.  B.c.k.h.k.k.c.c.c.c.k.c.c.c.k.k.k.v.s.o.b ",
"&.( H ( z.(.).(.B.C.B.N.c.k.z.M.M.N.M.N.N.c.c.. . . . . . . . . . . . . . o . . . . B.B.c.k.h.h.h.h.h.k.k.k.k.c.k.k.c.k.c.s.o.b ",
";. .( ( z.].[._.P.Y.C.B.z.k.h.k.M.M.M.N.C.M.c.z.& & < < - = - = - = = - - < < < ; . C.B.c.h.k.h.f.f.f.h.k.k.k.k.k.c.s.k.v.s.1.b ",
"&.( L ( z.(.(.P.C.B.B.N.c.z.z.M.N.N.N.N.N.c.c.z.< < < < < < < o . . . < < < < < < . B.B.c.k.k.h.h.h.h.k.c.k.k.k.k.k.c.c.s.s.o.b ",
";.$./ ( m.'.'.).Y.C.C.N.z.h.h.k.c.M.M.M.C.M.c.z.> < < 3 < < , . z.M.. , < < < < 4 . C.B.c.k.k.h.h.f.f.h.k.k.k.k.c.c.c.k.c.s.o.Z ",
";.$.( ( z.'.[.).Y.C.C.B.z.l.k.c.b.N.B.B.B.M.c.z.< < 3 3 5 < . k.n.z.c., < < < 5 7   C.B.c.c.h.h.h.f.f.h.h.h.k.k.k.k.s.c.s.s.o.b ",
",.%./ $.z.[.[.).C.C.C.N.z.z.c.M.N.B.B.B.B.c.c.z.= a =.p.p.h . k.k.k.c.= d M g.p.K   B.B.M.c.k.h.h.h.f.s.h.k.k.k.k.h.s.s.s.u.o.Z ",
"4.;.@.@.m.'.].(.C.B.B.N.N.M.c.M.b.B.B.b.C.N.b.c.. . . . . . k.l.c.c.b.. . . . . % % c.c.c.k.h.k.k.k.c.k.c.c.s.c.c.c.c.v.s.u.o.Z ",
"w.<.>.,.v.T.].].T.L.L.L.L.L.L.L.L.L.L.T.T.L.L.L.N.; ; ; % 4 v.L.B.b.b.4 4 - % % % M.c.s.s.s.s.s.c.c.v.v.v.v.c.B.v.v.v.v.s.s.o.F ",
"=.@.) ( e.x.v.x.s.a.u.a.a.a.a.a.u.u.u.s.x.s.s.p.p.e.e.e.q.u.u.u.a.p.s.p.u.u.u.y.y.y.q.q.5.5.y.q.y.y.y.y.y.y.y.y.s.u.s.u.q.o.| A ",
"^ H H H | 0.0.-.o.o.X.o.o.o.X.X.X.X.X.X.o.-.o.o.o.X.| | | X.X.o.o.o.o.o.o.......} } } } } } } } } ......| ..| o.o.o.o.| | | ^ z ",
"b z v v n ~ ~ ~ A A A A F W A n n n W n ~ ~ n ~ A A n n n n n n n n A A D A Z A Z Z Z Z Z Z Z Z G Z n n F F F F F F F n F F F z "
};
