/* XPM */
static char *thief_right31762389887[] = {
/* columns rows colors chars-per-pixel */
"64 64 164 2 ",
"   c #01020E",
".  c #16020F",
"X  c #020313",
"o  c #0D0214",
"O  c #050618",
"+  c #0E021B",
"@  c #07081A",
"#  c #0D0D1F",
"$  c #110317",
"%  c #10031B",
"&  c #1A0A1A",
"*  c #14161E",
"=  c #20101F",
"-  c #0F0F21",
";  c #140E25",
":  c #0F1022",
">  c #121224",
",  c #1B1226",
"<  c #1A1B25",
"1  c #171528",
"2  c #1B142A",
"3  c #1C1B2E",
"4  c #1E1C32",
"5  c #251620",
"6  c #231B2E",
"7  c #2B1925",
"8  c #211E33",
"9  c #1D212E",
"0  c #21232C",
"q  c #242236",
"w  c #272936",
"e  c #2A2A35",
"r  c #272438",
"t  c #292639",
"y  c #2C2A3D",
"u  c #302538",
"i  c #302C3F",
"p  c #382E3E",
"a  c #362834",
"s  c #32333B",
"d  c #2F2C40",
"f  c #312E41",
"g  c #392E40",
"h  c #363144",
"j  c #3A3647",
"k  c #3D3847",
"l  c #3B3649",
"z  c #3C384A",
"x  c #453342",
"c  c #4B4C5A",
"v  c #4C4D54",
"b  c #504655",
"n  c #524B57",
"m  c #5D525E",
"M  c #67515A",
"N  c #77575D",
"B  c #595967",
"V  c #5C5764",
"C  c #655660",
"Z  c #655965",
"A  c #765C68",
"S  c #68686E",
"D  c #696169",
"F  c #79616B",
"G  c #676874",
"H  c #6C6C71",
"J  c #74747B",
"K  c #7E7278",
"L  c #8A605B",
"P  c #805F66",
"I  c #A35662",
"U  c #AC5764",
"Y  c #AB5B65",
"T  c #AF5D68",
"R  c #816265",
"E  c #83666B",
"W  c #83686E",
"Q  c #977069",
"!  c #867476",
"~  c #8F7173",
"^  c #997777",
"/  c #B2666E",
"(  c #A77C6B",
")  c #A5746F",
"_  c #AD6C74",
"`  c #A16B75",
"'  c #AF717A",
"]  c #BB717B",
"[  c #B1887B",
"{  c #787780",
"}  c #7C7A84",
"|  c #857D80",
" . c #BB7A84",
".. c #C17C83",
"X. c #968889",
"o. c #8E8D96",
"O. c #909196",
"+. c #96969E",
"@. c #98979F",
"#. c #98989F",
"$. c #B18A84",
"%. c #BB9188",
"&. c #B09091",
"*. c #B99E96",
"=. c #AFA19F",
"-. c #9B9AA4",
";. c #AFA1A0",
":. c #A5A5AB",
">. c #A8A9AE",
",. c #ACADB2",
"<. c #B3B4B9",
"1. c #BBBBBE",
"2. c #B3B3B7",
"3. c #C48287",
"4. c #C09085",
"5. c #C79B8C",
"6. c #C2968A",
"7. c #C89990",
"8. c #C59B93",
"9. c #D69E9E",
"0. c #D6A09F",
"q. c #CCB09F",
"w. c #D0B19F",
"e. c #E1A294",
"r. c #D6A0A0",
"t. c #D7AEA4",
"y. c #DBAFA4",
"u. c #D0B1A0",
"i. c #F5AEA3",
"p. c #F3B1A4",
"a. c #FABBAB",
"s. c #F5C0AF",
"d. c #FAC1AF",
"f. c #E1CABC",
"g. c #F7C3B2",
"h. c #FAC4B2",
"j. c #F4C8B7",
"k. c #FBCCBB",
"l. c #BDBDC3",
"z. c #C1C1C6",
"x. c #C4C4C9",
"c. c #CACACD",
"v. c #D3D3D5",
"b. c #D7D7D9",
"n. c #D8D7DA",
"m. c #D9D9DB",
"M. c #E3CFCF",
"N. c #EDD3C1",
"B. c #FCD5C3",
"V. c #FEDDCC",
"C. c #F7D2C2",
"Z. c #FFDFD3",
"A. c #FEE6D5",
"S. c #FFE8D7",
"D. c #FFE7DA",
"F. c #FFE8D8",
"G. c #E6E7EA",
"H. c #EBECEE",
"J. c #E2E3E3",
"K. c #FEEEE1",
"L. c #ECECF0",
"P. c #FFFFFF",
"I. c #FDF8F4",
"U. c None",
/* pixels */
"U.U.U.U.U.U.U.U.U.U.U.U.U.U.U.U.U.U.U.U.U.U.U.U.U.U.U.U.U.U.U.U.U.U.U.U.U.U.U.U.U.U.U.U.U.U.U.U.U.U.U.U.U.U.U.U.U.U.U.U.U.U.U.U.",
"U.U.U.U.U.U.U.U.U.U.U.U.U.U.U.U.U.U.U.U.U.U.U.U.U.U.U.U.U.U.U.U.U.U.U.U.U.U.U.U.U.U.U.U.U.U.U.U.U.U.U.U.U.U.U.U.U.U.U.U.U.U.U.U.",
"U.U.U.U.U.U.U.U.U.U.U.U.U.U.U.U.U.U.U.U.U.U.U.U.U.U.U.U.U.U.U.U.U.U.U.U.U.U.U.U.U.U.U.U.U.U.U.U.U.U.U.U.U.U.U.U.U.U.U.U.U.U.U.U.",
"U.U.U.U.U.U.U.U.U.U.U.U.U.U.U.U.U.U.U.U.U.U.U.U.U.U.U.0 U.< U.U.U.U.U.U.U.U.U.U.U.U.U.U.U.U.U.U.U.U.U.U.U.U.U.U.U.U.U.U.U.U.U.U.",
"U.U.U.U.U.U.U.U.U.U.U.U.U.U.U.U.U.U.U.U.U.U.U.U.U.X 2 4 1 3 3 6 3 - 3 3 3 X U.U.U.U.U.U.U.U.U.U.U.U.U.U.U.U.U.U.U.U.U.U.U.U.U.U.",
"U.U.U.U.U.U.U.U.U.U.U.U.U.U.U.U.U.U.U.U.U.U.X X > y t 8 j k j j l q k j z z # - X U.U.U.U.U.U.U.U.U.U.U.U.U.U.U.U.U.U.U.U.U.U.U.",
"U.U.U.U.U.U.U.U.U.U.U.U.U.U.U.U.U.U.U.U.U.X r y y y y r j y l l l j y j j l l 8 l X U.U.U.U.U.U.U.U.U.U.U.U.U.U.U.U.U.U.U.U.U.U.",
"U.U.U.U.U.U.U.U.U.U.U.U.U.U.U.U.U.U.U.U.X r r t r r t y y l j j l l 4 j j j y r l j X U.U.U.U.U.U.U.U.U.U.U.U.U.U.U.U.U.U.U.U.U.",
"U.U.U.U.U.U.U.U.U.U.U.U.U.U.U.U.U.U.U.X t t t r y t y r r l l h l k 3 l l l l l 8 l d X U.U.U.U.U.U.U.U.U.U.U.U.U.U.U.U.U.U.U.U.",
"U.U.U.U.U.U.U.U.U.U.U.U.U.U.U.U.U.U.X r t y r 8 t y t y r r r 1 1 1 > 1 2 1 1 4 8 l l r w w U.U.U.U.U.U.U.U.U.U.U.U.U.U.U.U.U.U.",
"U.U.U.U.U.U.U.U.U.U.U.U.U.U.U.U.U.U.> 8 r t t 4 y r r r 1 3 8 l j l j l r l l d ; - 2 d r X U.U.U.U.U.U.U.U.U.U.U.U.U.U.U.U.U.U.",
"U.U.U.U.U.U.U.U.U.U.U.U.U.U.U.U.U.1 3 q r t r q r > q 6 4 l g l j l l f d l l l l l l 1 2 2 U.U.U.U.U.U.U.U.U.U.U.U.U.U.U.U.U.U.",
"U.U.U.U.U.U.U.U.U.U.U.U.U.U.U.U.U.: 4 8 r t r 4 6 l j j 4 l 8 j j l l l 4 r l z l l l r l 8 X U.U.U.U.U.U.U.U.U.U.U.U.U.U.U.U.U.",
"U.U.U.U.U.U.U.U.U.U.U.U.U.U.U.U.: 4 4 8 r 8 > l j j l j y l l l l k y l 4 k l l l l l 4 l z 3 X U.U.U.U.U.U.U.U.U.U.U.U.U.U.U.U.",
"U.U.U.U.U.U.U.U.U.U.U.U.U.U.U.U.: 4 4 q q d t l h j j j t l k k l j l l t k l x l 4 l t l l l - U.U.U.U.U.U.U.U.U.U.U.U.U.U.U.U.",
"U.U.U.U.U.U.U.U.U.U.U.U.U.U.U.U.- 4 4 4 1 y t l q j l l l j j r 2 2 , 1 2 8 8 8 r q f t l l f 1 U.U.U.U.U.U.U.U.U.U.U.U.U.U.U.U.",
"U.U.U.U.U.U.U.U.U.U.U.U.U.U.U.s > 8 > 4 y y t l j j g d d 2 % W W W W ! ! ! ! ! F F + q f h f 8 X U.U.U.U.U.U.U.U.U.U.U.U.U.U.U.",
"U.U.U.U.U.U.U.U.U.U.U.U.U.U.U.X 4 4 1 4 r y r l k f r + + R V.j.V.A.A.F.F.F.F.F.B.B.s.$ , r r l X U.U.U.U.U.U.U.U.U.U.U.U.U.U.U.",
"U.U.U.U.U.U.U.U.U.U.U.U.U.U.U.X 4 - 4 y y t 4 y , 2 2 r t ; + *.f.A.F.F.F.F.F.F.F.F.S.k.$.C , t X U.U.U.U.U.U.U.U.U.U.U.U.U.U.U.",
"U.U.U.U.U.U.U.U.U.U.U.U.U.U.U.X X 4 4 y y d 4 r i t r r t r r t 6 & A.A.F.A.F.A.A.A.= % 2 2 % 8 X U.U.U.U.U.U.U.U.U.U.U.U.U.U.U.",
"U.U.U.U.U.U.U.U.U.U.U.U.U.U.U.X ; 4 4 y y r 8 8 r u r % % r r r r 2 + o $ % % $ + + 3 t r r 4 ; X U.U.U.U.U.U.U.U.U.U.U.U.U.U.U.",
"U.U.U.U.U.U.U.U.U.U.U.U.U.U.U.  - 4 4 r r 2 + r r r 6 g.&.x % % 8 r r r r t r t t t 2 2 2 , 8 ; X U.U.U.U.U.U.U.U.U.U.U.U.U.U.U.",
"U.U.U.U.U.U.U.U.U.U.U.U.U.U.U.U.: 4 8 4 6 8 r r 2 V & F.A.A.k.j.Q % r t y t r r + W W E K.| 8 ; X U.U.U.U.U.U.U.U.U.U.U.U.U.U.U.",
"U.U.U.U.U.U.U.U.U.U.U.U.U.U.U.U.- ; ; ; ; 8 t r V p + + + % % % % 5.2 t r t r + 7.% % % % + ; ; U.U.U.U.U.U.U.U.U.U.U.U.U.U.U.U.",
"U.U.U.U.U.U.U.U.U.U.U.U.U.U.U.U.r.A.A.a.; 4 r r t m , % % % + + % 5.p r r r k u %.% % + % - , , U.U.U.U.U.U.U.U.U.U.U.U.U.U.U.U.",
"U.U.U.U.U.U.U.U.U.U.U.U.U.U.U.U.r.( ( g.8.3 4 4 r r k % % % + % A ~ 8 r Z Z Z 4 y.+ + % % % 6 ~ / U.U.U.U.U.U.U.U.U.U.U.U.U.U.U.",
"U.U.U.U.U.U.U.U.U.U.U.U.U.U.U.U.0.A.( g.h.R R 4 t r r b 2 @ + + , r , % $ % % % ; 8 r @ , 2 8 P Y U.U.U.U.U.U.U.U.U.U.U.U.U.U.U.",
"U.U.U.U.U.U.U.U.U.U.U.U.U.U.U.U./ A.A.[ h.k.A.6.W , 2 r r t r , 6 W ^ g.A.B.k.a.L R , 8 r r ; %.Y U.U.U.U.U.U.U.U.U.U.U.U.U.U.U.",
"U.U.U.U.U.U.U.U.U.U.U.U.U.U.U.U.` F.A.A.k.d.A.A.B.g.a.% + % % A.C.B.F.F.A.a.B.F.F.B.g.R + 7 g.Y U.U.U.U.U.U.U.U.U.U.U.U.U.U.U.U.",
"U.U.U.U.U.U.U.U.U.U.U.U.U.U.U.U.U. .Y Y T d.B.A.F.h.h.k.a.h.i.g.A.F.F.F.F.F.F.F.F.F.g.i.a.g.a.Y U.U.U.U.U.U.U.U.U.U.U.U.U.U.U.U.",
"U.U.U.U.U.U.U.U.U.U.U.U.U.U.U.U.U.U.U.U.X a g.d.A.F.A.j.j.j.j.A.F.F.A.N.N.N.N.N.F.F.A.j.j.j.p._ U.U.U.U.U.U.U.U.U.U.U.U.U.U.U.U.",
"U.U.U.U.U.U.U.U.U.U.U.U.U.U.U.U.U.U.U.U.U.3 o d.h.A.A.F.A.F.A.A.F.F.A.t.q.q.t.q.F.F.F.F.A.y.U.U.U.U.U.U.U.U.U.U.U.U.U.U.U.U.U.U.",
"U.U.U.U.U.U.U.U.U.U.U.U.U.U.U.U.U.U.U.U.U.U.4 X [ d.B.B.A.A.F.F.F.F.F.F.F.F.F.F.F.F.F.F.t...U.U.U.U.U.U.U.U.U.U.U.U.U.U.U.U.U.U.",
"U.U.U.U.U.U.U.U.U.U.U.U.U.U.U.U.U.U.U.U.U.U.9 U.X T g.h.h.Z.V.A.F.F.F.F.F.F.F.F.A.F.A.Y U.U.U.U.U.U.U.U.U.U.U.U.U.U.U.U.U.U.U.U.",
"U.U.U.U.U.U.U.U.U.U.U.U.U.U.U.U.U.U.U.U.U.U.U.U.3 U.U.' W W d.B.B.B.B.B.B.B.0.0.3. ._ U.U.U.U.U.U.U.U.U.U.U.U.U.U.U.U.U.U.U.U.U.",
"U.U.U.U.U.U.U.U.U.U.U.U.U.U.U.U.U.U.U.U.U.U.U.U.U.U.U.X ; o . g.h.d.e.N $ o U.U.U.U.U.U.U.U.U.U.U.U.U.U.U.U.U.U.U.U.U.U.U.U.U.U.",
"U.U.U.U.U.U.U.U.U.U.U.U.U.U.U.U.U.U.U.U.U.U.U.U.U.U.X y y d 4 o j.h.N + y i X U.U.U.U.U.U.U.U.U.U.U.U.U.U.U.U.U.U.U.U.U.U.U.U.U.",
"U.U.U.U.U.U.U.U.U.U.U.U.U.U.U.U.U.U.U.U.U.U.U.U.U.X y y y y r 3 % + ; 4 y y y X U.U.U.U.U.U.U.U.U.U.U.U.U.U.U.U.U.U.U.U.U.U.U.U.",
"U.U.U.U.U.U.U.U.U.U.U.U.U.U.U.U.U.U.U.U.U.U.U.U.X t y y y y y y y y y y y y y y s U.U.U.U.U.U.U.U.U.U.U.U.U.U.U.U.U.U.U.U.U.U.U.",
"U.U.U.U.U.U.U.U.U.U.U.U.U.U.U.U.U.U.U.U.U.U.U.X c.P.P.x.x.z.z.x.x.x.z.z.z.z.l.P.J U.U.U.U.U.U.U.U.U.U.U.U.U.U.U.U.U.U.U.U.U.U.U.",
"U.U.U.U.U.U.U.U.U.U.U.U.U.U.U.U.U.U.U.U.U.U.U.y y } ,.<.c.c.c.c.c.c.c.c.c.c.x.z.y : U.U.U.U.U.U.U.U.U.U.U.U.U.U.U.U.U.U.U.U.U.U.",
"U.U.U.U.U.U.U.U.U.U.U.U.U.U.U.U.U.U.U.U.U.U.J -.y y X r y y y y y y y i y y y X v P.  U.U.U.U.U.U.U.U.U.U.U.U.U.U.U.U.U.U.U.U.U.",
"U.U.U.U.U.U.U.U.U.U.U.U.U.U.U.U.U.U.U.U.U.U.H H.P.H.v :.:.:.:.:.:.>.:.:.:.:.:.O.+.P.O U.U.U.U.U.U.U.U.U.U.U.U.U.U.U.U.U.U.U.U.U.",
"U.U.U.U.U.U.U.U.U.U.U.U.U.U.U.U.U.U.U.U.U.X y y o.-.S L.H.H.H.L.H.H.H.H.H.H.H.G.w B y X U.U.U.U.U.U.U.U.U.U.U.U.U.U.U.U.U.U.U.U.",
"U.U.U.U.U.U.U.U.U.U.U.U.U.U.U.U.U.U.U.U.  P.P.y y X : y y y y y y y i y i i y y 3 3 P.J.X U.U.U.U.U.U.U.U.U.U.U.U.U.U.U.U.U.U.U.",
"U.U.U.U.U.U.U.U.U.U.U.U.U.U.U.U.U.U.U.U.X O.P.P.P.X >.,.,.,.,.,.,.,.,.,.,.,.,.,.>.G P.y X U.U.U.U.U.U.U.U.U.U.U.U.U.U.U.U.U.U.U.",
"U.U.U.U.U.U.U.U.U.U.U.U.U.U.U.U.U.U.U.U.y y y d -.X 1.1.l.1.l.1.1.l.1.1.1.1.1.1.2.c B y y w U.U.U.U.U.U.U.U.U.U.U.U.U.U.U.U.U.U.",
"U.U.U.U.U.U.U.U.U.U.U.U.U.U.U.U.U.U.U.X G.P.x.h X 8 y y y y y y y y y y y y y i y r 1 P.P.w U.U.U.U.U.U.U.U.U.U.U.U.U.U.U.U.U.U.",
"U.U.U.U.U.U.U.U.U.U.U.U.U.U.U.U.U.U.U.X m.P.P.P.X o.+.+.+.+.+.+.+.+.+.+.+.+.+.+.+.J c I.M.M U.U.U.U.U.U.U.U.U.U.U.U.U.U.U.U.U.U.",
"U.U.U.U.U.U.U.U.U.U.U.U.U.U.U.U.U.U.U.U.Y A.A.P.  v.P.P.P.P.P.P.P.P.P.P.P.P.P.P.P.z.e A.Y U.U.U.U.U.U.U.U.U.U.U.U.U.U.U.U.U.U.U.",
"U.U.U.U.U.U.U.U.U.U.U.U.U.U.U.U.U.U.U.U.I Z.k.& 4 4 y y y y y y y y y y y y y y y r 7 Z.I U.U.U.U.U.U.U.U.U.U.U.U.U.U.U.U.U.U.U.",
"U.U.U.U.U.U.U.U.U.U.U.U.U.U.U.U.U.U.U.U.U.] ) , l.<.+.+.+.+.+.-.+.+.-.+.+.+.+.-.-.J o ] U.U.U.U.U.U.U.U.U.U.U.U.U.U.U.U.U.U.U.U.",
"U.U.U.U.U.U.U.U.U.U.U.U.U.U.U.U.U.U.U.U.U.U.U.@ 4 3 b.b.n.n.m.m.m.m.m.m.m.m.m.m.b.,.  U.U.U.U.U.U.U.U.U.U.U.U.U.U.U.U.U.U.U.U.U.",
"U.U.U.U.U.U.U.U.U.U.U.U.U.U.U.U.U.U.U.U.U.U.U.X X X O X X X X X X X X X X X O X X X U.U.U.U.U.U.U.U.U.U.U.U.U.U.U.U.U.U.U.U.U.U.",
"U.U.U.U.U.U.U.U.U.U.U.U.U.U.U.U.U.U.U.U.U.U.U.U.- : 4 4 > > : : > : : : : 8 4 4 2 X U.U.U.U.U.U.U.U.U.U.U.U.U.U.U.U.U.U.U.U.U.U.",
"U.U.U.U.U.U.U.U.U.U.U.U.U.U.U.U.U.U.U.U.U.U.U.U.3 4 4 4 4 4 8 O O X X 8 4 8 4 4 4 X U.U.U.U.U.U.U.U.U.U.U.U.U.U.U.U.U.U.U.U.U.U.",
"U.U.U.U.U.U.U.U.U.U.U.U.U.U.U.U.U.U.U.U.U.U.U.U.4 4 4 4 4 4 3 X U.U.X 4 4 4 8 4 4 X U.U.U.U.U.U.U.U.U.U.U.U.U.U.U.U.U.U.U.U.U.U.",
"U.U.U.U.U.U.U.U.U.U.U.U.U.U.U.U.U.U.U.U.U.U.U.U.3 4 4 4 8 4 X U.U.U.U.3 4 4 8 8 4 X U.U.U.U.U.U.U.U.U.U.U.U.U.U.U.U.U.U.U.U.U.U.",
"U.U.U.U.U.U.U.U.U.U.U.U.U.U.U.U.U.U.U.U.U.U.U.U.- l X.*.;.n X U.U.U.U.: k D ;.;.! X U.U.U.U.U.U.U.U.U.U.U.U.U.U.U.U.U.U.U.U.U.U.",
"U.U.U.U.U.U.U.U.U.U.U.U.U.U.U.U.U.U.U.U.U.U.U.U.X X X X X X U.U.U.U.U.X X X X X   > U.U.U.U.U.U.U.U.U.U.U.U.U.U.U.U.U.U.U.U.U.U.",
"U.U.U.U.U.U.U.U.U.U.U.U.U.U.U.U.U.U.U.U.U.U.U.U.U.< < < < < U.U.U.U.U.< < * * * > U.U.U.U.U.U.U.U.U.U.U.U.U.U.U.U.U.U.U.U.U.U.U.",
"U.U.U.U.U.U.U.U.U.U.U.U.U.U.U.U.U.U.U.U.U.U.U.U.U.U.U.U.U.U.U.U.U.U.U.U.U.U.U.U.U.U.U.U.U.U.U.U.U.U.U.U.U.U.U.U.U.U.U.U.U.U.U.U.",
"U.U.U.U.U.U.U.U.U.U.U.U.U.U.U.U.U.U.U.U.U.U.U.U.U.U.U.U.U.U.U.U.U.U.U.U.U.U.U.U.U.U.U.U.U.U.U.U.U.U.U.U.U.U.U.U.U.U.U.U.U.U.U.U.",
"U.U.U.U.U.U.U.U.U.U.U.U.U.U.U.U.U.U.U.U.U.U.U.U.U.U.U.U.U.U.U.U.U.U.U.U.U.U.U.U.U.U.U.U.U.U.U.U.U.U.U.U.U.U.U.U.U.U.U.U.U.U.U.U."
};
