/* XPM */
static char *wall1762389887[] = {
/* columns rows colors chars-per-pixel */
"64 64 37 1 ",
"  c black",
". c #060606",
"X c gray3",
"o c #0C0C0C",
"O c gray8",
"+ c #1B1B1B",
"@ c #1D1D1D",
"# c #222222",
"$ c #252525",
"% c #282828",
"& c gray19",
"* c gray21",
"= c #3A3A3A",
"- c gray28",
"; c #4E4E4E",
": c #535353",
"> c gray36",
", c #626262",
"< c #646464",
"1 c #767676",
"2 c gray49",
"3 c #8E8E8E",
"4 c #939393",
"5 c #9D9D9D",
"6 c #A0A0A0",
"7 c gray67",
"8 c #B2B2B2",
"9 c gray79",
"0 c #CECECE",
"q c #D2D2D2",
"w c gainsboro",
"e c gray92",
"r c #EFEFEF",
"t c #F6F6F6",
"y c #F8F8F8",
"u c #FCFBFC",
"i c white",
/* pixels */
"     e                                                        i ",
"                                                                ",
"                                                     1.         ",
"                                             ..                 ",
" .>                 .                        ui X               ",
"  X                                  i       ii  .              ",
"                                              .                 ",
"                            X+               .                  ",
"                            .3 .     .                          ",
"                                                   <            ",
"$@.    i                                                    2   ",
"                                        .           .       2X  ",
"                                                                ",
"                                                 o .            ",
"                                                        +       ",
"                             .                                  ",
"                             ,        .                         ",
"                            &9  .                               ",
"               +           09it0*                               ",
"                            Xie    #.                        .  ",
"                             < .             X             .#   ",
"                             >               XX             O   ",
"                    X                        .                  ",
"                                                                ",
"                    .                       i                   ",
"                   .                        .w          .       ",
"                              X.                         .      ",
"                              :8   .                            ",
"                                                                ",
"                                      .   .       .  o+.  .     ",
"     q         .                                     6ii        ",
"     w                                     .          ir .      ",
"     i.                                              .     .    ",
"    iiy                                        .       ..       ",
"   .-w=.               .;$                                      ",
"     w                                                .         ",
"                         .     ,                                ",
"                               7         O          6 .         ",
"   4.                          X           .                  X ",
"                           O.               X                   ",
"   @                                           .              . ",
"  o                                  i                          ",
"  .                                                            X",
"                                                                ",
"                  %                                             ",
"                                     .          X               ",
"           i                               X .                  ",
"                                                      @         ",
"                        +                             .         ",
"                                                                ",
"                                                           5.   ",
"                         .                                      ",
".                              .            .  rt               ",
"@                i           1             .X                   ",
"  .              O                             .         O      ",
"            +.       .                                          ",
"            +                                                 o ",
"                   .X .                             ..        . ",
"                   &o                              Xt$          ",
"               .                                       .        ",
"                              .                                 ",
"                                                                ",
"           O                        .                           ",
"                                                                "
};
